<svg width="16" height="16" viewBox="0 0 16 16" fill="none" xmlns="http://www.w3.org/2000/svg">
<path d="M8.66667 15.3333H14C14.1768 15.3333 14.3464 15.2631 14.4714 15.138C14.5964 15.013 14.6667 14.8434 14.6667 14.6666V1.33329C14.6667 1.15648 14.5964 0.986912 14.4714 0.861888C14.3464 0.736864 14.1768 0.666626 14 0.666626H8.66667C8.48986 0.666626 8.32029 0.736864 8.19526 0.861888C8.07024 0.986912 8 1.15648 8 1.33329C8 1.5101 8.07024 1.67967 8.19526 1.8047C8.32029 1.92972 8.48986 1.99996 8.66667 1.99996H13.3333V14H8.66667C8.48986 14 8.32029 14.0702 8.19526 14.1952C8.07024 14.3202 8 14.4898 8 14.6666C8 14.8434 8.07024 15.013 8.19526 15.138C8.32029 15.2631 8.48986 15.3333 8.66667 15.3333Z" fill="white"/>
<path d="M1.3335 7.99996C1.3335 8.17677 1.40373 8.34634 1.52876 8.47136C1.65378 8.59639 1.82335 8.66662 2.00016 8.66662H9.72416L8.1955 10.1953C8.13182 10.2568 8.08103 10.3303 8.04609 10.4117C8.01116 10.493 7.99276 10.5805 7.992 10.669C7.99123 10.7575 8.00809 10.8453 8.04161 10.9273C8.07514 11.0092 8.12464 11.0836 8.18723 11.1462C8.24983 11.2088 8.32426 11.2583 8.40619 11.2918C8.48812 11.3254 8.57591 11.3422 8.66443 11.3415C8.75295 11.3407 8.84043 11.3223 8.92177 11.2874C9.0031 11.2524 9.07666 11.2016 9.13816 11.138L11.8048 8.47129C11.867 8.4092 11.9162 8.33531 11.9495 8.25396C12.0169 8.09087 12.0169 7.90771 11.9495 7.74462C11.9162 7.66327 11.867 7.58938 11.8048 7.52729L9.13816 4.86063C9.07666 4.79696 9.0031 4.74617 8.92177 4.71123C8.84043 4.67629 8.75295 4.6579 8.66443 4.65713C8.57591 4.65636 8.48812 4.67323 8.40619 4.70675C8.32426 4.74027 8.24983 4.78977 8.18723 4.85237C8.12464 4.91496 8.07514 4.9894 8.04161 5.07133C8.00809 5.15326 7.99123 5.24104 7.992 5.32956C7.99276 5.41808 8.01116 5.50556 8.04609 5.5869C8.08103 5.66823 8.13182 5.7418 8.1955 5.80329L9.72416 7.33329H2.00016C1.82335 7.33329 1.65378 7.40353 1.52876 7.52855C1.40373 7.65358 1.3335 7.82315 1.3335 7.99996Z" fill="white"/>
</svg>
