<svg width="192" height="33" viewBox="0 0 192 33" fill="none" xmlns="http://www.w3.org/2000/svg">
<g clip-path="url(#clip0)">
<path d="M191.333 0H146V32H191.333V0Z" fill="#CBDB2A"/>
<path d="M157.296 20.8394C158.073 20.8394 159.982 20.7061 161.412 19.6722V20.4556H164.292L164.298 17.0179L165.5 15.7867L168.117 20.4556H171.574L167.604 13.7828L171.472 9.57755H167.933L164.292 13.7028V5.77742H161.406V7.02992C160.527 6.09721 159.103 5.39368 156.886 5.39368C152.08 5.39368 151.173 8.28242 151.173 9.90267C151.173 12.1252 152.382 13.3617 154.491 13.8627L157.479 14.5875C159.054 14.9713 160.182 15.2538 160.182 16.405C160.182 17.94 158.542 18.3077 157.069 18.3077C154.367 18.3077 153.919 16.7514 153.919 15.9253H150.952C150.952 17.7481 151.891 20.8394 157.296 20.8394ZM159.259 12.0879L155.64 11.2191C155.025 11.0752 154.065 10.8354 154.065 9.68415C154.065 8.36769 155.478 7.92532 156.665 7.92532C159.367 7.92532 159.61 9.48162 159.691 10.1478H161.412V12.882C160.78 12.5143 160.031 12.2798 159.259 12.0879Z" fill="#656868"/>
<path d="M153.439 27.2512C153.142 27.2512 152.916 27.2245 152.754 27.1766V26.3025C152.872 26.3558 152.991 26.3824 153.104 26.3824C153.32 26.3824 153.477 26.2918 153.574 26.0999L153.595 26.0573L151.524 22.2678H152.759L154.092 25.0127L155.1 22.2732H156.287L154.496 26.3558C154.415 26.5476 154.302 26.7129 154.173 26.8461C154.038 26.9793 153.903 27.0806 153.768 27.1499C153.633 27.2139 153.525 27.2512 153.439 27.2512Z" fill="#656868"/>
<path d="M159.41 27.1766H158.445V25.6789C158.348 25.7322 158.196 25.8015 157.986 25.8868C157.776 25.972 157.565 26.0147 157.355 26.0147C156.967 26.0147 156.665 25.9134 156.438 25.7109C156.211 25.5084 156.104 25.1886 156.104 24.7462V23.547H157.069V24.7195C157.069 25.0447 157.279 25.2099 157.7 25.2099C157.83 25.2099 157.97 25.1832 158.116 25.1246C158.267 25.066 158.374 25.0233 158.445 24.986V23.547H159.41V27.1766Z" fill="#656868"/>
<path d="M163.483 26.4623C163.483 26.6595 163.499 26.7981 163.537 26.8727C163.574 26.9527 163.628 27.0006 163.698 27.0273V27.1712H162.652C162.609 27.0326 162.576 26.8887 162.566 26.7395C162.409 26.8994 162.242 27.0273 162.069 27.1232C161.897 27.2192 161.665 27.2671 161.373 27.2671C161.179 27.2671 160.996 27.2298 160.829 27.1552C160.656 27.0806 160.521 26.9633 160.413 26.8034C160.311 26.6435 160.257 26.4463 160.257 26.2118C160.257 25.9827 160.3 25.7855 160.392 25.6256C160.483 25.4603 160.607 25.3324 160.764 25.2418C160.92 25.1512 161.109 25.0872 161.325 25.0553L162.193 24.9274C162.42 24.8954 162.533 24.7994 162.533 24.6395C162.533 24.4637 162.474 24.3464 162.35 24.2931C162.226 24.2398 162.075 24.2132 161.897 24.2132C161.681 24.2132 161.535 24.2611 161.454 24.3571C161.373 24.453 161.32 24.5756 161.303 24.7195H160.37C160.402 24.3677 160.5 24.1012 160.661 23.9147C160.818 23.7282 161.012 23.6056 161.233 23.5416C161.46 23.4777 161.719 23.4457 162.015 23.4457C162.231 23.4457 162.452 23.4723 162.673 23.531C162.895 23.5896 163.083 23.6962 163.245 23.8507C163.407 24.0053 163.488 24.2238 163.488 24.4956V26.4623H163.483ZM162.533 25.407C162.425 25.487 162.21 25.5563 161.875 25.6042C161.735 25.6256 161.622 25.6575 161.53 25.6948C161.438 25.7322 161.363 25.7855 161.303 25.8547C161.249 25.924 161.217 26.0253 161.217 26.1532C161.217 26.3024 161.266 26.4144 161.357 26.4837C161.449 26.5529 161.551 26.5902 161.67 26.5902C161.816 26.5902 161.956 26.5583 162.085 26.4996C162.22 26.441 162.328 26.3557 162.409 26.2491C162.49 26.1425 162.533 26.0146 162.533 25.8707V25.407Z" fill="#656868"/>
<path d="M167.485 25.8494C167.474 25.972 167.442 26.1052 167.388 26.2598C167.334 26.4144 167.248 26.5689 167.124 26.7235C167 26.8781 166.827 27.0113 166.611 27.1126C166.39 27.2192 166.126 27.2671 165.813 27.2671C165.484 27.2671 165.209 27.2138 164.988 27.1019C164.761 26.99 164.588 26.8461 164.464 26.6702C164.34 26.4943 164.249 26.2971 164.195 26.0892C164.141 25.8814 164.114 25.6682 164.114 25.455C164.114 25.0553 164.173 24.6982 164.297 24.3997C164.421 24.0959 164.615 23.8614 164.874 23.6962C165.139 23.5256 165.468 23.4457 165.872 23.4457C166.104 23.4457 166.336 23.4883 166.574 23.5683C166.811 23.6482 167.016 23.7921 167.188 24C167.367 24.2078 167.469 24.485 167.496 24.8367H166.514C166.444 24.4477 166.228 24.2505 165.872 24.2505C165.683 24.2505 165.532 24.3038 165.419 24.4104C165.306 24.517 165.225 24.6502 165.176 24.8048C165.128 24.9647 165.106 25.1299 165.106 25.3004C165.106 25.4976 165.122 25.6789 165.149 25.8441C165.176 26.0093 165.247 26.1585 165.354 26.2865C165.468 26.4144 165.63 26.4837 165.851 26.4837C165.996 26.4837 166.12 26.4463 166.223 26.3717C166.32 26.2971 166.396 26.2065 166.439 26.1052C166.487 26.004 166.509 25.9187 166.509 25.8494H167.485Z" fill="#656868"/>
<path d="M168.952 27.1765V24.3091H167.852V23.5416H171.018V24.3091H169.918V27.1765H168.952Z" fill="#656868"/>
<path d="M174.849 27.1766H173.883V25.7429H172.508V27.1766H171.542V23.547H172.508V24.9807H173.883V23.547H174.849V27.1766Z" fill="#656868"/>
<path d="M179.023 27.1766H178.058V24.9914L176.752 27.1766H175.717V23.547H176.682V25.7322L177.988 23.547H179.023V27.1766Z" fill="#656868"/>
<path d="M180.858 27.1766H179.892V23.547H180.858V24.9274L182.071 23.547H183.28L181.958 24.9541L183.334 27.1766H182.158L181.251 25.6203L180.852 26.0307V27.1766H180.858Z" fill="#656868"/>
</g>
<path d="M15.655 0.481689C7.04934 0.481689 0 7.5928 0 16.4817C0 25.277 6.95779 32.4817 15.655 32.4817C24.2607 32.4817 31.3101 25.3706 31.3101 16.4817C31.3101 7.68637 24.2607 0.481689 15.655 0.481689ZM15.655 31.1717C7.69019 31.1717 1.28169 24.622 1.28169 16.4817C1.28169 8.34134 7.69019 1.79163 15.655 1.79163C23.6199 1.79163 30.0284 8.34134 30.0284 16.4817C30.1199 24.622 23.6199 31.1717 15.655 31.1717Z" fill="white"/>
<path d="M15.6551 28.4583C16.2044 28.4583 16.4791 28.084 16.5706 27.6162C16.6622 27.8033 16.8453 27.9904 17.0284 28.084C17.2115 28.084 17.4861 28.084 17.6692 27.9904C17.8523 27.8969 18.0354 27.7097 18.127 27.5226C18.2185 27.3355 18.2185 27.0548 18.127 26.8676C18.4016 27.2419 18.7678 27.3355 19.2256 27.1483C19.7749 26.8676 19.958 26.4934 19.6833 25.932C19.0425 24.3413 18.4016 22.8442 17.7608 21.2536C17.6692 21.0665 17.6692 20.9729 17.5777 20.7858C17.4861 20.6922 17.4861 20.5986 17.3946 20.5051C17.3946 20.4115 17.303 20.4115 17.2115 20.3179C18.2185 20.4115 18.6763 20.7858 18.9509 20.9729C19.0425 21.0665 19.0425 21.0665 19.3171 20.9729C19.4087 20.9729 19.5918 20.9729 19.6833 20.9729C19.7749 21.0665 19.958 21.16 20.0495 21.16C20.4157 21.4407 20.7819 21.7214 21.1481 22.0021C21.3312 22.1893 21.5143 22.3764 21.5143 22.6571C21.5143 22.8442 20.965 23.3121 20.8735 23.4992C20.5073 23.8735 21.0566 24.4349 21.789 24.4349C21.6059 24.2478 21.5143 24.0606 21.6059 23.8735C21.6974 23.8735 21.789 23.8735 21.9721 23.7799C22.1552 23.6864 22.0636 23.2185 22.1552 23.1249C22.4298 22.8442 23.1622 22.8442 23.7115 22.8442C23.8946 22.8442 24.1693 22.7507 24.0777 22.47C24.3524 22.47 24.4439 22.7507 24.4439 22.9378C24.7186 22.7507 24.9017 22.0957 23.9862 21.9086C24.1693 21.7214 24.4439 21.7214 24.627 21.9086C24.8101 21.6279 24.3524 21.16 23.62 21.4407C23.62 21.4407 23.2538 20.9729 22.3383 22.0957C22.2467 22.0021 22.0636 21.9086 21.9721 21.815C21.6059 21.4407 20.6904 20.5051 20.6904 20.5051C20.6904 19.9437 20.5988 18.9144 19.958 18.353C19.6833 18.0723 19.4087 17.9787 18.7678 17.7916C18.7678 17.7916 19.0425 17.3238 19.134 17.1366C19.6833 17.698 20.7819 17.8852 20.7819 16.9495C21.6974 17.8852 22.5214 17.3238 22.5214 16.7624C22.5214 17.0431 22.6129 17.3238 22.7045 17.6045C22.796 17.8852 23.2538 19.1016 24.2608 19.1016C24.2608 19.4758 24.2608 20.8793 25.5425 21.16C25.6341 21.16 25.6341 21.16 25.7256 21.2536C26.2749 21.9086 28.3806 22.5635 28.5637 22.3764C28.3806 22.2828 28.1059 22.0957 28.1059 21.3472C28.1059 20.8793 28.0144 18.2594 28.0144 14.6103C28.0144 13.3004 27.9228 9.08986 23.8031 8.52845C23.1622 8.43489 22.6129 8.52846 22.0636 8.90272C21.3312 9.46413 20.965 10.3998 21.4228 11.429V11.5226C21.6059 11.8033 21.5143 11.9904 21.3312 12.1776C20.965 12.5518 20.5988 12.739 20.1411 12.8325C19.8664 12.8325 19.5918 12.739 19.4087 12.5518C18.9509 12.084 18.6763 11.5226 18.4932 10.8676C18.3101 9.65126 18.5847 8.99629 18.5847 8.90272C18.9509 8.24775 19.5918 7.68635 20.4157 7.68635C20.7819 6.93781 21.8805 7.21851 21.8805 7.21851C22.1552 7.31208 22.2467 7.31208 22.3383 7.49922C22.3383 7.49922 22.796 6.75068 22.3383 6.46998C21.8805 6.18928 20.8735 6.09571 20.8735 6.09571C20.8735 5.62787 20.1411 5.2536 18.6763 5.5343C17.0284 5.81501 16.6622 5.16003 16.6622 5.16003C16.5706 6.00214 17.2115 6.37641 17.3946 6.56354C16.7537 7.31208 15.8382 8.71559 15.6551 10.6805C15.472 8.71559 14.5565 7.31208 13.9157 6.56354C14.0988 6.46998 14.7396 6.00214 14.6481 5.16003C14.6481 5.16003 14.2819 5.81501 12.634 5.5343C11.2607 5.2536 10.4368 5.62787 10.4368 6.09571C10.4368 6.09571 9.42972 6.18928 8.97197 6.46998C8.51422 6.75068 8.97197 7.49922 8.97197 7.49922C9.06352 7.40565 9.15507 7.31208 9.42972 7.21851C9.42972 7.21851 10.5283 6.93781 10.8945 7.68635C11.7185 7.77991 12.3593 8.24775 12.7255 8.90272C12.7255 8.90272 13.0917 9.55769 12.8171 10.8676C12.7255 11.5226 12.3593 12.084 11.9016 12.5518C11.7185 12.739 11.4438 12.9261 11.1692 12.8325C10.7114 12.739 10.3452 12.5518 9.97902 12.1776C9.79592 11.9904 9.70437 11.8033 9.88747 11.5226V11.429C10.3452 10.3998 9.97902 9.46413 9.24662 8.90272C8.69732 8.52846 8.14802 8.43489 7.50717 8.52845C3.47898 9.08986 3.29588 13.3004 3.29588 14.6103C3.29588 18.2594 3.20433 20.8793 3.20433 21.3472C3.20433 22.0957 2.92968 22.2828 2.74658 22.3764C3.02123 22.5635 5.12688 21.9086 5.58463 21.2536C5.58463 21.2536 5.67617 21.16 5.76772 21.16C7.04942 20.8793 7.04942 19.4758 7.04942 19.1016C8.05647 19.1016 8.51422 17.8852 8.60577 17.6045C8.69732 17.3238 8.78887 17.0431 8.78887 16.7624C8.78887 17.3238 9.61282 17.7916 10.5283 16.9495C10.5283 17.8852 11.6269 17.698 12.1762 17.1366C12.2678 17.3238 12.5424 17.7916 12.5424 17.7916C11.9016 17.8852 11.6269 18.0723 11.3523 18.353C10.6199 19.008 10.6199 20.0372 10.6199 20.5051C10.6199 20.5051 9.70437 21.4407 9.33817 21.815C9.24662 21.9086 9.06352 22.0021 8.97197 22.0957C7.96492 20.9729 7.69027 21.4407 7.69027 21.4407C6.95787 21.16 6.59167 21.6279 6.68322 21.9086C6.86632 21.7214 7.14098 21.815 7.32408 21.9086C6.31703 22.0957 6.59168 22.8442 6.86633 22.9378C6.86633 22.7507 6.95787 22.47 7.23252 22.47C7.23252 22.7507 7.41562 22.8442 7.59872 22.8442C8.05647 22.8442 8.88042 22.8442 9.15508 23.1249C9.33817 23.2185 9.24662 23.6864 9.33817 23.7799C9.42972 23.8735 9.61282 23.8735 9.70437 23.8735C9.70437 24.0606 9.70437 24.1542 9.52127 24.4349C10.2537 24.5285 10.7114 23.8735 10.4368 23.4992C10.2537 23.3121 9.79592 22.8442 9.79592 22.6571C9.79592 22.47 9.97902 22.1893 10.1621 22.0021C10.5283 21.7214 10.8945 21.4407 11.2607 21.16C11.3523 21.0665 11.4438 20.9729 11.6269 20.9729C11.7185 20.8793 11.9016 20.8793 11.9931 20.9729C12.2678 21.0665 12.2678 21.0665 12.3593 20.9729C12.634 20.7858 13.0917 20.4115 14.0988 20.3179C14.0072 20.3179 14.0072 20.4115 13.9157 20.5051C13.8241 20.5986 13.8241 20.6922 13.7326 20.7858C13.641 20.8793 13.641 21.0665 13.5495 21.2536C12.9086 22.8442 12.2678 24.3413 11.6269 25.932C11.4438 26.4934 11.6269 26.8676 12.0847 27.1483C12.4509 27.3355 12.9086 27.2419 13.1833 26.8676C13.0917 27.1483 13.0917 27.3355 13.1833 27.5226C13.2748 27.7097 13.4579 27.8969 13.641 27.9904C13.8241 28.084 14.0988 28.084 14.2819 28.084C14.5565 27.9904 14.6481 27.8969 14.7396 27.6162C14.8312 28.084 15.1058 28.4583 15.6551 28.4583Z" fill="white"/>
<path d="M42.0216 10.8677C42.8456 10.8677 44.6766 10.7741 45.6836 10.6805C45.6836 10.8677 45.6836 11.1484 45.6836 11.2419C45.6836 11.3355 45.6836 11.6162 45.6836 11.8033C44.7681 11.7098 43.3033 11.6162 42.8456 11.6162C42.4794 11.6162 41.2892 11.6162 40.5568 11.7098V15.6396H41.3808C43.0287 15.6396 46.3245 15.9203 46.3245 18.8209C46.3245 21.1601 44.4019 22.1893 41.9301 22.1893C41.6554 22.1893 40.6484 22.1893 39.916 22.1893C39.6413 22.1893 39.2751 22.1893 39.0005 22.1893C39.092 20.4115 39.092 18.0724 39.092 16.1074C39.092 14.3297 39.092 11.6162 39.0005 10.7741C40.0075 10.7741 41.6554 10.8677 42.0216 10.8677ZM40.5568 21.3472C40.923 21.3472 41.4723 21.3472 41.8385 21.3472C43.6695 21.3472 44.6766 20.5051 44.6766 18.8209C44.6766 17.0431 43.3949 16.4817 40.4653 16.4817V21.3472H40.5568Z" fill="white"/>
<path d="M48.0637 15.1718C48.7045 14.4232 49.8031 14.049 50.7186 14.049C52.3665 14.049 53.4651 14.8911 53.4651 16.856V20.7858C53.4651 21.6279 53.6482 21.815 53.9229 21.815C54.0144 21.815 54.1975 21.815 54.2891 21.7215L54.3806 22.0957C53.9229 22.3764 53.4651 22.3764 53.1905 22.3764C52.6412 22.3764 52.3665 22.0957 52.275 21.7215L52.1834 21.3472C51.3595 22.0022 50.444 22.3764 49.7116 22.3764C48.3384 22.3764 47.4229 21.6279 47.4229 20.318C47.4229 18.9144 48.4299 18.2595 49.8947 17.9788L51.451 17.6981C52.0003 17.6045 52.275 17.4174 52.275 17.0431C52.275 15.3589 51.5426 14.8911 50.3524 14.8911C49.4369 14.8911 48.7961 15.1718 48.2468 16.201H48.0637V15.1718ZM52.275 18.1659L51.2679 18.353C50.1693 18.5402 48.8876 18.9144 48.8876 20.1308C48.8876 21.0665 49.3454 21.5343 50.3524 21.5343C50.9933 21.5343 51.5426 21.3472 52.1834 20.5987V18.1659H52.275Z" fill="white"/>
<path d="M56.5779 14.3297C56.761 14.3297 57.0356 14.3297 57.3103 14.3297C57.2187 15.546 57.1272 17.511 57.1272 17.6045C57.768 17.6045 58.6835 17.6981 59.2328 17.6981C59.7821 17.6981 60.6976 17.6981 61.1554 17.6045C61.1554 17.511 61.1554 15.546 61.0638 14.3297C61.3385 14.3297 61.7046 14.3297 61.8877 14.3297C62.0708 14.3297 62.3455 14.3297 62.6202 14.3297C62.5286 15.546 62.4371 17.511 62.4371 18.3531C62.4371 19.008 62.4371 21.1601 62.6202 22.3765C62.3455 22.3765 62.1624 22.3765 61.8877 22.3765C61.6131 22.3765 61.3385 22.3765 61.0638 22.3765C61.1554 21.1601 61.1554 19.008 61.1554 18.5402C60.5145 18.4466 59.5075 18.4466 59.2328 18.4466C58.7751 18.4466 57.768 18.4466 57.1272 18.5402C57.1272 19.1016 57.1272 21.1601 57.3103 22.3765C57.0356 22.3765 56.8525 22.3765 56.5779 22.3765C56.3032 22.3765 56.0286 22.3765 55.7539 22.3765C55.8455 21.1601 55.937 19.008 55.937 18.3531C55.937 17.511 55.937 15.546 55.7539 14.3297C56.0286 14.2361 56.3948 14.3297 56.5779 14.3297Z" fill="white"/>
<path d="M65.4582 14.3296C65.6413 14.3296 65.916 14.3296 66.1906 14.3296C66.0991 15.546 66.0991 17.5109 66.0991 17.7916H66.3737C66.923 17.7916 69.4864 14.7975 69.7611 14.3296C69.9442 14.3296 70.3104 14.3296 70.4935 14.3296C70.6766 14.3296 71.0428 14.3296 71.2259 14.3296L67.5639 17.6981C68.0216 18.2595 70.4935 21.0665 71.5921 22.2829C71.1343 22.2829 70.8597 22.2829 70.6766 22.2829C70.4019 22.2829 69.9442 22.2829 69.6695 22.2829C69.1202 21.3472 67.3808 19.2887 66.3737 18.1659H66.0991C66.0991 18.7273 66.0991 21.0665 66.1906 22.2829C66.0075 22.2829 65.7329 22.2829 65.4582 22.2829C65.1836 22.2829 64.9089 22.2829 64.6343 22.2829C64.7258 21.0665 64.8174 18.9145 64.8174 18.2595C64.8174 17.4174 64.8174 15.4525 64.6343 14.2361C64.9089 14.2361 65.1836 14.3296 65.4582 14.3296Z" fill="white"/>
<path d="M78.2753 10.7741C78.8246 10.7741 79.4655 10.6805 79.9232 10.6805C82.7613 10.6805 83.8599 11.5226 83.8599 13.5811C83.8599 16.1074 81.7542 16.9495 79.1908 16.9495C79.0077 16.9495 78.4584 16.9495 78.1838 16.856V19.5694C78.1838 20.318 78.1838 21.3472 78.2753 22.0957C78.0007 22.0957 77.726 22.0957 77.4514 22.0957C77.1767 22.0957 76.8105 22.0957 76.6274 22.0957C76.719 20.318 76.719 17.9788 76.719 16.0139C76.719 14.2361 76.719 11.5226 76.6274 10.6805C77.2683 10.7741 77.9091 10.7741 78.2753 10.7741ZM78.9162 16.201C81.1134 16.201 82.3035 15.3589 82.3035 13.6747C82.3035 12.084 81.1134 11.7098 79.557 11.7098C79.2824 11.7098 78.3669 11.7098 78.1838 11.7098V16.1074C78.4584 16.201 78.7331 16.201 78.9162 16.201Z" fill="white"/>
<path d="M91.9165 18.1659C91.9165 20.5987 90.3602 22.3764 87.9799 22.3764C85.5996 22.3764 84.1348 20.5987 84.1348 18.353C84.1348 15.7332 85.7827 14.049 88.163 14.049C90.4517 14.049 91.9165 15.8267 91.9165 18.1659ZM85.5996 18.353C85.5996 20.1308 86.332 21.815 87.9799 21.815C89.5362 21.815 90.4517 20.2244 90.4517 18.1659C90.4517 16.4817 89.8109 14.7039 88.0714 14.7039C86.4235 14.7039 85.5996 16.4817 85.5996 18.353Z" fill="white"/>
<path d="M99.4234 16.0139H99.2403C98.691 15.0782 97.9586 14.7975 97.1346 14.7975C95.3036 14.7975 94.4797 16.5753 94.4797 18.353C94.4797 20.318 95.5783 21.9086 97.5008 21.9086C98.1417 21.9086 98.691 21.815 99.6065 20.7858L99.7896 20.9729L99.6065 21.7215C98.8741 22.1893 98.0501 22.47 97.0431 22.47C94.6628 22.47 93.1064 20.7858 93.1064 18.353C93.1064 15.8267 94.8459 14.2361 97.3178 14.2361C98.1417 14.2361 98.9656 14.4232 99.9727 14.8911L99.4234 16.0139Z" fill="white"/>
<path d="M107.297 16.0139H107.114C106.565 15.0783 105.832 14.7975 105.008 14.7975C103.177 14.7975 102.353 16.5753 102.353 18.3531C102.353 20.318 103.452 21.9087 105.374 21.9087C106.015 21.9087 106.565 21.8151 107.48 20.7859L107.572 20.973L107.297 21.628C106.565 22.0958 105.741 22.3765 104.734 22.3765C102.353 22.3765 100.797 20.6923 100.797 18.2595C100.797 15.7332 102.536 14.1426 105.008 14.1426C105.832 14.1426 106.656 14.3297 107.663 14.7975L107.297 16.0139Z" fill="white"/>
<path d="M109.586 22.1894C109.494 22.1894 109.219 22.1894 109.128 22.1894C109.219 20.973 109.311 18.8209 109.311 18.166C109.311 17.3239 109.311 15.359 109.128 14.1426C109.403 14.1426 109.769 14.1426 109.952 14.1426C110.135 14.1426 110.41 14.1426 110.684 14.1426C110.593 15.359 110.501 17.3239 110.501 18.166C110.501 18.8209 110.501 19.7566 110.501 20.2245C111.325 19.1952 114.346 15.2654 115.079 14.2361C115.262 14.2361 115.353 14.2361 115.536 14.2361C115.628 14.2361 115.994 14.2361 116.086 14.2361C115.994 15.4525 115.903 17.4174 115.903 18.2595C115.903 18.9145 115.903 21.0666 116.086 22.2829C115.811 22.2829 115.628 22.2829 115.353 22.2829C115.079 22.2829 114.804 22.2829 114.529 22.2829C114.621 21.0666 114.712 18.9145 114.712 18.2595C114.712 17.4174 114.712 16.3882 114.712 16.1075C113.705 17.2303 110.867 20.8794 110.043 22.2829C109.86 22.1894 109.677 22.1894 109.586 22.1894Z" fill="white"/>
<path d="M118.283 22.1894C118.191 22.1894 117.917 22.1894 117.825 22.1894C117.917 20.973 117.917 18.8209 117.917 18.166C117.917 17.3239 117.917 15.359 117.825 14.1426C118.1 14.1426 118.466 14.1426 118.649 14.1426C118.832 14.1426 119.107 14.1426 119.382 14.1426C119.29 15.359 119.198 17.3239 119.198 18.166C119.198 18.8209 119.198 19.7566 119.198 20.2245C120.022 19.1952 123.044 15.2654 123.776 14.2361C123.959 14.2361 124.051 14.2361 124.234 14.2361C124.325 14.2361 124.691 14.2361 124.783 14.2361C124.691 15.4525 124.691 17.4174 124.691 18.2595C124.691 18.9145 124.691 21.0666 124.783 22.2829C124.508 22.2829 124.325 22.2829 124.051 22.2829C123.776 22.2829 123.501 22.2829 123.227 22.2829C123.318 21.0666 123.318 18.9145 123.318 18.2595C123.318 17.4174 123.318 16.3882 123.318 16.1075C122.311 17.2303 119.473 20.8794 118.649 22.2829C118.558 22.1894 118.466 22.1894 118.283 22.1894Z" fill="white"/>
<defs>
<clipPath id="clip0">
<rect width="45.3333" height="32" fill="white" transform="translate(146)"/>
</clipPath>
</defs>
</svg>
