<svg width="100" height="26" viewBox="0 0 100 26" fill="none" xmlns="http://www.w3.org/2000/svg">
<path fill-rule="evenodd" clip-rule="evenodd" d="M56.9606 0.115703L56.9604 0.0564575C56.939 0.0581718 56.9198 0.0593113 56.9021 0.0603635C56.8669 0.0624494 56.8375 0.0641922 56.8085 0.06939L56.4982 0.12355L56.4979 0.123605C56.0248 0.206137 55.5517 0.288679 55.0792 0.374056C54.7286 0.437471 54.3783 0.502391 54.028 0.567312L54.0278 0.567347L54.0275 0.56739C53.6951 0.628988 53.3627 0.690587 53.0301 0.750903C52.6264 0.824054 52.2224 0.895987 51.8184 0.967925C51.445 1.03441 51.0716 1.10089 50.6984 1.16835C50.2755 1.24474 49.8529 1.32294 49.4319 1.40745C49.3898 1.41587 49.3293 1.47272 49.3263 1.51121C49.3143 1.6655 49.3128 1.8222 49.3266 1.97618C49.3305 2.0213 49.3928 2.08957 49.4376 2.09799C49.5462 2.11853 49.6561 2.13281 49.7659 2.14709C49.8844 2.16249 50.0028 2.17789 50.1197 2.20115C50.6541 2.30732 51.0936 2.55935 51.3456 3.06582C51.6202 3.61711 51.733 4.2102 51.7573 4.81953C51.7895 5.61984 51.8166 6.42045 51.8295 7.22137C51.8466 8.30349 51.8578 9.38591 51.8548 10.468C51.846 13.5899 51.8316 16.7114 51.8136 19.833C51.8106 20.3702 51.7977 20.9074 51.7848 21.4445C51.7783 21.7133 51.7719 21.982 51.7666 22.2507C51.7621 22.4827 51.758 22.7148 51.7539 22.9469L51.7539 22.9476L51.7539 22.9483L51.7539 22.949L51.7538 22.9497C51.7472 23.3277 51.7405 23.7058 51.7318 24.0839C51.7294 24.1882 51.7495 24.2436 51.8698 24.2649C52.2373 24.3298 52.6042 24.398 52.9712 24.4661L52.9713 24.4662C53.5426 24.5723 54.1138 24.6783 54.687 24.7723C55.2078 24.8578 55.7354 24.9064 56.2615 24.9549L56.3264 24.9609C56.5319 24.9799 56.7383 24.9876 56.9447 24.9953L56.9448 24.9953L56.9449 24.9953L56.945 24.9953L56.9451 24.9953C57.1041 25.0012 57.2631 25.0072 57.4218 25.0183C58.2046 25.073 58.9875 25.0415 59.7607 24.9395C60.3875 24.8568 61.0083 24.7052 61.6212 24.5443C62.4134 24.3362 63.15 23.987 63.8426 23.5506C64.6369 23.0505 65.3262 22.4324 65.9058 21.6913C66.5464 20.8718 67.0108 19.9596 67.3311 18.9746C67.5744 18.2263 67.7163 17.4564 67.8048 16.6726C67.9539 15.3499 67.8875 14.0437 67.5645 12.7538C67.3954 12.0789 67.1491 11.4298 66.818 10.816C66.4556 10.1444 66.0123 9.53208 65.464 8.99763C65.036 8.58048 64.5641 8.22439 64.0411 7.93386C63.374 7.56333 62.6639 7.32302 61.9087 7.22077C61.0074 7.09836 60.1114 7.15099 59.22 7.32453C58.484 7.46769 57.786 7.71641 57.124 8.06679L57.1084 8.07504C56.9835 8.14113 56.9205 8.17441 56.8894 8.15546C56.8578 8.13624 56.859 8.0633 56.8613 7.91637L56.8615 7.90799C56.8615 7.90544 56.8613 7.90296 56.8612 7.90048L56.861 7.89755L56.8609 7.89296C56.8628 7.43827 56.8641 6.98356 56.8654 6.52883V6.52877V6.52871V6.52864V6.52858C56.8685 5.41993 56.8716 4.31122 56.884 3.20267C56.8916 2.52215 56.9123 1.84178 56.933 1.16145L56.933 1.16047L56.933 1.16026C56.9425 0.849664 56.9519 0.539077 56.9601 0.22849C56.9611 0.192092 56.9609 0.155693 56.9606 0.115703ZM62.5418 15.728L62.5 15.731C62.5214 16.6961 62.4336 17.6552 62.2477 18.599C62.1169 19.263 61.9343 19.9211 61.7181 20.5629C61.4462 21.3707 61.0477 22.1223 60.4681 22.7587C59.8723 23.4132 59.1592 23.8354 58.2365 23.7927C57.8816 23.7762 57.5273 23.7548 57.1727 23.7332C57.0263 23.7242 56.9637 23.6571 56.9604 23.4953C56.9507 23.0172 56.9359 22.5391 56.921 22.061L56.921 22.0599C56.9079 21.6373 56.8948 21.2147 56.8852 20.7921C56.8642 19.8706 56.8491 18.9491 56.8419 18.0275C56.8287 16.2991 56.8166 14.5703 56.8163 12.8419C56.8163 12.2106 56.8243 11.5793 56.8322 10.948C56.8382 10.4724 56.8441 9.99687 56.8467 9.52125C56.8476 9.37749 56.8738 9.30711 57.0287 9.25869C57.5129 9.10681 57.9986 8.97658 58.5099 8.96605C59.4422 8.94711 60.2098 9.30741 60.8368 9.98231C61.3704 10.5565 61.7084 11.2431 61.9608 11.9769C62.1632 12.5649 62.3118 13.1673 62.3776 13.7851C62.4257 14.2357 62.4605 14.6877 62.4954 15.1399L62.4954 15.14L62.4954 15.1401L62.4954 15.1402L62.4954 15.1404L62.4955 15.1406L62.4955 15.1409L62.4955 15.1412L62.4955 15.1415C62.5106 15.337 62.5257 15.5325 62.5418 15.728ZM15.9115 8.83675V8.53569C15.6642 8.53569 15.4354 8.53569 15.2071 8.53659C14.895 8.53659 14.8948 8.53747 14.837 8.83853L14.8344 8.85209C14.6976 9.56338 14.4771 10.244 14.0486 10.8392C13.7406 11.2669 13.3484 11.5805 12.8347 11.7439C12.5399 11.8374 12.2415 11.8482 11.9415 11.8591C11.8877 11.861 11.8339 11.8629 11.78 11.8654C11.5613 11.8753 11.3425 11.8851 11.1238 11.8948L11.1237 11.8948L11.1236 11.8948L11.1236 11.8948L11.1235 11.8948C10.5566 11.92 9.98971 11.9452 9.42294 11.9745C9.2867 11.9818 9.25693 11.9375 9.25873 11.8061C9.2685 11.1448 9.27554 10.4836 9.28258 9.82236C9.28899 9.22109 9.29539 8.61986 9.30384 8.01869C9.31226 7.40274 9.33091 6.7868 9.35076 6.17115C9.36716 5.65971 9.38449 5.14827 9.40181 4.63684L9.40187 4.63527C9.42743 3.88075 9.453 3.12622 9.47558 2.3717C9.47949 2.23967 9.50806 2.19275 9.65122 2.19335C10.9445 2.19906 12.2377 2.19786 13.531 2.19575C14.0594 2.19485 14.577 2.25952 15.0883 2.39636C15.8122 2.59005 16.4486 2.93682 17.005 3.43698C17.7428 4.09984 18.2625 4.9188 18.6691 5.80964C18.855 6.21707 19.0147 6.63647 19.1743 7.05572C19.2279 7.19663 19.2815 7.33752 19.3362 7.47793C19.365 7.55252 19.3843 7.58681 19.4721 7.55854C19.781 7.45899 20.0917 7.36425 20.4035 7.27342C20.4862 7.24936 20.5121 7.20635 20.5082 7.12364C20.4968 6.88875 20.4896 6.65326 20.4844 6.41807L20.4753 6.00151C20.4607 5.33936 20.4461 4.67704 20.4354 4.01473C20.4174 2.89742 20.4008 1.78011 20.3918 0.662801C20.3906 0.519642 20.3464 0.489566 20.2123 0.489566C15.0333 0.491929 9.85433 0.49225 4.67537 0.49257L0.43816 0.492874C0.392388 0.492874 0.34675 0.496992 0.296566 0.50152H0.296565H0.296565C0.271236 0.503805 0.244749 0.506195 0.216502 0.508213C0.216502 0.590345 0.217297 0.671443 0.218085 0.751791V0.751793V0.751794V0.751796V0.751797V0.751798C0.219951 0.942134 0.221775 1.12826 0.212893 1.31394C0.205374 1.46762 0.252593 1.52056 0.408385 1.53229C0.777412 1.56026 1.14704 1.59424 1.51186 1.65349C2.24179 1.77259 2.79879 2.14312 3.14045 2.81591C3.40722 3.34224 3.54587 3.90826 3.60301 4.48481C3.69565 5.42076 3.75429 6.36093 3.79881 7.30079C3.84242 8.21629 3.86557 9.1336 3.87069 10.05C3.87851 11.4127 3.87189 12.7761 3.85354 14.1388C3.83843 15.2714 3.80587 16.4039 3.7733 17.5362L3.76602 17.7897C3.76278 17.9032 3.75977 18.0168 3.75676 18.1305C3.73277 19.0372 3.70878 19.9442 3.56151 20.8435C3.47339 21.3804 3.35279 21.9049 3.09143 22.3852C2.83007 22.8655 2.45322 23.2183 1.90825 23.3503C1.72048 23.3959 1.52984 23.4299 1.33925 23.4638L1.33895 23.4639C1.23934 23.4816 1.13975 23.4994 1.04057 23.5188C0.851379 23.5559 0.66233 23.5943 0.471317 23.6332L0.216803 23.6848C0.216803 23.7507 0.216599 23.8156 0.216397 23.8799C0.21575 24.0856 0.215126 24.2838 0.221314 24.4818C0.222518 24.5146 0.280263 24.557 0.320564 24.5735C0.347732 24.5848 0.380743 24.5824 0.413675 24.58L0.413717 24.58C0.427435 24.579 0.441139 24.578 0.4544 24.578H12.9054C12.9204 24.578 12.9355 24.5777 12.9506 24.5773H12.9506C12.9808 24.5766 13.0109 24.5758 13.0407 24.578C13.1268 24.5843 13.1562 24.5428 13.1553 24.4616C13.1545 24.3835 13.1546 24.3055 13.1548 24.2274V24.2273C13.155 24.0799 13.1553 23.9325 13.149 23.7852C13.1475 23.7446 13.0931 23.6785 13.0543 23.6712C12.9562 23.653 12.8582 23.6337 12.7601 23.6144C12.4459 23.5526 12.1314 23.4908 11.814 23.4628C10.9382 23.3855 10.3063 22.987 9.95167 22.169C9.66325 21.5037 9.54445 20.7975 9.48761 20.0856C9.41031 19.1223 9.36791 18.156 9.33362 17.1902C9.30545 16.3975 9.29124 15.6044 9.27703 14.8114C9.27213 14.5375 9.26722 14.2637 9.26174 13.9899C9.25847 13.8182 9.25936 13.6463 9.26027 13.4712V13.4712V13.4712V13.4712V13.4712V13.4711V13.471V13.4709V13.4708C9.2607 13.3882 9.26114 13.3049 9.26114 13.2206L9.31713 13.2203H9.31722H9.31723H9.31725H9.31725C9.34997 13.2201 9.376 13.2199 9.40189 13.2209C9.62755 13.2292 9.85322 13.237 10.0789 13.2448C10.639 13.264 11.1991 13.2833 11.7589 13.312L11.7602 13.3121L11.7602 13.3121C12.0985 13.3295 12.4442 13.3473 12.7695 13.4314C13.469 13.6122 13.94 14.0898 14.278 14.7117C14.5848 15.2765 14.7547 15.8871 14.8784 16.512C14.9015 16.6299 14.9529 16.6546 15.0588 16.6519C15.228 16.6474 15.3974 16.649 15.5669 16.6507L15.7054 16.6519L15.7081 16.6519C15.9112 16.6531 15.9115 16.6531 15.9115 16.4456V8.83675ZM17.9825 16.0091C17.9846 15.1808 18.0847 14.366 18.2739 13.5651C18.4694 12.7368 18.7626 11.9437 19.1816 11.1961C19.5729 10.498 20.0436 9.86492 20.6144 9.30672C21.2141 8.72024 21.892 8.24384 22.6451 7.8691C23.3074 7.53977 24.0006 7.30308 24.72 7.14969C25.071 7.07471 25.4298 7.03362 25.788 6.9926L25.788 6.9926C25.8579 6.98459 25.9278 6.97659 25.9976 6.96834C26.8897 6.86247 27.779 6.91961 28.6626 7.05556C29.9868 7.25947 31.2154 7.71181 32.2948 8.52204C33.1276 9.14701 33.7968 9.91755 34.3048 10.8285C34.6868 11.5137 34.9659 12.2367 35.1644 12.9958C35.3938 13.8728 35.515 14.7636 35.5159 15.6665C35.5165 16.2852 35.4856 16.9074 35.4134 17.5216C35.3129 18.3781 35.0723 19.2031 34.7268 19.9968C34.3896 20.7718 33.9553 21.4861 33.4109 22.1307C33.0209 22.5923 32.5764 23.0001 32.0903 23.3592C31.5255 23.7764 30.9147 24.1135 30.2605 24.3713C29.6353 24.6176 28.9907 24.7917 28.3273 24.8994C27.6181 25.0146 26.9032 25.0621 26.1871 25.0312C25.3922 24.9966 24.6054 24.8988 23.8325 24.6847C22.8376 24.4092 21.9233 23.9794 21.1106 23.3442C20.4379 22.8182 19.8775 22.1896 19.4231 21.4624C19.0204 20.8182 18.7133 20.1336 18.4887 19.4109C18.3013 18.8082 18.1663 18.1923 18.1019 17.5643C18.0658 17.2096 18.0414 16.8537 18.0171 16.4978L18.0171 16.4977L18.0171 16.4976L18.017 16.4976C18.0059 16.3347 17.9948 16.1718 17.9825 16.0091ZM30.1533 15.2974L30.1532 15.2965C30.1293 14.9455 30.1051 14.5887 30.0873 14.2316C30.0467 13.4096 29.9237 12.5988 29.7327 11.8009C29.5038 10.8448 29.1941 9.91875 28.5838 9.12235C28.1913 8.61016 27.7101 8.23091 27.0665 8.09978C26.2647 7.93647 25.5537 8.13557 24.9654 8.7028C24.5366 9.11634 24.2776 9.64416 24.0764 10.1973C23.8638 10.7813 23.7293 11.3858 23.6307 11.9994C23.4947 12.8463 23.4198 13.6987 23.3973 14.5549C23.3795 15.2253 23.3795 15.8963 23.3829 16.567C23.3877 17.5498 23.4809 18.5258 23.655 19.493C23.7889 20.2362 23.975 20.9649 24.2659 21.666C24.4644 22.1451 24.7026 22.5986 25.034 22.9962C25.7474 23.8516 26.6235 24.1078 27.6674 23.7761C28.3113 23.5716 28.7519 23.1015 29.0795 22.5265C29.5625 21.678 29.7841 20.7445 29.9213 19.7911C30.0085 19.1826 30.065 18.5682 30.1035 17.9544C30.1347 17.4548 30.1492 16.9541 30.164 16.4468L30.164 16.4467L30.164 16.4466L30.164 16.4464L30.164 16.4462L30.164 16.4461L30.164 16.4459C30.1705 16.223 30.1771 15.9988 30.185 15.773C30.175 15.616 30.1642 15.4573 30.1533 15.2974ZM84.7383 21.4134C84.7037 21.3718 84.669 21.3301 84.6342 21.288C84.5484 21.3429 84.4643 21.3969 84.3811 21.4504L84.3795 21.4515L84.3791 21.4517C84.2543 21.532 84.1316 21.6109 84.0084 21.6892C83.3341 22.1147 82.6017 22.3845 81.8092 22.4699C81.2781 22.5271 80.7467 22.549 80.2083 22.5144C79.3821 22.4612 78.5965 22.2747 77.8597 21.9069C76.7358 21.346 75.9448 20.4582 75.4076 19.3324C75.1171 18.724 74.9288 18.0834 74.8046 17.4235C74.6705 16.7126 74.6286 15.9934 74.6455 15.2704C74.6473 15.182 74.6807 15.1589 74.7622 15.1616C74.8618 15.165 74.9615 15.1643 75.0613 15.1636C75.1019 15.1633 75.1426 15.1631 75.1833 15.1631H85.1064C85.303 15.1631 85.303 15.1625 85.3034 14.986L85.3034 14.9682C85.3055 14.2449 85.2306 13.5303 85.0956 12.8199C84.95 12.055 84.7254 11.3167 84.387 10.6156C84.0682 9.95487 83.6619 9.35546 83.1488 8.82493C82.5804 8.23725 81.9193 7.78853 81.1725 7.47454C80.5869 7.22852 79.9704 7.08416 79.337 6.99724C78.4799 6.87964 77.6278 6.90671 76.777 7.0219C76.0837 7.11573 75.4007 7.26551 74.7556 7.54672L74.7218 7.56146C74.3675 7.71596 74.0116 7.87117 73.674 8.0583C72.8229 8.53019 72.0969 9.15516 71.4788 9.90885C71.0337 10.4514 70.6487 11.0352 70.3618 11.6716C70.1287 12.1886 69.9501 12.7324 69.7753 13.2734C69.5323 14.0253 69.4427 14.8085 69.3973 15.5928C69.3413 16.5571 69.4385 17.5129 69.6553 18.4548C69.8526 19.312 70.1642 20.1267 70.6069 20.8867C71.0957 21.7262 71.7074 22.4624 72.4632 23.0814C73.342 23.8014 74.3249 24.3145 75.4088 24.6402C76.1406 24.86 76.8897 24.9785 77.6522 25.0212C78.3902 25.0624 79.1226 25.0164 79.851 24.8934C80.4495 24.7924 81.0315 24.6261 81.5951 24.4071C82.1587 24.1881 82.6986 23.9142 83.2029 23.5776C83.8962 23.1154 84.5221 22.5785 85.0201 21.9045C85.0421 21.8747 85.0586 21.8095 85.0421 21.7881C84.9447 21.6615 84.8423 21.5383 84.7386 21.4137L84.7383 21.4134ZM80.0454 13.7427C80.0429 13.7668 80.0403 13.7925 80.0381 13.8205C79.9753 13.8205 79.9139 13.8202 79.8534 13.8198H79.8533H79.8532C79.7287 13.8192 79.6079 13.8186 79.4871 13.8208C78.0648 13.8473 76.6425 13.8746 75.2202 13.9032C75.0699 13.9062 74.9198 13.9155 74.7697 13.9255C74.681 13.9315 74.6359 13.9023 74.6476 13.8067C74.6675 13.6445 74.6859 13.4821 74.7042 13.3197L74.7043 13.3192V13.3192V13.3191C74.7455 12.9553 74.7867 12.5916 74.8443 12.2304C74.9047 11.8514 74.9947 11.4755 75.0984 11.1059C75.306 10.3663 75.5923 9.65893 76.0548 9.03636C76.4359 8.52357 76.9075 8.13349 77.5658 8.0559C78.1108 7.99184 78.5656 8.18883 78.9265 8.60388C79.2374 8.96147 79.429 9.38343 79.5704 9.82705C79.8408 10.6755 79.971 11.5498 80.008 12.4385C80.0242 12.8289 80.0399 13.219 80.0534 13.6094C80.0548 13.6516 80.0504 13.694 80.0454 13.7427ZM99.0027 9.26937L99.0183 10.0235C99.0305 10.6166 99.0418 11.164 99.0535 11.7112C99.0568 11.8613 99.0613 12.0114 99.0707 12.1611C99.0764 12.2532 99.0541 12.304 98.9516 12.329C98.8533 12.3528 98.7566 12.3836 98.66 12.4144L98.6599 12.4144C98.5709 12.4428 98.4819 12.4712 98.3916 12.4941C98.3567 12.5028 98.2785 12.4598 98.2668 12.4249C98.0111 11.676 97.7056 10.9488 97.2974 10.2697C96.834 9.49855 96.249 8.8417 95.4039 8.48169C95.0869 8.34665 94.7383 8.26124 94.3961 8.21673C94.0535 8.17222 93.6947 8.1662 93.353 8.21492C92.532 8.33192 91.9578 8.81162 91.6225 9.5584C91.3419 10.1834 91.3055 10.8402 91.5211 11.4926C91.6628 11.9211 91.9684 12.2436 92.31 12.5284C92.7112 12.8628 93.1621 13.1215 93.6318 13.3419C94.2413 13.6278 94.8593 13.8962 95.4766 14.1643L95.477 14.1645L95.5338 14.1891C95.7137 14.2673 95.8959 14.3403 96.0781 14.4133C96.3636 14.5276 96.6489 14.6419 96.9248 14.7759C97.7501 15.1768 98.5194 15.6665 99.1035 16.3925C99.615 17.0286 99.8785 17.7669 99.9654 18.5775C100.034 19.2121 100.001 19.8415 99.865 20.4587C99.6674 21.355 99.2704 22.1571 98.6442 22.8416C98.0932 23.444 97.4376 23.8927 96.7028 24.2368C95.9537 24.5875 95.1648 24.7986 94.3491 24.9147C93.5139 25.0335 92.6745 25.0744 91.8324 25.0052C91.7564 24.999 91.6804 24.9929 91.6044 24.9869C91.5612 24.9834 91.518 24.98 91.4748 24.9766L91.4746 24.9766C90.9655 24.9364 90.4561 24.8961 89.9503 24.8296C89.4108 24.7586 88.8721 24.6609 88.3437 24.5324C87.9696 24.4415 87.6016 24.3263 87.2336 24.2111C87.0634 24.1578 86.8932 24.1045 86.7223 24.0536C86.6201 24.0233 86.5957 23.9607 86.5936 23.8548C86.5684 22.5892 86.5381 21.3235 86.5078 20.0581L86.5078 20.057L86.5031 19.859C86.497 19.6043 86.4883 19.3495 86.4772 19.0948C86.4733 19.0064 86.4974 18.9609 86.5939 18.9402C86.7641 18.9038 86.9322 18.8539 87.0974 18.7976C87.2213 18.7555 87.2778 18.7781 87.328 18.9116C87.6396 19.7402 88.0056 20.5435 88.4992 21.2828C88.8592 21.822 89.2841 22.3053 89.8105 22.6867C90.6014 23.2602 91.5013 23.4855 92.467 23.4512C93.2141 23.4248 93.8902 23.1959 94.4349 22.6599C94.8475 22.2539 95.0851 21.761 95.1696 21.1847C95.2261 20.7998 95.2036 20.4244 95.0986 20.0563C94.9308 19.4674 94.5197 19.0665 94.0267 18.7372C93.3197 18.265 92.5344 17.9588 91.7461 17.656C91.5975 17.5989 91.4484 17.5427 91.2993 17.4866C90.7284 17.2715 90.157 17.0562 89.6114 16.7892C88.7485 16.3669 87.9897 15.7916 87.4769 14.9482C87.2492 14.5741 87.0823 14.1741 86.9777 13.7479C86.7987 13.0183 86.778 12.2793 86.901 11.5431C86.9774 11.0856 87.1337 10.6465 87.3449 10.2273C87.695 9.53133 88.1825 8.94937 88.7864 8.46575C89.2556 8.08981 89.7653 7.77341 90.3323 7.56469L90.3911 7.54301C90.7837 7.39814 91.1787 7.25243 91.5837 7.15446C91.9262 7.07153 92.2796 7.03047 92.6319 6.98954L92.6321 6.98951C92.6924 6.98251 92.7527 6.9755 92.8129 6.96829C93.6333 6.86964 94.452 6.9313 95.2715 6.99897C96.1272 7.06934 96.9684 7.21431 97.7943 7.44348C98.1071 7.53033 98.4136 7.6413 98.7195 7.75204L98.7196 7.75207L98.8568 7.80168C98.901 7.81762 98.9504 7.89131 98.9528 7.94063C98.9714 8.32564 98.9841 8.71083 98.9948 9.03214L99.0027 9.26937ZM43.218 10.8364C43.2534 9.54105 43.2889 8.2457 43.3253 6.92598C43.1669 6.95756 43.012 6.9886 42.8595 7.01916C42.5253 7.08611 42.2028 7.15073 41.8805 7.2135C41.5954 7.26869 41.3101 7.32263 41.0248 7.37657C40.6819 7.4414 40.339 7.50623 39.9966 7.57321C39.5869 7.65336 39.1775 7.73502 38.768 7.81669C38.3587 7.89834 37.9493 7.97999 37.5397 8.06013C36.963 8.1728 36.3851 8.28106 35.8075 8.38926L35.7872 8.39307C35.7081 8.40781 35.6608 8.43638 35.6642 8.52781C35.6693 8.67307 35.6699 8.81864 35.6648 8.9636C35.6614 9.05173 35.6957 9.08691 35.7823 9.09774C35.9169 9.11456 36.0511 9.13421 36.1852 9.15386C36.2982 9.17041 36.4112 9.18695 36.5243 9.2018C37.0783 9.27428 37.5273 9.50887 37.7761 10.0334C37.9469 10.394 38.0272 10.7826 38.0564 11.1784C38.063 11.2692 38.0699 11.3601 38.0767 11.451C38.116 11.9742 38.1554 12.498 38.1661 13.022C38.1905 14.2235 38.2062 15.426 38.1953 16.6275C38.185 17.756 38.155 18.8846 38.1251 20.0132C38.1183 20.2666 38.1116 20.52 38.1051 20.7734C38.0889 21.4098 38.0579 22.0465 37.7914 22.6411C37.5481 23.184 37.1201 23.4781 36.5357 23.5578C36.3425 23.584 36.1497 23.6132 35.9556 23.6425C35.8627 23.6565 35.7695 23.6706 35.6759 23.6844V24.5786H35.893C37.5946 24.5786 39.2961 24.5786 40.9976 24.5787C42.6992 24.5788 44.4007 24.5789 46.1022 24.5789C46.1145 24.5789 46.1269 24.5794 46.1394 24.58C46.1728 24.5815 46.2064 24.583 46.2367 24.5738C46.2667 24.5647 46.3094 24.5283 46.31 24.5037C46.3141 24.2868 46.3138 24.0699 46.3135 23.854C46.3134 23.7978 46.3133 23.7417 46.3133 23.6856C46.1865 23.6747 46.062 23.6635 45.939 23.6525C45.6615 23.6276 45.3921 23.6034 45.1223 23.5849C44.7482 23.559 44.3855 23.4985 44.0703 23.2796C43.676 23.0056 43.5052 22.5885 43.4387 22.1442C43.3425 21.5027 43.2679 20.8543 43.239 20.2065C43.1852 19.0056 43.1494 17.8028 43.1467 16.601C43.1439 15.4535 43.1655 14.306 43.1872 13.1586C43.1933 12.8332 43.1994 12.5079 43.205 12.1826C43.2062 12.1125 43.248 12.0286 43.2974 11.976C43.6198 11.6313 44.0417 11.4647 44.4835 11.3432C45.0896 11.1763 45.7073 11.1519 46.3296 11.2235C46.8294 11.2809 47.3128 11.4066 47.7711 11.6142C47.9642 11.7016 48.1529 11.7985 48.3438 11.8965C48.4301 11.9407 48.5167 11.9852 48.6045 12.0292C48.6089 12.023 48.6138 12.0169 48.6187 12.0109C48.6292 11.9979 48.6397 11.985 48.6454 11.9703C48.7736 11.6424 48.9014 11.3143 49.0292 10.9861C49.1223 10.7468 49.2155 10.5075 49.3089 10.2683C49.4769 9.83757 49.6454 9.407 49.8139 8.97637C49.8837 8.79809 49.9534 8.6198 50.0232 8.44149C50.0614 8.34383 50.0998 8.24629 50.1383 8.14876C50.2189 7.94443 50.2995 7.74012 50.3775 7.53471C50.4109 7.44659 50.4346 7.3723 50.3074 7.30493C49.4647 6.85921 48.5675 6.78553 47.6508 6.93711C47.0827 7.03094 46.5491 7.2502 46.0505 7.54915C44.9798 8.19096 44.2102 9.10947 43.6104 10.1853C43.5278 10.3334 43.4507 10.4846 43.3736 10.6358C43.3382 10.7054 43.3027 10.775 43.2667 10.8442L43.218 10.8364Z" fill="#E4ECEE"/>
</svg>
