<svg width="305" height="43" viewBox="0 0 305 43" fill="none" xmlns="http://www.w3.org/2000/svg">
<path d="M41.1994 9.84265H46.8502V33.5688C46.8502 39.2555 45.201 43 39.313 43C36.625 42.9961 34.0273 42.0229 31.9912 40.2567L33.1034 36.0816C33.6786 36.7262 35.494 38.3283 38.0646 38.3612C39.8528 38.3831 41.1994 37.1158 41.1994 35.1242V9.84265Z" fill="black"/>
<path d="M74.6136 22.9882H56.151C56.151 26.8287 58.836 29.7173 63.8299 29.7173C67.1201 29.7173 70.1704 28.3841 71.795 26.8315L73.1089 30.9024C70.612 33.1793 67.0329 34.3644 63.1212 34.3644C56.1047 34.3644 50.4048 29.1522 50.4048 22.1351C50.4048 15.0247 55.8702 9.24194 62.6987 9.24194C70.2822 9.24194 74.7554 14.3142 74.7554 21.3286C74.7536 21.8848 74.7062 22.4399 74.6136 22.9882ZM62.6987 13.8862C59.4494 13.8862 56.9061 15.9738 56.1047 19.2904H69.4344C68.8211 16.2097 66.5149 13.8862 62.6987 13.8862Z" fill="black"/>
<path d="M87.1476 25.3089C87.1476 28.2963 88.7968 29.3387 90.6341 29.3387C91.9936 29.3469 93.3402 29.0723 94.5894 28.5322V32.9872C92.9893 33.7004 90.8685 33.983 88.9386 33.983C84.7461 33.983 81.5431 31.9448 81.5431 25.9728V14.646H76.8818V9.95237H81.4559L82.9334 4.40833H87.1476V9.95237H94.543V14.646H87.1476V25.3089Z" fill="black"/>
<path d="M104.307 0V33.6511H98.6919V0H104.307Z" fill="black"/>
<path d="M154.84 20.2861C154.84 16.8735 153.205 14.7393 150.367 14.7393C148.246 14.7393 144.809 16.2097 143.206 19.3863V33.6511H137.602V9.95239H143.206V13.5186C145.278 10.8165 148.53 9.34888 152.013 9.34888C156.866 9.34888 160.445 12.7614 160.445 18.8761V33.6621H154.84V20.2861Z" fill="black"/>
<path d="M183.528 33.6511V30.5705C182.654 31.7396 181.523 32.6901 180.225 33.3481C178.926 34.0061 177.494 34.3539 176.04 34.3643C169.162 34.3643 164.547 28.7215 164.547 21.8031C164.547 14.9313 169.162 9.24191 176.04 9.24191C177.497 9.26115 178.93 9.61754 180.229 10.2835C181.527 10.9495 182.656 11.9071 183.528 13.0824V0H189.132V33.6511H183.528ZM183.528 26.2115V17.4332C182.852 16.5282 181.978 15.7924 180.973 15.2828C179.968 14.7733 178.86 14.5037 177.735 14.4952C173.78 14.4952 170.531 17.8611 170.531 21.7949C170.51 23.3291 170.974 24.8303 171.855 26.0826C172.736 27.3348 173.989 28.2735 175.434 28.7636C176.878 29.2536 178.441 29.2698 179.895 28.8097C181.35 28.3496 182.622 27.437 183.528 26.2032V26.2115Z" fill="black"/>
<path d="M133.076 22.9882H114.614C114.614 26.8287 117.296 29.7173 122.29 29.7173C125.58 29.7173 128.633 28.3841 130.255 26.8315L131.566 30.9024C129.069 33.1793 125.49 34.3644 121.581 34.3644C114.562 34.3644 108.865 29.1522 108.865 22.1351C108.865 15.0247 114.317 9.24194 121.156 9.24194C128.739 9.24194 133.213 14.3142 133.213 21.3286C133.211 21.8846 133.166 22.4396 133.076 22.9882ZM121.159 13.8862C117.909 13.8862 115.366 15.9738 114.565 19.2904H127.894C127.281 16.2097 124.975 13.8862 121.159 13.8862Z" fill="black"/>
<path d="M33.8668 0.0877686L0 9.95239L14.1311 24.1733L24.7404 34.3643L33.8668 0.0877686Z" fill="#0BD194"/>
<path d="M199.185 11.933V17.9159L203.68 11.933H204.455V18.8925H203.721V12.9343L199.24 18.9062H198.452V11.933H199.185Z" fill="black"/>
<path d="M211.893 15.6199H207.398V18.8925H206.665V11.933H207.398V14.9505H211.893V11.933H212.624V18.8925H211.893V15.6199Z" fill="black"/>
<path d="M220.022 13.6173C220.02 13.9326 219.932 14.2412 219.766 14.5088C219.597 14.7962 219.362 15.0389 219.082 15.2166C219.442 15.3522 219.753 15.5952 219.973 15.9134C220.187 16.218 220.302 16.5825 220.3 16.9558C220.302 17.2131 220.253 17.4682 220.156 17.706C220.058 17.9438 219.914 18.1595 219.732 18.3401C219.55 18.5208 219.333 18.6628 219.096 18.7577C218.858 18.8525 218.604 18.8984 218.348 18.8925H214.837V11.933H218.185C218.668 11.9184 219.138 12.0935 219.496 12.4213C219.665 12.5703 219.799 12.7545 219.89 12.961C219.981 13.1676 220.026 13.3915 220.022 13.6173ZM219.289 13.7023C219.294 13.5486 219.263 13.3957 219.198 13.2564C219.133 13.1171 219.036 12.9954 218.915 12.9013C218.656 12.698 218.334 12.5922 218.005 12.6023H215.571V14.9395H218.005C218.341 14.9448 218.666 14.8178 218.91 14.5857C219.032 14.4744 219.129 14.3379 219.195 14.1855C219.26 14.0331 219.292 13.8683 219.289 13.7023ZM215.571 18.2232H218.141C218.503 18.2366 218.856 18.1122 219.131 17.8748C219.261 17.7586 219.364 17.6146 219.433 17.4532C219.501 17.2919 219.533 17.1173 219.526 16.9421C219.531 16.7631 219.498 16.585 219.43 16.4196C219.362 16.2541 219.26 16.105 219.131 15.982C218.863 15.7296 218.508 15.5944 218.141 15.6061H215.571V18.2232Z" fill="black"/>
<path d="M228.484 15.1289V15.2825H222.151C222.146 15.3839 222.146 15.4856 222.151 15.587C222.139 15.9701 222.211 16.3513 222.363 16.7028C222.514 17.0544 222.742 17.3676 223.029 17.6197C223.633 18.1459 224.411 18.4241 225.21 18.3988C225.653 18.3937 226.091 18.3063 226.502 18.1409C226.91 17.9916 227.281 17.7569 227.592 17.4524L228.102 17.9818C227.729 18.3485 227.282 18.6293 226.791 18.8048C226.282 18.9982 225.743 19.0994 225.199 19.1038C224.209 19.1319 223.246 18.7809 222.503 18.1217C222.148 17.8074 221.865 17.418 221.677 16.9812C221.488 16.5445 221.398 16.0712 221.413 15.5952C221.388 14.5816 221.755 13.598 222.438 12.852C222.75 12.4913 223.137 12.2035 223.572 12.0088C224.006 11.8141 224.478 11.7171 224.954 11.7245C226.088 11.7245 226.961 12.0656 227.573 12.7477C228.168 13.3951 228.494 14.2472 228.484 15.1289ZM227.71 14.6131C227.615 14.0052 227.309 13.451 226.845 13.0495C226.311 12.6046 225.63 12.3784 224.937 12.4158C224.314 12.4044 223.708 12.6185 223.228 13.0193C222.741 13.4311 222.4 13.9902 222.255 14.6131H227.71Z" fill="black"/>
<path d="M230.994 13.2772C230.481 13.8689 230.198 14.6276 230.198 15.4128C230.198 16.1981 230.481 16.9568 230.994 17.5484C231.255 17.8304 231.574 18.0527 231.928 18.2003C232.282 18.3479 232.664 18.4175 233.047 18.4043C233.452 18.4031 233.852 18.3185 234.223 18.1558C234.595 17.993 234.929 17.7555 235.205 17.4579L235.715 17.9873C235.369 18.3464 234.954 18.6304 234.495 18.8219C234.036 19.0135 233.543 19.1085 233.047 19.1011C232.567 19.11 232.091 19.0151 231.651 18.823C231.21 18.6309 230.816 18.3459 230.495 17.9873C229.836 17.2944 229.468 16.3722 229.468 15.4128C229.468 14.4535 229.836 13.5312 230.495 12.8383C230.816 12.4798 231.21 12.1948 231.651 12.0027C232.091 11.8105 232.567 11.7157 233.047 11.7246C233.543 11.7172 234.036 11.8122 234.495 12.0037C234.954 12.1953 235.369 12.4793 235.715 12.8383L235.205 13.3678C234.929 13.0701 234.595 12.8327 234.223 12.6699C233.852 12.5071 233.452 12.4226 233.047 12.4214C232.664 12.4082 232.282 12.4777 231.928 12.6254C231.574 12.773 231.255 12.9953 230.994 13.2772Z" fill="black"/>
<path d="M242.339 11.933V12.6023H239.739V18.8925H239.006V12.6023H236.408V11.933H242.339Z" fill="black"/>
<path d="M244.247 11.933V17.9159L248.74 11.933H249.514V18.8925H248.78V12.9343L244.299 18.9062H243.511V11.933H244.247Z" fill="black"/>
<path d="M252.46 18.2232H256.996V11.933H257.727V18.2232H258.738V20.8539H258.005V18.8925H251.735V11.933H252.469L252.46 18.2232Z" fill="black"/>
<path d="M260.949 11.933V17.9159L265.444 11.933H266.227V18.8925H265.493V12.9343L261.015 18.9062H260.229V11.933H260.949Z" fill="black"/>
<path d="M274.334 18.0368C273.584 18.7216 272.609 19.1011 271.597 19.1011C270.585 19.1011 269.609 18.7216 268.86 18.0368C268.185 17.3322 267.808 16.3916 267.808 15.4129C267.808 14.4341 268.185 13.4935 268.86 12.789C269.609 12.1041 270.585 11.7246 271.597 11.7246C272.609 11.7246 273.584 12.1041 274.334 12.789C275.009 13.4935 275.386 14.4341 275.386 15.4129C275.386 16.3916 275.009 17.3322 274.334 18.0368ZM271.608 18.5168C272.014 18.5267 272.417 18.4513 272.793 18.2955C273.168 18.1396 273.507 17.9067 273.788 17.6116C274.351 17.0215 274.666 16.2351 274.666 15.417C274.666 14.5989 274.351 13.8125 273.788 13.2224C273.503 12.9328 273.163 12.7029 272.789 12.546C272.415 12.3891 272.013 12.3084 271.608 12.3084C271.202 12.3084 270.801 12.3891 270.426 12.546C270.052 12.7029 269.712 12.9328 269.427 13.2224C268.867 13.8141 268.555 14.5999 268.555 15.417C268.555 16.2341 268.867 17.0199 269.427 17.6116C269.706 17.9057 270.044 18.1381 270.417 18.294C270.791 18.4498 271.192 18.5257 271.597 18.5168H271.608Z" fill="black"/>
<path d="M282.203 15.6199H277.708V18.8925H276.975V11.933H277.708V14.9505H282.203V11.933H282.934V18.8925H282.203V15.6199Z" fill="black"/>
<path d="M290.373 15.6199H285.88V18.8925H285.147V11.933H285.88V14.9505H290.373V11.933H291.106V18.8925H290.373V15.6199Z" fill="black"/>
<path d="M294.99 19.1011C294.382 19.1342 293.784 18.9387 293.311 18.5525C293.109 18.3744 292.949 18.1533 292.842 17.9051C292.736 17.6569 292.685 17.3879 292.695 17.1177C292.683 16.843 292.736 16.5692 292.849 16.3189C292.962 16.0686 293.133 15.8488 293.347 15.6776C293.806 15.3204 294.348 15.088 294.922 15.0027C295.844 14.884 296.773 14.8235 297.703 14.8217V14.1139C297.703 13.4555 297.536 13.0029 297.204 12.756C296.793 12.4893 296.309 12.3606 295.822 12.3884C295.409 12.3887 295.001 12.474 294.623 12.6392C294.245 12.8043 293.904 13.0457 293.622 13.3486L293.153 12.8465C293.521 12.4786 293.96 12.1892 294.441 11.9955C294.923 11.8018 295.439 11.7078 295.958 11.7191C296.368 11.7093 296.776 11.7753 297.163 11.9139C297.436 12.0095 297.687 12.1587 297.902 12.3528C298.074 12.5336 298.202 12.7525 298.275 12.9919C298.347 13.1876 298.395 13.3911 298.419 13.5982C298.419 13.7381 298.433 13.9082 298.433 14.1139V18.8871H297.703V17.5347C296.89 18.579 295.986 19.1011 294.99 19.1011ZM294.99 18.4318C296.032 18.4318 296.94 17.8429 297.716 16.6651V15.4965C296.828 15.4909 295.941 15.5468 295.061 15.6638C294.917 15.6855 294.776 15.7204 294.639 15.7681C294.459 15.8303 294.286 15.9092 294.121 16.004C293.925 16.1133 293.759 16.2686 293.636 16.4566C293.506 16.6543 293.439 16.8865 293.442 17.1232C293.426 17.3204 293.463 17.5183 293.549 17.696C293.636 17.8737 293.768 18.0246 293.933 18.1327C294.252 18.3249 294.618 18.4245 294.99 18.4208V18.4318Z" fill="black"/>
<path d="M304.269 16.1905H302.65L300.758 18.8926H299.818L301.781 16.1905C301.506 16.1763 301.236 16.1063 300.989 15.9847C300.742 15.863 300.521 15.6923 300.341 15.4828C300.001 15.0889 299.815 14.5837 299.818 14.0618C299.815 13.5102 300.025 12.979 300.404 12.5805C300.608 12.363 300.857 12.1926 301.132 12.0808C301.408 11.9691 301.704 11.9187 302.001 11.9331H305V18.8926H304.267L304.269 16.1905ZM304.269 12.6024H301.988C301.8 12.5972 301.613 12.6294 301.437 12.6972C301.262 12.765 301.102 12.867 300.966 12.9974C300.697 13.2861 300.548 13.6666 300.548 14.0618C300.548 14.457 300.697 14.8375 300.966 15.1262C301.101 15.2574 301.261 15.3602 301.437 15.4285C301.612 15.4968 301.8 15.5292 301.988 15.5239H304.269V12.6024Z" fill="black"/>
<path d="M203.721 27.424H199.185V33.7143H198.452V26.7574H204.449V33.7143H203.721V27.424Z" fill="black"/>
<path d="M205.711 33.7143V33.0449H206.156C206.616 33.0449 206.946 32.7898 207.151 32.2795C207.355 31.7693 207.453 30.8531 207.453 29.5363V26.7574H212.39V33.7143H211.657V27.424H208.165V29.5254C208.165 32.318 207.488 33.7143 206.134 33.7143H205.711Z" fill="black"/>
<path d="M216.263 33.9227C215.654 33.9565 215.055 33.7609 214.581 33.374C214.38 33.1961 214.22 32.9753 214.114 32.7276C214.008 32.4799 213.958 32.2116 213.968 31.942C213.955 31.6674 214.007 31.3936 214.12 31.1432C214.232 30.8928 214.403 30.6729 214.617 30.5019C215.075 30.1429 215.618 29.9103 216.192 29.827C217.114 29.7055 218.043 29.645 218.973 29.646V28.9355C218.973 28.2771 218.806 27.8199 218.474 27.5639C218.063 27.2971 217.579 27.1684 217.092 27.1963C216.679 27.1973 216.272 27.2831 215.893 27.4481C215.515 27.6132 215.174 27.8542 214.892 28.1564L214.423 27.6544C214.792 27.2864 215.231 26.9969 215.713 26.8032C216.195 26.6095 216.711 26.5155 217.231 26.5269C217.64 26.5173 218.047 26.5834 218.433 26.7217C218.706 26.8169 218.957 26.9661 219.172 27.1606C219.344 27.3421 219.472 27.562 219.545 27.8025C219.617 27.9972 219.665 28.1998 219.689 28.406C219.689 28.5459 219.706 28.7188 219.706 28.9218V33.695H218.973V32.3453C218.16 33.395 217.257 33.9208 216.263 33.9227ZM216.263 33.2533C217.304 33.2533 218.207 32.6644 218.973 31.4867V30.3181C218.085 30.3124 217.198 30.3684 216.318 30.4854C216.174 30.507 216.032 30.5419 215.895 30.5896C215.716 30.653 215.543 30.7319 215.377 30.8256C215.181 30.9349 215.015 31.0901 214.892 31.2782C214.762 31.4767 214.695 31.7099 214.698 31.9475C214.681 32.1445 214.717 32.3424 214.804 32.52C214.89 32.6975 215.024 32.8477 215.189 32.9543C215.512 33.1531 215.884 33.2567 216.263 33.2533Z" fill="black"/>
<path d="M226.605 26.7574V27.424H224.005V33.7143H223.272V27.424H220.674V26.7574H226.605Z" fill="black"/>
<path d="M231.929 33.9227H231.512V36.5535H230.789V33.9227H230.372C229.894 33.9276 229.42 33.8325 228.98 33.6437C228.54 33.4548 228.143 33.1762 227.815 32.8254C227.13 32.1334 226.746 31.1963 226.746 30.2194C226.746 29.2425 227.13 28.3054 227.815 27.6133C228.143 27.2625 228.54 26.9839 228.98 26.7951C229.42 26.6062 229.894 26.5112 230.372 26.516H230.789V23.803H231.52V26.516H231.937C232.415 26.5112 232.89 26.6062 233.33 26.7951C233.77 26.9839 234.166 27.2625 234.494 27.6133C235.179 28.3054 235.564 29.2425 235.564 30.2194C235.564 31.1963 235.179 32.1334 234.494 32.8254C234.165 33.1772 233.768 33.4564 233.326 33.6453C232.884 33.8342 232.409 33.9287 231.929 33.9227ZM230.53 27.1744C229.724 27.1744 228.95 27.4969 228.379 28.0711C227.809 28.6452 227.488 29.4239 227.488 30.2358C227.488 31.0478 227.809 31.8265 228.379 32.4006C228.95 32.9747 229.724 33.2973 230.53 33.2973H230.781V27.1744H230.53ZM231.763 33.2973C232.566 33.2908 233.335 32.9657 233.902 32.3926C234.469 31.8195 234.788 31.0445 234.791 30.2358C234.795 29.8338 234.718 29.435 234.565 29.0638C234.411 28.6927 234.184 28.3569 233.897 28.0769C233.622 27.7873 233.29 27.5578 232.923 27.4025C232.556 27.2473 232.161 27.1696 231.763 27.1744H231.512V33.2973H231.763Z" fill="black"/>
<path d="M243.056 32.8583C242.307 33.5434 241.331 33.923 240.318 33.923C239.306 33.923 238.329 33.5434 237.58 32.8583C236.907 32.1528 236.531 31.2126 236.531 30.2344C236.531 29.2563 236.907 28.3161 237.58 27.6105C238.329 26.9255 239.306 26.5459 240.318 26.5459C241.331 26.5459 242.307 26.9255 243.056 27.6105C243.729 28.3161 244.105 29.2563 244.105 30.2344C244.105 31.2126 243.729 32.1528 243.056 32.8583ZM240.33 33.3384C240.736 33.3483 241.14 33.2729 241.516 33.117C241.891 32.9612 242.23 32.7282 242.511 32.4331C243.074 31.843 243.389 31.0566 243.389 30.2385C243.389 29.4204 243.074 28.634 242.511 28.044C242.226 27.7543 241.886 27.5245 241.511 27.3676C241.137 27.2107 240.736 27.1299 240.33 27.1299C239.925 27.1299 239.523 27.2107 239.149 27.3676C238.775 27.5245 238.435 27.7543 238.15 28.044C237.59 28.6357 237.277 29.4214 237.277 30.2385C237.277 31.0556 237.59 31.8414 238.15 32.4331C238.428 32.7255 238.763 32.9569 239.134 33.1127C239.505 33.2685 239.904 33.3454 240.306 33.3384H240.33Z" fill="black"/>
<path d="M249.031 33.9226C248.542 33.9302 248.058 33.835 247.607 33.6433C247.157 33.4515 246.752 33.1673 246.417 32.8089V36.5534H245.687V26.7573H246.417V27.6736C246.75 27.3119 247.155 27.0246 247.605 26.8303C248.055 26.6361 248.541 26.5393 249.031 26.5461C249.51 26.5413 249.984 26.6363 250.424 26.8252C250.864 27.014 251.26 27.2926 251.588 27.6434C252.273 28.3355 252.658 29.2726 252.658 30.2495C252.658 31.2264 252.273 32.1635 251.588 32.8555C251.258 33.2008 250.86 33.4738 250.42 33.6574C249.98 33.8411 249.507 33.9313 249.031 33.9226ZM248.865 27.1743C248.39 27.1742 247.922 27.291 247.502 27.5145C247.083 27.7352 246.717 28.0462 246.431 28.4252V32.0435C246.707 32.4322 247.073 32.7476 247.497 32.9625C247.924 33.1839 248.398 33.2987 248.879 33.2972C249.683 33.2921 250.452 32.9675 251.019 32.3941C251.587 31.8207 251.906 31.0449 251.907 30.2357C251.912 29.8338 251.835 29.4351 251.682 29.064C251.529 28.6928 251.302 28.3569 251.016 28.0768C250.738 27.7853 250.404 27.5547 250.034 27.3993C249.664 27.244 249.266 27.1674 248.865 27.1743Z" fill="black"/>
<path d="M257.73 30.7214L260.426 26.7574H261.213V33.7143H260.48V27.9535L257.937 31.6404H257.504L254.974 27.9535V33.7143H254.232V26.7574H255.02L257.73 30.7214Z" fill="black"/>
<path d="M265.098 33.9227C264.49 33.9559 263.891 33.7603 263.419 33.3741C263.216 33.1969 263.056 32.9762 262.949 32.7284C262.843 32.4806 262.793 32.212 262.803 31.9421C262.79 31.6675 262.842 31.3937 262.954 31.1433C263.067 30.8928 263.238 30.673 263.452 30.5019C263.91 30.1426 264.454 29.9099 265.03 29.8271C265.951 29.7054 266.879 29.645 267.808 29.6461V28.9356C267.808 28.2772 267.642 27.82 267.311 27.5639C266.9 27.2968 266.415 27.1681 265.927 27.1963C265.515 27.1972 265.107 27.2827 264.73 27.4479C264.352 27.613 264.011 27.8541 263.73 28.1565L263.258 27.6545C263.627 27.2865 264.066 26.997 264.548 26.8033C265.03 26.6096 265.546 26.5156 266.066 26.527C266.475 26.5169 266.882 26.583 267.268 26.7218C267.541 26.8171 267.794 26.9663 268.009 27.1607C268.182 27.3421 268.31 27.5621 268.383 27.8026C268.454 27.9973 268.503 28.1999 268.527 28.4061C268.527 28.546 268.527 28.7188 268.527 28.9218V33.695H267.794V32.3454C266.993 33.3951 266.094 33.9209 265.098 33.9227ZM265.098 33.2534C266.139 33.2534 267.043 32.6645 267.808 31.4868V30.3181C266.92 30.3126 266.033 30.3685 265.153 30.4855C265.01 30.5072 264.869 30.542 264.733 30.5897C264.553 30.653 264.378 30.7319 264.212 30.8256C264.017 30.9345 263.851 31.0899 263.73 31.2783C263.599 31.4762 263.531 31.7098 263.536 31.9476C263.519 32.1445 263.555 32.3425 263.641 32.52C263.728 32.6976 263.861 32.8478 264.027 32.9544C264.349 33.1528 264.72 33.2564 265.098 33.2534Z" fill="black"/>
</svg>
