<?xml version="1.0" standalone="no"?>
<!DOCTYPE svg PUBLIC "-//W3C//DTD SVG 1.1//EN" "http://www.w3.org/Graphics/SVG/1.1/DTD/svg11.dtd" >
<svg>
<metadata>
Created by FontForge 20090914 at Thu Feb 25 10:02:43 2021
 By www-data
Copyright (c) 2012 by Letterhead Studio Moscow. All rights reserved.
</metadata>
<defs>
<font id="RedRing-Regular" horiz-adv-x="558" >
  <font-face 
    font-family="Red Ring"
    font-weight="400"
    font-stretch="normal"
    units-per-em="1000"
    panose-1="2 11 5 4 2 2 2 2 2 4"
    ascent="770"
    descent="-230"
    x-height="500"
    cap-height="700"
    bbox="-41 -297.001 1092 988.999"
    underline-thickness="50"
    underline-position="-100"
    unicode-range="U+0020-U+FE69"
  />
<missing-glyph horiz-adv-x="362" 
 />
    <glyph glyph-name="fi" unicode="fi" horiz-adv-x="624" 
d="M464 0l0.000976562 423h-248v-423h-90v423h-101v77h101c0 143.333 51 215 153 215c32.667 0 65.667 -7 99 -21v-73c-28.667 12.667 -56.334 19 -83.001 19c-30.667 0 -51.5 -10.167 -62.5 -30.5s-16.5 -56.833 -16.5 -109.5h338v-500h-90zM452.001 629
c0 15.333 5.5 28.666 16.5 39.999s24.167 17 39.5 17c16 0 29.5 -5.66699 40.5 -17s16.5 -24.666 16.5 -39.999s-5.5 -28.5 -16.5 -39.5s-24.5 -16.5 -40.5 -16.5c-15.333 0 -28.5 5.5 -39.5 16.5s-16.5 24.167 -16.5 39.5z" />
    <glyph glyph-name="fl" unicode="fl" horiz-adv-x="612" 
d="M452 710h90.002v-710h-90v423h-236v-423h-90v423h-101v77h101c0 72 12.167 125.833 36.5 161.5s63.166 53.5 116.499 53.5c32.667 0 65.667 -7 99 -21v-73c-28.667 12.667 -56.334 19 -83.001 19c-29.333 0 -49.833 -12 -61.5 -36s-17.5 -58.667 -17.5 -104h236v210z" />
    <glyph glyph-name=".notdef" horiz-adv-x="362" 
 />
    <glyph glyph-name="space" unicode=" " horiz-adv-x="250" 
 />
    <glyph glyph-name="exclam" unicode="!" horiz-adv-x="266" 
d="M97 190l-22 510h117l-22 -510h-73zM70 52c0 18 6 33.167 18 45.5s27 18.5 45 18.5c17.333 0 32.166 -6.33301 44.499 -19s18.5 -27.667 18.5 -45s-6.16699 -32 -18.5 -44s-27.166 -18 -44.499 -18c-18 0 -33 6 -45 18s-18 26.667 -18 44z" />
    <glyph glyph-name="quotedbl" unicode="&#x22;" horiz-adv-x="375" 
d="M245 446l-9 254h89l-34 -254h-46zM60 446l-10 254h90l-35 -254h-45z" />
    <glyph glyph-name="numbersign" unicode="#" horiz-adv-x="701" 
d="M133 0l30 176h-113v69h125l37 214h-122v69h134l29 172h70l-29 -172h174l29 172h70l-29 -172h113v-69h-124l-38 -214h122v-69h-133l-30 -176h-71l30 176h-173l-30 -176h-71zM245 245h174l37 214h-173z" />
    <glyph glyph-name="dollar" unicode="$" horiz-adv-x="556" 
d="M243 -100l0.000976562 86.9971c-81.333 7.33301 -152 38 -212 92l52 73c46.667 -42 100 -67.333 160 -76v247c-28 8.66699 -51.667 17.167 -71 25.5s-39 20 -59 35s-35.167 34.5 -45.5 58.5s-15.5 52 -15.5 84c0 50 17.5 91.667 52.5 125s81.167 53.666 138.5 60.999v88
h80v-87c36 -4 67.667 -13.167 95 -27.5s56.666 -35.166 87.999 -62.499l-52 -70c-45.333 41.333 -89 65.666 -131 72.999v-224c30.667 -8.66699 55.667 -17.167 75 -25.5s40 -20.166 62 -35.499s38.5 -35.166 49.5 -59.499s16.5 -52.833 16.5 -85.5
c0 -53.333 -18.667 -99.666 -56 -138.999s-86.333 -62.666 -147 -69.999v-87h-80zM429.001 195.997c0 26.667 -9.16699 47.832 -27.5 63.499s-44.5 28.834 -78.5 39.501v-223c31.333 7.33301 56.833 22 76.5 44s29.5 47.333 29.5 76zM143.001 525.995
c0 -25.333 8.66699 -45.668 26 -61.001s42 -28.333 74 -39v200c-28.667 -5.33301 -52.5 -16.666 -71.5 -33.999s-28.5 -39.333 -28.5 -66z" />
    <glyph glyph-name="percent" unicode="%" horiz-adv-x="724" 
d="M191 423c-42 0 -76 13.333 -102 40s-39 59.334 -39 98.001s13 71.334 39 98.001s60 40 102 40s76.167 -13.333 102.5 -40s39.5 -59.334 39.5 -98.001s-13.167 -71.334 -39.5 -98.001s-60.5 -40 -102.5 -40zM191 486c23.333 0 42.333 7.33301 57 22s22 32.334 22 53.001
s-7.33301 38.334 -22 53.001s-33.667 22 -57 22s-42.166 -7.33301 -56.499 -22s-21.5 -32.334 -21.5 -53.001s7.16699 -38.334 21.5 -53.001s33.166 -22 56.499 -22zM136 0h-86l538 700h86zM533 0c-42.667 0 -77 13.1709 -103 39.5039s-39 59.166 -39 98.499
s13 72.166 39 98.499s60.333 39.5 103 39.5c41.333 0 75.166 -13.333 101.499 -40s39.5 -59.334 39.5 -98.001s-13.167 -71.334 -39.5 -98.001s-60.166 -40 -101.499 -40zM533 63.0039c22.667 0 41.334 7.33105 56.001 21.998s22 32.334 22 53.001
s-7.33301 38.334 -22 53.001s-33.334 22 -56.001 22c-23.333 0 -42.166 -7.16699 -56.499 -21.5s-21.5 -32.166 -21.5 -53.499c0 -20.667 7.16699 -38.334 21.5 -53.001s33.166 -22 56.499 -22z" />
    <glyph glyph-name="ampersand" unicode="&#x26;" horiz-adv-x="660" 
d="M618 335c-50.667 -102.667 -85.332 -169 -103.999 -199l131 -136h-122l-70 73c-57.333 -58.667 -123.333 -88 -198 -88c-72.667 0 -128.334 18.333 -167.001 55s-58 84.334 -58 143.001c0 41.333 13 75.5 39 102.5s62.667 52.5 110 76.5c-32 34 -56.333 64.667 -73 92
s-25 57 -25 89c0 45.333 19.833 85.333 59.5 120s89.5 52 149.5 52c60.667 0 107.334 -16 140.001 -48s49 -72.667 49 -122c0 -25.333 -4.33301 -48.333 -13 -69s-21.667 -39.167 -39 -55.5s-34.333 -29.833 -51 -40.5s-37.334 -22.334 -62.001 -35.001l43 -45l50.5 -53
l43.5 -45l64 133h103zM263.002 60c49.333 0 93.667 23.998 133 71.998l-163 172c-34.667 -19.333 -61 -38.166 -79 -56.499s-27 -41.166 -27 -68.499c0 -36.667 12.333 -65.667 37 -87s57.667 -32 99 -32zM171.003 538.998c0 -6 0.831055 -12 2.49805 -18
s3.33398 -11.333 5.00098 -16s4.66699 -10.5 9 -17.5l10.5 -16.5c2.66699 -4 7.33398 -9.83301 14.001 -17.5l14.5 -16.5l17 -18.5c8.33301 -9 13.833 -14.833 16.5 -17.5c41.333 21.333 72.833 42.5 94.5 63.5s32.5 47.833 32.5 80.5c0 28.667 -9.16699 51 -27.5 67
s-42.833 24 -73.5 24c-34.667 0 -62.5 -9.16699 -83.5 -27.5s-31.5 -41.5 -31.5 -69.5z" />
    <glyph glyph-name="quotesingle" unicode="'" horiz-adv-x="190" 
d="M60 446l-10 254h90l-35 -254h-45z" />
    <glyph glyph-name="parenleft" unicode="(" horiz-adv-x="383" 
d="M337 -152c-191.333 103.333 -287 253 -287 449s95.667 345.667 287 449l36 -52c-78.667 -48 -137.5 -106.333 -176.5 -175s-58.5 -142.667 -58.5 -222c0 -77.333 19.667 -151 59 -221s98 -128.667 176 -176z" />
    <glyph glyph-name="parenright" unicode=")" horiz-adv-x="383" 
d="M45 -152l-35 52.002c78.667 48 137.5 106.167 176.5 174.5s58.5 142.5 58.5 222.5c0 79.333 -19.5 153.333 -58.5 222s-97.833 127 -176.5 175l35 52c192 -102.667 288 -252.334 288 -449.001s-96 -346.334 -288 -449.001z" />
    <glyph glyph-name="asterisk" unicode="*" horiz-adv-x="439" 
d="M185 369l16 140l-115 -84l-36 60l135 58l-135 57l36 60l115 -84l-16 141h69l-17 -141l116 84l36 -60l-135 -57l135 -58l-36 -60l-116 84l17 -140h-69z" />
    <glyph glyph-name="plus" unicode="+" horiz-adv-x="640" 
d="M282 33v217h-219v73h219v217h75v-217h219v-73h-219v-217h-75z" />
    <glyph glyph-name="comma" unicode="," horiz-adv-x="273" 
d="M42 -148l38 261h117l-90 -261h-65z" />
    <glyph glyph-name="hyphen" unicode="-" horiz-adv-x="402" 
d="M61 251v83h279v-83h-279z" />
    <glyph glyph-name="period" unicode="." horiz-adv-x="266" 
d="M70 52c0 18 6 33.167 18 45.5s27 18.5 45 18.5c17.333 0 32.166 -6.33301 44.499 -19s18.5 -27.667 18.5 -45s-6.16699 -32 -18.5 -44s-27.166 -18 -44.499 -18c-18 0 -33 6 -45 18s-18 26.667 -18 44z" />
    <glyph glyph-name="slash" unicode="/" horiz-adv-x="454" 
d="M83 -100h-83l371 850h83z" />
    <glyph glyph-name="zero" unicode="0" horiz-adv-x="568" 
d="M512 350c0 -126.667 -20.832 -219.167 -62.499 -277.5s-97.167 -87.5 -166.5 -87.5c-68.667 0 -123.834 29.167 -165.501 87.5s-62.5 150.833 -62.5 277.5c0 125.333 21 217.5 63 276.5s97 88.5 165 88.5c68.667 0 124 -29.167 166 -87.5s63 -150.833 63 -277.5z
M155.001 350c0 -186 42.333 -279.001 127 -279.001c37.333 0 68.333 21.833 93 65.5s37 114.834 37 213.501s-12.333 169.667 -37 213s-55.667 65 -93 65c-84.667 0 -127 -92.667 -127 -278z" />
    <glyph glyph-name="one" unicode="1" horiz-adv-x="568" 
d="M530 91v-91h-458v91h179v493l-145 -82l-41 74l237 134h49v-619h179z" />
    <glyph glyph-name="two" unicode="2" horiz-adv-x="568" 
d="M123 537l-55.001 62.9971c64.667 76.667 139 115 223 115c65.333 0 115.666 -18.333 150.999 -55s53 -84.667 53 -144c0 -40 -12 -81.667 -36 -125s-50.5 -81.666 -79.5 -114.999s-81.5 -89.666 -157.5 -168.999c-6.66699 -7.33301 -11.667 -12.666 -15 -15.999h299v-91
h-440v71l94 99.5l80 83.5l58 63.5c22.667 25.667 38.334 44.667 47.001 57s18 27.5 28 45.5s16.5 34 19.5 48s4.5 29.333 4.5 46c0 31.333 -10.167 58.333 -30.5 81s-48.166 34 -83.499 34c-31.333 0 -59.333 -7.33301 -84 -22s-50 -38 -76 -70z" />
    <glyph glyph-name="three" unicode="3" horiz-adv-x="568" 
d="M269 71c40 0 71.168 12.168 93.501 36.501s33.5 52.5 33.5 84.5c0 42 -8.83301 74.667 -26.5 98s-42.167 35 -73.5 35c-24 0 -50.333 -4.66699 -79 -14l-19 70l55 15c37.333 10.667 70 28.5 98 53.5s42 53.167 42 84.5c0 29.333 -9 52.666 -27 69.999s-43.333 26 -76 26
s-61.334 -7.16699 -86.001 -21.5s-50 -35.833 -76 -64.5c-19.333 22.667 -36.333 43.667 -51 63c62 72 133 108 213 108c62 0 110.333 -15.833 145 -47.5s52 -71.5 52 -119.5c0 -36.667 -10.667 -70.334 -32 -101.001s-52.333 -55 -93 -73
c46 -9.33301 81.833 -30.166 107.5 -62.499s38.5 -69.166 38.5 -110.499c0 -60.667 -22.167 -111.834 -66.5 -153.501s-102.833 -62.5 -175.5 -62.5c-46 0 -83.333 7.33301 -112 22s-59.667 38 -93 70l53 70c26 -26.667 50.833 -46 74.5 -58s50.5 -18 80.5 -18z" />
    <glyph glyph-name="four" unicode="4" horiz-adv-x="568" 
d="M436 0h-100v183h-303l-11 67l340 460h74v-450h120v-77h-120v-183zM336 557l-219 -297h219v297z" />
    <glyph glyph-name="five" unicode="5" horiz-adv-x="568" 
d="M193 608l-24.002 -187c36 21.333 80 32 132 32c65.333 0 116 -21 152 -63s54 -95.333 54 -160c0 -67.333 -21 -125 -63 -173s-101 -72 -177 -72c-46 0 -83.667 7.5 -113 22.5s-60.666 38.167 -93.999 69.5l53 70c26 -26.667 50.667 -46 74 -58s50 -18 80 -18
c42.667 0 76.834 15.5 102.501 46.5s38.5 68.5 38.5 112.5c0 46 -11.667 81.5 -35 106.5s-54 37.5 -92 37.5c-56 0 -101.333 -14.667 -136 -44l-63 26l43 344h364v-92h-296z" />
    <glyph glyph-name="six" unicode="6" horiz-adv-x="568" 
d="M446 573c-16.667 18.667 -37.834 33.6631 -63.501 44.9961s-51.5 17 -77.5 17c-42 0 -76.667 -19.5 -104 -58.5s-42.333 -99.833 -45 -182.5c32.667 49.333 86.334 74 161.001 74c53.333 0 99.166 -19.667 137.499 -59s57.5 -96.666 57.5 -171.999
c0 -79.333 -22.167 -141.166 -66.5 -185.499s-98.166 -66.5 -161.499 -66.5c-79.333 0 -137.166 27.5 -173.499 82.5s-54.5 144.167 -54.5 267.5c0 70.667 5.83301 131 17.5 181s28.667 89.333 51 118s48 49.334 77 62.001s63.167 19 102.5 19
c36.667 0 69.167 -5.66699 97.5 -17s58.166 -30.666 89.499 -57.999zM157 250.996c-1.33301 -59.333 10.498 -104.167 35.498 -134.5s56.5 -45.5 94.5 -45.5c34 0 64 13.833 90 41.5s39 68.5 39 122.5c0 52 -11.333 90.667 -34 116s-49 38 -79 38
c-14.667 0 -29.167 -1.83301 -43.5 -5.5s-29.666 -10 -45.999 -19s-29.666 -23.167 -39.999 -42.5s-15.833 -43 -16.5 -71z" />
    <glyph glyph-name="seven" unicode="7" horiz-adv-x="568" 
d="M518 628l-258 -628h-105l253 605h-351v95h461v-72z" />
    <glyph glyph-name="eight" unicode="8" horiz-adv-x="568" 
d="M492 531c0 -42.667 -10.4971 -76.833 -31.4971 -102.5s-50.5 -47.834 -88.5 -66.501c44 -20.667 78.333 -44.5 103 -71.5s37 -63.833 37 -110.5c0 -59.333 -20.333 -106.666 -61 -141.999s-96.334 -53 -167.001 -53s-126.334 17.667 -167.001 53s-61 82.666 -61 141.999
c0 46.667 12.333 83.667 37 111s59 51.333 103 72c-37.333 18 -66.5 39.833 -87.5 65.5s-31.5 59.834 -31.5 102.501c0 54.667 19.167 99 57.5 133s88.166 51 149.499 51c63.333 0 113.833 -17.167 151.5 -51.5s56.5 -78.5 56.5 -132.5zM412.003 194.001
c0 34 -11 60.667 -33 80s-53.667 38 -95 56c-42 -18 -73.833 -36.667 -95.5 -56s-32.5 -46 -32.5 -80c0 -38 11.333 -68.5 34 -91.5s54 -34.5 94 -34.5c40.667 0 72.167 11.5 94.5 34.5s33.5 53.5 33.5 91.5zM174.003 522.001c0 -29.333 9.33301 -53 28 -71
s46 -35.333 82 -52c36 16.667 63.5 34 82.5 52s28.5 41.667 28.5 71c0 34.667 -10.5 61.5 -31.5 80.5s-47.5 28.5 -79.5 28.5s-58.333 -9.5 -79 -28.5s-31 -45.833 -31 -80.5z" />
    <glyph glyph-name="nine" unicode="9" horiz-adv-x="568" 
d="M77 60l45 67.0039c16.667 -18.667 37.834 -33.667 63.501 -45s51.5 -17 77.5 -17c42 0 76.667 19.5 104 58.5s42.333 99.833 45 182.5c-32.667 -49.333 -86.334 -74 -161.001 -74c-53.333 0 -99.166 19.667 -137.499 59s-57.5 96.666 -57.5 171.999
c0 79.333 22.167 141.166 66.5 185.499s98.166 66.5 161.499 66.5c79.333 0 137.166 -27.5 173.499 -82.5s54.5 -144.167 54.5 -267.5c0 -70.667 -5.83301 -131 -17.5 -181s-28.667 -89.333 -51 -118s-48 -49.334 -77 -62.001s-63.167 -19 -102.5 -19
c-36.667 0 -69.167 5.66699 -97.5 17s-58.166 30.666 -89.499 57.999zM411 449.004c1.33301 59.333 -10.498 104.167 -35.498 134.5s-56.5 45.5 -94.5 45.5c-34 0 -64 -13.833 -90 -41.5s-39 -68.5 -39 -122.5c0 -52 11.333 -90.667 34 -116s49 -38 79 -38
c14.667 0 29.167 1.83301 43.5 5.5s29.666 10 45.999 19s29.666 23.167 39.999 42.5s15.833 43 16.5 71z" />
    <glyph glyph-name="colon" unicode=":" horiz-adv-x="266" 
d="M70 439c0 18 6 33.167 18 45.5s27 18.5 45 18.5c17.333 0 32.166 -6.33301 44.499 -19s18.5 -27.667 18.5 -45s-6.16699 -32 -18.5 -44s-27.166 -18 -44.499 -18c-18 0 -33 6 -45 18s-18 26.667 -18 44zM70 52c0 18 6 33.167 18 45.5s27 18.5 45 18.5
c17.333 0 32.166 -6.33301 44.499 -19s18.5 -27.667 18.5 -45s-6.16699 -32 -18.5 -44s-27.166 -18 -44.499 -18c-18 0 -33 6 -45 18s-18 26.667 -18 44z" />
    <glyph glyph-name="semicolon" unicode=";" horiz-adv-x="275" 
d="M79 439c0 17.333 6 32.333 18 45s26.667 19 44 19s32.333 -6.33301 45 -19s19 -27.667 19 -45s-6.33301 -32 -19 -44s-27.667 -18 -45 -18s-32 6 -44 18s-18 26.667 -18 44zM42 -148l38 261h117l-90 -261h-65z" />
    <glyph glyph-name="less" unicode="&#x3c;" horiz-adv-x="625" 
d="M555 15l-242.5 115l-242.5 115v67l485 231v-77l-396 -187l396 -187v-77z" />
    <glyph glyph-name="equal" unicode="=" horiz-adv-x="653" 
d="M70 362v75h513v-75h-513zM70 133v75h513v-75h-513z" />
    <glyph glyph-name="greater" unicode="&#x3e;" horiz-adv-x="555" 
d="M35 15v77l396 186l-396 188v77l485 -231v-67z" />
    <glyph glyph-name="question" unicode="?" horiz-adv-x="527" 
d="M457 535c0 -27.333 -6.83398 -52.498 -20.501 -75.498s-30.167 -42.667 -49.5 -59l-57.5 -49.5c-19 -16.667 -35.333 -37 -49 -61s-20.5 -50.667 -20.5 -80c0 -8.66699 0.333008 -15.334 1 -20.001h-84c-2 14 -3 27 -3 39c0 32 6.33301 60.833 19 86.5s28 46.667 46 63
s35.833 31.666 53.5 45.999s32.834 30.333 45.501 48s19 36.5 19 56.5c0 34.667 -11.167 60.834 -33.5 78.501s-51.5 26.5 -87.5 26.5c-69.333 0 -121 -31.333 -155 -94l-61 49c52.667 84 127 126 223 126c65.333 0 117.333 -16.333 156 -49s58 -76.334 58 -131.001z
M154.999 52.002c0 17.333 6.16699 32.333 18.5 45s27.166 19 44.499 19s32.166 -6.33301 44.499 -19s18.5 -27.667 18.5 -45s-6.16699 -32 -18.5 -44s-27.166 -18 -44.499 -18s-32.166 6 -44.499 18s-18.5 26.667 -18.5 44z" />
    <glyph glyph-name="at" unicode="@" horiz-adv-x="986" 
d="M682 0l-50.998 0.00195312v63c-40.667 -48 -92.667 -72 -156 -72c-64.667 0 -118.667 23.167 -162 69.5s-65 102.5 -65 168.5c0 66.667 21.667 123.334 65 170.001s97.333 70 162 70c63.333 0 115.333 -24.333 156 -73v59h82v-395
c48.667 9.33301 87.5 36.666 116.5 81.999s43.5 96.333 43.5 153c0 40 -6.83301 77.5 -20.5 112.5s-34.667 67.333 -63 97s-67.333 53.167 -117 70.5s-107.167 26 -172.5 26c-108.667 0 -197.834 -35 -267.501 -105s-104.5 -156 -104.5 -258
c0 -100.667 35.667 -184.334 107 -251.001s160.666 -100 267.999 -100v-58c-123.333 0 -226.333 39 -309 117s-124 175.333 -124 292c0 118.667 40.333 218.5 121 299.5s183.667 121.5 309 121.5c59.333 0 113.5 -6.83301 162.5 -20.5s90.167 -31.834 123.5 -54.501
s61.5 -49.5 84.5 -80.5s39.667 -63.333 50 -97s15.5 -68.5 15.5 -104.5c0 -82 -23.833 -152.833 -71.5 -212.5s-108.5 -89.5 -182.5 -89.5zM498.002 63.002c55.333 0 99.666 22.333 132.999 67v198c-33.333 44.667 -77.666 67 -132.999 67
c-44.667 0 -83.167 -16.333 -115.5 -49s-48.5 -71.667 -48.5 -117s16.167 -84.333 48.5 -117s70.833 -49 115.5 -49z" />
    <glyph glyph-name="A" unicode="A" horiz-adv-x="672" 
d="M393 700l267 -700h-100l-67 172h-315l-66 -172h-100l267 700h114zM336 585l-128 -329h255z" />
    <glyph glyph-name="B" unicode="B" horiz-adv-x="628" 
d="M556 527c0 -34 -9.83301 -65.5 -29.5 -94.5s-45.167 -51.167 -76.5 -66.5c39.333 -14.667 71.333 -38 96 -70s37 -68 37 -108c0 -52.667 -19.5 -97.167 -58.5 -133.5s-87.833 -54.5 -146.5 -54.5h-298v700h261c60.667 0 111.667 -15.833 153 -47.5s62 -73.5 62 -125.5z
M180 82h178c34.667 0 64.167 11.5 88.5 34.5s36.5 51.5 36.5 85.5c0 33.333 -12.167 61.5 -36.5 84.5s-53.833 34.5 -88.5 34.5h-178v-239zM460 510c0 29.333 -11.333 54.5 -34 75.5s-49.334 31.5 -80.001 31.5h-166v-217h166c30.667 0 57.334 10.833 80.001 32.5
s34 47.5 34 77.5z" />
    <glyph glyph-name="C" unicode="C" horiz-adv-x="693" 
d="M413 77c84 0 154.333 25.668 211 77.001l52 -78c-69.333 -60.667 -157 -91 -263 -91c-113.333 0 -203.5 34.5 -270.5 103.5s-100.5 156.167 -100.5 261.5c0 104.667 33.5 191.667 100.5 261s157.167 104 270.5 104c105.333 0 193 -30.667 263 -92l-52 -78
c-56.667 51.333 -127 77 -211 77c-80.667 0 -145.5 -26 -194.5 -78s-73.5 -116.667 -73.5 -194c0 -76.667 24.5 -141.334 73.5 -194.001s113.833 -79 194.5 -79z" />
    <glyph glyph-name="D" unicode="D" horiz-adv-x="683" 
d="M135 97h154c81.333 0 144.833 23 190.5 69s68.5 107 68.5 183s-22.833 137.167 -68.5 183.5s-109.167 69.5 -190.5 69.5h-154v-505zM288 0h-253v700h253c112.667 0 200.834 -32.5 264.501 -97.5s95.5 -149.167 95.5 -252.5c0 -104 -31.833 -188.333 -95.5 -253
s-151.834 -97 -264.501 -97z" />
    <glyph glyph-name="E" unicode="E" horiz-adv-x="593" 
d="M548 89v-89h-468v700h461v-90h-361v-206h319v-87h-319v-228h368z" />
    <glyph glyph-name="F" unicode="F" horiz-adv-x="566" 
d="M499 391v-92h-329v-299h-100v700h461v-92h-361v-217h329z" />
    <glyph glyph-name="G" unicode="G" horiz-adv-x="722" 
d="M343 286v77.001h339v-284c-73.333 -62.667 -163 -94 -269 -94c-113.333 0 -203.5 34.5 -270.5 103.5s-100.5 156.167 -100.5 261.5c0 104.667 33.5 191.667 100.5 261s157.167 104 270.5 104c85.333 0 159.666 -20.333 222.999 -61l-45 -81
c-49.333 31.333 -106.666 47 -171.999 47c-83.333 0 -149.833 -25.5 -199.5 -76.5s-74.5 -115.5 -74.5 -193.5c0 -76.667 24.5 -141.334 73.5 -194.001s113.833 -79 194.5 -79c66 0 123 19 171 57v152h-241z" />
    <glyph glyph-name="H" unicode="H" horiz-adv-x="706" 
d="M526 0v317h-346v-317h-100v700h100v-292h346v292h100v-700h-100z" />
    <glyph glyph-name="I" unicode="I" horiz-adv-x="260" 
d="M80 0v700h100v-700h-100z" />
    <glyph glyph-name="J" unicode="J" horiz-adv-x="420" 
d="M245 186l-0.000976562 514h100v-459c0 -86 -12.667 -150.167 -38 -192.5s-73.666 -63.5 -144.999 -63.5c-60.667 0 -113.667 21.667 -159 65l49 67c32.667 -28.667 64.667 -43 96 -43c30.667 0 54.5 9.83301 71.5 29.5s25.5 47.167 25.5 82.5z" />
    <glyph glyph-name="K" unicode="K" horiz-adv-x="663" 
d="M528 0l-336 361l319 339h112l-319 -339l345 -361h-121zM80 0v700h100v-700h-100z" />
    <glyph glyph-name="L" unicode="L" horiz-adv-x="563" 
d="M80 0v700h100v-609h358v-91h-458z" />
    <glyph glyph-name="M" unicode="M" horiz-adv-x="812" 
d="M178 698l228 -354l228 354h98v-698h-94v551l-210 -326h-44l-209 326v-551h-95v698h98z" />
    <glyph glyph-name="N" unicode="N" horiz-adv-x="717" 
d="M180 532v-532h-100v700h100l358 -534v534h99v-700h-100z" />
    <glyph glyph-name="O" unicode="O" horiz-adv-x="826" 
d="M413 619c-81.333 0 -147 -25.667 -197 -77s-75 -115.333 -75 -192c0 -77.333 25 -141.666 75 -192.999s115.667 -77 197 -77s146.833 25.667 196.5 77s74.5 115.666 74.5 192.999c0 76.667 -25 140.667 -75 192s-115.333 77 -196 77zM413 -15
c-113.333 0 -203.5 34.5 -270.5 103.5s-100.5 156.167 -100.5 261.5c0 104.667 33.5 191.667 100.5 261s157.167 104 270.5 104s203.5 -34.667 270.5 -104s100.5 -156.333 100.5 -261c0 -105.333 -33.5 -192.5 -100.5 -261.5s-157.167 -103.5 -270.5 -103.5z" />
    <glyph glyph-name="P" unicode="P" horiz-adv-x="613" 
d="M180 263l-0.000976562 -263h-100v700h264c72 0 129 -20.5 171 -61.5s63 -93.5 63 -157.5c0 -62.667 -21.667 -114.667 -65 -156s-99.666 -62 -168.999 -62h-164zM338.999 608h-159v-254h159c44 0 78.167 11.667 102.5 35s36.5 54.333 36.5 93
c0 38 -12.167 68.5 -36.5 91.5s-58.5 34.5 -102.5 34.5z" />
    <glyph glyph-name="Q" unicode="Q" horiz-adv-x="826" 
d="M791 20l-63 -73l-114 93c-58.667 -36.667 -128 -55 -208 -55c-113.333 0 -203.5 34.5 -270.5 103.5s-100.5 156.167 -100.5 261.5c0 104.667 33.5 191.667 100.5 261s157.167 104 270.5 104s203.5 -34.667 270.5 -104s100.5 -156.333 100.5 -261
c0 -98 -29.667 -179.667 -89 -245zM406 619c-81.333 0 -147 -25.668 -197 -77.001s-75 -115.333 -75 -192c0 -77.333 25 -141.666 75 -192.999s115.667 -77 197 -77c49.333 0 93.333 12.333 132 37l-120 100l63 73l133 -120c42 49.333 63 109.333 63 180
c0 76.667 -25 140.667 -75 192s-115.333 77 -196 77z" />
    <glyph glyph-name="R" unicode="R" horiz-adv-x="633" 
d="M180 263v-262.999h-100v700h264c72 0 128.5 -20.5 169.5 -61.5s61.5 -93.167 61.5 -156.5c0 -51.333 -15.833 -96.333 -47.5 -135s-74.167 -63.334 -127.5 -74.001l193 -273h-112l-185 263h-116zM339 608.001h-159v-254h159c44 0 78.167 11.667 102.5 35
s36.5 54.333 36.5 93c0 38 -12.167 68.5 -36.5 91.5s-58.5 34.5 -102.5 34.5z" />
    <glyph glyph-name="S" unicode="S" horiz-adv-x="592" 
d="M455 196c0 22.667 -7.16504 41.498 -21.498 56.498s-33 26.833 -56 35.5s-48.5 16.5 -76.5 23.5s-56 15.5 -84 25.5s-53.5 22 -76.5 36s-41.667 34 -56 60s-21.5 57 -21.5 93c0 56 22 101.5 66 136.5s99.333 52.5 166 52.5c47.333 0 88.666 -7.5 123.999 -22.5
s70.666 -38.167 105.999 -69.5l-52 -70c-56.667 51.333 -117 77 -181 77c-37.333 0 -69.5 -9.16699 -96.5 -27.5s-40.5 -43.833 -40.5 -76.5c0 -22 7.33301 -40.667 22 -56s33.667 -27.166 57 -35.499s49.166 -16.166 77.499 -23.499s56.5 -16 84.5 -26s53.667 -22 77 -36
s42.333 -34 57 -60s22 -57 22 -93c0 -58.667 -24.833 -108.5 -74.5 -149.5s-110.167 -61.5 -181.5 -61.5c-99.333 0 -184.666 31.333 -255.999 94l52 73c59.333 -52.667 128.333 -79 207 -79c42 0 78.5 12 109.5 36s46.5 53 46.5 87z" />
    <glyph glyph-name="T" unicode="T" horiz-adv-x="584" 
d="M559 700v-92h-217v-608h-100v608h-217v92h534z" />
    <glyph glyph-name="U" unicode="U" horiz-adv-x="690" 
d="M345 77c50.667 0 92.165 16.833 124.498 50.5s48.5 74.5 48.5 122.5v450h100v-447c0 -77.333 -24.667 -141.333 -74 -192s-115.666 -76 -198.999 -76s-149.666 25.333 -198.999 76s-74 114.667 -74 192v447h100v-450c0 -48 16.167 -88.833 48.5 -122.5
s73.833 -50.5 124.5 -50.5z" />
    <glyph glyph-name="V" unicode="V" horiz-adv-x="672" 
d="M279 0l-267 700h103l221 -583l221 583h103l-267 -700h-114z" />
    <glyph glyph-name="W" unicode="W" horiz-adv-x="985" 
d="M541 700l165 -547l164 547h103l-212 -700h-105l-164 538l-163 -538h-105l-212 700h103l163 -547l166 547h97z" />
    <glyph glyph-name="X" unicode="X" horiz-adv-x="673" 
d="M535 0l-198 273l-199 -273h-120l258 357l-248 343h120l189 -260l188 260h120l-249 -343l259 -357h-120z" />
    <glyph glyph-name="Y" unicode="Y" horiz-adv-x="650" 
d="M5 700h111l209 -353l209 353h111l-270 -449v-251h-100v250z" />
    <glyph glyph-name="Z" unicode="Z" horiz-adv-x="604" 
d="M553 700v-78l-383 -531h394v-91h-524v77l383 531h-373v92h503z" />
    <glyph glyph-name="bracketleft" unicode="[" horiz-adv-x="298" 
d="M65 -166v916h213v-70h-128v-776h128v-70h-213z" />
    <glyph glyph-name="backslash" unicode="\" horiz-adv-x="454" 
d="M454 -100h-83l-371 850h83z" />
    <glyph glyph-name="bracketright" unicode="]" horiz-adv-x="297" 
d="M232 750v-916h-212v70h128v776h-128v70h212z" />
    <glyph glyph-name="asciicircum" unicode="^" horiz-adv-x="427" 
d="M9 451l174 252h61l174 -252h-83l-122 173l-123 -173h-81z" />
    <glyph glyph-name="underscore" unicode="_" horiz-adv-x="767" 
d="M70 -172v72h627v-72h-627z" />
    <glyph glyph-name="grave" unicode="`" horiz-adv-x="500" 
d="M255 586l-146 153h122l91 -153h-67z" />
    <glyph glyph-name="a" unicode="a" horiz-adv-x="539" 
d="M202 -15c-52 0 -93.168 12.666 -123.501 37.999s-45.5 60 -45.5 104c0 22 3.66699 41.5 11 58.5s16.666 31.167 27.999 42.5s26.833 21 46.5 29s38.334 14.333 56.001 19s40.334 8.16699 68.001 10.5s51.334 3.83301 71.001 4.5s44.834 1.33398 75.501 2.00098v41
c0 72 -40 108 -120 108c-59.333 0 -112.666 -21 -159.999 -63l-49 55c59.333 54 131.666 81 216.999 81c40.667 0 75.167 -5.33301 103.5 -16s49.166 -25.167 62.499 -43.5s22.666 -36.5 27.999 -54.5s8 -37.333 8 -58v-343h-90v88c-54.667 -68.667 -117 -103 -187 -103z
M223.999 53.999c62.667 0 117.665 35.665 164.998 106.998v74c-64 0 -117.333 -3.66699 -160 -11c-13.333 -2 -26.666 -5.66699 -39.999 -11s-26.833 -15.166 -40.5 -29.499s-20.5 -31.166 -20.5 -50.499c0 -27.333 9.83301 -47.333 29.5 -60s41.834 -19 66.501 -19z" />
    <glyph glyph-name="b" unicode="b" horiz-adv-x="618" 
d="M332 -15c-70.667 0 -128.333 26.6689 -173 80.002v-65h-89v710h89v-277c20.667 25.333 46.167 45.166 76.5 59.499s62.5 21.5 96.5 21.5c72 0 131.833 -25.833 179.5 -77.5s71.5 -113.834 71.5 -186.501c0 -74 -23.833 -136.667 -71.5 -188s-107.5 -77 -179.5 -77z
M306.001 433.002c-60 0 -109 -25 -147 -75v-218c36.667 -49.333 85.667 -74 147 -74c50.667 0 93.667 17.833 129 53.5s53 79.167 53 130.5c0 50 -17.833 93 -53.5 129s-78.5 54 -128.5 54z" />
    <glyph glyph-name="c" unicode="c" horiz-adv-x="522" 
d="M122 250c0 -52 16.668 -95.166 50.001 -129.499s75.666 -51.5 126.999 -51.5c52.667 0 101 19 145 57l49 -64c-53.333 -51.333 -119 -77 -197 -77c-73.333 0 -135.166 26.333 -185.499 79s-75.5 114.667 -75.5 186c0 70.667 25.167 132.5 75.5 185.5
s112.166 79.5 185.499 79.5c77.333 0 143 -26 197 -78l-49 -64c-44 38 -92.333 57 -145 57c-50 0 -92 -17.333 -126 -52s-51 -77.334 -51 -128.001z" />
    <glyph glyph-name="d" unicode="d" horiz-adv-x="619" 
d="M549 0h-89.999v65c-44.667 -53.333 -102 -80 -172 -80c-72 0 -132 25.667 -180 77s-72 114 -72 188c0 73.333 24 135.833 72 187.5s108 77.5 180 77.5c69.333 0 126.666 -27 171.999 -81v276h90v-710zM312.001 66c61.333 0 110.333 24.667 147 74v219
c-37.333 49.333 -86.333 74 -147 74c-50 0 -92.833 -18 -128.5 -54s-53.5 -79 -53.5 -129c0 -50.667 17.833 -94 53.5 -130s78.5 -54 128.5 -54z" />
    <glyph glyph-name="e" unicode="e" horiz-adv-x="585" 
d="M550 264c0 -5.33301 -0.666992 -13.332 -2 -23.999h-422c4 -50.667 22 -93.167 54 -127.5s77 -51.5 135 -51.5c28 0 56.667 5.16699 86 15.5s54.333 24.166 75 41.499l42 -57c-25.333 -24 -56.833 -42.667 -94.5 -56s-76.5 -20 -116.5 -20c-76 0 -140.333 24 -193 72
s-79 109 -79 183c0 76 25.167 140.833 75.5 194.5s111.5 80.5 183.5 80.5c80 0 142.667 -24.167 188 -72.5s68 -107.833 68 -178.5zM462 305.001c-6.66699 38.667 -24.5 70.5 -53.5 95.5s-67.167 37.5 -114.5 37.5c-40 0 -75 -12.167 -105 -36.5s-50 -56.5 -60 -96.5h333z
" />
    <glyph glyph-name="f" unicode="f" horiz-adv-x="396" 
d="M296 640c-30.667 0 -51.668 -10.5 -63.001 -31.5s-17 -57.167 -17 -108.5h162v-77h-162v-423h-90v423h-101v77h101c0 143.333 51 215 153 215c34.667 0 67.667 -7 99 -21v-73c-27.333 12.667 -54.666 19 -81.999 19z" />
    <glyph glyph-name="g" unicode="g" horiz-adv-x="619" 
d="M549 500l0.000976562 -478c0 -80 -24 -139.333 -72 -178s-107.667 -58 -179 -58c-83.333 0 -159.333 24.333 -228 73l37 61c60.667 -40.667 123.667 -61 189 -61c46 0 84.667 13.667 116 41s47 68 47 122v43c-44.667 -53.333 -102 -80 -172 -80
c-72 0 -132 25.667 -180 77s-72 114 -72 188c0 73.333 24 135.833 72 187.5s108 77.5 180 77.5c69.333 0 126.666 -27 171.999 -81v66h90zM312.001 66c61.333 0 110.333 24.667 147 74v219c-37.333 49.333 -86.333 74 -147 74c-50 0 -92.833 -18 -128.5 -54
s-53.5 -79 -53.5 -129c0 -50.667 17.833 -94 53.5 -130s78.5 -54 128.5 -54z" />
    <glyph glyph-name="h" unicode="h" horiz-adv-x="592" 
d="M442 0l0.000976562 295.999c0 42.667 -9.83301 75.334 -29.5 98.001s-46.167 34 -79.5 34c-32.667 0 -65.334 -8.66699 -98.001 -26s-58 -42.666 -76 -75.999v-326h-89v710h89v-289c21.333 29.333 49.333 52 84 68s70.667 24 108 24c52.667 0 96 -16.833 130 -50.5
s51 -83.834 51 -150.501v-312h-90z" />
    <glyph glyph-name="i" unicode="i" horiz-adv-x="230" 
d="M70 0v500h90v-500h-90zM59 629c0 15.333 5.5 28.666 16.5 39.999s24.167 17 39.5 17s28.5 -5.66699 39.5 -17s16.5 -24.666 16.5 -39.999s-5.5 -28.5 -16.5 -39.5s-24.167 -16.5 -39.5 -16.5s-28.5 5.5 -39.5 16.5s-16.5 24.167 -16.5 39.5z" />
    <glyph glyph-name="j" unicode="j" horiz-adv-x="230" 
d="M70 -204v704h90v-704h-90zM59 629c0 15.333 5.5 28.666 16.5 39.999s24.167 17 39.5 17s28.5 -5.66699 39.5 -17s16.5 -24.666 16.5 -39.999s-5.5 -28.5 -16.5 -39.5s-24.167 -16.5 -39.5 -16.5s-28.5 5.5 -39.5 16.5s-16.5 24.167 -16.5 39.5z" />
    <glyph glyph-name="k" unicode="k" horiz-adv-x="529" 
d="M70 710h90v-710h-90v710zM412 0l-234 264l224 236h107l-231 -236l241 -264h-107z" />
    <glyph glyph-name="l" unicode="l" horiz-adv-x="229" 
d="M70 710h89v-710h-89v710z" />
    <glyph glyph-name="m" unicode="m" horiz-adv-x="879" 
d="M489 0l-89.001 0.000976562v297c0 42 -9.33301 75.333 -28 100s-42 37 -70 37s-55.167 -9.5 -81.5 -28.5s-46.833 -44.5 -61.5 -76.5v-329h-89v500h89v-77c40.667 59.333 95.667 89 165 89c35.333 0 66.5 -8.83301 93.5 -26.5s46.167 -42.834 57.5 -75.501
c20 32.667 45.833 58 77.5 76s65.834 27 102.501 27c50 0 89.833 -16.833 119.5 -50.5s44.5 -83.5 44.5 -149.5v-313h-89v297c0 42 -9.33301 75.333 -28 100s-42 37 -70 37s-55.167 -9.5 -81.5 -28.5s-46.833 -44.5 -61.5 -76.5v-329z" />
    <glyph glyph-name="n" unicode="n" horiz-adv-x="592" 
d="M442 0l0.000976562 295.999c0 42.667 -9.83301 75.334 -29.5 98.001s-46.167 34 -79.5 34c-32.667 0 -65.334 -8.66699 -98.001 -26s-58 -42.666 -76 -75.999v-326h-89v500h89v-79c21.333 29.333 49.333 52 84 68s70.667 24 108 24c52.667 0 96 -16.833 130 -50.5
s51 -83.834 51 -150.501v-312h-90z" />
    <glyph glyph-name="o" unicode="o" horiz-adv-x="613" 
d="M307 63c52 0 95.667 18.167 131 54.5s53 80.5 53 132.5c0 50.667 -17.667 94.334 -53 131.001s-79 55 -131 55s-95.833 -18.333 -131.5 -55s-53.5 -80.334 -53.5 -131.001c0 -52 17.667 -96.167 53 -132.5s79.333 -54.5 132 -54.5zM307 -15
c-79.333 0 -144.5 25.5 -195.5 76.5s-76.5 113.833 -76.5 188.5c0 74 25.5 136.667 76.5 188s116.167 77 195.5 77s144.333 -25.667 195 -77s76 -114 76 -188c0 -74.667 -25.333 -137.5 -76 -188.5s-115.667 -76.5 -195 -76.5z" />
    <glyph glyph-name="p" unicode="p" horiz-adv-x="618" 
d="M332 -15c-70.667 0 -128.333 26.667 -173 80v-269h-89v704h89v-66c45.333 52.667 104 79 176 79c71.333 0 130.5 -25.667 177.5 -77s70.5 -113.333 70.5 -186c0 -74 -23.833 -136.667 -71.5 -188s-107.5 -77 -179.5 -77zM306.001 433
c-60.667 0 -109.667 -24.667 -147 -74v-219c36.667 -49.333 85.667 -74 147 -74c50.667 0 93.667 18 129 54s53 79.333 53 130c0 50 -17.833 93 -53.5 129s-78.5 54 -128.5 54z" />
    <glyph glyph-name="q" unicode="q" horiz-adv-x="619" 
d="M549 -204h-90v269c-44.667 -53.333 -102 -80 -172 -80c-20 0 -40 3.66699 -60 11c-57.333 12 -103.666 41.5 -138.999 88.5s-53 102.167 -53 165.5c0 73.333 24 135.833 72 187.5s108 77.5 180 77.5c69.333 0 126.666 -27 171.999 -81v66h90v-704zM312 66
c61.333 0 110.333 24.667 147 74v219c-37.333 49.333 -86.333 74 -147 74c-50 0 -92.833 -18 -128.5 -54s-53.5 -79 -53.5 -129c0 -50.667 17.833 -94 53.5 -130s78.5 -54 128.5 -54z" />
    <glyph glyph-name="r" unicode="r" horiz-adv-x="346" 
d="M331 513l0.000976562 -85c-40 0 -74.833 -11 -104.5 -33s-51.834 -53.333 -66.501 -94v-301h-90v500h90v-98c42 74 99 111 171 111z" />
    <glyph glyph-name="s" unicode="s" horiz-adv-x="469" 
d="M351 140c0 21.333 -10.167 37.665 -30.5 48.998s-44.833 19.833 -73.5 25.5s-57.5 12.667 -86.5 21s-53.667 23.333 -74 45s-30.5 50.834 -30.5 87.501c0 40.667 15.667 75.334 47 104.001s77.333 43 138 43c73.333 0 135 -26 185 -78l-46 -58
c-40.667 41.333 -87 62 -139 62c-29.333 0 -53.5 -6.16699 -72.5 -18.5s-28.5 -29.5 -28.5 -51.5c0 -20 10.333 -35.833 31 -47.5s45.667 -20.667 75 -27s58.5 -13.833 87.5 -22.5s53.833 -23.667 74.5 -45s31 -49 31 -83c0 -46.667 -17.333 -85.167 -52 -115.5
s-85 -45.5 -151 -45.5c-80 0 -148.667 26.667 -206 80l46 58c50 -44 103.333 -66 160 -66c37.333 0 65.833 7.5 85.5 22.5s29.5 35.167 29.5 60.5z" />
    <glyph glyph-name="t" unicode="t" horiz-adv-x="390" 
d="M204 423v-265c0 -32.667 7.33301 -56.5 22 -71.5s34 -22.5 58 -22.5c26 0 53.333 6 82 18v-73c-29.333 -12.667 -64 -19 -104 -19c-98 0 -147 53.667 -147 161v272h-102v77h102v117h89v-117h162v-77h-162z" />
    <glyph glyph-name="u" unicode="u" horiz-adv-x="593" 
d="M150 500l-0.00195312 -295.999c0 -42.667 9.83301 -75.5 29.5 -98.5s45.834 -34.5 78.501 -34.5c32 0 64.333 8.66699 97 26s58.667 42.666 78 75.999v327h90v-500h-90v78c-22 -28.667 -50.167 -51 -84.5 -67s-70.166 -24 -107.499 -24c-52.667 0 -96 16.667 -130 50
s-51 83.333 -51 150v313h90z" />
    <glyph glyph-name="v" unicode="v" horiz-adv-x="543" 
d="M222 0l-213 500h100l163 -395l164 395h98l-212 -500h-100z" />
    <glyph glyph-name="w" unicode="w" horiz-adv-x="774" 
d="M431 500l121 -372l119 372h94l-165 -500h-92l-122 365l-120 -365h-92l-165 500h94l119 -372l121 372h88z" />
    <glyph glyph-name="x" unicode="x" horiz-adv-x="544" 
d="M417 0l-145 187l-144 -187h-114l198 251l-195 249h113l142 -188l142 188h114l-202 -249l204 -251h-113z" />
    <glyph glyph-name="y" unicode="y" horiz-adv-x="540" 
d="M531 500l-302 -704h-94l86 205l-212 499h100l160 -387l164 387h98z" />
    <glyph glyph-name="z" unicode="z" horiz-adv-x="508" 
d="M164 78h311v-78h-442v65l303 356h-297v79h428v-66z" />
    <glyph glyph-name="braceleft" unicode="{" horiz-adv-x="377" 
d="M367 -113l-10.998 -56.9971c-28.667 6 -53.334 12.5 -74.001 19.5s-38.334 14 -53.001 21s-26.667 16.5 -36 28.5s-16.5 22.5 -21.5 31.5s-8.83301 22.833 -11.5 41.5s-4.16699 34.5 -4.5 47.5s-0.5 32.833 -0.5 59.5v42c0 40.667 -7.33301 74 -22 100s-37 39 -67 39h-36
v61h36c28 0 49.833 10.167 65.5 30.5s23.5 48.166 23.5 83.499v128c0 29.333 2.16699 52.833 6.5 70.5s13.5 34.5 27.5 50.5s34.333 29.167 61 39.5s62 20.166 106 29.499l11 -58c-32 -10 -55.833 -18.5 -71.5 -25.5s-28 -16.333 -37 -28s-14.333 -23.5 -16 -35.5
s-2.5 -31 -2.5 -57v-117c0 -77.333 -34.667 -124.333 -104 -141c69.333 -17.333 104 -64.333 104 -141v-117c0 -47.333 6.5 -78.833 19.5 -94.5s48.833 -32.834 107.5 -51.501z" />
    <glyph glyph-name="bar" unicode="|" horiz-adv-x="278" 
d="M100 -128v886h78v-886h-78z" />
    <glyph glyph-name="braceright" unicode="}" horiz-adv-x="377" 
d="M21 -170l-11 56.999c32 10 55.833 18.5 71.5 25.5s28 16.5 37 28.5s14.333 23.833 16 35.5s2.5 30.5 2.5 56.5v117c0 76.667 34.667 123.667 104 141c-69.333 16.667 -104 63.667 -104 141v117c0 26 -0.833008 44.833 -2.5 56.5s-7 23.5 -16 35.5s-21.5 21.5 -37.5 28.5
s-39.667 15.5 -71 25.5l11 58c44 -9.33301 79.333 -19.166 106 -29.499s47 -23.5 61 -39.5s23.167 -32.833 27.5 -50.5s6.5 -41.167 6.5 -70.5v-128c0 -34.667 8 -62.334 24 -83.001s37.667 -31 65 -31h36v-61h-36c-29.333 0 -51.5 -11.167 -66.5 -33.5
s-22.5 -53.166 -22.5 -92.499v-86c0 -36.667 -1.5 -64.5 -4.5 -83.5s-11.167 -38.167 -24.5 -57.5s-33.5 -34.5 -60.5 -45.5s-64.167 -21.5 -111.5 -31.5z" />
    <glyph glyph-name="asciitilde" unicode="~" horiz-adv-x="640" 
d="M63 249l0.00195312 74c33.333 33.333 71 50 113 50c35.333 0 84 -14.333 146 -43s108.333 -43 139 -43c41.333 0 79.666 17.333 114.999 52v-75c-35.333 -34.667 -74 -52 -116 -52c-34.667 0 -82.834 14.333 -144.501 43s-108.167 43 -139.5 43
c-42 0 -79.667 -16.333 -113 -49z" />
    <glyph glyph-name="uni00A0" unicode="&#xa0;" horiz-adv-x="250" 
 />
    <glyph glyph-name="exclamdown" unicode="&#xa1;" horiz-adv-x="266" 
d="M70 505c0 17.333 6 32 18 44s27 18 45 18c17.333 0 32.166 -6 44.499 -18s18.5 -26.667 18.5 -44s-6.16699 -32.333 -18.5 -45s-27.166 -19 -44.499 -19c-18 0 -33 6.16699 -45 18.5s-18 27.5 -18 45.5zM75 -142l17 509h83l17 -509h-117z" />
    <glyph glyph-name="cent" unicode="&#xa2;" horiz-adv-x="557" 
d="M187 -6l23 116c-48 21.333 -86.667 54.333 -116 99s-44 93.334 -44 146.001c0 71.333 25.167 133.666 75.5 186.999s111.833 80 184.5 80l16 84h80l-18 -94c43.333 -11.333 83 -34 119 -68l-48 -64c-28 24 -57 40.333 -87 49l-70 -354h11c53.333 0 102 19 146 57l48 -64
c-53.333 -52 -119 -78 -197 -78c-10.667 0 -18.667 0.333008 -24 1l-19 -97h-80zM136 355c0 -35.333 8 -67 24 -95s38 -49.333 66 -64l67 340c-45.333 -5.33301 -82.833 -24.833 -112.5 -58.5s-44.5 -74.5 -44.5 -122.5z" />
    <glyph glyph-name="sterling" unicode="&#xa3;" horiz-adv-x="557" 
d="M527 0h-420.999v346h-81v78h81v62c0 73.333 18.667 130.666 56 171.999s89.666 62 156.999 62c44.667 0 82.667 -8 114 -24s62.333 -39.667 93 -71l-43 -56c-25.333 24.667 -49.833 42.834 -73.5 54.501s-52.5 17.5 -86.5 17.5c-40.667 0 -72.167 -13.667 -94.5 -41
s-33.5 -65 -33.5 -113v-63h239v-78h-239v-264h332v-82z" />
    <glyph glyph-name="yen" unicode="&#xa5;" horiz-adv-x="599" 
d="M5 700h111l183 -332l184 332h111l-203 -353h149v-70h-191v-68h191v-70h-191v-139h-100v139h-190v70h190v68h-190v70h147z" />
    <glyph glyph-name="brokenbar" unicode="&#xa6;" horiz-adv-x="278" 
d="M100 -128v358h78v-358h-78zM100 400v358h78v-358h-78z" />
    <glyph glyph-name="section" unicode="&#xa7;" horiz-adv-x="564" 
d="M514 328c0 -26.667 -7.99902 -52.332 -23.999 -76.999s-40.333 -44 -73 -58c28.667 -22 43 -53 43 -93c0 -38.667 -15.833 -72.834 -47.5 -102.501s-78.834 -44.5 -141.501 -44.5c-73.333 0 -134.666 23 -183.999 69l34 62c44 -38.667 94 -58 150 -58
c29.333 0 52.666 6 69.999 18s26 29.333 26 52c0 20.667 -10.833 37.167 -32.5 49.5s-48.167 22 -79.5 29s-62.5 15.167 -93.5 24.5s-57.333 25 -79 47s-32.5 50.667 -32.5 86c0 26.667 7.83301 52.167 23.5 76.5s40.5 43.5 74.5 57.5c-30 21.333 -45 51.666 -45 90.999
c0 40 14.333 75 43 105s74.667 45 138 45c37.333 0 69.833 -5.33301 97.5 -16s55.167 -28.667 82.5 -54l-35 -62c-44.667 37.333 -93.667 56 -147 56c-24 0 -44.167 -6 -60.5 -18s-24.5 -28.667 -24.5 -50c0 -20.667 10.833 -36.834 32.5 -48.501s48.167 -21 79.5 -28
s62.5 -15.167 93.5 -24.5s57.333 -25.166 79 -47.499s32.5 -51.166 32.5 -86.499zM420.001 328.002c0 8 -1.5 15.5 -4.5 22.5s-8 13.167 -15 18.5s-13.667 9.83301 -20 13.5s-15.166 7.33398 -26.499 11.001s-20.833 6.33398 -28.5 8.00098s-18.167 4.16699 -31.5 7.5
s-23 5.66602 -29 6.99902c-36.667 -0.666992 -65.834 -8.83398 -87.501 -24.501s-32.5 -35.5 -32.5 -59.5c0 -8.66699 1.5 -16.5 4.5 -23.5s8.16699 -13.167 15.5 -18.5s14 -9.83301 20 -13.5s15.333 -7.33398 28 -11.001l28 -8c6 -1.66699 16.833 -4.16699 32.5 -7.5
s25.5 -5.66602 29.5 -6.99902c78 0.666992 117 29 117 85z" />
    <glyph glyph-name="dieresis" unicode="&#xa8;" horiz-adv-x="523" 
d="M301 635c0 15.333 5.16699 28.333 15.5 39s23.166 16 38.499 16s28.333 -5.33301 39 -16s16 -23.667 16 -39s-5.33301 -28.333 -16 -39s-23.667 -16 -39 -16s-28.166 5.33301 -38.499 16s-15.5 23.667 -15.5 39zM118 635c0 15.333 5.16699 28.333 15.5 39
s23.166 16 38.499 16s28.5 -5.33301 39.5 -16s16.5 -23.667 16.5 -39s-5.5 -28.333 -16.5 -39s-24.167 -16 -39.5 -16s-28.166 5.33301 -38.499 16s-15.5 23.667 -15.5 39z" />
    <glyph glyph-name="copyright" unicode="&#xa9;" horiz-adv-x="830" 
d="M294 355c0 -37.333 12.333 -69.3311 37 -95.998s54.334 -40 89.001 -40c35.333 0 70 15.333 104 46l41 -41c-22.667 -22 -45 -38.333 -67 -49s-48.333 -16 -79 -16c-53.333 0 -98.166 19.167 -134.499 57.5s-54.5 84.5 -54.5 138.5c0 53.333 18.167 99.166 54.5 137.499
s81.166 57.5 134.499 57.5c30.667 0 57 -5.33301 79 -16s44.333 -27 67 -49l-41 -41c-34 30.667 -68.667 46 -104 46c-34.667 0 -64.334 -13.333 -89.001 -40s-37 -58.334 -37 -95.001zM415 715.002c100.667 0 186 -36 256 -108s105 -157.667 105 -257s-35 -185 -105 -257
s-155.333 -108 -256 -108s-186 36 -256 108s-105 157.667 -105 257s35 185 105 257s155.333 108 256 108zM415 29.002c88.667 0 163.167 31.5 223.5 94.5s90.5 138.5 90.5 226.5s-30.167 163.333 -90.5 226s-134.833 94 -223.5 94c-89.333 0 -164.166 -31.333 -224.499 -94
s-90.5 -138 -90.5 -226s30.167 -163.5 90.5 -226.5s135.166 -94.5 224.499 -94.5z" />
    <glyph glyph-name="ordfeminine" unicode="&#xaa;" horiz-adv-x="423" 
d="M173 312c-38 0 -67.999 9.33203 -89.999 27.999s-33 44.334 -33 77.001c0 26.667 7 48.667 21 66s34.667 29.833 62 37.5s53.333 12.667 78 15s55 3.5 91 3.5v25c0 47.333 -27.333 71 -82 71c-42 0 -79.667 -15 -113 -45l-40 45c45.333 40 98.666 60 159.999 60
c97.333 0 146 -41.667 146 -125v-247h-71v56c-39.333 -44.667 -82.333 -67 -129 -67zM189.001 369.999c41.333 0 79 23.999 113 71.999v48c-48.667 -1.33301 -85 -4 -109 -8c-46 -9.33301 -69 -29.666 -69 -60.999c0 -18 6.66699 -31 20 -39s28.333 -12 45 -12z" />
    <glyph glyph-name="guillemotleft" unicode="&#xab;" horiz-adv-x="533" 
d="M453 20l-191 209v12l191 209l42 -34l-132 -180l132 -182zM239 20l-191 209v12l191 209l42 -34l-132 -180l132 -182z" />
    <glyph glyph-name="logicalnot" unicode="&#xac;" horiz-adv-x="437" 
d="M50 252v70h337v-213h-56v143h-281z" />
    <glyph glyph-name="uni00AD" unicode="&#xad;" horiz-adv-x="402" 
d="M61 251v83h279v-83h-279z" />
    <glyph glyph-name="registered" unicode="&#xae;" horiz-adv-x="830" 
d="M415 715c100.667 0 186 -36 256 -108s105 -157.667 105 -257s-35 -185 -105 -257s-155.333 -108 -256 -108s-186 36 -256 108s-105 157.667 -105 257s35 185 105 257s155.333 108 256 108zM415 29c88.667 0 163.167 31.5 223.5 94.5s90.5 138.5 90.5 226.5
s-30.167 163.333 -90.5 226s-134.833 94 -223.5 94c-89.333 0 -164.166 -31.333 -224.499 -94s-90.5 -138 -90.5 -226s30.167 -163.5 90.5 -226.5s135.166 -94.5 224.499 -94.5zM360 305v-140h-62v377h142c39.333 0 71.5 -11.167 96.5 -33.5s37.5 -50.5 37.5 -84.5
c0 -27.333 -9.66699 -51.5 -29 -72.5s-44 -34.5 -74 -40.5l103 -146h-68l-100 140h-46zM437 488l-77 -0.000976562v-128h77c23.333 0 41.5 6.33301 54.5 19s19.5 27.334 19.5 44.001c0 17.333 -6.66699 32.5 -20 45.5s-31.333 19.5 -54 19.5z" />
    <glyph glyph-name="macron" unicode="&#xaf;" horiz-adv-x="500" 
d="M94 591v70h311v-70h-311z" />
    <glyph glyph-name="degree" unicode="&#xb0;" horiz-adv-x="412" 
d="M206 406c-41.333 0 -77.666 15.168 -108.999 45.501s-47 65.833 -47 106.5s15.667 76.167 47 106.5s67.666 45.5 108.999 45.5s77.666 -15.167 108.999 -45.5s47 -65.5 47 -105.5c0 -40.667 -15.667 -76.334 -47 -107.001s-67.666 -46 -108.999 -46zM206 464.001
c26 0 47.833 9.33203 65.5 27.999s26.5 40.667 26.5 66s-8.83301 47.333 -26.5 66s-39.5 28 -65.5 28s-47.833 -9.16699 -65.5 -27.5s-26.5 -40.166 -26.5 -65.499c0 -26 8.66699 -48.333 26 -67s39.333 -28 66 -28z" />
    <glyph glyph-name="plusminus" unicode="&#xb1;" horiz-adv-x="640" 
d="M282 107v181h-219v72h219v180h75v-180h219v-72h-219v-181h-75zM558 0h-485v72h485v-72z" />
    <glyph glyph-name="twosuperior" unicode="&#xb2;" horiz-adv-x="360" 
d="M96 611l-38.999 41.001c38.667 44.667 81 67 127 67c36.667 0 65 -10 85 -30s30 -45.667 30 -77c0 -20 -6.33301 -41.833 -19 -65.5s-24.667 -42.5 -36 -56.5s-29 -34.333 -53 -61l-34 -38h147v-57h-246v42l81 83.5c14 15 30.167 33.667 48.5 56s30 40 35 53
s7.5 26.5 7.5 40.5c0 15.333 -4.5 28.166 -13.5 38.499s-21.5 15.5 -37.5 15.5c-28.667 0 -56.334 -17.333 -83.001 -52z" />
    <glyph glyph-name="threesuperior" unicode="&#xb3;" horiz-adv-x="360" 
d="M174 382c17.333 0 31.1689 5.16699 41.502 15.5s15.5 23.833 15.5 40.5c0 20 -4 36.167 -12 48.5s-18.333 18.5 -31 18.5c-12 0 -28 -3 -48 -9l-13 45l43 12c14 4 27.5 12.833 40.5 26.5s19.5 27.834 19.5 42.501c0 13.333 -4 23.833 -12 31.5s-19 11.5 -33 11.5
c-28.667 0 -57.334 -16 -86.001 -48l-36 39c33.333 42 74 63 122 63c34.667 0 61.667 -8.33301 81 -25s29 -38.334 29 -65.001c0 -38 -21 -69 -63 -93c49.333 -17.333 74 -48 74 -92c0 -32.667 -12.167 -60.5 -36.5 -83.5s-56.5 -34.5 -96.5 -34.5s-79.667 18.333 -119 55
l35 42c25.333 -27.333 53.666 -41 84.999 -41z" />
    <glyph glyph-name="acute" unicode="&#xb4;" horiz-adv-x="500" 
d="M371 739l-146 -153h-66l90 153h122z" />
    <glyph glyph-name="mu" unicode="&#xb5;" horiz-adv-x="592" 
d="M42 214h73.999v66h-74v74h74v346h202c74 0 132.833 -19.5 176.5 -58.5s65.5 -89.833 65.5 -152.5c0 -62 -22.667 -112.333 -68 -151s-102.666 -58 -171.999 -58h-104v-66h211v-75h-211v-139h-100v139h-74v75zM320.999 608h-105v-254h105c44 0 78.167 11.667 102.5 35
s36.5 54.333 36.5 93c0 38 -12.167 68.5 -36.5 91.5s-58.5 34.5 -102.5 34.5z" />
    <glyph glyph-name="paragraph" unicode="&#xb6;" horiz-adv-x="612" 
d="M463 630h-68v-791h-75v421h-6c-78.667 0 -144 20 -196 60s-78 93 -78 159s24.167 119.333 72.5 160s110.5 61 186.5 61h233v-861h-69v791z" />
    <glyph glyph-name="periodcentered" unicode="&#xb7;" horiz-adv-x="226" 
d="M50 317c0 17.333 6 32.166 18 44.499s26.667 18.5 44 18.5s32.333 -6.16699 45 -18.5s19 -27.166 19 -44.499c0 -18 -6.16699 -33 -18.5 -45s-27.5 -18 -45.5 -18c-17.333 0 -32 6 -44 18s-18 27 -18 45z" />
    <glyph glyph-name="cedilla" unicode="&#xb8;" horiz-adv-x="500" 
d="M288 9l-47 -65.001c10 2 19.667 3 29 3c24 0 43.5 -6.83301 58.5 -20.5s22.5 -30.5 22.5 -50.5c0 -24 -10.333 -44.667 -31 -62s-49.667 -26 -87 -26c-38.667 0 -73 7.33301 -103 22l15 39c23.333 -10.667 49.333 -16 78 -16c16 0 30 3.5 42 10.5s18 16.833 18 29.5
c0 10.667 -5 19.334 -15 26.001s-21 10 -33 10c-16.667 0 -30.667 -2.33301 -42 -7l-23 20l59 87h59z" />
    <glyph glyph-name="onesuperior" unicode="&#xb9;" horiz-adv-x="360" 
d="M310 399v-58h-255v58h93v244l-70 -41l-28 47l131 75h36v-325h93z" />
    <glyph glyph-name="ordmasculine" unicode="&#xba;" horiz-adv-x="483" 
d="M241 377c35.333 0 64.666 12.167 87.999 36.5s35 54.5 35 90.5c0 35.333 -11.667 65.333 -35 90s-52.666 37 -87.999 37c-34.667 0 -63.667 -12.5 -87 -37.5s-35 -54.833 -35 -89.5c0 -36 11.667 -66.167 35 -90.5s52.333 -36.5 87 -36.5zM241 312
c-56 0 -101.833 18.5 -137.5 55.5s-53.5 82.5 -53.5 136.5c0 53.333 17.833 98.666 53.5 135.999s81.5 56 137.5 56s102 -18.667 138 -56s54 -82.666 54 -135.999c0 -54 -18 -99.5 -54 -136.5s-82 -55.5 -138 -55.5z" />
    <glyph glyph-name="guillemotright" unicode="&#xbb;" horiz-adv-x="533" 
d="M271 229l-192 -209l-41 34l131 182l-131 180l41 34l192 -209v-12zM485 229l-192 -209l-41 34l131 182l-131 180l41 34l192 -209v-12z" />
    <glyph glyph-name="onequarter" unicode="&#xbc;" horiz-adv-x="850" 
d="M309 394v-59h-255v59h94v244l-69 -41l-29 46l129 76h38v-325h92zM733 0h-67v95h-156l-9 40l183 250h49v-240h64v-50h-64v-95zM666 283l-102 -138h102v138zM229 0h-86l539 700h86z" />
    <glyph glyph-name="onehalf" unicode="&#xbd;" horiz-adv-x="850" 
d="M225 0h-77l541 702h77zM592 277l-38.001 41c37.333 44.667 79.333 67 126 67c36.667 0 65 -10 85 -30s30 -45.667 30 -77c0 -20 -6.33301 -41.833 -19 -65.5s-24.667 -42.5 -36 -56.5s-29 -34.333 -53 -61l-34 -38h147v-57h-246v42l103.5 108
c18.333 20 34.5 41.167 48.5 63.5s21 42.833 21 61.5c0 15.333 -4.66699 28 -14 38s-21.666 15 -36.999 15c-28.667 0 -56.667 -17 -84 -51zM308.999 394v-59h-255v59h94v244l-69 -41l-29 46l129 76h38v-325h92z" />
    <glyph glyph-name="threequarters" unicode="&#xbe;" horiz-adv-x="850" 
d="M218 0h-77l541 702h77zM178 382c18 0 32.0029 5.50098 42.0029 16.501s15 24.5 15 40.5c0 19.333 -4 35.166 -12 47.499s-18.333 18.5 -31 18.5c-12 0 -28.333 -3 -49 -9l-12 45l43 12c13.333 4 26.666 12.833 39.999 26.5s20 27.834 20 42.501
c0 13.333 -4 23.833 -12 31.5s-19 11.5 -33 11.5c-29.333 0 -58.333 -16 -87 -48l-35 39c32 42 72.667 63 122 63c34.667 0 61.667 -8.33301 81 -25s29 -38.334 29 -65.001c0 -38 -21.333 -69 -64 -93c25.333 -8.66699 44.166 -21.167 56.499 -37.5s18.5 -34.5 18.5 -54.5
c0 -32 -12.333 -59.667 -37 -83s-56.667 -35 -96 -35c-40 0 -80 18.333 -120 55l36 42c25.333 -27.333 53.666 -41 84.999 -41zM726.003 0.000976562h-67v95h-156l-9 40l183 250h49v-240h64v-50h-64v-95zM659.003 283.001l-102 -138h102v138z" />
    <glyph glyph-name="questiondown" unicode="&#xbf;" horiz-adv-x="507" 
d="M40 24c0 27.333 6.83398 52.498 20.501 75.498s30 42.667 49 59l57.5 49.5c19.333 16.667 35.833 37 49.5 61s20.5 50.667 20.5 80c0 8.66699 -0.333008 15.334 -1 20.001h84c2 -14 3 -27 3 -39c0 -32 -6.33301 -60.833 -19 -86.5s-27.834 -46.667 -45.501 -63
s-35.5 -31.666 -53.5 -45.999s-33.333 -30.333 -46 -48s-19 -36.5 -19 -56.5c0 -34.667 11.167 -60.834 33.5 -78.501s51.5 -26.5 87.5 -26.5c69.333 0 121 31.333 155 94l61 -49c-52.667 -84 -127 -126 -223 -126c-65.333 0 -117.333 16.333 -156 49
s-58 76.334 -58 131.001zM342.001 506.998c0 -17.333 -6.16699 -32.333 -18.5 -45s-27.166 -19 -44.499 -19s-32.166 6.33301 -44.499 19s-18.5 27.667 -18.5 45s6.16699 32 18.5 44s27.166 18 44.499 18s32.166 -6 44.499 -18s18.5 -26.667 18.5 -44z" />
    <glyph glyph-name="Agrave" unicode="&#xc0;" horiz-adv-x="672" 
d="M324 931l88 -145h-67l-133 145h112zM393 700l267 -700h-100l-67 172h-315l-66 -172h-100l267 700h114zM336 585l-128 -329h255z" />
    <glyph glyph-name="Aacute" unicode="&#xc1;" horiz-adv-x="672" 
d="M259 786l88 145h112l-133 -145h-67zM393 700l267 -700h-100l-67 172h-315l-66 -172h-100l267 700h114zM336 585l-128 -329h255z" />
    <glyph glyph-name="Acircumflex" unicode="&#xc2;" horiz-adv-x="672" 
d="M183 786l116 145h74l116 -145h-71l-83 78l-83 -78h-69zM393 700l267 -700h-100l-67 172h-315l-66 -172h-100l267 700h114zM336 585l-128 -329h255z" />
    <glyph glyph-name="Atilde" unicode="&#xc3;" horiz-adv-x="672" 
d="M216 786l-46.999 6c17.333 76.667 50.666 115 99.999 115c15.333 0 38.333 -6.83301 69 -20.5s52.334 -20.5 65.001 -20.5c22.667 0 40 16.667 52 50l48 -6c-17.333 -76.667 -50.666 -115 -99.999 -115c-15.333 0 -38.333 6.83301 -69 20.5s-52.334 20.5 -65.001 20.5
c-20.667 0 -38.334 -16.667 -53.001 -50zM393.001 700l267 -700h-100l-67 172h-315l-66 -172h-100l267 700h114zM336.001 585l-128 -329h255z" />
    <glyph glyph-name="Adieresis" unicode="&#xc4;" horiz-adv-x="672" 
d="M393 700l267 -700h-100l-67 172h-315l-66 -172h-100l267 700h114zM336 585l-128 -329h255zM372 835c0 15.333 5.33301 28.333 16 39s23.667 16 39 16s28.333 -5.33301 39 -16s16 -23.667 16 -39s-5.33301 -28.333 -16 -39s-23.667 -16 -39 -16s-28.333 5.33301 -39 16
s-16 23.667 -16 39zM190 835c0 15.333 5.16699 28.333 15.5 39s23.166 16 38.499 16s28.5 -5.33301 39.5 -16s16.5 -23.667 16.5 -39s-5.5 -28.333 -16.5 -39s-24.167 -16 -39.5 -16s-28.166 5.33301 -38.499 16s-15.5 23.667 -15.5 39z" />
    <glyph glyph-name="Aring" unicode="&#xc5;" horiz-adv-x="672" 
d="M336 769c-28.667 0 -53.667 10.167 -75 30.5s-32 44.5 -32 72.5s10.667 52 32 72s46.333 30 75 30s53.667 -10.167 75 -30.5s32 -44.5 32 -72.5s-10.833 -52 -32.5 -72s-46.5 -30 -74.5 -30zM336 813c15.333 0 28.833 5.83398 40.5 17.501s17.5 25.5 17.5 41.5
s-5.66699 29.833 -17 41.5s-25 17.5 -41 17.5c-16.667 0 -30.667 -5.83301 -42 -17.5s-17 -25.834 -17 -42.501c0 -15.333 5.83301 -28.833 17.5 -40.5s25.5 -17.5 41.5 -17.5zM393 700.001l267 -700h-100l-67 172h-315l-66 -172h-100l267 700h114zM336 585.001l-128 -329
h255z" />
    <glyph glyph-name="AE" unicode="&#xc6;" horiz-adv-x="1002" 
d="M957 89v-89h-460v174h-275l-110 -174h-107l441 700h504v-90h-353v-206h311v-87h-311v-228h360zM274 258h223v354z" />
    <glyph glyph-name="Ccedilla" unicode="&#xc7;" horiz-adv-x="693" 
d="M413 77c84 0 154.332 25.667 210.999 77l52 -78c-66 -60 -159.333 -90 -280 -90l-30 -42c10 2 19.333 3 28 3c24 0 43.5 -6.66699 58.5 -20s22.5 -30.333 22.5 -51c0 -23.333 -10.5 -43.833 -31.5 -61.5s-49.5 -26.5 -85.5 -26.5c-38.667 0 -73 7.33301 -103 22l15 39
c23.333 -10.667 49.333 -16 78 -16c15.333 0 29 3.5 41 10.5s18 16.833 18 29.5c0 24 -16 36 -48 36c-17.333 0 -31 -2.33301 -41 -7c-0.666992 0.666992 -4 3.5 -10 8.5s-10.333 8.83301 -13 11.5l47 69c-93.333 14 -166.666 54 -219.999 120s-80 145.667 -80 239
c0 104.667 33.5 191.667 100.5 261s157.167 104 270.5 104c105.333 0 193 -30.667 263 -92l-52 -78c-56.667 51.333 -127 77 -211 77c-80.667 0 -145.5 -26 -194.5 -78s-73.5 -116.667 -73.5 -194c0 -78 24.5 -143 73.5 -195s113.833 -78 194.5 -78z" />
    <glyph glyph-name="Egrave" unicode="&#xc8;" horiz-adv-x="593" 
d="M548 89v-89h-468v700h461v-90h-361v-206h319v-87h-319v-228h368zM309 931l88 -145h-67l-133 145h112z" />
    <glyph glyph-name="Eacute" unicode="&#xc9;" horiz-adv-x="593" 
d="M548 89v-89h-468v700h461v-90h-361v-206h319v-87h-319v-228h368zM197 786l88 145h112l-133 -145h-67z" />
    <glyph glyph-name="Ecircumflex" unicode="&#xca;" horiz-adv-x="593" 
d="M548 89v-89h-468v700h461v-90h-361v-206h319v-87h-319v-228h368zM144 786l116 145h73l116 -145h-70l-83 78l-83 -78h-69z" />
    <glyph glyph-name="Edieresis" unicode="&#xcb;" horiz-adv-x="593" 
d="M548 89v-89h-468v700h461v-90h-361v-206h319v-87h-319v-228h368zM334 835c0 15.333 5.16699 28.333 15.5 39s23.166 16 38.499 16s28.333 -5.33301 39 -16s16 -23.667 16 -39s-5.33301 -28.333 -16 -39s-23.667 -16 -39 -16s-28.166 5.33301 -38.499 16
s-15.5 23.667 -15.5 39zM151 835c0 15.333 5.16699 28.333 15.5 39s23.166 16 38.499 16s28.5 -5.33301 39.5 -16s16.5 -23.667 16.5 -39s-5.5 -28.333 -16.5 -39s-24.167 -16 -39.5 -16s-28.166 5.33301 -38.499 16s-15.5 23.667 -15.5 39z" />
    <glyph glyph-name="Igrave" unicode="&#xcc;" horiz-adv-x="260" 
d="M80 0v700h100v-700h-100zM121 931l88 -145h-66l-133 145h111z" />
    <glyph glyph-name="Iacute" unicode="&#xcd;" horiz-adv-x="260" 
d="M80 0v700h100v-700h-100zM51 786l88 145h112l-133 -145h-67z" />
    <glyph glyph-name="Icircumflex" unicode="&#xce;" horiz-adv-x="260" 
d="M80 0v700h100v-700h-100zM-21 786l115 145h73l116 -145h-70l-83 78l-83 -78h-68z" />
    <glyph glyph-name="Idieresis" unicode="&#xcf;" horiz-adv-x="260" 
d="M80 0v700h100v-700h-100zM166 835c0 15.333 4.66699 28.333 14 39s21 16 35 16c14.667 0 26.834 -5.33301 36.501 -16s14.5 -23.667 14.5 -39c0 -16 -4.83301 -29.167 -14.5 -39.5s-21.834 -15.5 -36.501 -15.5c-14 0 -25.667 5.16699 -35 15.5s-14 23.5 -14 39.5z
M-5 835c0 15.333 4.66699 28.333 14 39s21.333 16 36 16c14 0 25.833 -5.33301 35.5 -16s14.5 -23.667 14.5 -39c0 -16 -4.83301 -29.167 -14.5 -39.5s-21.5 -15.5 -35.5 -15.5c-14.667 0 -26.667 5.16699 -36 15.5s-14 23.5 -14 39.5z" />
    <glyph glyph-name="Eth" unicode="&#xd0;" horiz-adv-x="735" 
d="M-5 320v75h85v305h253c112.667 0 200.834 -32.5 264.501 -97.5s95.5 -149.167 95.5 -252.5c0 -104 -31.833 -188.333 -95.5 -253s-151.834 -97 -264.501 -97h-253v320h-85zM180 97h154c81.333 0 144.833 23 190.5 69s68.5 107 68.5 183s-22.833 137.167 -68.5 183.5
s-109.167 69.5 -190.5 69.5h-154v-207h139v-75h-139v-223z" />
    <glyph glyph-name="Ntilde" unicode="&#xd1;" horiz-adv-x="717" 
d="M180 532v-532h-100v700h100l358 -534v534h99v-700h-100zM249 786l-48 6c17.333 76.667 50.666 115 99.999 115c15.333 0 38.333 -6.83301 69 -20.5s52.334 -20.5 65.001 -20.5c21.333 0 39 16.667 53 50l47 -6c-17.333 -76.667 -50.666 -115 -99.999 -115
c-15.333 0 -38.333 6.83301 -69 20.5s-52.334 20.5 -65.001 20.5c-22 0 -39.333 -16.667 -52 -50z" />
    <glyph glyph-name="Ograve" unicode="&#xd2;" horiz-adv-x="826" 
d="M413 619c-81.333 0 -147 -25.667 -197 -77s-75 -115.333 -75 -192c0 -77.333 25 -141.666 75 -192.999s115.667 -77 197 -77s146.833 25.667 196.5 77s74.5 115.666 74.5 192.999c0 76.667 -25 140.667 -75 192s-115.333 77 -196 77zM413 -15
c-113.333 0 -203.5 34.5 -270.5 103.5s-100.5 156.167 -100.5 261.5c0 104.667 33.5 191.667 100.5 261s157.167 104 270.5 104s203.5 -34.667 270.5 -104s100.5 -156.333 100.5 -261c0 -105.333 -33.5 -192.5 -100.5 -261.5s-157.167 -103.5 -270.5 -103.5zM420 931
l87 -145h-66l-133 145h112z" />
    <glyph glyph-name="Oacute" unicode="&#xd3;" horiz-adv-x="826" 
d="M413 619c-81.333 0 -147 -25.667 -197 -77s-75 -115.333 -75 -192c0 -77.333 25 -141.666 75 -192.999s115.667 -77 197 -77s146.833 25.667 196.5 77s74.5 115.666 74.5 192.999c0 76.667 -25 140.667 -75 192s-115.333 77 -196 77zM413 -15
c-113.333 0 -203.5 34.5 -270.5 103.5s-100.5 156.167 -100.5 261.5c0 104.667 33.5 191.667 100.5 261s157.167 104 270.5 104s203.5 -34.667 270.5 -104s100.5 -156.333 100.5 -261c0 -105.333 -33.5 -192.5 -100.5 -261.5s-157.167 -103.5 -270.5 -103.5zM317 786l88 145
h112l-133 -145h-67z" />
    <glyph glyph-name="Ocircumflex" unicode="&#xd4;" horiz-adv-x="826" 
d="M413 619c-81.333 0 -147 -25.667 -197 -77s-75 -115.333 -75 -192c0 -77.333 25 -141.666 75 -192.999s115.667 -77 197 -77s146.833 25.667 196.5 77s74.5 115.666 74.5 192.999c0 76.667 -25 140.667 -75 192s-115.333 77 -196 77zM413 -15
c-113.333 0 -203.5 34.5 -270.5 103.5s-100.5 156.167 -100.5 261.5c0 104.667 33.5 191.667 100.5 261s157.167 104 270.5 104s203.5 -34.667 270.5 -104s100.5 -156.333 100.5 -261c0 -105.333 -33.5 -192.5 -100.5 -261.5s-157.167 -103.5 -270.5 -103.5zM260 786
l116 145h73l116 -145h-70l-83 78l-83 -78h-69z" />
    <glyph glyph-name="Otilde" unicode="&#xd5;" horiz-adv-x="826" 
d="M413 619c-81.333 0 -147 -25.667 -197 -77s-75 -115.333 -75 -192c0 -77.333 25 -141.666 75 -192.999s115.667 -77 197 -77s146.833 25.667 196.5 77s74.5 115.666 74.5 192.999c0 76.667 -25 140.667 -75 192s-115.333 77 -196 77zM413 -15
c-113.333 0 -203.5 34.5 -270.5 103.5s-100.5 156.167 -100.5 261.5c0 104.667 33.5 191.667 100.5 261s157.167 104 270.5 104s203.5 -34.667 270.5 -104s100.5 -156.333 100.5 -261c0 -105.333 -33.5 -192.5 -100.5 -261.5s-157.167 -103.5 -270.5 -103.5zM293 786
l-46.999 6c17.333 76.667 50.666 115 99.999 115c14.667 0 37.334 -6.83301 68.001 -20.5s52.667 -20.5 66 -20.5c22.667 0 40 16.667 52 50l48 -6c-17.333 -76.667 -50.666 -115 -99.999 -115c-14.667 0 -37.334 6.83301 -68.001 20.5s-52.667 20.5 -66 20.5
c-20.667 0 -38.334 -16.667 -53.001 -50z" />
    <glyph glyph-name="Odieresis" unicode="&#xd6;" horiz-adv-x="826" 
d="M413 619c-81.333 0 -147 -25.667 -197 -77s-75 -115.333 -75 -192c0 -77.333 25 -141.666 75 -192.999s115.667 -77 197 -77s146.833 25.667 196.5 77s74.5 115.666 74.5 192.999c0 76.667 -25 140.667 -75 192s-115.333 77 -196 77zM413 -15
c-113.333 0 -203.5 34.5 -270.5 103.5s-100.5 156.167 -100.5 261.5c0 104.667 33.5 191.667 100.5 261s157.167 104 270.5 104s203.5 -34.667 270.5 -104s100.5 -156.333 100.5 -261c0 -105.333 -33.5 -192.5 -100.5 -261.5s-157.167 -103.5 -270.5 -103.5zM449 835
c0 15.333 5.16699 28.333 15.5 39s23.166 16 38.499 16s28.5 -5.33301 39.5 -16s16.5 -23.667 16.5 -39s-5.5 -28.333 -16.5 -39s-24.167 -16 -39.5 -16s-28.166 5.33301 -38.499 16s-15.5 23.667 -15.5 39zM266 835c0 15.333 5.33301 28.333 16 39s23.667 16 39 16
s28.333 -5.33301 39 -16s16 -23.667 16 -39s-5.33301 -28.333 -16 -39s-23.667 -16 -39 -16s-28.333 5.33301 -39 16s-16 23.667 -16 39z" />
    <glyph glyph-name="multiply" unicode="&#xd7;" horiz-adv-x="640" 
d="M493 61l-173 174l-173 -173l-52 52l173 173l-174 173l51 52l174 -174l173 173l52 -52l-173 -173l174 -174z" />
    <glyph glyph-name="Oslash" unicode="&#xd8;" horiz-adv-x="826" 
d="M153 0l-89 0.000976562l78 88c-66.667 68 -100 155.333 -100 262c0 104.667 33.5 191.667 100.5 261s157.167 104 270.5 104c86 0 159.667 -21.667 221 -65l45 50h88l-81 -93c65.333 -68.667 98 -154.334 98 -257.001c0 -105.333 -33.5 -192.5 -100.5 -261.5
s-157.167 -103.5 -270.5 -103.5c-85.333 0 -158.333 20.333 -219 61zM684 350.001c0 70 -21.666 129.333 -64.999 178l-358 -403c41.333 -29.333 92.666 -44 153.999 -44c80.667 0 145.667 25.5 195 76.5s74 115.167 74 192.5zM413.001 619.001
c-81.333 0 -146.667 -25.834 -196 -77.501s-74 -116.167 -74 -193.5c0 -73.333 21.667 -133.666 65 -180.999l361 405c-44 31.333 -96 47 -156 47z" />
    <glyph glyph-name="Ugrave" unicode="&#xd9;" horiz-adv-x="690" 
d="M356 931l88 -145h-67l-133 145h112zM345 77c50.667 0 92.165 16.833 124.498 50.5s48.5 74.5 48.5 122.5v450h100v-447c0 -77.333 -24.667 -141.333 -74 -192s-115.666 -76 -198.999 -76s-149.666 25.333 -198.999 76s-74 114.667 -74 192v447h100v-450
c0 -48 16.167 -88.833 48.5 -122.5s73.833 -50.5 124.5 -50.5z" />
    <glyph glyph-name="Uacute" unicode="&#xda;" horiz-adv-x="690" 
d="M344 -15c-83.333 0 -149.5 25.333 -198.5 76s-73.5 114.667 -73.5 192v447h100v-450c0 -47.333 16 -88 48 -122s73.333 -51 124 -51s92 17 124 51s48 74.667 48 122v450h100v-447c0 -77.333 -24.5 -141.333 -73.5 -192s-115.167 -76 -198.5 -76zM249 786l88 145h111
l-132 -145h-67z" />
    <glyph glyph-name="Ucircumflex" unicode="&#xdb;" horiz-adv-x="690" 
d="M197 786l116 145h73l116 -145h-71l-83 78l-82 -78h-69zM345 77c50.667 0 92.165 16.833 124.498 50.5s48.5 74.5 48.5 122.5v450h100v-447c0 -77.333 -24.667 -141.333 -74 -192s-115.666 -76 -198.999 -76s-149.666 25.333 -198.999 76s-74 114.667 -74 192v447h100
v-450c0 -48 16.167 -88.833 48.5 -122.5s73.833 -50.5 124.5 -50.5z" />
    <glyph glyph-name="Udieresis" unicode="&#xdc;" horiz-adv-x="690" 
d="M344 -15c-83.333 0 -149.5 25.333 -198.5 76s-73.5 114.667 -73.5 192v447h100v-450c0 -47.333 16 -88 48 -122s73.333 -51 124 -51s92 17 124 51s48 74.667 48 122v450h100v-447c0 -77.333 -24.5 -141.333 -73.5 -192s-115.167 -76 -198.5 -76zM381 835
c0 15.333 5.16699 28.333 15.5 39s23.166 16 38.499 16s28.333 -5.33301 39 -16s16 -23.667 16 -39s-5.33301 -28.333 -16 -39s-23.667 -16 -39 -16s-28.166 5.33301 -38.499 16s-15.5 23.667 -15.5 39zM198 835c0 15.333 5.16699 28.333 15.5 39s23.166 16 38.499 16
s28.5 -5.33301 39.5 -16s16.5 -23.667 16.5 -39s-5.5 -28.333 -16.5 -39s-24.167 -16 -39.5 -16s-28.166 5.33301 -38.499 16s-15.5 23.667 -15.5 39z" />
    <glyph glyph-name="Yacute" unicode="&#xdd;" horiz-adv-x="650" 
d="M5 700h111l209 -353l209 353h111l-270 -449v-251h-100v250zM229 786l88 145h112l-133 -145h-67z" />
    <glyph glyph-name="Thorn" unicode="&#xde;" horiz-adv-x="571" 
d="M80 0v700h101v-106h72c86 0 154.667 -21.333 206 -64s77 -100 77 -172c0 -70.667 -25.5 -127.5 -76.5 -170.5s-119.833 -64.5 -206.5 -64.5h-73v-123h-100zM436 359c0 46 -17.833 81.667 -53.5 107s-84.834 38 -147.501 38h-55v-291h55
c62.667 0 111.834 12.667 147.501 38s53.5 61.333 53.5 108z" />
    <glyph glyph-name="germandbls" unicode="&#xdf;" horiz-adv-x="617" 
d="M526 535c0 -35.333 -9.49902 -68.833 -28.499 -100.5s-46.833 -56.5 -83.5 -74.5c52.667 -12.667 93 -34.667 121 -66s42 -66.333 42 -105c0 -56.667 -22.667 -102.334 -68 -137.001s-119.333 -52 -222 -52v74c54.667 0 99.834 9.5 135.501 28.5s53.5 49.167 53.5 90.5
c0 32 -15.833 59 -47.5 81s-78.834 33.333 -141.501 34v73c45.333 6 80.333 23.833 105 53.5s37 62.834 37 99.501c0 30.667 -10.833 57 -32.5 79s-52.167 33 -91.5 33c-43.333 0 -78.5 -15.167 -105.5 -45.5s-40.5 -70.5 -40.5 -120.5v-480h-89v479c0 72 21.5 130 64.5 174
s101.5 66 175.5 66c69.333 0 122.666 -18 159.999 -54s56 -79.333 56 -130z" />
    <glyph glyph-name="agrave" unicode="&#xe0;" horiz-adv-x="539" 
d="M304 586l-146 153h122l91 -153h-67zM202 -15c-52 0 -93.168 12.666 -123.501 37.999s-45.5 60 -45.5 104c0 22 3.66699 41.5 11 58.5s16.666 31.167 27.999 42.5s26.833 21 46.5 29s38.334 14.333 56.001 19s40.334 8.16699 68.001 10.5s51.334 3.83301 71.001 4.5
s44.834 1.33398 75.501 2.00098v41c0 72 -40 108 -120 108c-59.333 0 -112.666 -21 -159.999 -63l-49 55c59.333 54 131.666 81 216.999 81c40.667 0 75.167 -5.33301 103.5 -16s49.166 -25.167 62.499 -43.5s22.666 -36.5 27.999 -54.5s8 -37.333 8 -58v-343h-90v88
c-54.667 -68.667 -117 -103 -187 -103zM223.999 53.999c62.667 0 117.665 35.665 164.998 106.998v74c-64 0 -117.333 -3.66699 -160 -11c-13.333 -2 -26.666 -5.66699 -39.999 -11s-26.833 -15.166 -40.5 -29.499s-20.5 -31.166 -20.5 -50.499
c0 -27.333 9.83301 -47.333 29.5 -60s41.834 -19 66.501 -19z" />
    <glyph glyph-name="aacute" unicode="&#xe1;" horiz-adv-x="539" 
d="M386 739l-146 -153h-66l90 153h122zM202 -15c-52 0 -93.167 12.666 -123.5 37.999s-45.5 60 -45.5 104c0 22 3.66699 41.5 11 58.5s16.666 31.167 27.999 42.5s26.833 21 46.5 29s38.334 14.333 56.001 19s40.334 8.16699 68.001 10.5s51.334 3.83301 71.001 4.5
s44.834 1.33398 75.501 2.00098v41c0 72 -40 108 -120 108c-59.333 0 -112.666 -21 -159.999 -63c-0.666992 1.33301 -7.33398 9 -20.001 23l-29 32c59.333 54 131.666 81 216.999 81c40.667 0 75.167 -5.33301 103.5 -16s49.166 -25.167 62.499 -43.5
s22.666 -36.5 27.999 -54.5s8 -37.333 8 -58v-343h-90v88c-54.667 -68.667 -117 -103 -187 -103zM224 53.999c62.667 0 117.665 35.665 164.998 106.998v74c-64 0 -117.333 -3.66699 -160 -11c-13.333 -2 -26.666 -5.66699 -39.999 -11s-26.833 -15.166 -40.5 -29.499
s-20.5 -31.166 -20.5 -50.499c0 -27.333 9.83301 -47.333 29.5 -60s41.834 -19 66.501 -19z" />
    <glyph glyph-name="acircumflex" unicode="&#xe2;" horiz-adv-x="539" 
d="M118 586l116 145h74l116 -145h-71l-83 78l-83 -78h-69zM202 -15c-52 0 -93.168 12.666 -123.501 37.999s-45.5 60 -45.5 104c0 22 3.66699 41.5 11 58.5s16.666 31.167 27.999 42.5s26.833 21 46.5 29s38.334 14.333 56.001 19s40.334 8.16699 68.001 10.5
s51.334 3.83301 71.001 4.5s44.834 1.33398 75.501 2.00098v41c0 72 -40 108 -120 108c-59.333 0 -112.666 -21 -159.999 -63l-49 55c59.333 54 131.666 81 216.999 81c40.667 0 75.167 -5.33301 103.5 -16s49.166 -25.167 62.499 -43.5s22.666 -36.5 27.999 -54.5
s8 -37.333 8 -58v-343h-90v88c-54.667 -68.667 -117 -103 -187 -103zM223.999 53.999c62.667 0 117.665 35.665 164.998 106.998v74c-64 0 -117.333 -3.66699 -160 -11c-13.333 -2 -26.666 -5.66699 -39.999 -11s-26.833 -15.166 -40.5 -29.499s-20.5 -31.166 -20.5 -50.499
c0 -27.333 9.83301 -47.333 29.5 -60s41.834 -19 66.501 -19z" />
    <glyph glyph-name="atilde" unicode="&#xe3;" horiz-adv-x="539" 
d="M158 586l-47.999 6c17.333 76.667 50.666 115 99.999 115c14.667 0 37.5 -6.83301 68.5 -20.5s52.833 -20.5 65.5 -20.5c21.333 0 39 16.667 53 50l47 -6c-17.333 -76.667 -50.666 -115 -99.999 -115c-14.667 0 -37.334 6.83301 -68.001 20.5s-52.667 20.5 -66 20.5
c-22 0 -39.333 -16.667 -52 -50zM202.001 -15c-52 0 -93.168 12.666 -123.501 37.999s-45.5 60 -45.5 104c0 22 3.66699 41.5 11 58.5s16.666 31.167 27.999 42.5s26.833 21 46.5 29s38.334 14.333 56.001 19s40.334 8.16699 68.001 10.5s51.334 3.83301 71.001 4.5
s44.834 1.33398 75.501 2.00098v41c0 72 -40 108 -120 108c-59.333 0 -112.666 -21 -159.999 -63l-49 55c59.333 54 131.666 81 216.999 81c40.667 0 75.167 -5.33301 103.5 -16s49.166 -25.167 62.499 -43.5s22.666 -36.5 27.999 -54.5s8 -37.333 8 -58v-343h-90v88
c-54.667 -68.667 -117 -103 -187 -103zM224 53.999c62.667 0 117.665 35.665 164.998 106.998v74c-64 0 -117.333 -3.66699 -160 -11c-13.333 -2 -26.666 -5.66699 -39.999 -11s-26.833 -15.166 -40.5 -29.499s-20.5 -31.166 -20.5 -50.499
c0 -27.333 9.83301 -47.333 29.5 -60s41.834 -19 66.501 -19z" />
    <glyph glyph-name="adieresis" unicode="&#xe4;" horiz-adv-x="539" 
d="M305 635c0 15.333 5.16699 28.333 15.5 39s23.166 16 38.499 16s28.5 -5.33301 39.5 -16s16.5 -23.667 16.5 -39s-5.5 -28.333 -16.5 -39s-24.167 -16 -39.5 -16s-28.166 5.33301 -38.499 16s-15.5 23.667 -15.5 39zM122 635c0 15.333 5.33301 28.333 16 39
s23.667 16 39 16s28.333 -5.33301 39 -16s16 -23.667 16 -39s-5.33301 -28.333 -16 -39s-23.667 -16 -39 -16s-28.333 5.33301 -39 16s-16 23.667 -16 39zM202 -15c-52 0 -93.168 12.666 -123.501 37.999s-45.5 60 -45.5 104c0 22 3.66699 41.5 11 58.5
s16.666 31.167 27.999 42.5s26.833 21 46.5 29s38.334 14.333 56.001 19s40.334 8.16699 68.001 10.5s51.334 3.83301 71.001 4.5s44.834 1.33398 75.501 2.00098v41c0 72 -40 108 -120 108c-59.333 0 -112.666 -21 -159.999 -63l-49 55c59.333 54 131.666 81 216.999 81
c40.667 0 75.167 -5.33301 103.5 -16s49.166 -25.167 62.499 -43.5s22.666 -36.5 27.999 -54.5s8 -37.333 8 -58v-343h-90v88c-54.667 -68.667 -117 -103 -187 -103zM223.999 53.999c62.667 0 117.665 35.665 164.998 106.998v74c-64 0 -117.333 -3.66699 -160 -11
c-13.333 -2 -26.666 -5.66699 -39.999 -11s-26.833 -15.166 -40.5 -29.499s-20.5 -31.166 -20.5 -50.499c0 -27.333 9.83301 -47.333 29.5 -60s41.834 -19 66.501 -19z" />
    <glyph glyph-name="aring" unicode="&#xe5;" horiz-adv-x="539" 
d="M271 585c-28.667 0 -53.667 10 -75 30s-32 44 -32 72s10.667 52 32 72s46.333 30 75 30s53.667 -10 75 -30s32 -44 32 -72s-10.667 -52 -32 -72s-46.333 -30 -75 -30zM271 629c15.333 0 29 5.83301 41 17.5s18 25.167 18 40.5s-5.83301 28.833 -17.5 40.5
s-25.5 17.5 -41.5 17.5s-29.833 -5.83301 -41.5 -17.5s-17.5 -25.167 -17.5 -40.5s6 -28.833 18 -40.5s25.667 -17.5 41 -17.5zM202 -15c-52 0 -93.168 12.666 -123.501 37.999s-45.5 60 -45.5 104c0 22 3.66699 41.5 11 58.5s16.666 31.167 27.999 42.5s26.833 21 46.5 29
s38.334 14.333 56.001 19s40.334 8.16699 68.001 10.5s51.334 3.83301 71.001 4.5s44.834 1.33398 75.501 2.00098v41c0 72 -40 108 -120 108c-59.333 0 -112.666 -21 -159.999 -63l-49 55c59.333 54 131.666 81 216.999 81c40.667 0 75.167 -5.33301 103.5 -16
s49.166 -25.167 62.499 -43.5s22.666 -36.5 27.999 -54.5s8 -37.333 8 -58v-343h-90v88c-54.667 -68.667 -117 -103 -187 -103zM223.999 53.999c62.667 0 117.665 35.665 164.998 106.998v74c-64 0 -117.333 -3.66699 -160 -11c-13.333 -2 -26.666 -5.66699 -39.999 -11
s-26.833 -15.166 -40.5 -29.499s-20.5 -31.166 -20.5 -50.499c0 -27.333 9.83301 -47.333 29.5 -60s41.834 -19 66.501 -19z" />
    <glyph glyph-name="ae" unicode="&#xe6;" horiz-adv-x="936" 
d="M202 -15c-52 0 -93.167 12.668 -123.5 38.001s-45.5 60 -45.5 104c0 43.333 15.167 79.333 45.5 108s67.166 47 110.499 55c42.667 8 109.334 12.667 200.001 14v35c0 39.333 -10.833 66.333 -32.5 81s-50.834 22 -87.501 22c-59.333 0 -112.666 -21 -159.999 -63l-49 55
c59.333 54 131.666 81 216.999 81c90 0 150.333 -32.333 181 -97c51.333 64.667 115 97 191 97c80.667 0 143.667 -24.167 189 -72.5s68 -107.833 68 -178.5c0 -5.33301 -0.666992 -13.333 -2 -24h-422c0 -52 17.833 -94.833 53.5 -128.5s80.834 -50.5 135.501 -50.5
c28 0 56.667 5.16699 86 15.5s54.333 24.166 75 41.499l42 -57c-25.333 -24 -56.833 -42.667 -94.5 -56s-76.5 -20 -116.5 -20c-46.667 0 -88.167 8.5 -124.5 25.5s-71.833 47.5 -106.5 91.5c-68 -78 -144.667 -117 -230 -117zM224 54.001
c62.667 0 117.666 35.666 164.999 106.999v85c-70 -1.33301 -123.333 -5 -160 -11c-20.667 -3.33301 -42.667 -14.166 -66 -32.499s-35 -41.5 -35 -69.5c0 -27.333 9.83301 -47.333 29.5 -60s41.834 -19 66.501 -19zM817.999 305c-6.66699 38.667 -24.668 70.5 -54.001 95.5
s-67.666 37.5 -114.999 37.5c-40 0 -74.833 -12.167 -104.5 -36.5s-49.5 -56.5 -59.5 -96.5h333z" />
    <glyph glyph-name="ccedilla" unicode="&#xe7;" horiz-adv-x="540" 
d="M122 247c0 -50.667 18.835 -93.001 56.502 -127.001s82.5 -51 134.5 -51c53.333 0 102 19 146 57l49 -64c-51.333 -50.667 -116 -76 -194 -76l-29 -42c10 2 19.333 3 28 3c24 0 43.5 -6.83301 58.5 -20.5s22.5 -30.5 22.5 -50.5c0 -24 -10.333 -44.667 -31 -62
s-49.334 -26 -86.001 -26c-39.333 0 -74 7.33301 -104 22l16 39c22 -10.667 47.667 -16 77 -16c16 0 30 3.5 42 10.5s18 16.833 18 29.5c0 12 -4.66699 21 -14 27s-20.666 9 -33.999 9c-16.667 0 -30.667 -2.33301 -42 -7l-23 20l47 68
c-64.667 10.667 -118.334 39.834 -161.001 87.501s-64 104.167 -64 169.5c0 74 27 136.333 81 187s119 76 195 76c78 0 143.667 -25.667 197 -77l-49 -65c-44.667 38.667 -93.334 58 -146.001 58c-52 0 -96.833 -17.333 -134.5 -52s-56.5 -77 -56.5 -127z" />
    <glyph glyph-name="egrave" unicode="&#xe8;" horiz-adv-x="585" 
d="M301 731l88 -145h-66l-133 145h111zM550 264c0 -5.33301 -0.666992 -13.332 -2 -23.999h-422c4 -50.667 22 -93.167 54 -127.5s77 -51.5 135 -51.5c28 0 56.667 5.16699 86 15.5s54.333 24.166 75 41.499l42 -57c-25.333 -24 -56.833 -42.667 -94.5 -56
s-76.5 -20 -116.5 -20c-76 0 -140.333 24 -193 72s-79 109 -79 183c0 76 25.167 140.833 75.5 194.5s111.5 80.5 183.5 80.5c80 0 142.667 -24.167 188 -72.5s68 -107.833 68 -178.5zM462 305.001c-6.66699 38.667 -24.5 70.5 -53.5 95.5s-67.167 37.5 -114.5 37.5
c-40 0 -75 -12.167 -105 -36.5s-50 -56.5 -60 -96.5h333z" />
    <glyph glyph-name="eacute" unicode="&#xe9;" horiz-adv-x="585" 
d="M199 586l88 145h112l-133 -145h-67zM550 264c0 -5.33301 -0.666992 -13.332 -2 -23.999h-422c4 -50.667 22 -93.167 54 -127.5s77 -51.5 135 -51.5c28 0 56.667 5.16699 86 15.5s54.333 24.166 75 41.499l42 -57c-25.333 -24 -56.833 -42.667 -94.5 -56
s-76.5 -20 -116.5 -20c-76 0 -140.333 24 -193 72s-79 109 -79 183c0 76 25.167 140.833 75.5 194.5s111.5 80.5 183.5 80.5c80 0 142.667 -24.167 188 -72.5s68 -107.833 68 -178.5zM462 305.001c-6.66699 38.667 -24.5 70.5 -53.5 95.5s-67.167 37.5 -114.5 37.5
c-40 0 -75 -12.167 -105 -36.5s-50 -56.5 -60 -96.5h333z" />
    <glyph glyph-name="ecircumflex" unicode="&#xea;" horiz-adv-x="585" 
d="M142 586l116 145h73l116 -145h-70l-83 78l-83 -78h-69zM550 264c0 -5.33301 -0.666992 -13.332 -2 -23.999h-422c4 -50.667 22 -93.167 54 -127.5s77 -51.5 135 -51.5c28 0 56.667 5.16699 86 15.5s54.333 24.166 75 41.499l42 -57
c-25.333 -24 -56.833 -42.667 -94.5 -56s-76.5 -20 -116.5 -20c-76 0 -140.333 24 -193 72s-79 109 -79 183c0 76 25.167 140.833 75.5 194.5s111.5 80.5 183.5 80.5c80 0 142.667 -24.167 188 -72.5s68 -107.833 68 -178.5zM462 305.001
c-6.66699 38.667 -24.5 70.5 -53.5 95.5s-67.167 37.5 -114.5 37.5c-40 0 -75 -12.167 -105 -36.5s-50 -56.5 -60 -96.5h333z" />
    <glyph glyph-name="edieresis" unicode="&#xeb;" horiz-adv-x="585" 
d="M331 635c0 15.333 5.16699 28.333 15.5 39s23.5 16 39.5 16c15.333 0 28.333 -5.33301 39 -16s16 -23.667 16 -39s-5.33301 -28.333 -16 -39s-23.667 -16 -39 -16c-16 0 -29.167 5.33301 -39.5 16s-15.5 23.667 -15.5 39zM149 635c0 15.333 5.16699 28.333 15.5 39
s23.166 16 38.499 16s28.333 -5.33301 39 -16s16 -23.667 16 -39s-5.33301 -28.333 -16 -39s-23.667 -16 -39 -16s-28.166 5.33301 -38.499 16s-15.5 23.667 -15.5 39zM550 264c0 -5.33301 -0.666992 -13.332 -2 -23.999h-422c4 -50.667 22 -93.167 54 -127.5
s77 -51.5 135 -51.5c28 0 56.667 5.16699 86 15.5s54.333 24.166 75 41.499l42 -57c-25.333 -24 -56.833 -42.667 -94.5 -56s-76.5 -20 -116.5 -20c-76 0 -140.333 24 -193 72s-79 109 -79 183c0 76 25.167 140.833 75.5 194.5s111.5 80.5 183.5 80.5
c80 0 142.667 -24.167 188 -72.5s68 -107.833 68 -178.5zM462 305.001c-6.66699 38.667 -24.5 70.5 -53.5 95.5s-67.167 37.5 -114.5 37.5c-40 0 -75 -12.167 -105 -36.5s-50 -56.5 -60 -96.5h333z" />
    <glyph glyph-name="igrave" unicode="&#xec;" horiz-adv-x="230" 
d="M70 0v500h89v-500h-89zM108 731l87 -145h-66l-133 145h112z" />
    <glyph glyph-name="iacute" unicode="&#xed;" horiz-adv-x="230" 
d="M70 0v500h89v-500h-89zM34 586l88 145h112l-133 -145h-67z" />
    <glyph glyph-name="icircumflex" unicode="&#xee;" horiz-adv-x="230" 
d="M70 0v500h89v-500h-89zM-36 586l115 145h73l116 -145h-71l-83 78l-83 -78h-67z" />
    <glyph glyph-name="idieresis" unicode="&#xef;" horiz-adv-x="230" 
d="M70 0v500h89v-500h-89zM149 635c0 15.333 4.66699 28.333 14 39s21 16 35 16s25.833 -5.33301 35.5 -16s14.5 -23.667 14.5 -39c0 -16 -4.83301 -29.167 -14.5 -39.5s-21.5 -15.5 -35.5 -15.5s-25.667 5.16699 -35 15.5s-14 23.5 -14 39.5zM-17 635
c0 15.333 4.5 28.333 13.5 39s20.5 16 34.5 16s25.833 -5.33301 35.5 -16s14.5 -23.667 14.5 -39c0 -16 -4.83301 -29.167 -14.5 -39.5s-21.5 -15.5 -35.5 -15.5s-25.5 5.16699 -34.5 15.5s-13.5 23.5 -13.5 39.5z" />
    <glyph glyph-name="eth" unicode="&#xf0;" horiz-adv-x="585" 
d="M289 -12c-73.333 0 -133.999 24.499 -181.999 73.499s-72 109.5 -72 181.5c0 68.667 23.167 125.167 69.5 169.5s104.5 66.5 174.5 66.5c61.333 0 116.666 -19.333 165.999 -58c-27.333 48.667 -78.333 106.334 -153 173.001l-103 -69l-47 34l105 67l-51 51l54 39
c3.33301 -3.33301 9.83301 -8.66602 19.5 -15.999s16.834 -13.333 21.501 -18l76 54l47 -33l-79 -53c143.333 -109.333 215 -238 215 -386c0 -78.667 -23.333 -144.334 -70 -197.001s-110.334 -79 -191.001 -79zM294.001 64.999c48 0 88 17.167 120 51.5s48 74.833 48 121.5
c0 46 -17 85.5 -51 118.5s-75.667 49.5 -125 49.5c-48 0 -87 -16.333 -117 -49s-45 -72.667 -45 -120c0 -45.333 16.333 -85.333 49 -120s73 -52 121 -52z" />
    <glyph glyph-name="ntilde" unicode="&#xf1;" horiz-adv-x="592" 
d="M443 0l0.000976562 296c0 42.667 -9.83301 75.334 -29.5 98.001s-46.167 34 -79.5 34c-32 0 -64.333 -8.5 -97 -25.5s-58.334 -42.5 -77.001 -76.5v-326h-90v500h90v-79c21.333 29.333 49.333 52 84 68s70.667 24 108 24c52.667 0 96 -16.833 130 -50.5
s51 -83.834 51 -150.501v-312h-90zM175.001 586l-46.999 6c17.333 76.667 50.666 115 99.999 115c14.667 0 37.334 -6.83301 68.001 -20.5s52.667 -20.5 66 -20.5c22.667 0 40 16.667 52 50l48 -6c-17.333 -76.667 -50.666 -115 -99.999 -115
c-14.667 0 -37.334 6.83301 -68.001 20.5s-52.667 20.5 -66 20.5c-20.667 0 -38.334 -16.667 -53.001 -50z" />
    <glyph glyph-name="ograve" unicode="&#xf2;" horiz-adv-x="613" 
d="M307 63c52 0 95.667 18.167 131 54.5s53 80.5 53 132.5c0 50.667 -17.667 94.334 -53 131.001s-79 55 -131 55s-95.833 -18.333 -131.5 -55s-53.5 -80.334 -53.5 -131.001c0 -52 17.667 -96.167 53 -132.5s79.333 -54.5 132 -54.5zM307 -15
c-79.333 0 -144.5 25.5 -195.5 76.5s-76.5 113.833 -76.5 188.5c0 74 25.5 136.667 76.5 188s116.167 77 195.5 77s144.333 -25.667 195 -77s76 -114 76 -188c0 -74.667 -25.333 -137.5 -76 -188.5s-115.667 -76.5 -195 -76.5zM313 731l88 -145h-66l-133 145h111z" />
    <glyph glyph-name="oacute" unicode="&#xf3;" horiz-adv-x="613" 
d="M307 63c52 0 95.667 18.167 131 54.5s53 80.5 53 132.5c0 50.667 -17.667 94.334 -53 131.001s-79 55 -131 55s-95.833 -18.333 -131.5 -55s-53.5 -80.334 -53.5 -131.001c0 -52 17.667 -96.167 53 -132.5s79.333 -54.5 132 -54.5zM307 -15
c-79.333 0 -144.5 25.5 -195.5 76.5s-76.5 113.833 -76.5 188.5c0 74 25.5 136.667 76.5 188s116.167 77 195.5 77s144.333 -25.667 195 -77s76 -114 76 -188c0 -74.667 -25.333 -137.5 -76 -188.5s-115.667 -76.5 -195 -76.5zM211 586l88 145h112l-133 -145h-67z" />
    <glyph glyph-name="ocircumflex" unicode="&#xf4;" horiz-adv-x="613" 
d="M307 63c52 0 95.667 18.167 131 54.5s53 80.5 53 132.5c0 50.667 -17.667 94.334 -53 131.001s-79 55 -131 55s-95.833 -18.333 -131.5 -55s-53.5 -80.334 -53.5 -131.001c0 -52 17.667 -96.167 53 -132.5s79.333 -54.5 132 -54.5zM307 -15
c-79.333 0 -144.5 25.5 -195.5 76.5s-76.5 113.833 -76.5 188.5c0 74 25.5 136.667 76.5 188s116.167 77 195.5 77s144.333 -25.667 195 -77s76 -114 76 -188c0 -74.667 -25.333 -137.5 -76 -188.5s-115.667 -76.5 -195 -76.5zM154 586l116 145h73l116 -145h-70l-83 78
l-83 -78h-69z" />
    <glyph glyph-name="otilde" unicode="&#xf5;" horiz-adv-x="613" 
d="M307 63c52 0 95.667 18.167 131 54.5s53 80.5 53 132.5c0 50.667 -17.667 94.334 -53 131.001s-79 55 -131 55s-95.833 -18.333 -131.5 -55s-53.5 -80.334 -53.5 -131.001c0 -52 17.667 -96.167 53 -132.5s79.333 -54.5 132 -54.5zM307 -15
c-79.333 0 -144.5 25.5 -195.5 76.5s-76.5 113.833 -76.5 188.5c0 74 25.5 136.667 76.5 188s116.167 77 195.5 77s144.333 -25.667 195 -77s76 -114 76 -188c0 -74.667 -25.333 -137.5 -76 -188.5s-115.667 -76.5 -195 -76.5zM187 586l-48.001 6
c17.333 76.667 51 115 101 115c14.667 0 37.334 -6.83301 68.001 -20.5s52.334 -20.5 65.001 -20.5c22.667 0 40.334 16.667 53.001 50l48 -6c-17.333 -76.667 -51 -115 -101 -115c-14.667 0 -37.334 6.83301 -68.001 20.5s-52.334 20.5 -65.001 20.5
c-21.333 0 -39 -16.667 -53 -50z" />
    <glyph glyph-name="odieresis" unicode="&#xf6;" horiz-adv-x="613" 
d="M307 63c52 0 95.667 18.167 131 54.5s53 80.5 53 132.5c0 50.667 -17.667 94.334 -53 131.001s-79 55 -131 55s-95.833 -18.333 -131.5 -55s-53.5 -80.334 -53.5 -131.001c0 -52 17.667 -96.167 53 -132.5s79.333 -54.5 132 -54.5zM307 -15
c-79.333 0 -144.5 25.5 -195.5 76.5s-76.5 113.833 -76.5 188.5c0 74 25.5 136.667 76.5 188s116.167 77 195.5 77s144.333 -25.667 195 -77s76 -114 76 -188c0 -74.667 -25.333 -137.5 -76 -188.5s-115.667 -76.5 -195 -76.5zM343 635c0 15.333 5.16699 28.333 15.5 39
s23.5 16 39.5 16c15.333 0 28.333 -5.33301 39 -16s16 -23.667 16 -39s-5.33301 -28.333 -16 -39s-23.667 -16 -39 -16c-16 0 -29.167 5.33301 -39.5 16s-15.5 23.667 -15.5 39zM161 635c0 15.333 5.16699 28.333 15.5 39s23.166 16 38.499 16s28.333 -5.33301 39 -16
s16 -23.667 16 -39s-5.33301 -28.333 -16 -39s-23.667 -16 -39 -16s-28.166 5.33301 -38.499 16s-15.5 23.667 -15.5 39z" />
    <glyph glyph-name="divide" unicode="&#xf7;" horiz-adv-x="640" 
d="M262 439c0 16 5.5 29.667 16.5 41s24.5 17 40.5 17c15.333 0 28.666 -5.66699 39.999 -17s17 -25 17 -41c0 -15.333 -5.66699 -28.5 -17 -39.5s-24.666 -16.5 -39.999 -16.5c-16 0 -29.5 5.5 -40.5 16.5s-16.5 24.167 -16.5 39.5zM262 132c0 16 5.5 29.667 16.5 41
s24.5 17 40.5 17c15.333 0 28.666 -5.66699 39.999 -17s17 -25 17 -41c0 -15.333 -5.66699 -28.5 -17 -39.5s-24.666 -16.5 -39.999 -16.5c-16 0 -29.5 5.5 -40.5 16.5s-16.5 24.167 -16.5 39.5zM576 250h-513v73h513v-73z" />
    <glyph glyph-name="oslash" unicode="&#xf8;" horiz-adv-x="613" 
d="M115 0h-68l59 67c-47.333 49.333 -71 110.333 -71 183c0 74 25.5 136.667 76.5 188s116.167 77 195.5 77c56 0 106.667 -14.667 152 -44l26 29h68l-53 -61c52 -50.667 78 -113.667 78 -189c0 -74.667 -25.333 -137.5 -76 -188.5s-115.667 -76.5 -195 -76.5
c-62 0 -116 16 -162 48zM307 63c51.333 0 94.832 17.5 130.499 52.5s53.5 77.5 53.5 127.5s-15.667 93.333 -47 130l-244 -275c30.667 -23.333 66.334 -35 107.001 -35zM121.999 250c0 -46 13.334 -85.333 40.001 -118l242 274c-30.667 19.333 -65.334 29 -104.001 29
c-50.667 0 -93 -18.333 -127 -55s-51 -80 -51 -130z" />
    <glyph glyph-name="ugrave" unicode="&#xf9;" horiz-adv-x="593" 
d="M308 731l88 -145h-67l-133 145h112zM150 500l-0.00195312 -295.999c0 -42.667 9.83301 -75.5 29.5 -98.5s45.834 -34.5 78.501 -34.5c32 0 64.333 8.66699 97 26s58.667 42.666 78 75.999v327h90v-500h-90v78c-22 -28.667 -50.167 -51 -84.5 -67
s-70.166 -24 -107.499 -24c-52.667 0 -96 16.667 -130 50s-51 83.333 -51 150v313h90z" />
    <glyph glyph-name="uacute" unicode="&#xfa;" horiz-adv-x="593" 
d="M150 500l-0.00195312 -295.999c0 -42.667 9.83301 -75.5 29.5 -98.5s45.834 -34.5 78.501 -34.5c32 0 64.333 8.66699 97 26s58.667 42.666 78 75.999v327h90v-500h-90v78c-22 -28.667 -50.167 -51 -84.5 -67s-70.166 -24 -107.499 -24c-52.667 0 -96 16.667 -130 50
s-51 83.333 -51 150v313h90zM195.998 586.001l88 145h112l-133 -145h-67z" />
    <glyph glyph-name="ucircumflex" unicode="&#xfb;" horiz-adv-x="593" 
d="M143 586l116 145h73l116 -145h-70l-83 78l-83 -78h-69zM150 500l-0.00195312 -295.999c0 -42.667 9.83301 -75.5 29.5 -98.5s45.834 -34.5 78.501 -34.5c32 0 64.333 8.66699 97 26s58.667 42.666 78 75.999v327h90v-500h-90v78c-22 -28.667 -50.167 -51 -84.5 -67
s-70.166 -24 -107.499 -24c-52.667 0 -96 16.667 -130 50s-51 83.333 -51 150v313h90z" />
    <glyph glyph-name="udieresis" unicode="&#xfc;" horiz-adv-x="593" 
d="M150 500l-0.00195312 -295.999c0 -42.667 9.83301 -75.5 29.5 -98.5s45.834 -34.5 78.501 -34.5c32 0 64.333 8.66699 97 26s58.667 42.666 78 75.999v327h90v-500h-90v78c-22 -28.667 -50.167 -51 -84.5 -67s-70.166 -24 -107.499 -24c-52.667 0 -96 16.667 -130 50
s-51 83.333 -51 150v313h90zM331.998 635.001c0 15.333 5.16699 28.333 15.5 39s23.5 16 39.5 16c15.333 0 28.333 -5.33301 39 -16s16 -23.667 16 -39s-5.33301 -28.333 -16 -39s-23.667 -16 -39 -16c-16 0 -29.167 5.33301 -39.5 16s-15.5 23.667 -15.5 39z
M149.998 635.001c0 15.333 5.16699 28.333 15.5 39s23.166 16 38.499 16s28.333 -5.33301 39 -16s16 -23.667 16 -39s-5.33301 -28.333 -16 -39s-23.667 -16 -39 -16s-28.166 5.33301 -38.499 16s-15.5 23.667 -15.5 39z" />
    <glyph glyph-name="yacute" unicode="&#xfd;" horiz-adv-x="540" 
d="M531 500l-302 -704h-94l86 205l-212 499h100l160 -387l164 387h98zM170 586l88 145h112l-133 -145h-67z" />
    <glyph glyph-name="thorn" unicode="&#xfe;" horiz-adv-x="618" 
d="M332 -15c-70 0 -127.332 26.667 -171.999 80v-269h-90v914h90v-276c45.333 54 102.666 81 171.999 81c72 0 132 -25.833 180 -77.5s72 -114.167 72 -187.5c0 -74 -24 -136.667 -72 -188s-108 -77 -180 -77zM307.001 433c-62 0 -111 -24.667 -147 -74v-219
c35.333 -49.333 84.333 -74 147 -74c50 0 92.833 18 128.5 54s53.5 79.333 53.5 130c0 50 -17.833 93 -53.5 129s-78.5 54 -128.5 54z" />
    <glyph glyph-name="ydieresis" unicode="&#xff;" horiz-adv-x="540" 
d="M531 500l-302 -704h-94l86 205l-212 499h100l160 -387l164 387h98zM301 635c0 15.333 5.16699 28.333 15.5 39s23.166 16 38.499 16s28.5 -5.33301 39.5 -16s16.5 -23.667 16.5 -39s-5.5 -28.333 -16.5 -39s-24.167 -16 -39.5 -16s-28.166 5.33301 -38.499 16
s-15.5 23.667 -15.5 39zM119 635c0 15.333 5.16699 28.333 15.5 39s23.166 16 38.499 16s28.333 -5.33301 39 -16s16 -23.667 16 -39s-5.33301 -28.333 -16 -39s-23.667 -16 -39 -16s-28.166 5.33301 -38.499 16s-15.5 23.667 -15.5 39z" />
    <glyph glyph-name="Amacron" unicode="&#x100;" horiz-adv-x="672" 
d="M180 791v70h311v-70h-311zM393 700l267 -700h-100l-67 172h-315l-66 -172h-100l267 700h114zM336 585l-128 -329h255z" />
    <glyph glyph-name="amacron" unicode="&#x101;" horiz-adv-x="539" 
d="M202 -15c-52 0 -93.167 12.666 -123.5 37.999s-45.5 60 -45.5 104c0 22 3.66699 41.5 11 58.5s16.666 31.167 27.999 42.5s26.833 21 46.5 29s38.334 14.333 56.001 19s40.334 8.16699 68.001 10.5s51.334 3.83301 71.001 4.5s44.834 1.33398 75.501 2.00098v41
c0 72 -40 108 -120 108c-59.333 0 -112.666 -21 -159.999 -63c-0.666992 1.33301 -7.33398 9 -20.001 23l-29 32c59.333 54 131.666 81 216.999 81c40.667 0 75.167 -5.33301 103.5 -16s49.166 -25.167 62.499 -43.5s22.666 -36.5 27.999 -54.5s8 -37.333 8 -58v-343h-90v88
c-54.667 -68.667 -117 -103 -187 -103zM224 53.999c62.667 0 117.665 35.665 164.998 106.998v74c-64 0 -117.333 -3.66699 -160 -11c-13.333 -2 -26.666 -5.66699 -39.999 -11s-26.833 -15.166 -40.5 -29.499s-20.5 -31.166 -20.5 -50.499
c0 -27.333 9.83301 -47.333 29.5 -60s41.834 -19 66.501 -19zM115.998 590.997v70h311v-70h-311z" />
    <glyph glyph-name="Aogonek" unicode="&#x104;" horiz-adv-x="672" 
d="M665 -174c-25.333 0 -49.167 2.49805 -71.5 7.49805s-42.333 14.833 -60 29.5s-26.5 33.334 -26.5 56.001c0 32.667 17.667 58.334 53 77.001l-67 176h-315l-66 -172h-100l267 700h114l267 -700c-49.333 -20 -74 -45.333 -74 -76c0 -13.333 6.33301 -25.833 19 -37.5
s32.667 -18.167 60 -19.5v-41zM335.999 584.998l-128 -329h255z" />
    <glyph glyph-name="aogonek" unicode="&#x105;" horiz-adv-x="539" 
d="M484 -174c-25.333 0 -49.1689 2.49805 -71.502 7.49805s-42.5 14.833 -60.5 29.5s-27 33.334 -27 56.001c0 34.667 21.333 61.667 64 81v88c-54.667 -68.667 -117 -103 -187 -103c-52 0 -93.167 12.667 -123.5 38s-45.5 60 -45.5 104c0 22 3.66699 41.5 11 58.5
s16.666 31.167 27.999 42.5s26.833 21 46.5 29s38.334 14.333 56.001 19s40.334 8.16699 68.001 10.5s51.334 3.83301 71.001 4.5s44.834 1.33398 75.501 2.00098v41c0 41.333 -10.667 69.666 -32 84.999s-50.666 23 -87.999 23c-59.333 0 -112.666 -21 -159.999 -63
c-0.666992 1.33301 -7.33398 9 -20.001 23l-29 32c59.333 54 131.666 81 216.999 81c40 0 74.167 -5.33301 102.5 -16s49.333 -25.167 63 -43.5s23.167 -36.5 28.5 -54.5s8 -37.333 8 -58v-343c-24.667 -7.33301 -44 -18.666 -58 -33.999s-21 -28.666 -21 -39.999
c0 -17.333 7.16699 -31.333 21.5 -42s35.166 -16.334 62.499 -17.001v-41zM223.997 53.998c62.667 0 117.665 35.665 164.998 106.998v74c-64 0 -117.333 -3.66699 -160 -11c-13.333 -2 -26.666 -5.66699 -39.999 -11s-26.833 -15.166 -40.5 -29.499
s-20.5 -31.166 -20.5 -50.499c0 -27.333 9.83301 -47.333 29.5 -60s41.834 -19 66.501 -19z" />
    <glyph glyph-name="Cacute" unicode="&#x106;" horiz-adv-x="693" 
d="M413 77c84 0 154.333 25.668 211 77.001l52 -78c-69.333 -60.667 -157 -91 -263 -91c-113.333 0 -203.5 34.5 -270.5 103.5s-100.5 156.167 -100.5 261.5c0 104.667 33.5 191.667 100.5 261s157.167 104 270.5 104c105.333 0 193 -30.667 263 -92l-52 -78
c-56.667 51.333 -127 77 -211 77c-80.667 0 -145.5 -26 -194.5 -78s-73.5 -116.667 -73.5 -194c0 -76.667 24.5 -141.334 73.5 -194.001s113.833 -79 194.5 -79zM513 939.001l-146 -153h-67l91 153h122z" />
    <glyph glyph-name="cacute" unicode="&#x107;" horiz-adv-x="510" 
d="M122 250c0 -52 16.668 -95.1641 50.001 -129.497s75.666 -51.5 126.999 -51.5c52.667 0 101 19 145 57l21.5 -27.5c12.333 -15.667 21.5 -27.834 27.5 -36.501c-53.333 -51.333 -119 -77 -197 -77c-73.333 0 -135.166 26.333 -185.499 79s-75.5 114.667 -75.5 186
c0 70.667 25.167 132.5 75.5 185.5s112.166 79.5 185.499 79.5c77.333 0 143 -26 197 -78c-6 -8.66699 -15.167 -20.834 -27.5 -36.501l-21.5 -27.5c-44 38 -92.333 57 -145 57c-50 0 -92 -17.333 -126 -52s-51 -77.334 -51 -128.001zM379.001 739.003l-146 -153h-67l91 153
h122z" />
    <glyph glyph-name="Ccaron" unicode="&#x10c;" horiz-adv-x="693" 
d="M413 77c84 0 154.333 25.668 211 77.001l52 -78c-69.333 -60.667 -157 -91 -263 -91c-113.333 0 -203.5 34.5 -270.5 103.5s-100.5 156.167 -100.5 261.5c0 104.667 33.5 191.667 100.5 261s157.167 104 270.5 104c105.333 0 193 -30.667 263 -92l-52 -78
c-56.667 51.333 -127 77 -211 77c-80.667 0 -145.5 -26 -194.5 -78s-73.5 -116.667 -73.5 -194c0 -76.667 24.5 -141.334 73.5 -194.001s113.833 -79 194.5 -79zM309 786.001l-116 145h70l83 -78l83 78h69l-116 -145h-73z" />
    <glyph glyph-name="ccaron" unicode="&#x10d;" horiz-adv-x="510" 
d="M122 250c0 -52 16.668 -95.166 50.001 -129.499s75.666 -51.5 126.999 -51.5c52.667 0 101 19 145 57l49 -64c-53.333 -51.333 -119 -77 -197 -77c-73.333 0 -135.166 26.333 -185.499 79s-75.5 114.667 -75.5 186c0 70.667 25.167 132.5 75.5 185.5
s112.166 79.5 185.499 79.5c77.333 0 143 -26 197 -78l-49 -64c-44 38 -92.333 57 -145 57c-50 0 -92 -17.333 -126 -52s-51 -77.334 -51 -128.001zM225.001 586.001l-116 145h70l83 -78l83 78h69l-116 -145h-73z" />
    <glyph glyph-name="Dcaron" unicode="&#x10e;" horiz-adv-x="735" 
d="M180 97h154c81.333 0 144.833 23 190.5 69s68.5 107 68.5 183s-22.833 137.167 -68.5 183.5s-109.167 69.5 -190.5 69.5h-154v-505zM333 0h-253v700h253c112.667 0 200.834 -32.5 264.501 -97.5s95.5 -149.167 95.5 -252.5c0 -104 -31.833 -188.333 -95.5 -253
s-151.834 -97 -264.501 -97zM336 786l-52.5 65.5l-63.5 79.5h70l83 -78l83 78h69l-52.5 -65.5l-63.5 -79.5h-73z" />
    <glyph glyph-name="dcaron" unicode="&#x10f;" horiz-adv-x="786" 
d="M549 0h-89.999v65c-44.667 -53.333 -102 -80 -172 -80c-72 0 -132 25.667 -180 77s-72 114 -72 188c0 73.333 24 135.833 72 187.5s108 77.5 180 77.5c69.333 0 126.666 -27 171.999 -81v276h90v-710zM312.001 66c61.333 0 110.333 24.667 147 74v219
c-37.333 49.333 -86.333 74 -147 74c-50 0 -92.833 -18 -128.5 -54s-53.5 -79 -53.5 -129c0 -50.667 17.833 -94 53.5 -130s78.5 -54 128.5 -54zM623.001 487l36 223h107l-84 -223h-59z" />
    <glyph glyph-name="Emacron" unicode="&#x112;" horiz-adv-x="593" 
d="M548 89v-89h-468v700h461v-90h-361v-206h319v-87h-319v-228h368zM141 791v70h311v-70h-311z" />
    <glyph glyph-name="emacron" unicode="&#x113;" horiz-adv-x="585" 
d="M137 591v70h311v-70h-311zM550 264c0 -5.33301 -0.666992 -13.332 -2 -23.999h-422c4 -50.667 22 -93.167 54 -127.5s77 -51.5 135 -51.5c28 0 56.667 5.16699 86 15.5s54.333 24.166 75 41.499l42 -57c-25.333 -24 -56.833 -42.667 -94.5 -56s-76.5 -20 -116.5 -20
c-76 0 -140.333 24 -193 72s-79 109 -79 183c0 76 25.167 140.833 75.5 194.5s111.5 80.5 183.5 80.5c80 0 142.667 -24.167 188 -72.5s68 -107.833 68 -178.5zM462 305.001c-6.66699 38.667 -24.5 70.5 -53.5 95.5s-67.167 37.5 -114.5 37.5c-40 0 -75 -12.167 -105 -36.5
s-50 -56.5 -60 -96.5h333z" />
    <glyph glyph-name="Edotaccent" unicode="&#x116;" horiz-adv-x="593" 
d="M548 89v-89h-468v700h461v-90h-361v-206h319v-87h-319v-228h368zM244 835c0 15.333 5.16699 28.333 15.5 39s23.166 16 38.499 16s28.333 -5.33301 39 -16s16 -23.667 16 -39s-5.33301 -28.333 -16 -39s-23.667 -16 -39 -16s-28.166 5.33301 -38.499 16
s-15.5 23.667 -15.5 39z" />
    <glyph glyph-name="edotaccent" unicode="&#x117;" horiz-adv-x="585" 
d="M238 635c0 15.333 5.16699 28.333 15.5 39s23.166 16 38.499 16s28.333 -5.33301 39 -16s16 -23.667 16 -39s-5.33301 -28.333 -16 -39s-23.667 -16 -39 -16s-28.166 5.33301 -38.499 16s-15.5 23.667 -15.5 39zM550 264c0 -5.33301 -0.666992 -13.332 -2 -23.999h-422
c4 -50.667 22 -93.167 54 -127.5s77 -51.5 135 -51.5c28 0 56.667 5.16699 86 15.5s54.333 24.166 75 41.499l42 -57c-25.333 -24 -56.833 -42.667 -94.5 -56s-76.5 -20 -116.5 -20c-76 0 -140.333 24 -193 72s-79 109 -79 183c0 76 25.167 140.833 75.5 194.5
s111.5 80.5 183.5 80.5c80 0 142.667 -24.167 188 -72.5s68 -107.833 68 -178.5zM462 305.001c-6.66699 38.667 -24.5 70.5 -53.5 95.5s-67.167 37.5 -114.5 37.5c-40 0 -75 -12.167 -105 -36.5s-50 -56.5 -60 -96.5h333z" />
    <glyph glyph-name="Eogonek" unicode="&#x118;" horiz-adv-x="593" 
d="M553 -174c-25.333 0 -49.167 2.50098 -71.5 7.50098s-42.333 14.833 -60 29.5s-26.5 33.334 -26.5 56.001c0 35.333 20.667 62.333 62 81h-377v700h461v-90h-361v-206h319v-87h-319v-228h368v-89c-27.333 -10.667 -47.5 -21.334 -60.5 -32.001
s-19.5 -24.334 -19.5 -41.001s7.33301 -30.667 22 -42s35.667 -17.333 63 -18v-41z" />
    <glyph glyph-name="eogonek" unicode="&#x119;" horiz-adv-x="585" 
d="M418 -176c-25.333 0 -49.165 2.49805 -71.498 7.49805s-42.5 14.833 -60.5 29.5s-27 33.334 -27 56.001c0 29.333 14 53.333 42 72c-74 1.33301 -136.833 25.333 -188.5 72s-77.5 106.334 -77.5 179.001c0 76 25.167 140.833 75.5 194.5s111.5 80.5 183.5 80.5
c80 0 142.667 -24.167 188 -72.5s68 -107.833 68 -178.5c0 -5.33301 -0.666992 -13.333 -2 -24h-422c6 -55.333 25 -99 57 -131s76 -48 132 -48c28 0 56.667 5.16699 86 15.5s54.333 24.166 75 41.499l42 -57c-16.667 -15.333 -41.334 -30.166 -74.001 -44.499
s-59.167 -28.166 -79.5 -41.499s-30.5 -30.333 -30.5 -51c0 -17.333 7.16699 -31.333 21.5 -42s35.166 -16.334 62.499 -17.001v-41zM462.001 304.998c-6.66699 38.667 -24.5 70.5 -53.5 95.5s-67.167 37.5 -114.5 37.5c-40 0 -75 -12.167 -105 -36.5s-50 -56.5 -60 -96.5
h333z" />
    <glyph glyph-name="Ecaron" unicode="&#x11a;" horiz-adv-x="593" 
d="M548 89v-89h-468v700h461v-90h-361v-206h319v-87h-319v-228h368zM260 786l-116 145h71l82 -78l84 78h68l-116 -145h-73z" />
    <glyph glyph-name="ecaron" unicode="&#x11b;" horiz-adv-x="585" 
d="M256 586l-116 145h70l83 -78l83 78h69l-116 -145h-73zM550 264c0 -5.33301 -0.666992 -13.332 -2 -23.999h-422c4 -50.667 22 -93.167 54 -127.5s77 -51.5 135 -51.5c28 0 56.667 5.16699 86 15.5s54.333 24.166 75 41.499l42 -57c-25.333 -24 -56.833 -42.667 -94.5 -56
s-76.5 -20 -116.5 -20c-76 0 -140.333 24 -193 72s-79 109 -79 183c0 76 25.167 140.833 75.5 194.5s111.5 80.5 183.5 80.5c80 0 142.667 -24.167 188 -72.5s68 -107.833 68 -178.5zM462 305.001c-6.66699 38.667 -24.5 70.5 -53.5 95.5s-67.167 37.5 -114.5 37.5
c-40 0 -75 -12.167 -105 -36.5s-50 -56.5 -60 -96.5h333z" />
    <glyph glyph-name="uni0122" unicode="&#x122;" horiz-adv-x="722" 
d="M343 286v77.001h339v-284c-73.333 -62.667 -163 -94 -269 -94c-113.333 0 -203.5 34.5 -270.5 103.5s-100.5 156.167 -100.5 261.5c0 104.667 33.5 191.667 100.5 261s157.167 104 270.5 104c85.333 0 159.666 -20.333 222.999 -61l-45 -81
c-49.333 31.333 -106.666 47 -171.999 47c-83.333 0 -149.833 -25.5 -199.5 -76.5s-74.5 -115.5 -74.5 -193.5c0 -76.667 24.5 -141.334 73.5 -194.001s113.833 -79 194.5 -79c66 0 123 19 171 57v152h-241zM332 -296.999l33 220h100l-78 -220h-55z" />
    <glyph glyph-name="uni0123" unicode="&#x123;" horiz-adv-x="619" 
d="M549 500l0.000976562 -478c0 -80 -24 -139.333 -72 -178s-107.667 -58 -179 -58c-83.333 0 -159.333 24.333 -228 73l37 61c60.667 -40.667 123.667 -61 189 -61c46 0 84.667 13.667 116 41s47 68 47 122v43c-44.667 -53.333 -102 -80 -172 -80
c-72 0 -132 25.667 -180 77s-72 114 -72 188c0 73.333 24 135.833 72 187.5s108 77.5 180 77.5c69.333 0 126.666 -27 171.999 -81v66h90zM312.001 66c61.333 0 110.333 24.667 147 74v219c-37.333 49.333 -86.333 74 -147 74c-50 0 -92.833 -18 -128.5 -54
s-53.5 -79 -53.5 -129c0 -50.667 17.833 -94 53.5 -130s78.5 -54 128.5 -54zM377.001 821l-33 -220h-100l78 220h55z" />
    <glyph glyph-name="Imacron" unicode="&#x12a;" horiz-adv-x="260" 
d="M80 0v700h100v-700h-100zM2 791v70h258v-70h-258z" />
    <glyph glyph-name="imacron" unicode="&#x12b;" horiz-adv-x="230" 
d="M70 0v500h89v-500h-89zM0 591v70h229v-70h-229z" />
    <glyph glyph-name="Iogonek" unicode="&#x12e;" horiz-adv-x="260" 
d="M185 -174c-25.333 0 -49.167 2.49902 -71.5 7.49902s-42.333 14.833 -60 29.5s-26.5 33.334 -26.5 56.001c0 34.667 17.667 61.667 53 81v700h100v-700c-53.333 -20 -80 -44.333 -80 -73c0 -16.667 7.33301 -30.667 22 -42s35.667 -17.333 63 -18v-41z" />
    <glyph glyph-name="iogonek" unicode="&#x12f;" horiz-adv-x="230" 
d="M172 -174c-25.333 0 -49.167 2.49902 -71.5 7.49902s-42.333 14.833 -60 29.5s-26.5 33.334 -26.5 56.001c0 34 18.667 61 56 81v500h90v-500c-48.667 -20.667 -73 -45 -73 -73c0 -16.667 7.33301 -30.667 22 -42s35.667 -17.333 63 -18v-41zM58.999 628.999
c0 15.333 5.5 28.666 16.5 39.999s24.167 17 39.5 17s28.5 -5.66699 39.5 -17s16.5 -24.666 16.5 -39.999s-5.5 -28.5 -16.5 -39.5s-24.167 -16.5 -39.5 -16.5s-28.5 5.5 -39.5 16.5s-16.5 24.167 -16.5 39.5z" />
    <glyph glyph-name="dotlessi" unicode="&#x131;" horiz-adv-x="229" 
d="M70 0v500h89v-500h-89z" />
    <glyph glyph-name="uni0136" unicode="&#x136;" horiz-adv-x="663" 
d="M520 0l-328 361l311 339h120l-313 -339l339 -361h-129zM80 0v700h100v-700h-100zM259 -297l33 220h100l-77 -220h-56z" />
    <glyph glyph-name="uni0137" unicode="&#x137;" horiz-adv-x="529" 
d="M70 710h90v-710h-90v710zM412 0l-234 264l224 236h107l-231 -236l241 -264h-107zM176 -297l33 220h100l-77 -220h-56z" />
    <glyph glyph-name="Lacute" unicode="&#x139;" horiz-adv-x="563" 
d="M80 0v700h100v-609h358v-91h-458zM320 939l-146 -153h-67l91 153h122z" />
    <glyph glyph-name="lacute" unicode="&#x13a;" horiz-adv-x="229" 
d="M70 710h90v-710h-90v710zM260 939l-146 -153h-67l91 153h122z" />
    <glyph glyph-name="uni013B" unicode="&#x13b;" horiz-adv-x="563" 
d="M80 0v700h100v-609h358v-91h-458zM211 -297l33 220h100l-77 -220h-56z" />
    <glyph glyph-name="uni013C" unicode="&#x13c;" horiz-adv-x="229" 
d="M70 710h90v-710h-90v710zM43 -297l32 220h101l-78 -220h-55z" />
    <glyph glyph-name="Lcaron" unicode="&#x13d;" horiz-adv-x="563" 
d="M80 0v700h100v-609h358v-91h-458zM274 479l36 222h107l-84 -222h-59z" />
    <glyph glyph-name="lcaron" unicode="&#x13e;" horiz-adv-x="380" 
d="M70 710h90v-710h-90v710zM217 487l36 223h107l-84 -223h-59z" />
    <glyph glyph-name="Lslash" unicode="&#x141;" horiz-adv-x="563" 
d="M16 207v75l64 57v361h100v-280l141 125v-75l-141 -125v-254h358v-91h-458v264z" />
    <glyph glyph-name="lslash" unicode="&#x142;" horiz-adv-x="229" 
d="M-1 248v72l71 66v324h90v-244l81 73v-72l-81 -73v-394h-90v314z" />
    <glyph glyph-name="Nacute" unicode="&#x143;" horiz-adv-x="717" 
d="M180 532v-532h-100v700h100l358 -534v534h99v-700h-100zM484 939l-146 -153h-66l90 153h122z" />
    <glyph glyph-name="nacute" unicode="&#x144;" horiz-adv-x="592" 
d="M443 0l0.000976562 296c0 42.667 -9.83301 75.334 -29.5 98.001s-46.167 34 -79.5 34c-32 0 -64.333 -8.5 -97 -25.5s-58.334 -42.5 -77.001 -76.5v-326h-90v500h90v-79c21.333 29.333 49.333 52 84 68s70.667 24 108 24c52.667 0 96 -16.833 130 -50.5
s51 -83.834 51 -150.501v-312h-90zM418.001 739l-146 -153h-66l90 153h122z" />
    <glyph glyph-name="uni0145" unicode="&#x145;" horiz-adv-x="717" 
d="M180 532v-532h-100v700h100l358 -534v534h99v-700h-100zM288 -297l33 220h100l-78 -220h-55z" />
    <glyph glyph-name="uni0146" unicode="&#x146;" horiz-adv-x="592" 
d="M443 0l0.000976562 296c0 42.667 -9.83301 75.334 -29.5 98.001s-46.167 34 -79.5 34c-32 0 -64.333 -8.5 -97 -25.5s-58.334 -42.5 -77.001 -76.5v-326h-90v500h90v-79c21.333 29.333 49.333 52 84 68s70.667 24 108 24c52.667 0 96 -16.833 130 -50.5
s51 -83.834 51 -150.501v-312h-90zM236.001 -297l33 220h100l-77 -220h-56z" />
    <glyph glyph-name="Ncaron" unicode="&#x147;" horiz-adv-x="717" 
d="M180 532v-532h-100v700h100l358 -534v534h99v-700h-100zM321 786l-116 145h71l83 -78l83 78h69l-116 -145h-74z" />
    <glyph glyph-name="ncaron" unicode="&#x148;" horiz-adv-x="592" 
d="M443 0l0.000976562 296c0 42.667 -9.83301 75.334 -29.5 98.001s-46.167 34 -79.5 34c-32 0 -64.333 -8.5 -97 -25.5s-58.334 -42.5 -77.001 -76.5v-326h-90v500h90v-79c21.333 29.333 49.333 52 84 68s70.667 24 108 24c52.667 0 96 -16.833 130 -50.5
s51 -83.834 51 -150.501v-312h-90zM258.001 586l-116 145h71l82 -78l83 78h69l-116 -145h-73z" />
    <glyph glyph-name="Omacron" unicode="&#x14c;" horiz-adv-x="826" 
d="M413 619c-81.333 0 -147 -25.667 -197 -77s-75 -115.333 -75 -192c0 -77.333 25 -141.666 75 -192.999s115.667 -77 197 -77s146.833 25.667 196.5 77s74.5 115.666 74.5 192.999c0 76.667 -25 140.667 -75 192s-115.333 77 -196 77zM413 -15
c-113.333 0 -203.5 34.5 -270.5 103.5s-100.5 156.167 -100.5 261.5c0 104.667 33.5 191.667 100.5 261s157.167 104 270.5 104s203.5 -34.667 270.5 -104s100.5 -156.333 100.5 -261c0 -105.333 -33.5 -192.5 -100.5 -261.5s-157.167 -103.5 -270.5 -103.5zM257 791v70h311
v-70h-311z" />
    <glyph glyph-name="omacron" unicode="&#x14d;" horiz-adv-x="613" 
d="M151 591v70h311v-70h-311zM307 63c52 0 95.667 18.167 131 54.5s53 80.5 53 132.5c0 50.667 -17.667 94.334 -53 131.001s-79 55 -131 55s-95.833 -18.333 -131.5 -55s-53.5 -80.334 -53.5 -131.001c0 -52 17.667 -96.167 53 -132.5s79.333 -54.5 132 -54.5zM307 -15
c-79.333 0 -144.5 25.5 -195.5 76.5s-76.5 113.833 -76.5 188.5c0 74 25.5 136.667 76.5 188s116.167 77 195.5 77s144.333 -25.667 195 -77s76 -114 76 -188c0 -74.667 -25.333 -137.5 -76 -188.5s-115.667 -76.5 -195 -76.5z" />
    <glyph glyph-name="Ohungarumlaut" unicode="&#x150;" horiz-adv-x="826" 
d="M413 619c-81.333 0 -147 -25.667 -197 -77s-75 -115.333 -75 -192c0 -77.333 25 -141.666 75 -192.999s115.667 -77 197 -77s146.833 25.667 196.5 77s74.5 115.666 74.5 192.999c0 76.667 -25 140.667 -75 192s-115.333 77 -196 77zM413 -15
c-113.333 0 -203.5 34.5 -270.5 103.5s-100.5 156.167 -100.5 261.5c0 104.667 33.5 191.667 100.5 261s157.167 104 270.5 104s203.5 -34.667 270.5 -104s100.5 -156.333 100.5 -261c0 -105.333 -33.5 -192.5 -100.5 -261.5s-157.167 -103.5 -270.5 -103.5zM643 939
l-146 -153h-67l91 153h122zM467 939l-146 -153h-67l91 153h122z" />
    <glyph glyph-name="ohungarumlaut" unicode="&#x151;" horiz-adv-x="613" 
d="M537 739l-146 -153h-67l91 153h122zM360 739l-146 -153h-66l90 153h122zM307 63c52 0 95.667 18.167 131 54.5s53 80.5 53 132.5c0 50.667 -17.667 94.334 -53 131.001s-79 55 -131 55s-95.833 -18.333 -131.5 -55s-53.5 -80.334 -53.5 -131.001
c0 -52 17.667 -96.167 53 -132.5s79.333 -54.5 132 -54.5zM307 -15c-79.333 0 -144.5 25.5 -195.5 76.5s-76.5 113.833 -76.5 188.5c0 74 25.5 136.667 76.5 188s116.167 77 195.5 77s144.333 -25.667 195 -77s76 -114 76 -188c0 -74.667 -25.333 -137.5 -76 -188.5
s-115.667 -76.5 -195 -76.5z" />
    <glyph glyph-name="OE" unicode="&#x152;" horiz-adv-x="1032" 
d="M987 89v-89h-460v6c-44 -11.333 -84.333 -17 -121 -17c-114 0 -203.167 33 -267.5 99s-96.5 153.333 -96.5 262c0 107.333 32.167 194.333 96.5 261s153.5 100 267.5 100c38 0 78 -6 120 -18v7h453v-90h-353v-206h311v-87h-311v-228h361zM406 84
c46.667 0 84.001 5.33301 112.001 16v488c-30.667 16.667 -70 25 -118 25c-78.667 0 -140.834 -24 -186.501 -72s-68.5 -111.667 -68.5 -191c0 -80.667 23 -145.167 69 -193.5s110 -72.5 192 -72.5z" />
    <glyph glyph-name="oe" unicode="&#x153;" horiz-adv-x="1046" 
d="M768 -15c-50.667 0 -96.668 11.334 -138.001 34.001s-72.666 53.667 -93.999 93c-22 -39.333 -52.833 -70.333 -92.5 -93s-85.167 -34 -136.5 -34c-79.333 0 -144.5 25.833 -195.5 77.5s-76.5 114.167 -76.5 187.5c0 74 25.5 136.667 76.5 188s116.167 77 195.5 77
c52.667 0 99 -12.167 139 -36.5s70.667 -56.833 92 -97.5c22 40.667 52.167 73.167 90.5 97.5s80.5 36.5 126.5 36.5c80.667 0 143.5 -24.5 188.5 -73.5s67.5 -108.167 67.5 -177.5c0 -10.667 -0.333008 -18.667 -1 -24h-422c0 -56.667 16.333 -100.667 49 -132
s79 -47 139 -47c28.667 0 57.667 5.16699 87 15.5s54 24.166 74 41.499l42 -57c-54 -50.667 -124.333 -76 -211 -76zM306.999 63.001c52 0 95.667 18.1689 131 54.502s53 80.5 53 132.5c0 51.333 -17.667 95.166 -53 131.499s-79 54.5 -131 54.5s-95.833 -18.333 -131.5 -55
s-53.5 -80.334 -53.5 -131.001c0 -52 17.667 -96.167 53 -132.5s79.333 -54.5 132 -54.5zM923.999 305.003c-7.33301 38.667 -25.5 70.5 -54.5 95.5s-67.167 37.5 -114.5 37.5c-40 0 -74.833 -12.167 -104.5 -36.5s-49.5 -56.5 -59.5 -96.5h333z" />
    <glyph glyph-name="Racute" unicode="&#x154;" horiz-adv-x="633" 
d="M180 263v-262.999h-100v700h264c72 0 128.5 -20.5 169.5 -61.5s61.5 -93.167 61.5 -156.5c0 -51.333 -15.833 -96.333 -47.5 -135s-74.167 -63.334 -127.5 -74.001l193 -273h-112l-185 263h-116zM339 608.001h-159v-254h159c44 0 78.167 11.667 102.5 35
s36.5 54.333 36.5 93c0 38 -12.167 68.5 -36.5 91.5s-58.5 34.5 -102.5 34.5zM430 939.001l-146 -153h-67l91 153h122z" />
    <glyph glyph-name="racute" unicode="&#x155;" horiz-adv-x="346" 
d="M331 513l0.000976562 -85c-40 0 -74.833 -11 -104.5 -33s-51.834 -53.333 -66.501 -94v-301h-90v500h90v-98c42 74 99 111 171 111zM290.001 739l-146 -153h-67l91 153h122z" />
    <glyph glyph-name="uni0156" unicode="&#x156;" horiz-adv-x="633" 
d="M180 263v-262.999h-100v700h264c72 0 128.5 -20.5 169.5 -61.5s61.5 -93.167 61.5 -156.5c0 -51.333 -15.833 -96.333 -47.5 -135s-74.167 -63.334 -127.5 -74.001l193 -273h-112l-185 263h-116zM339 608.001h-159v-254h159c44 0 78.167 11.667 102.5 35
s36.5 54.333 36.5 93c0 38 -12.167 68.5 -36.5 91.5s-58.5 34.5 -102.5 34.5zM239 -296.999l33 220h100l-77 -220h-56z" />
    <glyph glyph-name="uni0157" unicode="&#x157;" horiz-adv-x="346" 
d="M331 513l0.000976562 -85c-40 0 -74.833 -11 -104.5 -33s-51.834 -53.333 -66.501 -94v-301h-90v500h90v-98c42 74 99 111 171 111zM42.001 -297l33 220h100l-78 -220h-55z" />
    <glyph glyph-name="Rcaron" unicode="&#x158;" horiz-adv-x="633" 
d="M180 263v-262.999h-100v700h264c72 0 128.5 -20.5 169.5 -61.5s61.5 -93.167 61.5 -156.5c0 -51.333 -15.833 -96.333 -47.5 -135s-74.167 -63.334 -127.5 -74.001l193 -273h-112l-185 263h-116zM339 608.001h-159v-254h159c44 0 78.167 11.667 102.5 35
s36.5 54.333 36.5 93c0 38 -12.167 68.5 -36.5 91.5s-58.5 34.5 -102.5 34.5zM275 786.001l-116 145h71l83 -78l83 78h69l-116 -145h-74z" />
    <glyph glyph-name="rcaron" unicode="&#x159;" horiz-adv-x="346" 
d="M381 513l0.000976562 -85c-40 0 -74.833 -11 -104.5 -33s-51.834 -53.333 -66.501 -94v-301h-90v500h90v-98c42 74 99 111 171 111zM186.001 586l-116 145h70l83 -78l83 78h69l-116 -145h-73z" />
    <glyph glyph-name="Sacute" unicode="&#x15a;" horiz-adv-x="592" 
d="M455 196c0 22.667 -7.16406 41.498 -21.4971 56.498s-33 26.833 -56 35.5s-48.5 16.5 -76.5 23.5s-56 15.5 -84 25.5s-53.5 22 -76.5 36s-41.667 34 -56 60s-21.5 57 -21.5 93c0 56 22 101.5 66 136.5s99.333 52.5 166 52.5c47.333 0 88.666 -7.5 123.999 -22.5
s70.666 -38.167 105.999 -69.5l-52 -70c-56.667 51.333 -117 77 -181 77c-37.333 0 -69.5 -9.16699 -96.5 -27.5s-40.5 -43.833 -40.5 -76.5c0 -22 7.33301 -40.667 22 -56s33.667 -27.166 57 -35.499s49.166 -16.166 77.499 -23.499s56.5 -16 84.5 -26s53.667 -22 77 -36
s42.333 -34 57 -60s22 -57 22 -93c0 -58.667 -24.833 -108.5 -74.5 -149.5s-110.167 -61.5 -181.5 -61.5c-99.333 0 -184.666 31.333 -255.999 94l52 73c59.333 -52.667 128.333 -79 207 -79c41.333 0 77.666 12 108.999 36s47 53 47 87zM425.003 938.998l-146 -153h-67
l91 153h122z" />
    <glyph glyph-name="sacute" unicode="&#x15b;" horiz-adv-x="469" 
d="M351 140c0 21.333 -10.167 37.665 -30.5 48.998s-44.833 19.833 -73.5 25.5s-57.5 12.667 -86.5 21s-53.667 23.333 -74 45s-30.5 50.834 -30.5 87.501c0 40.667 15.667 75.334 47 104.001s77.333 43 138 43c73.333 0 135 -26 185 -78l-46 -58
c-40.667 41.333 -87 62 -139 62c-29.333 0 -53.5 -6.16699 -72.5 -18.5s-28.5 -29.5 -28.5 -51.5c0 -20 10.333 -35.833 31 -47.5s45.667 -20.667 75 -27s58.5 -13.833 87.5 -22.5s53.833 -23.667 74.5 -45s31 -49 31 -83c0 -46.667 -17.333 -85.167 -52 -115.5
s-85 -45.5 -151 -45.5c-80 0 -148.667 26.667 -206 80l46 58c50 -44 103.333 -66 160 -66c37.333 0 65.833 7.5 85.5 22.5s29.5 35.167 29.5 60.5zM359 738.999l-146 -153h-67l91 153h122z" />
    <glyph glyph-name="Scaron" unicode="&#x160;" horiz-adv-x="592" 
d="M455 196c0 22.667 -7.16504 41.498 -21.498 56.498s-33 26.833 -56 35.5s-48.5 16.5 -76.5 23.5s-56 15.5 -84 25.5s-53.5 22 -76.5 36s-41.667 34 -56 60s-21.5 57 -21.5 93c0 56 22 101.5 66 136.5s99.333 52.5 166 52.5c47.333 0 88.666 -7.5 123.999 -22.5
s70.666 -38.167 105.999 -69.5l-52 -70c-56.667 51.333 -117 77 -181 77c-37.333 0 -69.5 -9.16699 -96.5 -27.5s-40.5 -43.833 -40.5 -76.5c0 -22 7.33301 -40.667 22 -56s33.667 -27.166 57 -35.499s49.166 -16.166 77.499 -23.499s56.5 -16 84.5 -26s53.667 -22 77 -36
s42.333 -34 57 -60s22 -57 22 -93c0 -58.667 -24.833 -108.5 -74.5 -149.5s-110.167 -61.5 -181.5 -61.5c-99.333 0 -184.666 31.333 -255.999 94l52 73c59.333 -52.667 128.333 -79 207 -79c42 0 78.5 12 109.5 36s46.5 53 46.5 87zM261.002 785.998l-116 145h70l83 -78
l83 78h69l-116 -145h-73z" />
    <glyph glyph-name="scaron" unicode="&#x161;" horiz-adv-x="469" 
d="M351 140c0 18 -7.33301 32.6689 -22 44.002s-33 19.333 -55 24s-46 10.667 -72 18s-50 15.166 -72 23.499s-40.333 22.666 -55 42.999s-22 45.5 -22 75.5c0 40.667 16 75.334 48 104.001s78.667 43 140 43c72 0 133.667 -26 185 -78l-47 -58
c-39.333 41.333 -85.333 62 -138 62c-29.333 0 -53.5 -6.16699 -72.5 -18.5s-28.5 -29.5 -28.5 -51.5c0 -20 10.333 -36 31 -48s45.667 -21.333 75 -28s58.5 -14.334 87.5 -23.001s53.833 -23.5 74.5 -44.5s31 -48.167 31 -81.5c0 -47.333 -17.333 -86 -52 -116
s-85.334 -45 -152.001 -45c-79.333 0 -147.666 26.667 -204.999 80l46 58c50 -44 103 -66 159 -66c38 0 66.833 7.66699 86.5 23s29.5 35.333 29.5 60zM199 586.002l-116 145h70l83 -78l83 78h69l-116 -145h-73z" />
    <glyph glyph-name="Tcaron" unicode="&#x164;" horiz-adv-x="584" 
d="M559 700v-92h-217v-608h-100v608h-217v92h534zM255 786l-116 145h70l83 -78l83 78h69l-116 -145h-73z" />
    <glyph glyph-name="tcaron" unicode="&#x165;" horiz-adv-x="589" 
d="M204 423v-265c0 -32.667 7.33301 -56.5 22 -71.5s34 -22.5 58 -22.5c26 0 53.333 6 82 18v-73c-29.333 -12.667 -64 -19 -104 -19c-98 0 -147 53.667 -147 161v272h-102v77h102v117h89v-117h162v-77h-162zM416 487l36 223h107l-84 -223h-59z" />
    <glyph glyph-name="Umacron" unicode="&#x16a;" horiz-adv-x="690" 
d="M72 253l-0.000976562 446.999h100v-450c0 -48 16.167 -88.833 48.5 -122.5s73.833 -50.5 124.5 -50.5c52 0 93.833 16.333 125.5 49s47.5 74 47.5 124v450h100v-380c0 -21.333 -1.33301 -52.666 -4 -93.999c-5.33301 -70.667 -32 -128.5 -80 -173.5
s-111 -67.5 -189 -67.5c-83.333 0 -149.666 25.333 -198.999 76s-74 114.667 -74 192zM189.999 790.999v70h311v-70h-311z" />
    <glyph glyph-name="umacron" unicode="&#x16b;" horiz-adv-x="593" 
d="M150 500l-0.00195312 -295.999c0 -42.667 9.83301 -75.5 29.5 -98.5s45.834 -34.5 78.501 -34.5c32 0 64.333 8.66699 97 26s58.667 42.666 78 75.999v327h90v-500h-90v78c-22 -28.667 -50.167 -51 -84.5 -67s-70.166 -24 -107.499 -24c-52.667 0 -96 16.667 -130 50
s-51 83.333 -51 150v313h90zM139.998 591.001v70h311v-70h-311z" />
    <glyph glyph-name="Uring" unicode="&#x16e;" horiz-adv-x="690" 
d="M72 253l-0.000976562 446.999h100v-450c0 -48 16.167 -88.833 48.5 -122.5s73.833 -50.5 124.5 -50.5c52 0 93.833 16.333 125.5 49s47.5 74 47.5 124v450h100v-380c0 -21.333 -1.33301 -52.666 -4 -93.999c-5.33301 -70.667 -32 -128.5 -80 -173.5
s-111 -67.5 -189 -67.5c-83.333 0 -149.666 25.333 -198.999 76s-74 114.667 -74 192zM344.999 784.999c-28.667 0 -53.667 10 -75 30s-32 44 -32 72s10.667 52 32 72s46.333 30 75 30s53.667 -10 75 -30s32 -44 32 -72s-10.667 -52 -32 -72s-46.333 -30 -75 -30z
M344.999 828.999c15.333 0 29 5.83301 41 17.5s18 25.167 18 40.5s-5.83301 28.833 -17.5 40.5s-25.5 17.5 -41.5 17.5s-29.833 -5.83301 -41.5 -17.5s-17.5 -25.167 -17.5 -40.5s6 -28.833 18 -40.5s25.667 -17.5 41 -17.5z" />
    <glyph glyph-name="uring" unicode="&#x16f;" horiz-adv-x="593" 
d="M150 500l-0.00195312 -295.999c0 -42.667 9.83301 -75.5 29.5 -98.5s45.834 -34.5 78.501 -34.5c32 0 64.333 8.66699 97 26s58.667 42.666 78 75.999v327h90v-500h-90v78c-22 -28.667 -50.167 -51 -84.5 -67s-70.166 -24 -107.499 -24c-52.667 0 -96 16.667 -130 50
s-51 83.333 -51 150v313h90zM295.998 585.001c-28.667 0 -53.667 10 -75 30s-32 44 -32 72s10.667 52 32 72s46.333 30 75 30s53.667 -10 75 -30s32 -44 32 -72s-10.667 -52 -32 -72s-46.333 -30 -75 -30zM295.998 629.001c15.333 0 29 5.83301 41 17.5s18 25.167 18 40.5
s-5.83301 28.833 -17.5 40.5s-25.5 17.5 -41.5 17.5s-29.833 -5.83301 -41.5 -17.5s-17.5 -25.167 -17.5 -40.5s6 -28.833 18 -40.5s25.667 -17.5 41 -17.5z" />
    <glyph glyph-name="Uhungarumlaut" unicode="&#x170;" horiz-adv-x="690" 
d="M561 939l-146 -153h-67l91 153h122zM384 939l-146 -153h-66l90 153h122zM345 77c50.667 0 92.165 16.833 124.498 50.5s48.5 74.5 48.5 122.5v450h100v-447c0 -77.333 -24.667 -141.333 -74 -192s-115.666 -76 -198.999 -76s-149.666 25.333 -198.999 76
s-74 114.667 -74 192v447h100v-450c0 -48 16.167 -88.833 48.5 -122.5s73.833 -50.5 124.5 -50.5z" />
    <glyph glyph-name="uhungarumlaut" unicode="&#x171;" horiz-adv-x="593" 
d="M150 500l-0.00195312 -295.999c0 -42.667 9.83301 -75.5 29.5 -98.5s45.834 -34.5 78.501 -34.5c32 0 64.333 8.66699 97 26s58.667 42.666 78 75.999v327h90v-500h-90v78c-22 -28.667 -50.167 -51 -84.5 -67s-70.166 -24 -107.499 -24c-52.667 0 -96 16.667 -130 50
s-51 83.333 -51 150v313h90zM511.998 739.001l-146 -153h-67l91 153h122zM335.998 739.001l-146 -153h-67l91 153h122z" />
    <glyph glyph-name="Uogonek" unicode="&#x172;" horiz-adv-x="690" 
d="M465 -174c-41.333 0 -78.167 7.33008 -110.5 21.9971s-48.5 38.334 -48.5 71.001c0 26.667 11.667 48.667 35 66c-82.667 0.666992 -148.167 26.334 -196.5 77.001s-72.5 114.334 -72.5 191.001v447h100v-450c0 -48 16.167 -88.833 48.5 -122.5s73.833 -50.5 124.5 -50.5
s92.167 16.833 124.5 50.5s48.5 74.5 48.5 122.5v450h100v-447c0 -60.667 -15.833 -114 -47.5 -160s-75.5 -77.333 -131.5 -94c-39.333 -21.333 -59 -45.333 -59 -72c0 -16.667 7.16699 -30.667 21.5 -42s35.5 -17.333 63.5 -18v-41z" />
    <glyph glyph-name="uogonek" unicode="&#x173;" horiz-adv-x="593" 
d="M528 -174c-25.333 0 -49.166 2.49707 -71.499 7.49707s-42.5 14.833 -60.5 29.5s-27 33.334 -27 56.001c0 34.667 21.333 61.667 64 81v78c-22 -29.333 -50 -51.666 -84 -66.999s-69.667 -23 -107 -23c-54.667 0 -98.667 16.667 -132 50s-50 83 -50 149v313h90v-296
c0 -46.667 11.333 -81.167 34 -103.5s52.334 -33.5 89.001 -33.5c31.333 0 61.666 9.66699 90.999 29s52.333 45 69 77v327h90v-500c-28 -11.333 -48.167 -23.666 -60.5 -36.999s-18.5 -25.666 -18.5 -36.999c0 -17.333 7.16699 -31.333 21.5 -42
s35.166 -16.334 62.499 -17.001v-41z" />
    <glyph glyph-name="Ydieresis" unicode="&#x178;" horiz-adv-x="650" 
d="M5 700h111l209 -353l209 353h111l-270 -449v-251h-100v250zM361 835c0 15.333 5.16699 28.333 15.5 39s23.166 16 38.499 16s28.5 -5.33301 39.5 -16s16.5 -23.667 16.5 -39s-5.5 -28.333 -16.5 -39s-24.167 -16 -39.5 -16s-28.166 5.33301 -38.499 16
s-15.5 23.667 -15.5 39zM178 835c0 15.333 5.16699 28.333 15.5 39s23.5 16 39.5 16c15.333 0 28.333 -5.33301 39 -16s16 -23.667 16 -39s-5.33301 -28.333 -16 -39s-23.667 -16 -39 -16c-16 0 -29.167 5.33301 -39.5 16s-15.5 23.667 -15.5 39z" />
    <glyph glyph-name="Zacute" unicode="&#x179;" horiz-adv-x="604" 
d="M553 700v-78l-383 -531h394v-91h-524v77l383 531h-373v92h503zM419 939l-146 -153h-67l91 153h122z" />
    <glyph glyph-name="zacute" unicode="&#x17a;" horiz-adv-x="508" 
d="M164 78h311v-78h-442v65l303 356h-297v79h428v-66zM372 739l-146 -153h-67l91 153h122z" />
    <glyph glyph-name="Zdotaccent" unicode="&#x17b;" horiz-adv-x="604" 
d="M553 700v-78l-383 -531h394v-91h-524v77l383 531h-373v92h503zM248 835c0 15.333 5.16699 28.333 15.5 39s23.166 16 38.499 16s28.333 -5.33301 39 -16s16 -23.667 16 -39s-5.33301 -28.333 -16 -39s-23.667 -16 -39 -16s-28.166 5.33301 -38.499 16
s-15.5 23.667 -15.5 39z" />
    <glyph glyph-name="zdotaccent" unicode="&#x17c;" horiz-adv-x="508" 
d="M164 78h311v-78h-442v65l303 356h-297v79h428v-66zM199 635c0 15.333 5.16699 28.333 15.5 39s23.166 16 38.499 16s28.333 -5.33301 39 -16s16 -23.667 16 -39s-5.33301 -28.333 -16 -39s-23.667 -16 -39 -16s-28.166 5.33301 -38.499 16s-15.5 23.667 -15.5 39z" />
    <glyph glyph-name="Zcaron" unicode="&#x17d;" horiz-adv-x="604" 
d="M553 700v-78l-383 -531h394v-91h-524v77l383 531h-373v92h503zM262 786l-116 145h70l83 -78l83 78h69l-116 -145h-73z" />
    <glyph glyph-name="zcaron" unicode="&#x17e;" horiz-adv-x="508" 
d="M164 78h311v-78h-442v65l303 356h-297v79h428v-66zM217 586l-116 145h71l82 -78l83 78h69l-116 -145h-73z" />
    <glyph glyph-name="circumflex" unicode="&#x2c6;" horiz-adv-x="500" 
d="M101 586l116 145h73l116 -145h-70l-83 78l-83 -78h-69z" />
    <glyph glyph-name="caron" unicode="&#x2c7;" horiz-adv-x="500" 
d="M217 586l-116 145h71l82 -78l83 78h69l-116 -145h-73z" />
    <glyph glyph-name="breve" unicode="&#x2d8;" horiz-adv-x="500" 
d="M250 585c-46 0 -83 12.167 -111 36.5s-44.667 60.5 -50 108.5h53c13.333 -50 49.333 -75 108 -75c58 0 93.667 25 107 75h53c-4.66699 -47.333 -21 -83.333 -49 -108s-65 -37 -111 -37z" />
    <glyph glyph-name="dotaccent" unicode="&#x2d9;" horiz-adv-x="500" 
d="M197 635c0 15.333 5.16699 28.333 15.5 39s23.166 16 38.499 16s28.333 -5.33301 39 -16s16 -23.667 16 -39s-5.33301 -28.333 -16 -39s-23.667 -16 -39 -16s-28.166 5.33301 -38.499 16s-15.5 23.667 -15.5 39z" />
    <glyph glyph-name="ring" unicode="&#x2da;" horiz-adv-x="500" 
d="M250 585c-28.667 0 -53.834 10 -75.501 30s-32.5 44 -32.5 72s10.833 52 32.5 72s46.834 30 75.501 30c28 0 52.833 -10 74.5 -30s32.5 -44 32.5 -72s-10.833 -52 -32.5 -72s-46.5 -30 -74.5 -30zM250 629c15.333 0 28.833 5.83301 40.5 17.5s17.5 25.167 17.5 40.5
s-5.66699 28.833 -17 40.5s-25 17.5 -41 17.5s-29.833 -5.83301 -41.5 -17.5s-17.5 -25.167 -17.5 -40.5s5.83301 -28.833 17.5 -40.5s25.5 -17.5 41.5 -17.5z" />
    <glyph glyph-name="ogonek" unicode="&#x2db;" horiz-adv-x="500" 
d="M356 -174c-41.333 0 -78.167 7.33105 -110.5 21.998s-48.5 38.334 -48.5 71.001c0 35.333 20.667 62.333 62 81h74c-41.333 -21.333 -62 -45.666 -62 -72.999c0 -16.667 7.16699 -30.667 21.5 -42s35.5 -17.333 63.5 -18v-41z" />
    <glyph glyph-name="tilde" unicode="&#x2dc;" horiz-adv-x="510" 
d="M140 586l-47 6c17.333 76.667 50.666 115 99.999 115c15.333 0 38.333 -6.83301 69 -20.5s52.334 -20.5 65.001 -20.5c22.667 0 40 16.667 52 50l48 -6c-17.333 -76.667 -50.666 -115 -99.999 -115c-14.667 0 -37.5 6.83301 -68.5 20.5s-52.833 20.5 -65.5 20.5
c-20.667 0 -38.334 -16.667 -53.001 -50z" />
    <glyph glyph-name="hungarumlaut" unicode="&#x2dd;" horiz-adv-x="543" 
d="M481 739l-146 -153h-67l91 153h122zM305 739l-146 -153h-67l91 153h122z" />
    <glyph glyph-name="afii10023" unicode="&#x401;" horiz-adv-x="593" 
d="M548 89v-89h-468v700h461v-90h-361v-206h319v-87h-319v-228h368zM364 809c0 15.333 5.16699 28.333 15.5 39s23.5 16 39.5 16c15.333 0 28.333 -5.33301 39 -16s16 -23.667 16 -39s-5.33301 -28.333 -16 -39s-23.667 -16 -39 -16c-16 0 -29.167 5.33301 -39.5 16
s-15.5 23.667 -15.5 39zM159 809c0 15.333 5.16699 28.333 15.5 39s23.5 16 39.5 16c15.333 0 28.333 -5.33301 39 -16s16 -23.667 16 -39s-5.33301 -28.333 -16 -39s-23.667 -16 -39 -16c-16 0 -29.167 5.33301 -39.5 16s-15.5 23.667 -15.5 39z" />
    <glyph glyph-name="afii10051" unicode="&#x402;" horiz-adv-x="781" 
d="M559 700l0.00195312 -92h-224v-204c62 13.333 119.667 20 173 20c70.667 0 128 -17.667 172 -53s66 -90.333 66 -165v-24c0 -60 -16.833 -107.667 -50.5 -143s-76.834 -53 -129.501 -53c-54 0 -104.667 19.667 -152 59l32 65c29.333 -32.667 63.666 -49 102.999 -49
c29.333 0 52.833 10.5 70.5 31.5s26.5 51.167 26.5 90.5v18c0 88.667 -49.667 133 -149 133c-54.667 0 -108.667 -6.66699 -162 -20v-314h-100v608h-210v92h534z" />
    <glyph glyph-name="afii10052" unicode="&#x403;" horiz-adv-x="551" 
d="M531 700v-92h-351v-608h-100v700h451zM219 784l41.5 67.5l46.5 76.5h112l-133 -144h-67z" />
    <glyph glyph-name="afii10053" unicode="&#x404;" horiz-adv-x="696" 
d="M413 72c84.667 0 154.999 25.333 210.999 76l52 -72c-69.333 -60.667 -157 -91 -263 -91c-113.333 0 -203.5 34.5 -270.5 103.5s-100.5 156.167 -100.5 261.5c0 104.667 33.5 191.667 100.5 261s157.167 104 270.5 104c105.333 0 193 -30.667 263 -92l-52 -72
c-56 50.667 -126.333 76 -211 76c-73.333 0 -133.166 -20.833 -179.499 -62.5s-73.833 -95.167 -82.5 -160.5h381v-83h-384c4 -72 29.667 -131.5 77 -178.5s110 -70.5 188 -70.5z" />
    <glyph glyph-name="afii10054" unicode="&#x405;" horiz-adv-x="592" 
d="M455 196c0 22.667 -7.16504 41.498 -21.498 56.498s-33 26.833 -56 35.5s-48.5 16.5 -76.5 23.5s-56 15.5 -84 25.5s-53.5 22 -76.5 36s-41.667 34 -56 60s-21.5 57 -21.5 93c0 56 22 101.5 66 136.5s99.333 52.5 166 52.5c47.333 0 88.666 -7.5 123.999 -22.5
s70.666 -38.167 105.999 -69.5l-52 -70c-56.667 51.333 -117 77 -181 77c-37.333 0 -69.5 -9.16699 -96.5 -27.5s-40.5 -43.833 -40.5 -76.5c0 -22 7.33301 -40.667 22 -56s33.667 -27.166 57 -35.499s49.166 -16.166 77.499 -23.499s56.5 -16 84.5 -26s53.667 -22 77 -36
s42.333 -34 57 -60s22 -57 22 -93c0 -58.667 -24.833 -108.5 -74.5 -149.5s-110.167 -61.5 -181.5 -61.5c-99.333 0 -184.666 31.333 -255.999 94l52 73c59.333 -52.667 128.333 -79 207 -79c42 0 78.5 12 109.5 36s46.5 53 46.5 87z" />
    <glyph glyph-name="afii10055" unicode="&#x406;" horiz-adv-x="260" 
d="M80 0v700h100v-700h-100z" />
    <glyph glyph-name="afii10056" unicode="&#x407;" horiz-adv-x="260" 
d="M80 0v700h100v-700h-100zM158 835c0 15.333 4.83301 28.333 14.5 39s21.5 16 35.5 16c14.667 0 26.834 -5.33301 36.501 -16s14.5 -23.667 14.5 -39s-4.83301 -28.166 -14.5 -38.499s-21.834 -15.5 -36.501 -15.5c-14 0 -25.833 5.16699 -35.5 15.5
s-14.5 23.166 -14.5 38.499zM2 835c0 15.333 4.83301 28.333 14.5 39s21.5 16 35.5 16s26 -5.33301 36 -16s15 -23.667 15 -39s-5 -28.166 -15 -38.499s-22 -15.5 -36 -15.5c-14.667 0 -26.667 5.16699 -36 15.5s-14 23.166 -14 38.499z" />
    <glyph glyph-name="afii10057" unicode="&#x408;" horiz-adv-x="420" 
d="M245 186l-0.000976562 514h100v-459c0 -86 -12.667 -150.167 -38 -192.5s-73.666 -63.5 -144.999 -63.5c-60.667 0 -113.667 21.667 -159 65l49 67c32.667 -28.667 64.667 -43 96 -43c30.667 0 54.5 9.83301 71.5 29.5s25.5 47.167 25.5 82.5z" />
    <glyph glyph-name="afii10058" unicode="&#x409;" horiz-adv-x="1028" 
d="M612 700l0.000976562 -264.001h139c73.333 0 132 -20.5 176 -61.5s66 -93.5 66 -157.5s-21.333 -116.167 -64 -156.5s-102 -60.5 -178 -60.5h-239v608h-242v-191c0 -64.667 -4 -121.667 -12 -171s-18.833 -89.333 -32.5 -120s-30.5 -55.667 -50.5 -75
s-40.833 -32.666 -62.5 -39.999s-45.834 -11 -72.501 -11h-30v91h26c48.667 0 83.667 25 105 75s32 138 32 264v270h439zM612.001 90.999h142c44 0 78.167 11.5 102.5 34.5s36.5 53.5 36.5 91.5c0 38.667 -12.167 69.667 -36.5 93s-58.5 35 -102.5 35h-142v-254z" />
    <glyph glyph-name="afii10059" unicode="&#x40a;" horiz-adv-x="1024" 
d="M511 0v319.999h-331v-320h-100v700h100v-289h331v289h100v-275h139c61.333 0 116.5 -20.167 165.5 -60.5s73.5 -92.166 73.5 -155.499c0 -62.667 -21.667 -113.167 -65 -151.5s-101.333 -57.5 -174 -57.5h-239zM611 90.999h142c44.667 0 79 10.5 103 31.5
s36 50.5 36 88.5s-12 68 -36 90s-58.333 33 -103 33h-142v-243z" />
    <glyph glyph-name="afii10060" unicode="&#x40b;" horiz-adv-x="787" 
d="M559 700v-92h-224v-204c62 13.333 121.333 20 178 20c70.667 0 128.167 -18.833 172.5 -56.5s66.5 -94.167 66.5 -169.5v-198h-100v198c0 47.333 -14 81.833 -42 103.5s-65.667 32.5 -113 32.5c-54.667 0 -108.667 -6.66699 -162 -20v-314h-100v608h-210v92h534z" />
    <glyph glyph-name="afii10061" unicode="&#x40c;" horiz-adv-x="663" 
d="M528 0l-336 361l319 339h112l-319 -339l345 -361h-121zM80 0v700h100v-700h-100zM246 786l88 145h112l-133 -145h-67z" />
    <glyph glyph-name="afii10062" unicode="&#x40e;" horiz-adv-x="647" 
d="M295 0h-113l87 177l-257 523h114l198 -409l201 409h110l-170 -350zM324 823c58 0 108.332 11.667 150.999 35l19 -36.5c8 -15.667 13.667 -26.5 17 -32.5c-52.667 -26.667 -115 -40 -187 -40c-71.333 0 -133.666 13.333 -186.999 40l36 69c44 -23.333 94.333 -35 151 -35
z" />
    <glyph glyph-name="afii10145" unicode="&#x40f;" horiz-adv-x="706" 
d="M526 91v609h100v-700h-227v-154h-92v154h-227v700h100v-609h346z" />
    <glyph glyph-name="afii10017" unicode="&#x410;" horiz-adv-x="672" 
d="M393 700l267 -700h-100l-67 172h-315l-66 -172h-100l267 700h114zM336 585l-128 -329h255z" />
    <glyph glyph-name="afii10018" unicode="&#x411;" horiz-adv-x="628" 
d="M180 83h164c44 0 77.5 11.5 100.5 34.5s34.5 53.833 34.5 92.5s-11.5 69.5 -34.5 92.5s-56.5 34.5 -100.5 34.5h-164v-254zM530 700v-84h-350v-195h179c66 0 119.833 -20 161.5 -60s62.5 -90.667 62.5 -152c0 -62 -19.667 -112.333 -59 -151s-94.333 -58 -165 -58h-279
v700h450z" />
    <glyph glyph-name="afii10019" unicode="&#x412;" horiz-adv-x="628" 
d="M556 527c0 -34 -9.83301 -65.5 -29.5 -94.5s-45.167 -51.167 -76.5 -66.5c39.333 -14.667 71.333 -38 96 -70s37 -68 37 -108c0 -52.667 -19.5 -97.167 -58.5 -133.5s-87.833 -54.5 -146.5 -54.5h-298v700h261c60.667 0 111.667 -15.833 153 -47.5s62 -73.5 62 -125.5z
M180 82h178c34.667 0 64.167 11.5 88.5 34.5s36.5 51.5 36.5 85.5c0 33.333 -12.167 61.5 -36.5 84.5s-53.833 34.5 -88.5 34.5h-178v-239zM460 510c0 29.333 -11.333 54.5 -34 75.5s-49.334 31.5 -80.001 31.5h-166v-217h166c30.667 0 57.334 10.833 80.001 32.5
s34 47.5 34 77.5z" />
    <glyph glyph-name="afii10020" unicode="&#x413;" horiz-adv-x="551" 
d="M531 700v-92h-351v-608h-100v700h451z" />
    <glyph glyph-name="afii10021" unicode="&#x414;" horiz-adv-x="754" 
d="M112 0l-0.000976562 -154h-92v245h71c30.667 52.667 53.834 112.167 69.501 178.5s23.5 153.5 23.5 261.5v169h454v-609h96v-245h-92v154h-530zM537.999 91v517h-256v-106c0 -166 -28 -303 -84 -411h340z" />
    <glyph glyph-name="afii10022" unicode="&#x415;" horiz-adv-x="593" 
d="M548 89v-89h-468v700h461v-90h-361v-206h319v-87h-319v-228h368z" />
    <glyph glyph-name="afii10024" unicode="&#x416;" horiz-adv-x="928" 
d="M162 700l176 -292h76v292h100v-292h76l177 292h116l-112.5 -188.5l-92.5 -154.5l233 -357h-124l-202 317h-71v-317h-100v317h-72l-201 -317h-124l234 358l-205 342h116z" />
    <glyph glyph-name="afii10025" unicode="&#x417;" horiz-adv-x="584" 
d="M283 73c41.333 0 75.001 12.168 101.001 36.501s39 52.5 39 84.5c0 86 -39.667 129 -119 129h-109v77h114c27.333 0 54.166 11.333 80.499 34s39.5 50.334 39.5 83.001c0 34 -12.833 61.333 -38.5 82s-56.5 31 -92.5 31c-41.333 0 -76.833 -6.33301 -106.5 -19
s-58.834 -32 -87.501 -58l-53 70c70 61.333 152.333 92 247 92c67.333 0 121.5 -16.833 162.5 -50.5s61.5 -77.5 61.5 -131.5c0 -36.667 -10.5 -70.167 -31.5 -100.5s-51.167 -52.833 -90.5 -67.5c42.667 -10.667 76.5 -32.334 101.5 -65.001s37.5 -69.334 37.5 -110.001
c0 -58.667 -24.667 -107.5 -74 -146.5s-110 -58.5 -182 -58.5c-96.667 0 -179.667 30.333 -249 91l52 74c56.667 -51.333 122.334 -77 197.001 -77z" />
    <glyph glyph-name="afii10026" unicode="&#x418;" horiz-adv-x="713" 
d="M533 0v532l-353 -532h-100v700h100v-534l353 534h100v-700h-100z" />
    <glyph glyph-name="afii10027" unicode="&#x419;" horiz-adv-x="713" 
d="M361 823c56.667 0 106.999 11.667 150.999 35l36 -69c-53.333 -26.667 -115.666 -40 -186.999 -40c-72 0 -134.333 13.333 -187 40l36 69c42.667 -23.333 93 -35 151 -35zM532.999 0v532l-353 -532h-100v700h100v-534l353 534h100v-700h-100z" />
    <glyph glyph-name="afii10028" unicode="&#x41a;" horiz-adv-x="663" 
d="M528 0l-336 361l319 339h112l-319 -339l345 -361h-121zM80 0v700h100v-700h-100z" />
    <glyph glyph-name="afii10029" unicode="&#x41b;" horiz-adv-x="707" 
d="M10 0l0.000976562 90.999h26c48.667 0 83.667 25 105 75s32 138 32 264v270h454v-700h-100v608h-257v-191c0 -64.667 -4 -121.667 -12 -171s-18.833 -89.333 -32.5 -120s-30.5 -55.667 -50.5 -75s-40.833 -32.666 -62.5 -39.999s-45.834 -11 -72.501 -11h-30z" />
    <glyph glyph-name="afii10030" unicode="&#x41c;" horiz-adv-x="812" 
d="M178 700l228 -356l228 356h98v-700h-94v553l-210 -328h-44l-209 328v-553h-95v700h98z" />
    <glyph glyph-name="afii10031" unicode="&#x41d;" horiz-adv-x="706" 
d="M526 0v317h-346v-317h-100v700h100v-292h346v292h100v-700h-100z" />
    <glyph glyph-name="afii10032" unicode="&#x41e;" horiz-adv-x="826" 
d="M413 619c-81.333 0 -147 -25.667 -197 -77s-75 -115.333 -75 -192c0 -77.333 25 -141.666 75 -192.999s115.667 -77 197 -77s146.833 25.667 196.5 77s74.5 115.666 74.5 192.999c0 76.667 -25 140.667 -75 192s-115.333 77 -196 77zM413 -15
c-113.333 0 -203.5 34.5 -270.5 103.5s-100.5 156.167 -100.5 261.5c0 104.667 33.5 191.667 100.5 261s157.167 104 270.5 104s203.5 -34.667 270.5 -104s100.5 -156.333 100.5 -261c0 -105.333 -33.5 -192.5 -100.5 -261.5s-157.167 -103.5 -270.5 -103.5z" />
    <glyph glyph-name="afii10033" unicode="&#x41f;" horiz-adv-x="706" 
d="M526 0v608h-346v-608h-100v700h546v-700h-100z" />
    <glyph glyph-name="afii10034" unicode="&#x420;" horiz-adv-x="613" 
d="M180 263l-0.000976562 -263h-100v700h264c72 0 129 -20.5 171 -61.5s63 -93.5 63 -157.5c0 -62.667 -21.667 -114.667 -65 -156s-99.666 -62 -168.999 -62h-164zM338.999 608h-159v-254h159c44 0 78.167 11.667 102.5 35s36.5 54.333 36.5 93
c0 38 -12.167 68.5 -36.5 91.5s-58.5 34.5 -102.5 34.5z" />
    <glyph glyph-name="afii10035" unicode="&#x421;" horiz-adv-x="693" 
d="M413 77c84 0 154.333 25.668 211 77.001l52 -78c-69.333 -60.667 -157 -91 -263 -91c-113.333 0 -203.5 34.5 -270.5 103.5s-100.5 156.167 -100.5 261.5c0 104.667 33.5 191.667 100.5 261s157.167 104 270.5 104c105.333 0 193 -30.667 263 -92l-52 -78
c-56.667 51.333 -127 77 -211 77c-80.667 0 -145.5 -26 -194.5 -78s-73.5 -116.667 -73.5 -194c0 -76.667 24.5 -141.334 73.5 -194.001s113.833 -79 194.5 -79z" />
    <glyph glyph-name="afii10036" unicode="&#x422;" horiz-adv-x="584" 
d="M559 700v-92h-217v-608h-100v608h-217v92h534z" />
    <glyph glyph-name="afii10037" unicode="&#x423;" horiz-adv-x="647" 
d="M295 0h-113l87 178l-257 522h114l198 -409l201 409h110z" />
    <glyph glyph-name="afii10038" unicode="&#x424;" horiz-adv-x="832" 
d="M366 0v75h-27c-88.667 0 -160.334 27.167 -215.001 81.5s-82 123.5 -82 207.5c0 84.667 27.333 154 82 208s126.334 81 215.001 81h27v67h100v-67h27c88.667 0 160.334 -27.167 215.001 -81.5s82 -123.5 82 -207.5c0 -85.333 -27.333 -154.833 -82 -208.5
s-126.334 -80.5 -215.001 -80.5h-27v-75h-100zM491 164c62.667 0 112.334 18.833 149.001 56.5s55 85.5 55 143.5c0 57.333 -18.333 105 -55 143s-86.334 57 -149.001 57h-25v-400h25zM341 164h25v400h-25c-62.667 0 -112.334 -19 -149.001 -57s-55 -85.667 -55 -143
c0 -58 18.333 -105.833 55 -143.5s86.334 -56.5 149.001 -56.5z" />
    <glyph glyph-name="afii10039" unicode="&#x425;" horiz-adv-x="673" 
d="M535 0l-198 273l-199 -273h-120l258 357l-248 343h120l189 -260l188 260h120l-249 -343l259 -357h-120z" />
    <glyph glyph-name="afii10040" unicode="&#x426;" horiz-adv-x="741" 
d="M526 91v609h100v-609h95v-245h-91v154h-550v700h100v-609h346z" />
    <glyph glyph-name="afii10041" unicode="&#x427;" horiz-adv-x="634" 
d="M40 482l0.000976562 218h100v-218c0 -47.333 13.833 -81.833 41.5 -103.5s64.5 -32.5 110.5 -32.5c50 0 104 6.66699 162 20v334h100v-700h-100v275c-64.667 -12.667 -121.334 -19 -170.001 -19c-70.667 0 -129 19 -175 57s-69 94.333 -69 169z" />
    <glyph glyph-name="afii10042" unicode="&#x428;" horiz-adv-x="1077" 
d="M489 91v609h100v-609h308v609h100v-700h-917v700h100v-609h309z" />
    <glyph glyph-name="afii10043" unicode="&#x429;" horiz-adv-x="1112" 
d="M80 0v700h100v-609h309v609h100v-609h308v609h100v-609h95v-245h-91v154h-921z" />
    <glyph glyph-name="afii10044" unicode="&#x42a;" horiz-adv-x="759" 
d="M329 700v-264.001h154c70 0 127.667 -21 173 -63s68 -94 68 -156c0 -59.333 -19.333 -108.666 -58 -147.999s-92 -61.333 -160 -66c-26.667 -2 -54 -3 -82 -3h-195v609h-209v91h309zM329 90.999h156.999c44 0 78 11.5 102 34.5s36 53.5 36 91.5
c0 38.667 -12.167 69.667 -36.5 93s-58.166 35 -101.499 35h-157v-254z" />
    <glyph glyph-name="afii10045" unicode="&#x42b;" horiz-adv-x="834" 
d="M180 91l157 -0.000976562c44 0 78 11.333 102 34s36 53.334 36 92.001s-12 69.667 -36 93s-58 35 -102 35h-157v-254zM180 699.999v-264h154c68.667 0 126 -21 172 -63s69 -94 69 -156c0 -62.667 -22.167 -114.5 -66.5 -155.5s-102.5 -61.5 -174.5 -61.5h-254v700h100z
M654 -0.000976562v700h100v-700h-100z" />
    <glyph glyph-name="afii10046" unicode="&#x42c;" horiz-adv-x="610" 
d="M180 91l157 -0.000976562c44 0 78 11.333 102 34s36 53.334 36 92.001s-12 69.667 -36 93s-58 35 -102 35h-157v-254zM180 699.999v-264h154c68.667 0 126 -21 172 -63s69 -94 69 -156c0 -62.667 -22.167 -114.5 -66.5 -155.5s-102.5 -61.5 -174.5 -61.5h-254v700h100z
" />
    <glyph glyph-name="afii10047" unicode="&#x42d;" horiz-adv-x="697" 
d="M284 72c76.667 0 138.666 23.5 185.999 70.5s73.333 106.5 78 178.5h-384v83h382c-9.33301 65.333 -37.166 118.833 -83.499 160.5s-105.833 62.5 -178.5 62.5c-85.333 0 -156 -25.333 -212 -76l-52 72c70 61.333 158 92 264 92c113.333 0 203.5 -34.667 270.5 -104
s100.5 -156.333 100.5 -261c0 -105.333 -33.5 -192.5 -100.5 -261.5s-157.167 -103.5 -270.5 -103.5c-106.667 0 -194.667 30.333 -264 91l52 72c56 -50.667 126.667 -76 212 -76z" />
    <glyph glyph-name="afii10048" unicode="&#x42e;" horiz-adv-x="1065" 
d="M652 -15c-107.333 0 -193.833 31 -259.5 93s-102.167 141.667 -109.5 239h-103v-317h-100v700h100v-292h107c12 90.667 50.333 164.5 115 221.5s148 85.5 250 85.5c113.333 0 203.5 -34.667 270.5 -104s100.5 -156.333 100.5 -261c0 -105.333 -33.5 -192.5 -100.5 -261.5
s-157.167 -103.5 -270.5 -103.5zM652 619c-80.667 0 -146 -25.667 -196 -77s-75 -115.333 -75 -192c0 -77.333 24.833 -141.666 74.5 -192.999s115.167 -77 196.5 -77s147 25.667 197 77s75 115.666 75 192.999c0 76.667 -25 140.667 -75 192s-115.667 77 -197 77z" />
    <glyph glyph-name="afii10049" unicode="&#x42f;" horiz-adv-x="633" 
d="M453 0v263.001h-116l-81.5 -116l-103.5 -147h-112l96 136l97 137c-54.667 10 -98 34 -130 72s-48 83.333 -48 136c0 63.333 21 115.666 63 156.999s99 62 171 62h264v-700h-100zM453 608.001h-159.999c-44 0 -78 -11.5 -102 -34.5s-36 -53.5 -36 -91.5
c0 -38.667 12.167 -69.667 36.5 -93s58.166 -35 101.499 -35h160v254z" />
    <glyph glyph-name="afii10065" unicode="&#x430;" horiz-adv-x="539" 
d="M202 -15c-52 0 -93.168 12.666 -123.501 37.999s-45.5 60 -45.5 104c0 22 3.66699 41.5 11 58.5s16.666 31.167 27.999 42.5s26.833 21 46.5 29s38.334 14.333 56.001 19s40.334 8.16699 68.001 10.5s51.334 3.83301 71.001 4.5s44.834 1.33398 75.501 2.00098v41
c0 72 -40 108 -120 108c-59.333 0 -112.666 -21 -159.999 -63l-49 55c59.333 54 131.666 81 216.999 81c40.667 0 75.167 -5.33301 103.5 -16s49.166 -25.167 62.499 -43.5s22.666 -36.5 27.999 -54.5s8 -37.333 8 -58v-343h-90v88c-54.667 -68.667 -117 -103 -187 -103z
M223.999 53.999c62.667 0 117.665 35.665 164.998 106.998v74c-64 0 -117.333 -3.66699 -160 -11c-13.333 -2 -26.666 -5.66699 -39.999 -11s-26.833 -15.166 -40.5 -29.499s-20.5 -31.166 -20.5 -50.499c0 -27.333 9.83301 -47.333 29.5 -60s41.834 -19 66.501 -19z" />
    <glyph glyph-name="afii10066" unicode="&#x431;" horiz-adv-x="603" 
d="M531 650c-28.667 -6.66699 -60.8291 -13.668 -96.4961 -21.001s-64.334 -13 -86.001 -17s-45.334 -9.33301 -71.001 -16s-45.834 -13.667 -60.501 -21s-29.834 -17 -45.501 -29s-27.667 -26 -36 -42s-15.5 -35.667 -21.5 -59s-9.66699 -50.333 -11 -81
c18 41.333 46.333 73 85 95s80.334 33 125.001 33c72 0 132.5 -22.167 181.5 -66.5s73.5 -104.5 73.5 -180.5c0 -75.333 -23.833 -137.5 -71.5 -186.5s-111.834 -73.5 -192.501 -73.5c-86.667 0 -153.167 27.333 -199.5 82s-69.5 132.667 -69.5 234
c0 43.333 1.5 81.333 4.5 114s8.66699 61.5 17 86.5s16.833 46 25.5 63s21.834 32.333 39.501 46s34.167 24.334 49.5 32.001s37.166 15.5 65.499 23.5s53.833 14.5 76.5 19.5l93.5 21c39.667 9 75.167 17.5 106.5 25.5c11.333 -50.667 17.333 -78 18 -82zM303.005 61.999
c50.667 0 92.332 17.167 124.999 51.5s49 76.833 49 127.5c0 54.667 -17.167 97.834 -51.5 129.501s-75.166 47.5 -122.499 47.5s-88 -15.833 -122 -47.5s-51 -74.834 -51 -129.501c0 -50.667 16 -93.167 48 -127.5s73.667 -51.5 125 -51.5z" />
    <glyph glyph-name="afii10067" unicode="&#x432;" horiz-adv-x="533" 
d="M472 378c0 -22.667 -6.33301 -44.3311 -19 -64.998s-29.667 -37.334 -51 -50.001c28 -10.667 50.167 -27.334 66.5 -50.001s24.5 -48 24.5 -76c0 -38 -13.5 -70.333 -40.5 -97s-62.167 -40 -105.5 -40h-277v500h265c40 0 72.833 -11.833 98.5 -35.5
s38.5 -52.5 38.5 -86.5zM159 66.0029l157 0.000976562c24.667 0 45 7.16699 61 21.5s24 33.166 24 56.499c0 24 -8 43.5 -24 58.5s-36.333 22.5 -61 22.5h-157v-159zM387 365.004c0 20.667 -7.83301 37.167 -23.5 49.5s-34.5 18.5 -56.5 18.5h-148v-144h148
c22 0 40.833 7.33301 56.5 22s23.5 32.667 23.5 54z" />
    <glyph glyph-name="afii10068" unicode="&#x433;" horiz-adv-x="448" 
d="M438 500v-82h-279v-418h-89v500h368z" />
    <glyph glyph-name="afii10069" unicode="&#x434;" horiz-adv-x="624" 
d="M95 0v-141h-82v219h60c20 28.667 36.667 69.667 50 123s20 111 20 173v126h376v-422h77v-219h-87v141h-414zM429 78v343h-200v-56c0 -56 -6 -111 -18 -165s-26 -94.667 -42 -122h260z" />
    <glyph glyph-name="afii10070" unicode="&#x435;" horiz-adv-x="585" 
d="M550 264c0 -5.33301 -0.666992 -13.332 -2 -23.999h-422c4 -50.667 22 -93.167 54 -127.5s77 -51.5 135 -51.5c28 0 56.667 5.16699 86 15.5s54.333 24.166 75 41.499l42 -57c-25.333 -24 -56.833 -42.667 -94.5 -56s-76.5 -20 -116.5 -20c-76 0 -140.333 24 -193 72
s-79 109 -79 183c0 76 25.167 140.833 75.5 194.5s111.5 80.5 183.5 80.5c80 0 142.667 -24.167 188 -72.5s68 -107.833 68 -178.5zM462 305.001c-6.66699 38.667 -24.5 70.5 -53.5 95.5s-67.167 37.5 -114.5 37.5c-40 0 -75 -12.167 -105 -36.5s-50 -56.5 -60 -96.5h333z
" />
    <glyph glyph-name="afii10072" unicode="&#x436;" horiz-adv-x="731" 
d="M321 0v224.001h-58l-147 -224h-102l176 263l-75 110.5l-85 126.5h103c74 -112.667 117 -177.334 129 -194.001h59v194h89v-194h58l130 194h103l-85 -126.5l-75 -110.5l176 -263h-102l-147 224h-58v-224h-89z" />
    <glyph glyph-name="afii10073" unicode="&#x437;" horiz-adv-x="475" 
d="M169 289h77.999c24.667 0 46 8 64 24s27 34.667 27 56c0 47.333 -32.667 71 -98 71c-58.667 0 -106.667 -19.667 -144 -59l-21 25.5c-10.667 13 -18.667 23.167 -24 30.5c48 52 113 78 195 78c59.333 0 103.833 -12.667 133.5 -38s44.5 -56.333 44.5 -93
c0 -26 -8 -50.167 -24 -72.5s-37.667 -39.5 -65 -51.5c31.333 -10 55.833 -26.5 73.5 -49.5s26.5 -48.5 26.5 -76.5c0 -41.333 -16.5 -76.5 -49.5 -105.5s-84.167 -43.5 -153.5 -43.5c-81.333 0 -148.666 25.667 -201.999 77l45 55c45.333 -40 96.333 -60 153 -60
c37.333 0 65.833 8 85.5 24s29.5 36.333 29.5 61c0 24 -8.83301 43.833 -26.5 59.5s-40.5 23.5 -68.5 23.5h-79v64z" />
    <glyph glyph-name="afii10074" unicode="&#x438;" horiz-adv-x="602" 
d="M159 500v-377l281 377h92v-500h-90v375l-280 -375h-92v500h89z" />
    <glyph glyph-name="afii10075" unicode="&#x439;" horiz-adv-x="603" 
d="M302 647c48 0 92.334 10 133.001 30l32 -60c-48.667 -24 -103.667 -36 -165 -36c-62 0 -117.333 12 -166 36c7.33301 13.333 17.666 33.333 30.999 60c42 -20 87 -30 135 -30zM160.001 500v-377l281 377h92v-500h-90v375l-280 -375h-93v500h90z" />
    <glyph glyph-name="afii10076" unicode="&#x43a;" horiz-adv-x="528" 
d="M408 0l-236 261l226 239h110l-236 -239l246 -261h-110zM70 500h89v-500h-89v500z" />
    <glyph glyph-name="afii10077" unicode="&#x43b;" horiz-adv-x="592" 
d="M10 0v73h34c31.333 0 53 16 65 48s18 90.667 18 176v203h395v-500h-90v421h-216v-147c0 -182.667 -54 -274 -162 -274h-44z" />
    <glyph glyph-name="afii10078" unicode="&#x43c;" horiz-adv-x="681" 
d="M340 243l98 143l78 114h95v-500h-89v373l-51 -73l-60 -87l-51 -74h-40l-161 234v-373h-89v500h95z" />
    <glyph glyph-name="afii10079" unicode="&#x43d;" horiz-adv-x="600" 
d="M440 218h-281v-218h-89v500h89v-201h281v201h90v-500h-90v218z" />
    <glyph glyph-name="afii10080" unicode="&#x43e;" horiz-adv-x="613" 
d="M307 63c52 0 95.667 18.167 131 54.5s53 80.5 53 132.5c0 50.667 -17.667 94.334 -53 131.001s-79 55 -131 55s-95.833 -18.333 -131.5 -55s-53.5 -80.334 -53.5 -131.001c0 -52 17.667 -96.167 53 -132.5s79.333 -54.5 132 -54.5zM307 -15
c-79.333 0 -144.5 25.5 -195.5 76.5s-76.5 113.833 -76.5 188.5c0 74 25.5 136.667 76.5 188s116.167 77 195.5 77s144.333 -25.667 195 -77s76 -114 76 -188c0 -74.667 -25.333 -137.5 -76 -188.5s-115.667 -76.5 -195 -76.5z" />
    <glyph glyph-name="afii10081" unicode="&#x43f;" horiz-adv-x="602" 
d="M442 421h-283v-421h-89v500h462v-500h-90v421z" />
    <glyph glyph-name="afii10082" unicode="&#x440;" horiz-adv-x="618" 
d="M332 -15c-70.667 0 -128.333 26.667 -173 80v-269h-89v704h89v-66c45.333 52.667 104 79 176 79c71.333 0 130.5 -25.667 177.5 -77s70.5 -113.333 70.5 -186c0 -74 -23.833 -136.667 -71.5 -188s-107.5 -77 -179.5 -77zM306.001 433
c-60.667 0 -109.667 -24.667 -147 -74v-219c36.667 -49.333 85.667 -74 147 -74c50.667 0 93.667 18 129 54s53 79.333 53 130c0 50 -17.833 93 -53.5 129s-78.5 54 -128.5 54z" />
    <glyph glyph-name="afii10083" unicode="&#x441;" horiz-adv-x="520" 
d="M122 250c0 -52 16.668 -95.1641 50.001 -129.497s75.666 -51.5 126.999 -51.5c52.667 0 101 19 145 57l21.5 -27.5c12.333 -15.667 21.5 -27.834 27.5 -36.501c-53.333 -51.333 -119 -77 -197 -77c-73.333 0 -135.166 26.333 -185.499 79s-75.5 114.667 -75.5 186
c0 70.667 25.167 132.5 75.5 185.5s112.166 79.5 185.499 79.5c77.333 0 143 -26 197 -78c-6 -8.66699 -15.167 -20.834 -27.5 -36.501l-21.5 -27.5c-44 38 -92.333 57 -145 57c-50 0 -92 -17.333 -126 -52s-51 -77.334 -51 -128.001z" />
    <glyph glyph-name="afii10084" unicode="&#x442;" horiz-adv-x="475" 
d="M460 500v-82h-178v-418h-89v418h-178v82h445z" />
    <glyph glyph-name="afii10085" unicode="&#x443;" horiz-adv-x="540" 
d="M531 500l-151 -351.5l-151 -352.5h-94l86 205l-212 499h100l160 -387l164 387h98z" />
    <glyph glyph-name="afii10086" unicode="&#x444;" horiz-adv-x="739" 
d="M444 -15h-29v-189h-90v189h-30c-72.667 0 -134.167 26 -184.5 78s-75.5 114.333 -75.5 187s25.333 135 76 187s112 78 184 78h30v195h90v-195h29c72 0 133.333 -26 184 -78s76 -114.333 76 -187c0 -73.333 -25.167 -135.833 -75.5 -187.5s-111.833 -77.5 -184.5 -77.5z
M430 66c50 0 92.833 18 128.5 54s53.5 79.333 53.5 130c0 50 -17.833 93 -53.5 129s-78.5 54 -128.5 54h-15v-367h15zM325 433h-16c-50 0 -92.667 -18 -128 -54s-53 -79 -53 -129c0 -50.667 17.667 -94 53 -130s78 -54 128 -54h16v367z" />
    <glyph glyph-name="afii10087" unicode="&#x445;" horiz-adv-x="544" 
d="M417 0l-63 80.5l-82 106.5l-144 -187h-114l198 251l-195 249h113l142 -188l142 188h114l-202 -249l204 -251h-113z" />
    <glyph glyph-name="afii10088" unicode="&#x446;" horiz-adv-x="634" 
d="M159 78h283v422h90v-422h77v-219h-87v141h-452v500h89v-422z" />
    <glyph glyph-name="afii10089" unicode="&#x447;" horiz-adv-x="528" 
d="M35 336v163.999h89v-153c0 -33.333 10.167 -58 30.5 -74s47.5 -24 81.5 -24c40 0 84.333 5 133 15v236h89v-500h-89v185c-56 -9.33301 -103.667 -14 -143 -14c-59.333 0 -106 13.833 -140 41.5s-51 68.834 -51 123.501z" />
    <glyph glyph-name="afii10090" unicode="&#x448;" horiz-adv-x="849" 
d="M159 78h220v422h90v-422h220v422h90v-500h-709v500h89v-422z" />
    <glyph glyph-name="afii10091" unicode="&#x449;" horiz-adv-x="885" 
d="M159 78h220v422h90v-422h220v422h90v-422h81v-210h-82v132h-708v500h89v-422z" />
    <glyph glyph-name="afii10092" unicode="&#x44a;" horiz-adv-x="614" 
d="M10 500h249v-179h153c52 0 93.667 -16.167 125 -48.5s47 -69.833 47 -112.5c0 -43.333 -15.5 -80.833 -46.5 -112.5s-72.833 -47.5 -125.5 -47.5h-243v418h-159v82zM259 73l145 -0.000976562c25.333 0 46.5 7.83301 63.5 23.5s25.5 36.834 25.5 63.501s-8.5 48 -25.5 64
s-38.167 24 -63.5 24h-145v-175z" />
    <glyph glyph-name="afii10093" unicode="&#x44b;" horiz-adv-x="709" 
d="M159 321h153c52 0 93.667 -15.833 125 -47.5s47 -69.5 47 -113.5c0 -43.333 -15.5 -80.833 -46.5 -112.5s-72.833 -47.5 -125.5 -47.5h-242v500h89v-179zM159 73l145 -0.000976562c25.333 0 46.5 7.83301 63.5 23.5s25.5 36.834 25.5 63.501s-8.5 48 -25.5 64
s-38.167 24 -63.5 24h-145v-175zM549 -0.000976562v500h90v-500h-90z" />
    <glyph glyph-name="afii10094" unicode="&#x44c;" horiz-adv-x="514" 
d="M159 321h153c52 0 93.667 -15.833 125 -47.5s47 -69.5 47 -113.5c0 -43.333 -15.5 -80.833 -46.5 -112.5s-72.833 -47.5 -125.5 -47.5h-242v500h89v-179zM159 73l145 -0.000976562c25.333 0 46.5 7.83301 63.5 23.5s25.5 36.834 25.5 63.501s-8.5 48 -25.5 64
s-38.167 24 -63.5 24h-145v-175z" />
    <glyph glyph-name="afii10095" unicode="&#x44d;" horiz-adv-x="518" 
d="M147 214v67.999h249c-5.33301 44.667 -23.833 81.334 -55.5 110.001s-70.5 43 -116.5 43c-54 0 -103 -18.333 -147 -55l-23.5 29c-10.333 12.667 -18.166 22 -23.499 28c53.333 52 118.666 78 195.999 78c73.333 0 135.166 -26.5 185.499 -79.5
s75.5 -114.833 75.5 -185.5c0 -71.333 -25.167 -133.333 -75.5 -186s-112.166 -79 -185.499 -79c-78 0 -143.333 25.667 -196 77c5.33301 6 13.333 15.5 24 28.5l23 28.5c44 -36.667 93 -55 147 -55c46 0 84.5 14 115.5 42s49.5 64 55.5 108h-248z" />
    <glyph glyph-name="afii10096" unicode="&#x44e;" horiz-adv-x="812" 
d="M507 -15c-74 0 -135.833 22.5 -185.5 67.5s-77.834 101.167 -84.501 168.5h-78v-221h-89v500h89v-206h81c10 63.333 39.333 116 88 158s108.334 63 179.001 63c79.333 0 144.333 -25.667 195 -77s76 -114 76 -188c0 -74.667 -25.333 -137.5 -76 -188.5
s-115.667 -76.5 -195 -76.5zM507 63c52 0 95.667 18.167 131 54.5s53 80.5 53 132.5c0 50.667 -17.667 94.334 -53 131.001s-79 55 -131 55s-95.833 -18.333 -131.5 -55s-53.5 -80.334 -53.5 -131.001c0 -52 17.667 -96.167 53 -132.5s79.333 -54.5 132 -54.5z" />
    <glyph glyph-name="afii10097" unicode="&#x44f;" horiz-adv-x="510" 
d="M351 178l-93.001 0.000976562l-119 -178h-104l129 185c-40 6.66699 -71.5 24.667 -94.5 54s-34.5 62.666 -34.5 99.999c0 43.333 15.333 81 46 113s72.334 48 125.001 48h235v-500h-90v178zM350.999 426.001l-138 0.000976562c-24.667 0 -45.5 -7.83301 -62.5 -23.5
s-25.5 -36.834 -25.5 -63.501s8.5 -48 25.5 -64s37.833 -24 62.5 -24h138v175z" />
    <glyph glyph-name="afii10071" unicode="&#x451;" horiz-adv-x="585" 
d="M148 630c0 15.333 5.16699 28.5 15.5 39.5s23.166 16.5 38.499 16.5s28.333 -5.5 39 -16.5s16 -24.167 16 -39.5s-5.33301 -28.166 -16 -38.499s-23.667 -15.5 -39 -15.5s-28.166 5.16699 -38.499 15.5s-15.5 23.166 -15.5 38.499zM353 630
c0 15.333 5.16699 28.5 15.5 39.5s23.166 16.5 38.499 16.5s28.333 -5.5 39 -16.5s16 -24.167 16 -39.5s-5.33301 -28.166 -16 -38.499s-23.667 -15.5 -39 -15.5s-28.166 5.16699 -38.499 15.5s-15.5 23.166 -15.5 38.499zM550 264c0 -5.33301 -0.666992 -13.332 -2 -23.999
h-422c4 -50.667 22 -93.167 54 -127.5s77 -51.5 135 -51.5c28 0 56.667 5.16699 86 15.5s54.333 24.166 75 41.499l42 -57c-25.333 -24 -56.833 -42.667 -94.5 -56s-76.5 -20 -116.5 -20c-76 0 -140.333 24 -193 72s-79 109 -79 183c0 76 25.167 140.833 75.5 194.5
s111.5 80.5 183.5 80.5c80 0 142.667 -24.167 188 -72.5s68 -107.833 68 -178.5zM462 305.001c-6.66699 38.667 -24.5 70.5 -53.5 95.5s-67.167 37.5 -114.5 37.5c-40 0 -75 -12.167 -105 -36.5s-50 -56.5 -60 -96.5h333z" />
    <glyph glyph-name="afii10099" unicode="&#x452;" horiz-adv-x="592" 
d="M361 633v-64.9971h-202v-158c22 29.333 50.167 52.166 84.5 68.499s70.166 24.5 107.499 24.5c52.667 0 96 -16.833 130 -50.5s51 -83.834 51 -150.501v-506h-89v489c0 39.333 -10.667 68.666 -32 87.999c-19.333 32.667 -50 49 -92 49
c-31.333 0 -61.666 -9.66699 -90.999 -29s-52.333 -45.333 -69 -78v-315h-89v568h-111v65h111v77h89v-77h202z" />
    <glyph glyph-name="afii10100" unicode="&#x453;" horiz-adv-x="448" 
d="M438 500v-82h-279v-418h-89v500h368zM149 600l88 144h111l-133 -144h-66z" />
    <glyph glyph-name="afii10101" unicode="&#x454;" horiz-adv-x="536" 
d="M314 431c-47.333 0 -88.668 -14 -124.001 -42s-56.666 -63.667 -63.999 -107h260v-68h-259c6 -44 26.667 -80 62 -108s77 -42 125 -42c53.333 0 102 18.333 146 55l48 -57c-52.667 -51.333 -118.334 -77 -197.001 -77c-76 0 -141 25.167 -195 75.5s-81 112.5 -81 186.5
s27 136.333 81 187s119 76 195 76c78.667 0 144.334 -25.667 197.001 -77l-48 -58c-43.333 37.333 -92 56 -146 56z" />
    <glyph glyph-name="afii10102" unicode="&#x455;" horiz-adv-x="469" 
d="M351 140c0 21.333 -10.165 37.665 -30.498 48.998s-44.833 19.833 -73.5 25.5s-57.5 12.667 -86.5 21s-53.667 23.333 -74 45s-30.5 50.834 -30.5 87.501c0 40.667 15.667 75.334 47 104.001s77.333 43 138 43c72 0 133.667 -26 185 -78c-6 -8 -14.5 -18.667 -25.5 -32
l-21.5 -26c-39.333 41.333 -85.333 62 -138 62c-29.333 0 -53.5 -6.16699 -72.5 -18.5s-28.5 -29.5 -28.5 -51.5c0 -20 10.167 -35.833 30.5 -47.5s45.166 -20.667 74.499 -27s58.666 -13.833 87.999 -22.5s54.166 -23.667 74.499 -45s30.5 -49 30.5 -83
c0 -46.667 -17.333 -85.167 -52 -115.5s-85 -45.5 -151 -45.5c-79.333 0 -147.666 26.667 -204.999 80l46 58c50 -44 103 -66 159 -66c38 0 66.833 7.66699 86.5 23s29.5 35.333 29.5 60z" />
    <glyph glyph-name="afii10103" unicode="&#x456;" horiz-adv-x="230" 
d="M70 0v500h90v-500h-90zM59 629c0 15.333 5.5 28.666 16.5 39.999s24.167 17 39.5 17s28.5 -5.66699 39.5 -17s16.5 -24.666 16.5 -39.999s-5.5 -28.5 -16.5 -39.5s-24.167 -16.5 -39.5 -16.5s-28.5 5.5 -39.5 16.5s-16.5 24.167 -16.5 39.5z" />
    <glyph glyph-name="afii10104" unicode="&#x457;" horiz-adv-x="230" 
d="M70 0v500h90v-500h-90zM142 635c0 15.333 4.66699 28.333 14 39s20.666 16 33.999 16c14 0 25.833 -5.33301 35.5 -16s14.5 -23.667 14.5 -39c0 -16 -4.83301 -29.167 -14.5 -39.5s-21.5 -15.5 -35.5 -15.5c-13.333 0 -24.666 5.16699 -33.999 15.5s-14 23.5 -14 39.5z
M-9 635c0 15.333 4.5 28.333 13.5 39s20.5 16 34.5 16c13.333 0 24.833 -5.33301 34.5 -16s14.5 -23.667 14.5 -39c0 -16 -4.66699 -29.167 -14 -39.5s-21 -15.5 -35 -15.5s-25.5 5.16699 -34.5 15.5s-13.5 23.5 -13.5 39.5z" />
    <glyph glyph-name="afii10105" unicode="&#x458;" horiz-adv-x="230" 
d="M71 -204v704h89v-704h-89zM59 629c0 15.333 5.5 28.666 16.5 39.999s24.167 17 39.5 17s28.666 -5.66699 39.999 -17s17 -24.666 17 -39.999s-5.66699 -28.5 -17 -39.5s-24.666 -16.5 -39.999 -16.5s-28.5 5.5 -39.5 16.5s-16.5 24.167 -16.5 39.5z" />
    <glyph glyph-name="afii10106" unicode="&#x459;" horiz-adv-x="848" 
d="M507 321h139c52.667 0 94.5 -16 125.5 -48s46.5 -69.667 46.5 -113s-15.5 -80.833 -46.5 -112.5s-72.833 -47.5 -125.5 -47.5h-228v421h-202v-131c0 -193.333 -53.333 -290 -160 -290h-46v73h30c30.667 0 53.167 16.833 67.5 50.5s21.5 93.5 21.5 179.5v197h378v-179z
M507 73l131 -0.000976562c25.333 0 46.5 7.83301 63.5 23.5s25.5 36.834 25.5 63.501s-8.5 48 -25.5 64s-38.167 24 -63.5 24h-131v-175z" />
    <glyph glyph-name="afii10107" unicode="&#x45a;" horiz-adv-x="855" 
d="M515 312l138 0.00195312c52.667 0 94.5 -15.333 125.5 -46s46.5 -67.334 46.5 -110.001s-15.5 -79.334 -46.5 -110.001s-72.833 -46 -125.5 -46h-227v239h-267v-239h-89v500h89v-188h267v188h89v-188zM515 73.002h131c25.333 0 46.333 7.16699 63 21.5s25 34.833 25 61.5
s-8.33301 47.167 -25 61.5s-37.667 21.5 -63 21.5h-131v-166z" />
    <glyph glyph-name="afii10108" unicode="&#x45b;" horiz-adv-x="592" 
d="M361 633v-64.998h-202v-158c22 29.333 50.167 52.166 84.5 68.499s70.166 24.5 107.499 24.5c52.667 0 96 -16.833 130 -50.5s51 -83.834 51 -150.501v-302h-89v285c0 46.667 -11.5 81.167 -34.5 103.5s-52.833 33.5 -89.5 33.5c-31.333 0 -61.666 -9.66699 -90.999 -29
s-52.333 -45.333 -69 -78v-315h-89v568h-111v65h111v77h89v-77h202z" />
    <glyph glyph-name="afii10109" unicode="&#x45c;" horiz-adv-x="528" 
d="M408 0l-236 261l226 239h110l-236 -239l246 -261h-110zM70 500h89v-500h-89v500zM205 586l44.5 72c19.667 32 34.167 56.333 43.5 73h112l-133 -145h-67z" />
    <glyph glyph-name="afii10110" unicode="&#x45e;" horiz-adv-x="540" 
d="M531 500l-151 -351.5l-151 -352.5h-94l86 205l-212 499h100l160 -387l164 387h98zM263 583c-36 0 -67.167 9 -93.5 27s-45.5 43.667 -57.5 77l43 29c24.667 -42.667 60.667 -64 108 -64s83.333 21.333 108 64l43 -29c-11.333 -33.333 -30.333 -59 -57 -77
s-58 -27 -94 -27z" />
    <glyph glyph-name="afii10193" unicode="&#x45f;" horiz-adv-x="602" 
d="M159 78h283v422h90v-500h-188v-141h-87v141h-187v500h89v-422z" />
    <glyph glyph-name="afii10050" unicode="&#x490;" horiz-adv-x="551" 
d="M531 608h-351v-608h-100v700h367v124h84v-216z" />
    <glyph glyph-name="afii10098" unicode="&#x491;" horiz-adv-x="449" 
d="M439 619v-201h-279v-418h-90v500h290v119h79z" />
    <glyph glyph-name="endash" unicode="&#x2013;" 
d="M35 251v65h488v-65h-488z" />
    <glyph glyph-name="emdash" unicode="&#x2014;" horiz-adv-x="845" 
d="M20 251v65h805v-65h-805z" />
    <glyph glyph-name="quoteleft" unicode="&#x2018;" horiz-adv-x="245" 
d="M200 710l-37 -241h-118l90 241h65z" />
    <glyph glyph-name="quoteright" unicode="&#x2019;" horiz-adv-x="245" 
d="M45 469l38 241h117l-90 -241h-65z" />
    <glyph glyph-name="quotesinglbase" unicode="&#x201a;" horiz-adv-x="245" 
d="M45 -128l38 241h117l-90 -241h-65z" />
    <glyph glyph-name="quotedblleft" unicode="&#x201c;" horiz-adv-x="452" 
d="M407 710l-37 -241h-118l90 241h65zM200 710l-37 -241h-118l90 241h65z" />
    <glyph glyph-name="quotedblright" unicode="&#x201d;" horiz-adv-x="452" 
d="M45 469l38 241h117l-90 -241h-65zM252 469l38 241h117l-90 -241h-65z" />
    <glyph glyph-name="quotedblbase" unicode="&#x201e;" horiz-adv-x="445" 
d="M38 -128l38 241h117l-90 -241h-65zM245 -128l38 241h117l-90 -241h-65z" />
    <glyph glyph-name="dagger" unicode="&#x2020;" horiz-adv-x="483" 
d="M190 -108l15 515l-165 -10v92l164 -9l-12 220h99l-12 -220l164 9v-92l-165 10l18 -515h-106z" />
    <glyph glyph-name="daggerdbl" unicode="&#x2021;" horiz-adv-x="484" 
d="M190 293l15 128l-165 -10v92l164 -10l-12 207h100l-12 -207l164 10v-92l-165 10l17 -123l-17 -128l165 10v-92l-164 10l12 -206h-100l12 206l-164 -10v92l165 -10z" />
    <glyph glyph-name="bullet" unicode="&#x2022;" horiz-adv-x="377" 
d="M188 213c-38 0 -70.501 13.499 -97.501 40.499s-40.5 59.5 -40.5 97.5s13.833 70.667 41.5 98s59.834 41 96.501 41s69 -13.667 97 -41s42 -59.666 42 -96.999c0 -38.667 -13.5 -71.5 -40.5 -98.5s-59.833 -40.5 -98.5 -40.5z" />
    <glyph glyph-name="ellipsis" unicode="&#x2026;" horiz-adv-x="805" 
d="M70 52c0 18 6 33.167 18 45.5s27 18.5 45 18.5c17.333 0 32.166 -6.33301 44.499 -19s18.5 -27.667 18.5 -45s-6.16699 -32 -18.5 -44s-27.166 -18 -44.499 -18c-18 0 -33 6 -45 18s-18 26.667 -18 44zM340 52c0 17.333 6 32.333 18 45s26.667 19 44 19
s32.333 -6.33301 45 -19s19 -27.667 19 -45s-6.33301 -32 -19 -44s-27.667 -18 -45 -18s-32 6 -44 18s-18 26.667 -18 44zM609 52c0 18 6 33.167 18 45.5s27 18.5 45 18.5c17.333 0 32.166 -6.33301 44.499 -19s18.5 -27.667 18.5 -45s-6.16699 -32 -18.5 -44
s-27.166 -18 -44.499 -18c-18 0 -33 6 -45 18s-18 26.667 -18 44z" />
    <glyph glyph-name="perthousand" unicode="&#x2030;" horiz-adv-x="1042" 
d="M860 0c-42.667 0 -77 13.1709 -103 39.5039s-39 59.166 -39 98.499s13 72.166 39 98.499s60.333 39.5 103 39.5c42 0 76.167 -13.333 102.5 -40s39.5 -59.334 39.5 -98.001s-13.167 -71.334 -39.5 -98.001s-60.5 -40 -102.5 -40zM860 63.0039
c22.667 0 41.334 7.33301 56.001 22s22 32.334 22 53.001c0 21.333 -7.33301 39.166 -22 53.499s-33.334 21.5 -56.001 21.5c-23.333 0 -42.166 -7.16699 -56.499 -21.5s-21.5 -32.166 -21.5 -53.499c0 -20.667 7.16699 -38.334 21.5 -53.001s33.166 -22 56.499 -22z
M191 423.004c-42 0 -76 13.333 -102 40s-39 59.334 -39 98.001s13 71.334 39 98.001s60 40 102 40s76.167 -13.333 102.5 -40s39.5 -59.334 39.5 -98.001s-13.167 -71.334 -39.5 -98.001s-60.5 -40 -102.5 -40zM191 486.004c23.333 0 42.166 7.3291 56.499 21.9961
s21.5 32.334 21.5 53.001s-7.16699 38.334 -21.5 53.001s-33.166 22 -56.499 22s-42.166 -7.16699 -56.499 -21.5s-21.5 -32.166 -21.5 -53.499s7.16699 -39.166 21.5 -53.499s33.166 -21.5 56.499 -21.5zM136 0h-86l538 700h86zM532 0c-42 0 -76 13.333 -102 40
s-39 59.334 -39 98.001s13 71.334 39 98.001s60 40 102 40s76.167 -13.333 102.5 -40s39.5 -59.334 39.5 -98.001s-13.167 -71.334 -39.5 -98.001s-60.5 -40 -102.5 -40zM532 63c22.667 0 41.5 7.33105 56.5 21.998s22.5 32.334 22.5 53.001s-7.33301 38.334 -22 53.001
s-33.667 22 -57 22c-22.667 0 -41.167 -7.16699 -55.5 -21.5s-21.5 -32.166 -21.5 -53.499c0 -20.667 7.16699 -38.334 21.5 -53.001s32.833 -22 55.5 -22z" />
    <glyph glyph-name="guilsinglleft" unicode="&#x2039;" horiz-adv-x="312" 
d="M232 20l-192 209v12l192 209l41 -34l-131 -180l131 -182z" />
    <glyph glyph-name="guilsinglright" unicode="&#x203a;" horiz-adv-x="309" 
d="M271 229l-192 -209l-41 34l131 182l-131 180l41 34l192 -209v-12z" />
    <glyph glyph-name="fraction" unicode="&#x2044;" horiz-adv-x="724" 
d="M136 0h-86l538 700h86z" />
    <glyph glyph-name="Euro" unicode="&#x20ac;" horiz-adv-x="732" 
d="M471 77c84 0 154.333 25.668 211 77.001l52 -78c-69.333 -60.667 -157 -91 -263 -91c-94.667 0 -173.5 24.333 -236.5 73s-104.167 113 -123.5 193h-96v67h85c0 2.66699 -0.166992 7.66699 -0.5 15s-0.5 13 -0.5 17c0 10 0.666992 21.667 2 35h-86v67h97
c20 78.667 61.5 142.167 124.5 190.5s141.167 72.5 234.5 72.5c105.333 0 193 -30.667 263 -92l-52 -78c-56.667 51.333 -127 77 -211 77c-60.667 0 -112.5 -15.5 -155.5 -46.5s-72.5 -72.167 -88.5 -123.5h368v-67h-390c-1.33301 -16 -2 -27.667 -2 -35
c0 -8 0.666992 -18.667 2 -32h390v-67h-370c16 -52.667 45.5 -94.834 88.5 -126.501s95.5 -47.5 157.5 -47.5z" />
    <glyph glyph-name="afii61352" unicode="&#x2116;" horiz-adv-x="1013" 
d="M180 530v-530h-100v698h100l154.5 -237l191.5 -295v532h100v-698h-100zM831 423c-42 0 -76 13.333 -102 40s-39 59.334 -39 98.001s13 71.334 39 98.001s60 40 102 40s76.167 -13.333 102.5 -40s39.5 -59.334 39.5 -98.001s-13.167 -71.334 -39.5 -98.001
s-60.5 -40 -102.5 -40zM831 486c23.333 0 42.333 7.33301 57 22s22 32.334 22 53.001s-7.33301 38.334 -22 53.001s-33.667 22 -57 22s-42.166 -7.33301 -56.499 -22s-21.5 -32.334 -21.5 -53.001s7.16699 -38.334 21.5 -53.001s33.166 -22 56.499 -22zM690 301v73h283v-73
h-283z" />
    <glyph glyph-name="trademark" unicode="&#x2122;" horiz-adv-x="721" 
d="M342 391v309h56l108 -161l109 161h56v-309h-57v222l-101 -149h-14l-101 149v-222h-56zM124 391v255h-99v54h255v-54h-99v-255h-57z" />
    <glyph glyph-name="minus" unicode="&#x2212;" horiz-adv-x="640" 
d="M576 250h-513v73h513v-73z" />
    <glyph glyph-name="infinity" unicode="&#x221e;" horiz-adv-x="716" 
d="M516 465c49.333 0 90.0029 -16.667 122.003 -50s48 -76 48 -128c0 -54 -16.333 -97.333 -49 -130s-73 -49 -121 -49c-32.667 0 -61.334 9.66699 -86.001 29s-48.667 46 -72 80c-23.333 -34 -47.333 -60.667 -72 -80s-53.334 -29 -86.001 -29
c-47.333 0 -87.5 16.333 -120.5 49s-49.5 76 -49.5 130c0 52 16 94.667 48 128s72.667 50 122 50c56.667 0 109.334 -36.667 158.001 -110c23.333 34.667 47.166 61.667 71.499 81s53.166 29 86.499 29zM516.003 187c28 0 50.833 8.83203 68.5 26.499s26.5 42.167 26.5 73.5
c0 28.667 -8.66699 52.334 -26 71.001s-40.333 28 -69 28c-37.333 0 -75.333 -33.333 -114 -100c39.333 -66 77.333 -99 114 -99zM200.003 186.999c37.333 0 75.333 33.334 114 100.001c-39.333 66 -77.333 99 -114 99c-28.667 0 -51.667 -9.33301 -69 -28
s-26 -42.334 -26 -71.001c0 -31.333 8.83301 -55.833 26.5 -73.5s40.5 -26.5 68.5 -26.5z" />
    <glyph glyph-name="approxequal" unicode="&#x2248;" horiz-adv-x="640" 
d="M63 133l0.00195312 74c33.333 33.333 71 50 113 50c32 0 79.667 -14.333 143 -43s110.666 -43 141.999 -43c41.333 0 79.666 17.333 114.999 52v-75c-35.333 -34.667 -74 -52 -116 -52c-32 0 -79.5 14.333 -142.5 43s-110.167 43 -141.5 43
c-42 0 -79.667 -16.333 -113 -49zM63.002 362l0.00195312 75c33.333 33.333 71 50 113 50c32 0 79.667 -14.5 143 -43.5s110.666 -43.5 141.999 -43.5c41.333 0 79.666 17.333 114.999 52v-75c-35.333 -34.667 -74 -52 -116 -52c-32 0 -79.333 14.5 -142 43.5
s-110 43.5 -142 43.5c-42 0 -79.667 -16.667 -113 -50z" />
    <glyph glyph-name="notequal" unicode="&#x2260;" horiz-adv-x="640" 
d="M63 362v75h275l86 172l65 -31l-71 -141h158v-75h-192l-77 -154h269v-75h-304l-73 -145l-65 32l57 113h-128v75h162l78 154h-240z" />
    <glyph glyph-name="lessequal" unicode="&#x2264;" horiz-adv-x="640" 
d="M562 107l-485 181v67l485 183v-77l-381 -139l381 -138v-77zM562 0h-485v72h485v-72z" />
    <glyph glyph-name="greaterequal" unicode="&#x2265;" horiz-adv-x="640" 
d="M562 288l-485 -181v77l381 138l-381 139v77l485 -183v-67zM562 0h-485v72h485v-72z" />
    <glyph glyph-name="lozenge" unicode="&#x25ca;" horiz-adv-x="536" 
d="M231 0l-197 350l197 350h74l197 -350l-197 -350h-74zM267 77l152 273l-152 272l-152 -272z" />
    <glyph glyph-name="zerosmall" unicode="&#xf326;" horiz-adv-x="471" 
d="M421 269c0 -97.333 -17 -168.333 -51 -213s-79 -67 -135 -67s-100.833 22.333 -134.5 67s-50.5 115.667 -50.5 213c0 96.667 16.833 167.667 50.5 213s78.5 68 134.5 68s101 -22.5 135 -67.5s51 -116.167 51 -213.5zM141 269c0 -136 31.333 -204.002 94 -204.002
c28 0 51.167 15.833 69.5 47.5s27.5 83.834 27.5 156.501s-9.16699 124.834 -27.5 156.501s-41.5 47.5 -69.5 47.5c-62.667 0 -94 -68 -94 -204z" />
    <glyph glyph-name="onesmall" unicode="&#xf327;" horiz-adv-x="471" 
d="M433 80v-80h-372v80h141v357l-110 -60l-39 64l194 105h46v-466h140z" />
    <glyph glyph-name="twosmall" unicode="&#xf328;" horiz-adv-x="471" 
d="M113 402l-52 54.999c54.667 62 116 93 184 93c54 0 95.167 -14.667 123.5 -44s42.5 -68 42.5 -116c0 -40 -17.833 -84.5 -53.5 -133.5s-90.167 -107.833 -163.5 -176.5h225v-80h-357v61l128 131c51.333 52.667 86.5 92.334 105.5 119.001s28.5 54 28.5 82
c0 21.333 -7.83301 40 -23.5 56s-36.5 24 -62.5 24c-44 0 -85.667 -23.667 -125 -71z" />
    <glyph glyph-name="threesmall" unicode="&#xf329;" horiz-adv-x="471" 
d="M229 65c30 0 53.1738 8.33008 69.5068 24.9971s24.5 37 24.5 61c0 30 -6.33301 53.167 -19 69.5s-30.667 24.5 -54 24.5c-18 0 -40.333 -4.33301 -67 -13l-17 65c3.33301 1.33301 12.166 4 26.499 8s24.666 7 30.999 9s15.666 5.33301 27.999 10s21.666 9.5 27.999 14.5
s13.166 10.833 20.499 17.5s12.666 14.334 15.999 23.001s5 18 5 28c0 20.667 -6.66699 37 -20 49s-32.333 18 -57 18s-46.5 -5.5 -65.5 -16.5s-39.833 -27.833 -62.5 -50.5l-46 55c52 58.667 110 88 174 88c51.333 0 91.166 -12.5 119.499 -37.5s42.5 -56.5 42.5 -94.5
c0 -55.333 -28.333 -98 -85 -128c32 -10.667 56.833 -28.167 74.5 -52.5s26.5 -51.166 26.5 -80.499c0 -47.333 -18 -87.166 -54 -119.499s-83.333 -48.5 -142 -48.5c-37.333 0 -67.833 5.83301 -91.5 17.5s-50.167 30.5 -79.5 56.5l51 61c40 -39.333 81 -59 123 -59z" />
    <glyph glyph-name="foursmall" unicode="&#xf32a;" horiz-adv-x="471" 
d="M364 0h-90v137h-237l-11 58l271 351h67v-339h94v-70h-94v-137zM274 409l-155 -202h155v202z" />
    <glyph glyph-name="fivesmall" unicode="&#xf32b;" horiz-adv-x="471" 
d="M170 458c-6.66699 -56 -12.001 -97.667 -16.001 -125c26 12.667 58.667 19 98 19c52.667 0 93.667 -16.333 123 -49s44 -74 44 -124c0 -52 -16.833 -96.667 -50.5 -134s-81.5 -56 -143.5 -56c-37.333 0 -68.166 6 -92.499 18s-50.833 30.667 -79.5 56l50 61
c38.667 -39.333 79.334 -59 122.001 -59c31.333 0 56.666 11.167 75.999 33.5s29 48.833 29 79.5c0 33.333 -8.5 58.833 -25.5 76.5s-39.833 26.5 -68.5 26.5c-44.667 0 -79.667 -11.333 -105 -34l-58 24c6 50 17.667 139.333 35 268h297v-81h-235z" />
    <glyph glyph-name="sixsmall" unicode="&#xf32c;" horiz-adv-x="471" 
d="M255 476c-71.333 0 -109.663 -53 -114.996 -159c27.333 30.667 67.666 46 120.999 46c43.333 0 80.666 -15.167 111.999 -45.5s47 -74.5 47 -132.5c0 -62 -17.833 -110.167 -53.5 -144.5s-79.5 -51.5 -131.5 -51.5c-64 0 -110.833 21.167 -140.5 63.5
s-44.5 110.833 -44.5 205.5c0 105.333 17.167 180.333 51.5 225s84.166 67 149.499 67c29.333 0 55.666 -4.5 78.999 -13.5s49 -25.167 77 -48.5l-43 -60c-36 32 -72.333 48 -109 48zM142.003 194c-1.33301 -42.667 7.33496 -74.833 26.002 -96.5s42 -32.5 70 -32.5
c26 0 48.667 9.83301 68 29.5s29 49.167 29 88.5c0 37.333 -8.5 65 -25.5 83s-36.833 27 -59.5 27c-10.667 0 -21.334 -1.33301 -32.001 -4s-22 -7.16699 -34 -13.5s-21.833 -16.5 -29.5 -30.5s-11.834 -31 -12.501 -51z" />
    <glyph glyph-name="sevensmall" unicode="&#xf32d;" horiz-adv-x="471" 
d="M427 478l-205 -478h-94l199 456h-275v83h375v-61z" />
    <glyph glyph-name="eightsmall" unicode="&#xf32e;" horiz-adv-x="471" 
d="M406 405c0 -31.333 -7.49902 -56.5 -22.499 -75.5s-36.5 -35.833 -64.5 -50.5c67.333 -31.333 101 -77 101 -137c0 -46.667 -16.333 -83.834 -49 -111.501s-78 -41.5 -136 -41.5c-57.333 0 -102.5 13.833 -135.5 41.5s-49.5 64.834 -49.5 111.501
c0 58 34 103.667 102 137c-56.667 29.333 -85 71.333 -85 126c0 42.667 15.667 77.5 47 104.5s71.666 40.5 120.999 40.5c52 0 93.5 -13.5 124.5 -40.5s46.5 -61.833 46.5 -104.5zM331.001 152c0 23.333 -8.16895 41.999 -24.502 55.999s-40.166 27.333 -71.499 40
c-20.667 -9.33301 -36.667 -17.166 -48 -23.499s-21.833 -16 -31.5 -29s-14.5 -27.5 -14.5 -43.5c0 -26 8.33301 -47.333 25 -64s39.667 -25 69 -25c30.667 0 54.334 8.16699 71.001 24.5s25 37.833 25 64.5zM153.999 398.999c0 -20.667 6.83105 -37.167 20.498 -49.5
s33.834 -24.833 60.501 -37.5c27.333 12.667 47.833 25.167 61.5 37.5s20.5 28.833 20.5 49.5c0 24.667 -7.66699 43.5 -23 56.5s-35 19.5 -59 19.5c-23.333 0 -42.666 -6.5 -57.999 -19.5s-23 -31.833 -23 -56.5z" />
    <glyph glyph-name="ninesmall" unicode="&#xf32f;" horiz-adv-x="471" 
d="M216 62c34.667 0 61.833 12.168 81.5 36.501s30.834 65.166 33.501 122.499c-28.667 -30.667 -69.334 -46 -122.001 -46c-44 0 -81.5 14.333 -112.5 43s-46.5 72 -46.5 130c0 63.333 18.5 112.833 55.5 148.5s80.167 53.5 129.5 53.5c64 0 110.833 -22.333 140.5 -67
s44.5 -112.667 44.5 -204c0 -105.333 -17.167 -180 -51.5 -224s-83.833 -66 -148.5 -66c-30 0 -56.667 4.33301 -80 13s-48.666 24.667 -75.999 48l43 58c35.333 -30.667 71.666 -46 108.999 -46zM329.999 339.001c-0.666992 46.667 -10.334 80.667 -29.001 102
s-41.334 32 -68.001 32c-25.333 0 -47.666 -10.167 -66.999 -30.5s-29 -51.166 -29 -92.499c0 -36.667 8.33301 -63.334 25 -80.001s36.334 -25 59.001 -25c68 0 104.333 31.333 109 94z" />
    <glyph glyph-name="afii10017small" unicode="&#xf350;" 
d="M328 542l216 -542h-91l-54 130h-241l-53 -130h-91l216 542h98zM279 434l-93 -229h186z" />
    <glyph glyph-name="afii10018small" unicode="&#xf351;" horiz-adv-x="518" 
d="M161 75h124c32.667 0 57.667 8.16699 75 24.5s26 37.833 26 64.5c0 27.333 -8.66699 49.5 -26 66.5s-42.333 25.5 -75 25.5h-124v-181zM438 542l-0.000976562 -75h-277v-136h136c54 0 98 -15.833 132 -47.5s51 -71.5 51 -119.5c0 -48.667 -16.167 -88.167 -48.5 -118.5
s-77.166 -45.5 -134.499 -45.5h-227v542h368z" />
    <glyph glyph-name="afii10019small" unicode="&#xf352;" horiz-adv-x="518" 
d="M458 405c0 -50 -25.332 -90.667 -75.999 -122c29.333 -12.667 52.666 -31 69.999 -55s26 -50.667 26 -80c0 -41.333 -15.833 -76.333 -47.5 -105s-71.5 -43 -119.5 -43h-241v542h210c51.333 0 93.833 -12.5 127.5 -37.5s50.5 -58.167 50.5 -99.5zM161.001 73h133.999
c26 0 48 8.16699 66 24.5s27 36.5 27 60.5s-9.16699 44.333 -27.5 61s-40.166 25 -65.499 25h-134v-171zM371 392c0 20.667 -8.5 38.5 -25.5 53.5s-36.833 22.5 -59.5 22.5h-125v-153h125c22.667 0 42.5 7.5 59.5 22.5s25.5 33.167 25.5 54.5z" />
    <glyph glyph-name="afii10020small" unicode="&#xf353;" horiz-adv-x="453" 
d="M438 542v-80h-278v-462h-90v542h368z" />
    <glyph glyph-name="afii10021small" unicode="&#xf354;" horiz-adv-x="617" 
d="M104 0v-117.001h-84v197h60c47.333 82.667 71 192.334 71 329.001v133h370v-462h76v-197h-84v117h-409zM431 79.999v382h-192v-75c0 -122 -21 -224.333 -63 -307h255z" />
    <glyph glyph-name="afii10022small" unicode="&#xf355;" horiz-adv-x="486" 
d="M452 79v-79h-382v542h376v-79h-286v-145h253v-77h-253v-162h292z" />
    <glyph glyph-name="afii10024small" unicode="&#xf356;" horiz-adv-x="759" 
d="M134 542l145 -220h56v220h90v-220h56l145 220h99l-172 -265l186 -277h-103l-158 241h-53v-241h-90v241h-53l-158 -241h-104l188 278l-173 264h99z" />
    <glyph glyph-name="afii10025small" unicode="&#xf357;" horiz-adv-x="474" 
d="M225 67c30 0 55.1689 8.33105 75.502 24.998s30.5 36.667 30.5 60c0 62.667 -33 94 -99 94h-83v69h97c21.333 0 41.5 8 60.5 24s28.5 35.333 28.5 58c0 24.667 -9.66699 44.167 -29 58.5s-42.333 21.5 -69 21.5c-56 0 -107.333 -19.667 -154 -59l-50 61
c60.667 49.333 128.667 74 204 74c55.333 0 99.666 -13.167 132.999 -39.5s50 -60.833 50 -103.5c0 -56 -27.333 -98.333 -82 -127c29.333 -11.333 52.666 -29.166 69.999 -53.499s26 -51.166 26 -80.499c0 -46 -20.167 -84.333 -60.5 -115s-89.833 -46 -148.5 -46
c-74.667 0 -143 25 -205 75l50 63c46 -39.333 97.667 -59 155 -59z" />
    <glyph glyph-name="afii10026small" unicode="&#xf358;" horiz-adv-x="589" 
d="M429 0v391l-272 -391h-87v542h90v-394l272 394h87v-542h-90z" />
    <glyph glyph-name="afii10027small" unicode="&#xf359;" horiz-adv-x="589" 
d="M299 635c43.333 0 84.002 9.33301 122.002 28l33 -63c-46.667 -21.333 -98.334 -32 -155.001 -32c-58.667 0 -111.334 11 -158.001 33l35 62c37.333 -18.667 78.333 -28 123 -28zM429.002 1v392l-272 -392h-87v543h90v-394l272 394h87v-543h-90z" />
    <glyph glyph-name="afii10028small" unicode="&#xf35a;" horiz-adv-x="550" 
d="M421 0l-261 272l248 270h110l-252 -262l274 -280h-119zM70 0v542h90v-542h-90z" />
    <glyph glyph-name="afii10029small" unicode="&#xf35b;" horiz-adv-x="583" 
d="M229 462l-0.00195312 -147.001c0 -61.333 -4.83301 -113.333 -14.5 -156s-23.667 -75.167 -42 -97.5s-38.166 -38.166 -59.499 -47.499s-45.666 -14 -72.999 -14h-30v80h30c34.667 0 60.167 18 76.5 54s24.5 98 24.5 186v222h372v-542h-91v462h-193z" />
    <glyph glyph-name="afii10030small" unicode="&#xf35c;" horiz-adv-x="669" 
d="M156 542l178 -266l178 266h87v-542h-86v407l-160 -237h-39l-157 237v-407h-87v542h86z" />
    <glyph glyph-name="afii10031small" unicode="&#xf35d;" horiz-adv-x="583" 
d="M423 0v241h-262v-241h-91v542h91v-220h262v220h90v-542h-90z" />
    <glyph glyph-name="afii10032small" unicode="&#xf35e;" horiz-adv-x="659" 
d="M40 271c0 80.667 26.333 148 79 202s122.667 81 210 81c88 0 158.333 -27 211 -81s79 -121.333 79 -202c0 -81.333 -26.333 -148.833 -79 -202.5s-123 -80.5 -211 -80.5c-87.333 0 -157.333 26.833 -210 80.5s-79 121.167 -79 202.5zM130 271
c0 -56.667 18.833 -104 56.5 -142s85.167 -57 142.5 -57c58.667 0 106.667 19 144 57s56 85.333 56 142c0 56 -18.833 103 -56.5 141s-85.5 57 -143.5 57c-57.333 0 -104.833 -19 -142.5 -57s-56.5 -85 -56.5 -141z" />
    <glyph glyph-name="afii10033small" unicode="&#xf35f;" horiz-adv-x="583" 
d="M423 0v462h-263v-462h-90v542h443v-542h-90z" />
    <glyph glyph-name="afii10034small" unicode="&#xf360;" horiz-adv-x="504" 
d="M161 199l0.000976562 -198.999h-91v542h206c60 0 108 -16.167 144 -48.5s54 -73.5 54 -123.5c0 -48.667 -18.833 -89.334 -56.5 -122.001s-84.834 -49 -141.501 -49h-115zM279.001 462.001l-118 -0.000976562v-182h118c32.667 0 58 8.33301 76 25s27 38.334 27 65.001
c0 28 -9 50.333 -27 67s-43.333 25 -76 25z" />
    <glyph glyph-name="afii10035small" unicode="&#xf361;" horiz-adv-x="571" 
d="M340 70c64.667 0 120.333 19.667 167 59l49 -66c-60.667 -50 -132.667 -75 -216 -75c-92 0 -165 26.833 -219 80.5s-81 121.167 -81 202.5s27 148.666 81 201.999s127 80 219 80c82 0 153.667 -24.667 215 -74l-48 -66c-46 38.667 -101.667 58 -167 58
c-62.667 0 -112.834 -19 -150.501 -57s-56.5 -85.667 -56.5 -143s18.833 -105.166 56.5 -143.499s87.834 -57.5 150.501 -57.5z" />
    <glyph glyph-name="afii10036small" unicode="&#xf362;" horiz-adv-x="474" 
d="M454 542v-80h-172v-462h-91v462h-171v80h434z" />
    <glyph glyph-name="afii10037small" unicode="&#xf363;" horiz-adv-x="528" 
d="M252 0h-103l72 140l-207 402h105l153 -304l156 304h99z" />
    <glyph glyph-name="afii10038small" unicode="&#xf364;" horiz-adv-x="684" 
d="M297 0v57.002h-16c-72 0 -130.167 21.167 -174.5 63.5s-66.5 96.166 -66.5 161.499s22.333 119 67 161s102.667 63 174 63h16v51h91v-51h15c72 0 130.167 -21.167 174.5 -63.5s66.5 -95.833 66.5 -160.5c0 -66.667 -22.167 -120.834 -66.5 -162.501
s-102.5 -62.5 -174.5 -62.5h-15v-57h-91zM388 136.002c53.333 0 94.833 13 124.5 39s44.5 61.667 44.5 107c0 44 -14.833 79.167 -44.5 105.5s-71.167 39.5 -124.5 39.5v-291zM127 282.002c0 -44 15.333 -79.333 46 -106s72 -40 124 -40v291c-54 0 -95.833 -13 -125.5 -39
s-44.5 -61.333 -44.5 -106z" />
    <glyph glyph-name="afii10039small" unicode="&#xf365;" horiz-adv-x="555" 
d="M433 0l-155 204l-155 -204h-110l210 276l-203 266h111l147 -193l147 193h110l-202 -266l209 -276h-109z" />
    <glyph glyph-name="afii10040small" unicode="&#xf366;" horiz-adv-x="614" 
d="M423 80v462h90v-462h76v-197h-84v117h-435v542h91v-462h262z" />
    <glyph glyph-name="afii10041small" unicode="&#xf367;" horiz-adv-x="529" 
d="M40 370v172h91v-172c0 -64.667 38.333 -97 115 -97c38.667 0 79.667 4.66699 123 14v255h90v-542h-90v207c-48.667 -8.66699 -91.667 -13 -129 -13c-57.333 0 -105 14.833 -143 44.5s-57 73.5 -57 131.5z" />
    <glyph glyph-name="afii10042small" unicode="&#xf368;" horiz-adv-x="878" 
d="M395 80v462h90v-462h233v462h90v-542h-738v542h91v-462h234z" />
    <glyph glyph-name="afii10043small" unicode="&#xf369;" horiz-adv-x="908" 
d="M70 0v542h91v-462h233v462h89v-462h233v462h92v-462h75v-197h-84v117h-729z" />
    <glyph glyph-name="afii10044small" unicode="&#xf36a;" horiz-adv-x="619" 
d="M270 542v-200h117c56.667 0 103.667 -16.667 141 -50s56 -74 56 -122c0 -46.667 -18.667 -86.667 -56 -120s-84.333 -50 -141 -50h-207v462h-165v80h255zM270 80l120 0.000976562c32.667 0 58.167 8.16699 76.5 24.5s27.5 38.166 27.5 65.499s-9.16699 49.333 -27.5 66
s-43.833 25 -76.5 25h-120v-181z" />
    <glyph glyph-name="afii10045small" unicode="&#xf36b;" horiz-adv-x="686" 
d="M161 80l118 0.000976562c33.333 0 58.833 8.16699 76.5 24.5s26.5 38.166 26.5 65.499s-8.83301 49.333 -26.5 66s-43.167 25 -76.5 25h-118v-181zM161 542.001v-200h115c57.333 0 104.5 -16.667 141.5 -50s55.5 -74 55.5 -122c0 -49.333 -18.167 -90 -54.5 -122
s-83.833 -48 -142.5 -48h-206v542h91zM525 0.000976562v542h91v-542h-91z" />
    <glyph glyph-name="afii10046small" unicode="&#xf36c;" horiz-adv-x="504" 
d="M161 80l118 0.000976562c32.667 0 58 8.16699 76 24.5s27 38.166 27 65.499s-9 49.333 -27 66s-43.333 25 -76 25h-118v-181zM161 542.001l0.000976562 -200h115c57.333 0 104.666 -16.667 141.999 -50s56 -74 56 -122c0 -48.667 -18.5 -89.167 -55.5 -121.5
s-84.5 -48.5 -142.5 -48.5h-206v542h91z" />
    <glyph glyph-name="afii10047small" unicode="&#xf36d;" horiz-adv-x="576" 
d="M236 66c57.333 0 104.168 16.834 140.501 50.501s57.166 76.167 62.499 127.5h-303v75h300c-8 46 -29.833 83.5 -65.5 112.5s-80.5 43.5 -134.5 43.5c-65.333 0 -121 -19.333 -167 -58l-49 62c60 49.333 132 74 216 74c91.333 0 164.166 -26.833 218.499 -80.5
s81.5 -120.834 81.5 -201.501c0 -81.333 -27.167 -148.833 -81.5 -202.5s-127.166 -80.5 -218.499 -80.5c-84.667 0 -156.667 25 -216 75l49 62c48 -39.333 103.667 -59 167 -59z" />
    <glyph glyph-name="afii10048small" unicode="&#xf36e;" horiz-adv-x="848" 
d="M162 322h71.001c10.667 68 41.5 123.667 92.5 167s115.167 65 192.5 65c88 0 158.333 -27 211 -81s79 -121.333 79 -202c0 -81.333 -26.333 -148.833 -79 -202.5s-123 -80.5 -211 -80.5c-82 0 -148.833 23.667 -200.5 71s-80.834 108 -87.501 182h-68v-241h-92v542h92
v-220zM319.001 271c0 -56.667 18.833 -104 56.5 -142s85.167 -57 142.5 -57c58.667 0 106.667 19 144 57s56 85.333 56 142c0 56 -18.833 103 -56.5 141s-85.5 57 -143.5 57c-57.333 0 -104.833 -19 -142.5 -57s-56.5 -85 -56.5 -141z" />
    <glyph glyph-name="afii10049small" unicode="&#xf36f;" horiz-adv-x="529" 
d="M370 0v199.001h-84l-146 -199h-105l154 208c-41.333 10 -74.333 29.667 -99 59s-37 63.666 -37 102.999c0 50 17.5 91.167 52.5 123.5s81.5 48.5 139.5 48.5h214v-542h-89zM370 462.001l-122 0.000976562c-33.333 0 -58.833 -8.33301 -76.5 -25s-26.5 -39 -26.5 -67
c0 -26.667 9 -48.334 27 -65.001s43.333 -25 76 -25h122v182z" />
    <glyph glyph-name="afii10023small" unicode="&#xf371;" horiz-adv-x="486" 
d="M452 80v-79h-382v543h376v-79h-286v-145h253v-78h-253v-162h292zM286 619c0 13.333 4.83301 24.666 14.5 33.999s21.167 14 34.5 14s24.833 -4.66699 34.5 -14s14.5 -20.666 14.5 -33.999s-4.83301 -24.5 -14.5 -33.5s-21.167 -13.5 -34.5 -13.5s-24.833 4.5 -34.5 13.5
s-14.5 20.167 -14.5 33.5zM124 619c0 13.333 4.5 24.666 13.5 33.999s20.5 14 34.5 14s25.667 -4.66699 35 -14s14 -20.666 14 -33.999s-4.66699 -24.5 -14 -33.5s-21 -13.5 -35 -13.5s-25.5 4.5 -34.5 13.5s-13.5 20.167 -13.5 33.5z" />
    <glyph glyph-name="afii10051small" unicode="&#xf372;" horiz-adv-x="637" 
d="M454 542v-79.999h-178v-143c53.333 9.33301 97.333 14 132 14c58 0 104.833 -13.833 140.5 -41.5s53.5 -70.834 53.5 -129.501v-19c0 -47.333 -13.667 -84.833 -41 -112.5s-63.333 -41.5 -108 -41.5s-87.334 16.333 -128.001 49l33 59c26 -26 54 -39 84 -39
c20 0 36.667 7.33301 50 22s20 36 20 64v14c0 62.667 -38.333 94 -115 94c-45.333 0 -85.666 -4.66699 -120.999 -14v-238h-91v462h-165v80h434z" />
    <glyph glyph-name="afii10052small" unicode="&#xf373;" horiz-adv-x="453" 
d="M438 542v-80h-278v-462h-90v542h368zM171 602l80 131h111l-123 -131h-68z" />
    <glyph glyph-name="afii10053small" unicode="&#xf374;" horiz-adv-x="576" 
d="M340 66c63.333 0 119.002 19.6689 167.002 59.002l49 -62c-62 -50 -134 -75 -216 -75c-92 0 -165 26.833 -219 80.5s-81 121.167 -81 202.5s27 148.666 81 201.999s127 80 219 80c82.667 0 154.667 -24.667 216 -74l-49 -62c-46 38.667 -101.667 58 -167 58
c-54 0 -98.833 -14.833 -134.5 -44.5s-57.834 -66.834 -66.501 -111.501h300v-75h-303c5.33301 -52 26.166 -94.667 62.499 -128s83.5 -50 141.5 -50z" />
    <glyph glyph-name="afii10054small" unicode="&#xf375;" horiz-adv-x="483" 
d="M362 154c0 18 -7.66797 33.0029 -23.001 45.0029s-34.5 20.833 -57.5 26.5s-47.833 12.834 -74.5 21.501s-51.5 18.167 -74.5 28.5s-42.167 26.5 -57.5 48.5s-23 49 -23 81c0 43.333 18 78.833 54 106.5s81.333 41.5 136 41.5c66 0 129 -24.667 189 -74
c-2.66699 -4 -9.66699 -13.167 -21 -27.5l-26 -33.5c-48 39.333 -96.333 59 -145 59c-27.333 0 -51.5 -6.33301 -72.5 -19s-31.5 -30.334 -31.5 -53.001c0 -20.667 10.833 -37.334 32.5 -50.001s48 -22.834 79 -30.501s62 -16.667 93 -27s57.333 -27.5 79 -51.5
s32.5 -54.667 32.5 -92c0 -46.667 -19.5 -86 -58.5 -118s-89.167 -48 -150.5 -48c-78.667 0 -148.667 25.667 -210 77l24 31c10.667 14 18.334 24.667 23.001 32c50.667 -40.667 105.667 -61 165 -61c32 0 59.667 8.16699 83 24.5s35 37.166 35 62.499z" />
    <glyph glyph-name="afii10055small" unicode="&#xf376;" horiz-adv-x="231" 
d="M70 0v542h91v-542h-91z" />
    <glyph glyph-name="afii10056small" unicode="&#xf377;" horiz-adv-x="231" 
d="M70 0v542h90v-542h-90zM133 648c0 14.667 4.5 27 13.5 37s20.167 15 33.5 15s24.666 -5 33.999 -15s14 -22.333 14 -37s-4.66699 -26.834 -14 -36.501s-20.666 -14.5 -33.999 -14.5s-24.5 4.83301 -33.5 14.5s-13.5 21.834 -13.5 36.501zM0 648
c0 14.667 4.16699 27 12.5 37s19.5 15 33.5 15c13.333 0 24.5 -5 33.5 -15s13.5 -22.333 13.5 -37s-4.5 -26.834 -13.5 -36.501s-20.167 -14.5 -33.5 -14.5c-14 0 -25.167 4.83301 -33.5 14.5s-12.5 21.834 -12.5 36.501z" />
    <glyph glyph-name="afii10057small" unicode="&#xf378;" horiz-adv-x="353" 
d="M198 147v395h90v-353c0 -68 -10.5 -118.5 -31.5 -151.5s-60.833 -49.5 -119.5 -49.5c-48.667 0 -93.334 18.333 -134.001 55l46 59c27.333 -23.333 53 -35 77 -35c22.667 0 40.334 7 53.001 21s19 33.667 19 59z" />
    <glyph glyph-name="afii10058small" unicode="&#xf379;" horiz-adv-x="834" 
d="M502 542l-0.00195312 -200.001h105c56.667 0 103.667 -16.667 141 -50s56 -74 56 -122c0 -49.333 -18 -90 -54 -122s-83.667 -48 -143 -48h-195v462h-183v-147c0 -61.333 -4.83301 -113.333 -14.5 -156s-23.667 -75.167 -42 -97.5s-38.166 -38.166 -59.499 -47.499
s-45.666 -14 -72.999 -14h-30v80h30c34.667 0 60.167 18 76.5 54s24.5 98 24.5 186v222h361zM501.998 79.999l107 0.000976562c33.333 0 59 8.16699 77 24.5s27 38.166 27 65.499s-9 49.333 -27 66s-43.667 25 -77 25h-107v-181z" />
    <glyph glyph-name="afii10059small" unicode="&#xf37a;" horiz-adv-x="832" 
d="M413 0l0.000976562 243.001h-252v-243h-91v542h91v-218h252v218h90v-208h104c58 0 105 -16.5 141 -49.5s54 -73.833 54 -122.5s-17.833 -87.834 -53.5 -117.501s-82.834 -44.5 -141.501 -44.5h-194zM503.001 80.001l107 -0.000976562c33.333 0 59 7.66699 77 23
s27 36.333 27 63s-9 47.834 -27 63.501s-43.667 23.5 -77 23.5h-107v-173z" />
    <glyph glyph-name="afii10060small" unicode="&#xf37b;" horiz-adv-x="643" 
d="M455 542l0.000976562 -80h-178v-143c54.667 9.33301 100 14 136 14c57.333 0 104.166 -15 140.499 -45s54.5 -74.333 54.5 -133v-155h-91v155c0 65.333 -39 98 -117 98c-42.667 0 -83.667 -5 -123 -15v-238h-91v462h-166v80h435z" />
    <glyph glyph-name="afii10061small" unicode="&#xf37c;" horiz-adv-x="549" 
d="M420 0l-260.999 272l53 60c23.333 26.667 57.666 64 102.999 112l92 98h110l-252 -262l274 -280h-119zM69.001 0v542h90v-542h-90zM194.001 604l81 132h111l-124 -132h-68z" />
    <glyph glyph-name="afii10062small" unicode="&#xf37e;" horiz-adv-x="541" 
d="M252 0h-103l72 140l-207 402h105l153 -304l156 304h99zM272 635c44 0 84.665 9.33301 121.998 28c8 -14 19.333 -35 34 -63c-46.667 -21.333 -98.667 -32 -156 -32s-109.666 10.667 -156.999 32c7.33301 14 19 35 35 63c36.667 -18.667 77.334 -28 122.001 -28z" />
    <glyph glyph-name="afii10145small" unicode="&#xf37f;" horiz-adv-x="583" 
d="M423 80v462h90v-542h-180v-117h-84v117h-179v542h90v-462h263z" />
    <glyph glyph-name="afii10050small" unicode="&#xf393;" horiz-adv-x="453" 
d="M438 462h-278v-462h-90v542h290v94h78v-174z" />
    <glyph glyph-name="afii61352small" unicode="&#xf3cf;" horiz-adv-x="831" 
d="M164 393v-393h-91v543h88l264 -394v394h89v-543h-86zM671 317c-34.667 0 -62.832 11 -84.499 33s-32.5 48.667 -32.5 80c0 32 10.667 59 32 81s49.666 33 84.999 33c34.667 0 62.667 -11 84 -33s32 -49 32 -81c0 -31.333 -10.667 -58 -32 -80s-49.333 -33 -84 -33z
M671.002 370c18.667 0 34 5.83301 46 17.5s18 25.834 18 42.501c0 17.333 -6 31.833 -18 43.5s-27.333 17.5 -46 17.5c-19.333 0 -34.833 -5.66699 -46.5 -17s-17.5 -26 -17.5 -44c0 -16.667 5.83301 -30.834 17.5 -42.501s27.167 -17.5 46.5 -17.5zM554.002 212v59h235v-59
h-235z" />
    <glyph glyph-name="sterlingsmall" unicode="&#xf628;" horiz-adv-x="471" 
d="M439 0l-341.999 -0.000976562v260h-64v70h64v42c0 57.333 15 102 45 134s72.667 48 128 48c35.333 0 66.166 -6.66699 92.499 -20s52.5 -32.666 78.5 -57.999l-41 -49c-21.333 18.667 -41.333 32.5 -60 41.5s-41 13.5 -67 13.5c-30.667 0 -54.167 -9.66699 -70.5 -29
s-24.5 -46.333 -24.5 -81v-42h187v-70h-187v-187h261v-73z" />
    <glyph glyph-name="yensmall" unicode="&#xf629;" horiz-adv-x="471" 
d="M3 539h100l132 -245l133 245h100l-150 -265h114v-66h-151v-39h151v-65h-151v-104h-90v104h-150v65h150v40h-150v65h112z" />
    <glyph glyph-name="Eurosmall" unicode="&#xf630;" horiz-adv-x="597" 
d="M377 70c64 0 119.999 19.667 167.999 59l47 -66c-59.333 -50 -131 -75 -215 -75c-76 0 -139.333 18.833 -190 56.5s-84.334 87.5 -101.001 149.5h-76v57h67c0 1.33301 -0.166992 4.5 -0.5 9.5s-0.5 8.83301 -0.5 11.5s0.166992 6.33398 0.5 11.001s0.5 8 0.5 10h-67v57
h77c16.667 60.667 50.334 109.667 101.001 147s113.667 56 189 56c83.333 0 155 -24.667 215 -74l-47 -66c-47.333 38.667 -103.333 58 -168 58c-46 0 -85.667 -11.167 -119 -33.5s-56.666 -51.5 -69.999 -87.5h292v-57h-309c-0.666992 -2.66699 -1 -10 -1 -22
c0 -8.66699 0.333008 -15.334 1 -20.001h309v-57h-292c12.667 -38 35.5 -68.167 68.5 -90.5s73.167 -33.5 120.5 -33.5z" />
    <glyph glyph-name="Amacronsmall" unicode="&#xf66e;" 
d="M328 542l216 -542h-91l-54 130h-241l-53 -130h-91l216 542h98zM279 434l-93 -229h186zM123 602v70h311v-70h-311z" />
    <glyph glyph-name="Aogoneksmall" unicode="&#xf66f;" 
d="M548 -160c-12.667 0 -26.334 1.33203 -41.001 3.99902s-30.667 6.83398 -48 12.501s-31.666 14.667 -42.999 27s-17 26.833 -17 43.5c0 29.333 18 53.333 54 72l-54 131h-241l-53 -130h-91l215 542h98l216 -542c-50 -19.333 -75 -42 -75 -68c0 -14 7 -26.167 21 -36.5
s33.667 -15.833 59 -16.5v-39zM279 433.999l-93 -229h186z" />
    <glyph glyph-name="Cacutesmall" unicode="&#xf671;" horiz-adv-x="571" 
d="M340 70c64.667 0 120.333 19.667 167 59l49 -66c-60.667 -50 -132.667 -75 -216 -75c-92 0 -165 26.833 -219 80.5s-81 121.167 -81 202.5s27 148.666 81 201.999s127 80 219 80c82 0 153.667 -24.667 215 -74l-48 -66c-46 38.667 -101.667 58 -167 58
c-62.667 0 -112.834 -19 -150.501 -57s-56.5 -85.667 -56.5 -143s18.833 -105.166 56.5 -143.499s87.834 -57.5 150.501 -57.5zM429.999 750l-146 -153h-66l90 153h122z" />
    <glyph glyph-name="Ccaronsmall" unicode="&#xf672;" horiz-adv-x="571" 
d="M340 70c64.667 0 120.333 19.667 167 59l49 -66c-60.667 -50 -132.667 -75 -216 -75c-92 0 -165 26.833 -219 80.5s-81 121.167 -81 202.5s27 148.666 81 201.999s127 80 219 80c82 0 153.667 -24.667 215 -74l-48 -66c-46 38.667 -101.667 58 -167 58
c-62.667 0 -112.834 -19 -150.501 -57s-56.5 -85.667 -56.5 -143s18.833 -105.166 56.5 -143.499s87.834 -57.5 150.501 -57.5zM286.999 597l-116 145h71l83 -78l83 78h69l-116 -145h-74z" />
    <glyph glyph-name="Dcaronsmall" unicode="&#xf675;" horiz-adv-x="607" 
d="M160 85h116c63.333 0 112.5 17 147.5 51s52.5 78.667 52.5 134c0 56 -17.5 101.167 -52.5 135.5s-84.167 51.5 -147.5 51.5h-116v-372zM276 0h-206v542h206c90.667 0 161.834 -25.333 213.501 -76s77.5 -115.667 77.5 -195c0 -80 -25.833 -145.167 -77.5 -195.5
s-122.834 -75.5 -213.501 -75.5zM237 597l-116 145h70l83 -78l83 78h69l-116 -145h-73z" />
    <glyph glyph-name="Ecaronsmall" unicode="&#xf678;" horiz-adv-x="486" 
d="M452 79v-79h-382v542h376v-79h-286v-145h253v-77h-253v-162h292zM213 597l-116 145h70l83 -78l83 78h69l-116 -145h-73z" />
    <glyph glyph-name="Edotaccentsmall" unicode="&#xf679;" horiz-adv-x="486" 
d="M452 79v-79h-382v542h376v-79h-286v-145h253v-77h-253v-162h292zM201 646c0 15.333 5.33301 28.333 16 39s23.667 16 39 16s28.333 -5.33301 39 -16s16 -23.667 16 -39s-5.33301 -28.333 -16 -39s-23.667 -16 -39 -16s-28.333 5.33301 -39 16s-16 23.667 -16 39z" />
    <glyph glyph-name="Emacronsmall" unicode="&#xf67a;" horiz-adv-x="486" 
d="M452 79v-79h-382v542h376v-79h-286v-145h253v-77h-253v-162h292zM94 602v70h311v-70h-311z" />
    <glyph glyph-name="Eogoneksmall" unicode="&#xf67c;" horiz-adv-x="486" 
d="M457 -160c-12.667 0 -26.5 1.16895 -41.5 3.50195s-31.167 6.33301 -48.5 12s-31.666 14.667 -42.999 27s-17 27.166 -17 44.499c0 29.333 18.667 53.666 56 72.999h-293v542h376v-79h-286v-145h253v-77h-253v-162h292v-79c-26.667 -6 -45.834 -15.5 -57.501 -28.5
s-17.5 -26.167 -17.5 -39.5c0 -14 7 -26.167 21 -36.5s33.667 -15.833 59 -16.5v-39z" />
    <glyph glyph-name="uni0122small" unicode="&#xf67f;" horiz-adv-x="595" 
d="M278 216v71.002h280v-223c-61.333 -50.667 -134 -76 -218 -76c-92 0 -165 26.833 -219 80.5s-81 121.167 -81 202.5s27 148.666 81 201.999s127 80 219 80c67.333 0 129 -16.333 185 -49l-43 -72c-38.667 25.333 -85.334 38 -140.001 38
c-63.333 0 -113.833 -18.667 -151.5 -56s-56.5 -85 -56.5 -143c0 -56.667 18.833 -104.334 56.5 -143.001s88.167 -58 151.5 -58c48.667 0 91.334 13.333 128.001 40v106h-192zM260 -296.998l33 220h100l-78 -220h-55z" />
    <glyph glyph-name="Imacronsmall" unicode="&#xf685;" horiz-adv-x="231" 
d="M70 0v542h91v-542h-91zM-1 602v68h222v-68h-222z" />
    <glyph glyph-name="Iogoneksmall" unicode="&#xf686;" horiz-adv-x="231" 
d="M165 -160c-12.667 0 -26.334 1.33203 -41.001 3.99902s-30.667 6.83398 -48 12.501s-31.666 14.667 -42.999 27s-17 26.833 -17 43.5c0 30 18 54.333 54 73v542h90v-542c-26.667 -6 -45.667 -15.5 -57 -28.5s-17 -26.167 -17 -39.5c0 -14 6.83301 -26.167 20.5 -36.5
s33.167 -15.833 58.5 -16.5v-39z" />
    <glyph glyph-name="uni0136small" unicode="&#xf689;" horiz-adv-x="550" 
d="M421 0l-261 272l248 270h110l-252 -262l274 -280h-119zM70 0v542h90v-542h-90zM193 -297l33 220h100l-77 -220h-56z" />
    <glyph glyph-name="Lacutesmall" unicode="&#xf68a;" horiz-adv-x="459" 
d="M70 0v542h90v-462h284v-80h-374zM329 750l-146 -153h-67l91 153h122z" />
    <glyph glyph-name="Lcaronsmall" unicode="&#xf68b;" horiz-adv-x="459" 
d="M70 0v542h90v-462h284v-80h-374zM240 344l30 198h90l-70 -198h-50z" />
    <glyph glyph-name="uni013Bsmall" unicode="&#xf68c;" horiz-adv-x="459" 
d="M70 0v542h90v-462h284v-80h-374zM182 -297l33 220h100l-77 -220h-56z" />
    <glyph glyph-name="Nacutesmall" unicode="&#xf68e;" horiz-adv-x="592" 
d="M160 392v-392h-90v542h87l275 -393v393h90v-542h-87zM426 750l-146 -153h-67l91 153h122z" />
    <glyph glyph-name="Ncaronsmall" unicode="&#xf68f;" horiz-adv-x="592" 
d="M160 392v-392h-90v542h87l275 -393v393h90v-542h-87zM254 597l-116 145h71l82 -78l83 78h69l-116 -145h-73z" />
    <glyph glyph-name="uni0145small" unicode="&#xf690;" horiz-adv-x="592" 
d="M160 392v-392h-90v542h87l275 -393v393h90v-542h-87zM221 -297l33 220h100l-78 -220h-55z" />
    <glyph glyph-name="Ohungarumlautsmall" unicode="&#xf692;" horiz-adv-x="659" 
d="M551 750l-146 -153h-67l91 153h122zM375 750l-146 -153h-67l91 153h122zM40 271c0 80.667 26.333 148 79 202s122.667 81 210 81c88 0 158.167 -27 210.5 -81s78.5 -121.333 78.5 -202c0 -81.333 -26.167 -148.833 -78.5 -202.5s-122.5 -80.5 -210.5 -80.5
c-87.333 0 -157.333 26.833 -210 80.5s-79 121.167 -79 202.5zM130 271c0 -56.667 18.833 -104 56.5 -142s85.167 -57 142.5 -57c58 0 105.667 19 143 57s56 85.333 56 142c0 56 -18.667 103 -56 141s-85 57 -143 57c-57.333 0 -104.833 -19 -142.5 -57
s-56.5 -85 -56.5 -141z" />
    <glyph glyph-name="Omacronsmall" unicode="&#xf693;" horiz-adv-x="659" 
d="M172 602v70h311v-70h-311zM40 271c0 80.667 26.333 148 79 202s122.667 81 210 81c88 0 158.167 -27 210.5 -81s78.5 -121.333 78.5 -202c0 -81.333 -26.167 -148.833 -78.5 -202.5s-122.5 -80.5 -210.5 -80.5c-87.333 0 -157.333 26.833 -210 80.5
s-79 121.167 -79 202.5zM130 271c0 -56.667 18.833 -104 56.5 -142s85.167 -57 142.5 -57c58 0 105.667 19 143 57s56 85.333 56 142c0 56 -18.667 103 -56 141s-85 57 -143 57c-57.333 0 -104.833 -19 -142.5 -57s-56.5 -85 -56.5 -141z" />
    <glyph glyph-name="Racutesmall" unicode="&#xf695;" horiz-adv-x="528" 
d="M161 199v-199h-91v542h215c58.667 0 105.167 -16.167 139.5 -48.5s51.5 -73.5 51.5 -123.5c0 -39.333 -12.333 -73.833 -37 -103.5s-57.667 -49.167 -99 -58.5l153 -208h-103l-147 199h-82zM281 462l-120 -0.000976562v-182h120c32.667 0 58.167 8.33301 76.5 25
s27.5 38.334 27.5 65.001c0 28 -9 50.333 -27 67s-43.667 25 -77 25zM382 749.999l-146 -153h-67l91 153h122z" />
    <glyph glyph-name="Rcaronsmall" unicode="&#xf696;" horiz-adv-x="528" 
d="M161 199v-199h-91v542h215c58.667 0 105.167 -16.167 139.5 -48.5s51.5 -73.5 51.5 -123.5c0 -39.333 -12.333 -73.833 -37 -103.5s-57.667 -49.167 -99 -58.5l153 -208h-103l-147 199h-82zM281 462l-120 -0.000976562v-182h120c32.667 0 58.167 8.33301 76.5 25
s27.5 38.334 27.5 65.001c0 28 -9 50.333 -27 67s-43.667 25 -77 25zM239 596.999l-116 145h70l83 -78l83 78h69l-116 -145h-73z" />
    <glyph glyph-name="uni0156small" unicode="&#xf697;" horiz-adv-x="528" 
d="M161 199v-199h-91v542h215c58.667 0 105.167 -16.167 139.5 -48.5s51.5 -73.5 51.5 -123.5c0 -39.333 -12.333 -73.833 -37 -103.5s-57.667 -49.167 -99 -58.5l153 -208h-103l-147 199h-82zM281 462l-120 -0.000976562v-182h120c32.667 0 58.167 8.33301 76.5 25
s27.5 38.334 27.5 65.001c0 28 -9 50.333 -27 67s-43.667 25 -77 25zM179 -297.001l32 220h101l-78 -220h-55z" />
    <glyph glyph-name="Sacutesmall" unicode="&#xf698;" horiz-adv-x="483" 
d="M378 750l-146 -153h-67l91 153h122zM362 154c0 18 -7.66797 33.0029 -23.001 45.0029s-34.5 20.833 -57.5 26.5s-47.833 12.834 -74.5 21.501s-51.5 18.167 -74.5 28.5s-42.167 26.5 -57.5 48.5s-23 49 -23 81c0 43.333 18 78.833 54 106.5s81.333 41.5 136 41.5
c66 0 129 -24.667 189 -74c-2.66699 -4 -9.66699 -13.167 -21 -27.5l-26 -33.5c-48 39.333 -96.333 59 -145 59c-27.333 0 -51.5 -6.33301 -72.5 -19s-31.5 -30.334 -31.5 -53.001c0 -20.667 10.833 -37.334 32.5 -50.001s48 -22.834 79 -30.501s62 -16.667 93 -27
s57.333 -27.5 79 -51.5s32.5 -54.667 32.5 -92c0 -46.667 -19.5 -86 -58.5 -118s-89.167 -48 -150.5 -48c-78.667 0 -148.667 25.667 -210 77l24 31c10.667 14 18.334 24.667 23.001 32c50.667 -40.667 105.667 -61 165 -61c32 0 59.667 8.16699 83 24.5
s35 37.166 35 62.499z" />
    <glyph glyph-name="Tcaronsmall" unicode="&#xf69d;" horiz-adv-x="474" 
d="M454 542v-80h-172v-462h-91v462h-171v80h434zM200 597l-116 145h70l83 -78l83 78h69l-116 -145h-73z" />
    <glyph glyph-name="Uhungarumlautsmall" unicode="&#xf6a0;" horiz-adv-x="572" 
d="M286 -12c-68.667 0 -123 19.833 -163 59.5s-60 89.834 -60 150.501v344h90v-347c0 -34 12.333 -63.333 37 -88s56.667 -37 96 -37s71.333 12.333 96 37s37 54 37 88v347h90v-344c0 -60.667 -20 -110.834 -60 -150.501s-94.333 -59.5 -163 -59.5zM507 750l-146 -153h-67
l91 153h122zM331 750l-146 -153h-67l91 153h122z" />
    <glyph glyph-name="Umacronsmall" unicode="&#xf6a1;" horiz-adv-x="572" 
d="M63 198v343.998h90v-347c0 -34 12.333 -63.333 37 -88s56.667 -37 96 -37c38.667 0 70 11.833 94 35.5s36 53.5 36 89.5v347h91v-293c0 -24 -1 -48 -3 -72c-4.66699 -55.333 -26.5 -100.666 -65.5 -135.999s-89.833 -53 -152.5 -53c-68.667 0 -123 19.833 -163 59.5
s-60 89.834 -60 150.501zM128 601.998v70h311v-70h-311z" />
    <glyph glyph-name="Uogoneksmall" unicode="&#xf6a2;" horiz-adv-x="572" 
d="M389 -174c-41.333 0 -78.167 7.33203 -110.5 21.999s-48.5 38.334 -48.5 71.001c0 28.667 13.333 52 40 70c-64 2.66699 -114.5 23.667 -151.5 63s-55.5 88 -55.5 146v344h90v-347c0 -34 12.333 -63.333 37 -88s56.667 -37 96 -37s71.333 12.333 96 37s37 54 37 88v347
h90v-344c0 -48 -12.833 -89.833 -38.5 -125.5s-61.5 -60.167 -107.5 -73.5c-39.333 -21.333 -59 -45.333 -59 -72c0 -16.667 7.16699 -30.667 21.5 -42s35.5 -17.333 63.5 -18v-41z" />
    <glyph glyph-name="Uringsmall" unicode="&#xf6a3;" horiz-adv-x="572" 
d="M63 198v343.998h90v-347c0 -34 12.333 -63.333 37 -88s56.667 -37 96 -37c38.667 0 70 11.833 94 35.5s36 53.5 36 89.5v347h91v-293c0 -24 -1 -48 -3 -72c-4.66699 -55.333 -26.5 -100.666 -65.5 -135.999s-89.833 -53 -152.5 -53c-68.667 0 -123 19.833 -163 59.5
s-60 89.834 -60 150.501zM282 595.998c-28 0 -52.833 10 -74.5 30s-32.5 44 -32.5 72s10.833 52 32.5 72s46.5 30 74.5 30c28.667 0 53.667 -10 75 -30s32 -44 32 -72s-10.667 -52 -32 -72s-46.333 -30 -75 -30zM282 639.998c16 0 29.833 5.83301 41.5 17.5
s17.5 25.167 17.5 40.5c0 16 -5.83301 29.667 -17.5 41s-25.5 17 -41.5 17s-29.833 -5.83301 -41.5 -17.5s-17.5 -25.167 -17.5 -40.5s6 -28.833 18 -40.5s25.667 -17.5 41 -17.5z" />
    <glyph glyph-name="Zacutesmall" unicode="&#xf6ab;" horiz-adv-x="496" 
d="M453 542v-66l-297 -396h305v-80h-426v66l298 396h-290v80h410zM368 750l-146 -153h-67l91 153h122z" />
    <glyph glyph-name="Zdotaccentsmall" unicode="&#xf6ac;" horiz-adv-x="496" 
d="M453 542v-66l-297 -396h305v-80h-426v66l298 396h-290v80h410zM191 646c0 15.333 5.33301 28.333 16 39s23.667 16 39 16s28.333 -5.33301 39 -16s16 -23.667 16 -39s-5.33301 -28.333 -16 -39s-23.667 -16 -39 -16s-28.333 5.33301 -39 16s-16 23.667 -16 39z" />
    <glyph glyph-name="commaaccent" unicode="&#xf6c3;" horiz-adv-x="250" 
d="M52 -297l33 220h100l-78 -220h-55z" />
    <glyph glyph-name="Lslashsmall" unicode="&#xf6f9;" horiz-adv-x="459" 
d="M19 152v70l51 42v278h91v-207l55 47.5l55 47.5v-70l-55 -47.5l-55 -47.5v-185h283v-80h-374v195z" />
    <glyph glyph-name="OEsmall" unicode="&#xf6fa;" horiz-adv-x="834" 
d="M800 79l0.00195312 -78.999h-371v6c-48.667 -10 -80.334 -15 -95.001 -15c-92.667 0 -164.834 25.667 -216.501 77s-77.5 119 -77.5 203c0 83.333 25.833 150.666 77.5 201.999s123.834 77 216.501 77c25.333 0 56.666 -4.66699 93.999 -14v6h366v-79h-279v-145h246v-77
h-246v-162h285zM334.002 74.001c24 0 49.667 5 77 15v365c-22 6.66699 -48 10 -78 10c-62 0 -110.667 -17.5 -146 -52.5s-53 -81.833 -53 -140.5c0 -59.333 17.667 -107 53 -143s84.333 -54 147 -54z" />
    <glyph glyph-name="Scaronsmall" unicode="&#xf6fd;" horiz-adv-x="483" 
d="M362 154c0 18 -7.66699 33.0029 -23 45.0029s-34.5 20.833 -57.5 26.5s-47.833 12.834 -74.5 21.501s-51.5 18.167 -74.5 28.5s-42.167 26.5 -57.5 48.5s-23 49 -23 81c0 43.333 18 78.833 54 106.5s81.333 41.5 136 41.5c66 0 129 -24.667 189 -74l-47 -61
c-48 39.333 -96.333 59 -145 59c-27.333 0 -51.5 -6.33301 -72.5 -19s-31.5 -30.334 -31.5 -53.001c0 -20.667 10.833 -37.334 32.5 -50.001s48 -22.834 79 -30.501s62 -16.667 93 -27s57.333 -27.5 79 -51.5s32.5 -54.667 32.5 -92c0 -46.667 -19.5 -86 -58.5 -118
s-89.167 -48 -150.5 -48c-78.667 0 -148.667 25.667 -210 77l47 63c50.667 -40.667 105.667 -61 165 -61c32 0 59.667 8.16699 83 24.5s35 37.166 35 62.499zM209 603.003l-107 131h72l71 -65l70 65h71l-107 -131h-70z" />
    <glyph glyph-name="Zcaronsmall" unicode="&#xf6ff;" horiz-adv-x="496" 
d="M452 542v-66l-296 -396h305v-80h-426v66l298 396h-290v80h409zM211 603l-107 131h71l71 -65l71 65h71l-107 -131h-70z" />
    <glyph glyph-name="zero.onum" unicode="&#xf730;" horiz-adv-x="568" 
d="M55 250c0 85.333 21.3291 150.833 63.9961 196.5s97.334 68.5 164.001 68.5s121.334 -22.833 164.001 -68.5s64 -111.167 64 -196.5c0 -86 -21.167 -151.667 -63.5 -197s-97.166 -68 -164.499 -68s-122.166 22.667 -164.499 68s-63.5 111 -63.5 197zM154.996 250
c0 -60.667 11.667 -106 35 -136s54.333 -45 93 -45s69.667 15 93 45s35 75.333 35 136c0 60 -11.667 105 -35 135s-54.333 45 -93 45s-69.667 -15 -93 -45s-35 -75 -35 -135z" />
    <glyph glyph-name="one.onum" unicode="&#xf731;" horiz-adv-x="568" 
d="M527 82v-82h-458v82h179v315l-149 -79l-35 74l235 123h49v-433h179z" />
    <glyph glyph-name="two.onum" unicode="&#xf732;" horiz-adv-x="568" 
d="M122 346l-49.999 61.998c66.667 71.333 141 107 223 107c64.667 0 115.167 -15.667 151.5 -47s54.5 -70.333 54.5 -117c0 -49.333 -19 -93.666 -57 -132.999s-106.667 -86.666 -206 -141.999h272v-76h-440v58c128 78 201.667 124 221 138c57.333 40 91 77.333 101 112
c2.66699 10 4 20.333 4 31c0 27.333 -10.333 50 -31 68s-48.667 27 -84 27c-30.667 0 -58.334 -7.16699 -83.001 -21.5s-50 -36.5 -76 -66.5z" />
    <glyph glyph-name="three.onum" unicode="&#xf733;" horiz-adv-x="568" 
d="M268 -131c40.667 0 72.001 12.3359 94.001 37.0029s33 53 33 85c0 41.333 -9 74 -27 98s-42.333 36 -73 36c-24 0 -50.333 -4.66699 -79 -14l-19 70l55 15c37.333 10.667 70 28.5 98 53.5s42 53.167 42 84.5c0 29.333 -9 52.666 -27 69.999s-43.333 26 -76 26
s-61.334 -7.16699 -86.001 -21.5s-50 -35.833 -76 -64.5l-51 63c62 72 133 108 213 108c62 0 110.333 -15.833 145 -47.5s52 -71.5 52 -119.5c0 -36.667 -10.667 -70.334 -32 -101.001s-52.333 -55 -93 -73c46 -9.33301 81.833 -30.5 107.5 -63.5s38.5 -70.167 38.5 -111.5
c0 -60.667 -22.167 -111.834 -66.5 -153.501s-102.833 -62.5 -175.5 -62.5c-46 0 -83.333 7.33301 -112 22s-59.667 38 -93 70l53 70c26 -26.667 50.833 -46 74.5 -58s50.5 -18 80.5 -18z" />
    <glyph glyph-name="four.onum" unicode="&#xf734;" horiz-adv-x="568" 
d="M435 -201h-100v201h-303l-11 66l340 449h74v-438h120v-77h-120v-201zM335 362l-219 -285h219v285z" />
    <glyph glyph-name="five.onum" unicode="&#xf735;" horiz-adv-x="568" 
d="M192 408l-24.002 -186.998c36 21.333 80 32 132 32c65.333 0 116 -21.167 152 -63.5s54 -95.833 54 -160.5c0 -66.667 -21 -124.334 -63 -173.001s-101 -73 -177 -73c-46 0 -83.667 7.5 -113 22.5s-60.666 38.167 -93.999 69.5l53 70c26 -26.667 50.667 -46 74 -58
s50 -18 80 -18c42.667 0 76.834 15.667 102.501 47s38.5 68.666 38.5 111.999c0 46 -11.667 81.833 -35 107.5s-54 38.5 -92 38.5c-56 0 -101.333 -14.667 -136 -44l-63 26l43 344h364v-92h-296z" />
    <glyph glyph-name="six.onum" unicode="&#xf736;" horiz-adv-x="568" 
d="M445 573c-34.667 36.667 -81.668 54.9971 -141.001 54.9971c-42.667 0 -77.5 -18.333 -104.5 -55s-41.833 -96.334 -44.5 -179.001c32.667 49.333 86.334 74 161.001 74c53.333 0 99.166 -19.667 137.499 -59s57.5 -96.666 57.5 -171.999
c0 -79.333 -22.167 -141.166 -66.5 -185.499s-98.166 -66.5 -161.499 -66.5c-79.333 0 -137.166 27.5 -173.499 82.5s-54.5 144.167 -54.5 267.5c0 70.667 5.83301 131 17.5 181s28.667 89.333 51 118s48 49.334 77 62.001s63.167 19 102.5 19
c36.667 0 69.167 -5.66699 97.5 -17s58.166 -30.666 89.499 -57.999zM155.999 250.997c0 -60 12.333 -105 37 -135s55.667 -45 93 -45c34 0 64 13.833 90 41.5s39 68.5 39 122.5c0 52 -11.333 90.667 -34 116s-49 38 -79 38c-14.667 0 -29.334 -1.83301 -44.001 -5.5
s-30.167 -10 -46.5 -19s-29.666 -23.167 -39.999 -42.5s-15.5 -43 -15.5 -71z" />
    <glyph glyph-name="seven.onum" unicode="&#xf737;" horiz-adv-x="568" 
d="M504 428l-258 -630h-105l253 607h-351v95h461v-72z" />
    <glyph glyph-name="eight.onum" unicode="&#xf738;" horiz-adv-x="568" 
d="M491 531c0 -42.667 -10.4971 -76.833 -31.4971 -102.5s-50.5 -47.834 -88.5 -66.501c44 -20.667 78.333 -44.5 103 -71.5s37 -63.833 37 -110.5c0 -59.333 -20.333 -106.666 -61 -141.999s-96.334 -53 -167.001 -53s-126.334 17.667 -167.001 53s-61 82.666 -61 141.999
c0 46.667 12.333 83.667 37 111s59 51.333 103 72c-37.333 18 -66.5 39.833 -87.5 65.5s-31.5 59.834 -31.5 102.501c0 54.667 19.167 99 57.5 133s88.166 51 149.499 51c63.333 0 113.833 -17.167 151.5 -51.5s56.5 -78.5 56.5 -132.5zM411.003 194.001
c0 34 -11 60.667 -33 80s-53.667 38 -95 56c-42 -18 -73.833 -36.667 -95.5 -56s-32.5 -46 -32.5 -80c0 -38 11.333 -68.5 34 -91.5s54 -34.5 94 -34.5c40.667 0 72.167 11.5 94.5 34.5s33.5 53.5 33.5 91.5zM173.003 522.001c0 -29.333 9.33301 -53 28 -71
s46 -35.333 82 -52c36 16.667 63.5 34 82.5 52s28.5 41.667 28.5 71c0 34.667 -10.5 61.5 -31.5 80.5s-47.5 28.5 -79.5 28.5s-58.333 -9.5 -79 -28.5s-31 -45.833 -31 -80.5z" />
    <glyph glyph-name="nine.onum" unicode="&#xf739;" horiz-adv-x="568" 
d="M76 -140l45.001 67.0029c34.667 -36.667 81.667 -55 141 -55c42.667 0 77.5 18.333 104.5 55s41.833 96.334 44.5 179.001c-32.667 -49.333 -86.334 -74 -161.001 -74c-53.333 0 -99.166 19.667 -137.499 59s-57.5 96.666 -57.5 171.999
c0 79.333 22.167 141.166 66.5 185.499s98.166 66.5 161.499 66.5c79.333 0 137.166 -27.5 173.499 -82.5s54.5 -144.167 54.5 -267.5c0 -70.667 -5.83301 -131 -17.5 -181s-28.667 -89.333 -51 -118s-48 -49.334 -77 -62.001s-63.167 -19 -102.5 -19
c-36.667 0 -69.167 5.66699 -97.5 17s-58.166 30.666 -89.499 57.999zM410.001 249.003c0 60 -12.333 105 -37 135s-55.667 45 -93 45c-34 0 -64 -13.833 -90 -41.5s-39 -68.5 -39 -122.5c0 -52 11.333 -90.667 34 -116s49 -38 79 -38c14.667 0 29.334 1.83301 44.001 5.5
s30.167 10 46.5 19s29.666 23.167 39.999 42.5s15.5 43 15.5 71z" />
    <glyph glyph-name="Asmall" unicode="&#xf761;" 
d="M328 542l216 -542h-91l-54 130h-241l-53 -130h-91l216 542h98zM279 434l-93 -229h186z" />
    <glyph glyph-name="Bsmall" unicode="&#xf762;" horiz-adv-x="518" 
d="M458 405c0 -50 -25.332 -90.667 -75.999 -122c29.333 -12.667 52.666 -31 69.999 -55s26 -50.667 26 -80c0 -41.333 -15.833 -76.333 -47.5 -105s-71.5 -43 -119.5 -43h-241v542h210c51.333 0 93.833 -12.5 127.5 -37.5s50.5 -58.167 50.5 -99.5zM161.001 73h133.999
c26 0 48 8.16699 66 24.5s27 36.5 27 60.5s-9.16699 44.333 -27.5 61s-40.166 25 -65.499 25h-134v-171zM371 392c0 20.667 -8.5 38.5 -25.5 53.5s-36.833 22.5 -59.5 22.5h-125v-153h125c22.667 0 42.5 7.5 59.5 22.5s25.5 33.167 25.5 54.5z" />
    <glyph glyph-name="Csmall" unicode="&#xf763;" horiz-adv-x="571" 
d="M340 70c64.667 0 120.333 19.667 167 59l49 -66c-60.667 -50 -132.667 -75 -216 -75c-92 0 -165 26.833 -219 80.5s-81 121.167 -81 202.5s27 148.666 81 201.999s127 80 219 80c82 0 153.667 -24.667 215 -74l-48 -66c-46 38.667 -101.667 58 -167 58
c-62.667 0 -112.834 -19 -150.501 -57s-56.5 -85.667 -56.5 -143s18.833 -105.166 56.5 -143.499s87.834 -57.5 150.501 -57.5z" />
    <glyph glyph-name="Dsmall" unicode="&#xf764;" horiz-adv-x="607" 
d="M160 85h116c63.333 0 112.5 17 147.5 51s52.5 78.667 52.5 134c0 56 -17.5 101.167 -52.5 135.5s-84.167 51.5 -147.5 51.5h-116v-372zM276 0h-206v542h206c90.667 0 161.834 -25.333 213.501 -76s77.5 -115.667 77.5 -195c0 -80 -25.833 -145.167 -77.5 -195.5
s-122.834 -75.5 -213.501 -75.5z" />
    <glyph glyph-name="Esmall" unicode="&#xf765;" horiz-adv-x="486" 
d="M452 79v-79h-382v542h376v-79h-286v-145h253v-77h-253v-162h292z" />
    <glyph glyph-name="Fsmall" unicode="&#xf766;" horiz-adv-x="476" 
d="M420 308v-81h-260v-227h-90v542h376v-80h-286v-154h260z" />
    <glyph glyph-name="Gsmall" unicode="&#xf767;" horiz-adv-x="595" 
d="M278 216v71.002h280v-223c-61.333 -50.667 -134 -76 -218 -76c-92 0 -165 26.833 -219 80.5s-81 121.167 -81 202.5s27 148.666 81 201.999s127 80 219 80c67.333 0 129 -16.333 185 -49l-43 -72c-38.667 25.333 -85.334 38 -140.001 38
c-63.333 0 -113.833 -18.667 -151.5 -56s-56.5 -85 -56.5 -143c0 -56.667 18.833 -104.334 56.5 -143.001s88.167 -58 151.5 -58c48.667 0 91.334 13.333 128.001 40v106h-192z" />
    <glyph glyph-name="Hsmall" unicode="&#xf768;" horiz-adv-x="583" 
d="M423 0v241h-262v-241h-91v542h91v-220h262v220h90v-542h-90z" />
    <glyph glyph-name="Ismall" unicode="&#xf769;" horiz-adv-x="231" 
d="M70 0v542h91v-542h-91z" />
    <glyph glyph-name="Jsmall" unicode="&#xf76a;" horiz-adv-x="353" 
d="M198 147v395h90v-353c0 -68 -10.5 -118.5 -31.5 -151.5s-60.833 -49.5 -119.5 -49.5c-48.667 0 -93.334 18.333 -134.001 55l46 59c27.333 -23.333 53 -35 77 -35c22.667 0 40.334 7 53.001 21s19 33.667 19 59z" />
    <glyph glyph-name="Ksmall" unicode="&#xf76b;" horiz-adv-x="550" 
d="M421 0l-261 272l248 270h110l-252 -262l274 -280h-119zM70 0v542h90v-542h-90z" />
    <glyph glyph-name="Lsmall" unicode="&#xf76c;" horiz-adv-x="459" 
d="M70 0v542h90v-462h284v-80h-374z" />
    <glyph glyph-name="Msmall" unicode="&#xf76d;" horiz-adv-x="669" 
d="M156 541l178 -265l178 265h87v-541h-86v406l-160 -236h-39l-157 236v-406h-87v541h86z" />
    <glyph glyph-name="Nsmall" unicode="&#xf76e;" horiz-adv-x="592" 
d="M160 392v-392h-90v542h87l275 -393v393h90v-542h-87z" />
    <glyph glyph-name="Osmall" unicode="&#xf76f;" horiz-adv-x="659" 
d="M40 271c0 80.667 26.333 148 79 202s122.667 81 210 81c88 0 158.333 -27 211 -81s79 -121.333 79 -202c0 -81.333 -26.333 -148.833 -79 -202.5s-123 -80.5 -211 -80.5c-87.333 0 -157.333 26.833 -210 80.5s-79 121.167 -79 202.5zM130 271
c0 -56.667 18.833 -104 56.5 -142s85.167 -57 142.5 -57c58.667 0 106.667 19 144 57s56 85.333 56 142c0 56 -18.833 103 -56.5 141s-85.5 57 -143.5 57c-57.333 0 -104.833 -19 -142.5 -57s-56.5 -85 -56.5 -141z" />
    <glyph glyph-name="Psmall" unicode="&#xf770;" horiz-adv-x="504" 
d="M161 199l0.000976562 -198.999h-91v542h206c60 0 108 -16.167 144 -48.5s54 -73.5 54 -123.5c0 -48.667 -18.833 -89.334 -56.5 -122.001s-84.834 -49 -141.501 -49h-115zM279.001 462.001l-118 -0.000976562v-182h118c32.667 0 58 8.33301 76 25s27 38.334 27 65.001
c0 28 -9 50.333 -27 67s-43.333 25 -76 25z" />
    <glyph glyph-name="Qsmall" unicode="&#xf771;" horiz-adv-x="659" 
d="M40 271c0 80.667 26.334 148 79.001 202s122.667 81 210 81c88 0 158.333 -27 211 -81s79 -121.333 79 -202c0 -67.333 -18.333 -125.333 -55 -174l90 -75l-58 -63l-94 78c-48.667 -32.667 -106.334 -49 -173.001 -49c-87.333 0 -157.333 26.833 -210 80.5
s-79 121.167 -79 202.5zM130.001 271c0 -56.667 18.833 -104 56.5 -142s85.167 -57 142.5 -57c38 0 72 8.33301 102 25l-87 74l58 63l93 -78c22.667 32.667 34 71 34 115c0 56 -18.833 103 -56.5 141s-85.5 57 -143.5 57c-57.333 0 -104.833 -19 -142.5 -57
s-56.5 -85 -56.5 -141z" />
    <glyph glyph-name="Rsmall" unicode="&#xf772;" horiz-adv-x="528" 
d="M161 199v-199h-91v542h215c58.667 0 105.167 -16.167 139.5 -48.5s51.5 -73.5 51.5 -123.5c0 -39.333 -12.333 -73.833 -37 -103.5s-57.667 -49.167 -99 -58.5l153 -208h-103l-147 199h-82zM281 462l-120 -0.000976562v-182h120c32.667 0 58.167 8.33301 76.5 25
s27.5 38.334 27.5 65.001c0 28 -9 50.333 -27 67s-43.667 25 -77 25z" />
    <glyph glyph-name="Ssmall" unicode="&#xf773;" horiz-adv-x="483" 
d="M362 154c0 18 -7.66797 33.0029 -23.001 45.0029s-34.5 20.833 -57.5 26.5s-47.833 12.834 -74.5 21.501s-51.5 18.167 -74.5 28.5s-42.167 26.5 -57.5 48.5s-23 49 -23 81c0 43.333 18 78.833 54 106.5s81.333 41.5 136 41.5c66 0 129 -24.667 189 -74
c-2.66699 -4 -9.66699 -13.167 -21 -27.5l-26 -33.5c-48 39.333 -96.333 59 -145 59c-27.333 0 -51.5 -6.33301 -72.5 -19s-31.5 -30.334 -31.5 -53.001c0 -20.667 10.833 -37.334 32.5 -50.001s48 -22.834 79 -30.501s62 -16.667 93 -27s57.333 -27.5 79 -51.5
s32.5 -54.667 32.5 -92c0 -46.667 -19.5 -86 -58.5 -118s-89.167 -48 -150.5 -48c-78.667 0 -148.667 25.667 -210 77l24 31c10.667 14 18.334 24.667 23.001 32c50.667 -40.667 105.667 -61 165 -61c32 0 59.667 8.16699 83 24.5s35 37.166 35 62.499z" />
    <glyph glyph-name="Tsmall" unicode="&#xf774;" horiz-adv-x="474" 
d="M454 542v-80h-172v-462h-91v462h-171v80h434z" />
    <glyph glyph-name="Usmall" unicode="&#xf775;" horiz-adv-x="572" 
d="M286 -12c-68.667 0 -123 19.833 -163 59.5s-60 89.834 -60 150.501v344h90v-347c0 -34 12.333 -63.333 37 -88s56.667 -37 96 -37s71.333 12.333 96 37s37 54 37 88v347h90v-344c0 -60.667 -20 -110.834 -60 -150.501s-94.333 -59.5 -163 -59.5z" />
    <glyph glyph-name="Vsmall" unicode="&#xf776;" 
d="M229 0l-215 542h93l172 -433l172 433h93l-217 -542h-98z" />
    <glyph glyph-name="Wsmall" unicode="&#xf777;" horiz-adv-x="806" 
d="M446 542l127 -402l125 402h94l-172 -542h-92l-124 396l-126 -396h-92l-172 542h94l126 -402l127 402h85z" />
    </font>
</defs>
</svg>
