<svg width="21" height="21" viewBox="0 0 21 21" fill="none" xmlns="http://www.w3.org/2000/svg">
<path fill-rule="evenodd" clip-rule="evenodd" d="M14.5338 0C17.9342 0 20.7007 2.76643 20.7007 6.16684V14.5338C20.7007 17.9342 17.9342 20.7007 14.5338 20.7007H6.16684C2.76643 20.7007 0 17.9342 0 14.5338V6.16684C0 2.76643 2.76643 0 6.16684 0H14.5338ZM14.5338 2.08249H6.16684C3.91113 2.08249 2.08249 3.91109 2.08249 6.16684V14.5338C2.08249 16.7895 3.91113 18.6182 6.16684 18.6182H14.5338C16.7895 18.6182 18.6182 16.7895 18.6182 14.5338V6.16684C18.6182 3.91109 16.7895 2.08249 14.5338 2.08249ZM10.3503 4.99671C13.3023 4.99671 15.7039 7.39831 15.7039 10.3503C15.7039 13.3023 13.3023 15.7039 10.3503 15.7039C7.39834 15.7039 4.99671 13.3023 4.99671 10.3503C4.99671 7.39835 7.39834 4.99671 10.3503 4.99671ZM10.3503 7.07908C8.54369 7.07908 7.07908 8.54366 7.07908 10.3503C7.07908 12.157 8.54365 13.6216 10.3503 13.6216C12.157 13.6216 13.6216 12.157 13.6216 10.3503C13.6216 8.54366 12.157 7.07908 10.3503 7.07908ZM16.0609 4.28289C16.6522 4.28289 17.1316 4.76227 17.1316 5.35362C17.1316 5.94496 16.6522 6.42434 16.0609 6.42434C15.4695 6.42434 14.9901 5.94496 14.9901 5.35362C14.9901 4.76227 15.4695 4.28289 16.0609 4.28289Z" fill="white"/>
</svg>
