<svg width="21" height="14" viewBox="0 0 21 14" fill="none" xmlns="http://www.w3.org/2000/svg">
<path d="M10.8363 4.04706e-05C12.1998 0.00676451 17.2962 0.0560742 18.7155 0.417678C19.6149 0.643212 20.3242 1.30341 20.5663 2.14095C20.9562 3.46679 20.9952 6.03871 20.9987 6.70099L20.9985 6.94992C20.9946 7.47765 20.9557 10.1851 20.5664 11.5621C20.3242 12.3995 19.6151 13.0598 18.7155 13.2852C17.2589 13.6422 11.9292 13.6827 10.7367 13.6873L10.2617 13.6873C9.07212 13.6825 3.75417 13.6404 2.28238 13.2692C1.38276 13.0437 0.673646 12.3834 0.431399 11.546C0.0566315 10.2339 0.00666253 7.66399 0 7.00199V6.68566C0.00666253 6.02661 0.0566315 3.46679 0.431399 2.14095C0.673486 1.30355 1.40007 0.627102 2.28222 0.401718C3.70147 0.0538977 8.79774 0.00646773 10.1612 0L10.8363 4.04706e-05ZM8.40585 3.91241V9.7745L13.8719 6.84345L8.40585 3.91241Z" fill="white"/>
</svg>
