
<svg xmlns="http://www.w3.org/2000/svg">

<symbol id="forbes" >
<path  d="M56.9606 0.115703L56.9604 0.0564575C56.939 0.0581718 56.9198 0.0593113 56.9021 0.0603635C56.8669 0.0624494 56.8375 0.0641922 56.8085 0.06939L56.4982 0.12355L56.4979 0.123605C56.0248 0.206137 55.5517 0.288679 55.0792 0.374056C54.7286 0.437471 54.3783 0.502391 54.028 0.567312L54.0278 0.567347L54.0275 0.56739C53.6951 0.628988 53.3627 0.690587 53.0301 0.750903C52.6264 0.824054 52.2224 0.895987 51.8184 0.967925C51.445 1.03441 51.0716 1.10089 50.6984 1.16835C50.2755 1.24474 49.8529 1.32294 49.4319 1.40745C49.3898 1.41587 49.3293 1.47272 49.3263 1.51121C49.3143 1.6655 49.3128 1.8222 49.3266 1.97618C49.3305 2.0213 49.3928 2.08957 49.4376 2.09799C49.5462 2.11853 49.6561 2.13281 49.7659 2.14709C49.8844 2.16249 50.0028 2.17789 50.1197 2.20115C50.6541 2.30732 51.0936 2.55935 51.3456 3.06582C51.6202 3.61711 51.733 4.2102 51.7573 4.81953C51.7895 5.61984 51.8166 6.42045 51.8295 7.22137C51.8466 8.30349 51.8578 9.38591 51.8548 10.468C51.846 13.5899 51.8316 16.7114 51.8136 19.833C51.8106 20.3702 51.7977 20.9074 51.7848 21.4445C51.7783 21.7133 51.7719 21.982 51.7666 22.2507C51.7621 22.4827 51.758 22.7148 51.7539 22.9469L51.7539 22.9476L51.7539 22.9483L51.7539 22.949L51.7538 22.9497C51.7472 23.3277 51.7405 23.7058 51.7318 24.0839C51.7294 24.1882 51.7495 24.2436 51.8698 24.2649C52.2373 24.3298 52.6042 24.398 52.9712 24.4661L52.9713 24.4662C53.5426 24.5723 54.1138 24.6783 54.687 24.7723C55.2078 24.8578 55.7354 24.9064 56.2615 24.9549L56.3264 24.9609C56.5319 24.9799 56.7383 24.9876 56.9447 24.9953L56.9448 24.9953L56.9449 24.9953L56.945 24.9953L56.9451 24.9953C57.1041 25.0012 57.2631 25.0072 57.4218 25.0183C58.2046 25.073 58.9875 25.0415 59.7607 24.9395C60.3875 24.8568 61.0083 24.7052 61.6212 24.5443C62.4134 24.3362 63.15 23.987 63.8426 23.5506C64.6369 23.0505 65.3262 22.4324 65.9058 21.6913C66.5464 20.8718 67.0108 19.9596 67.3311 18.9746C67.5744 18.2263 67.7163 17.4564 67.8048 16.6726C67.9539 15.3499 67.8875 14.0437 67.5645 12.7538C67.3954 12.0789 67.1491 11.4298 66.818 10.816C66.4556 10.1444 66.0123 9.53208 65.464 8.99763C65.036 8.58048 64.5641 8.22439 64.0411 7.93386C63.374 7.56333 62.6639 7.32302 61.9087 7.22077C61.0074 7.09836 60.1114 7.15099 59.22 7.32453C58.484 7.46769 57.786 7.71641 57.124 8.06679L57.1084 8.07504C56.9835 8.14113 56.9205 8.17441 56.8894 8.15546C56.8578 8.13624 56.859 8.0633 56.8613 7.91637L56.8615 7.90799C56.8615 7.90544 56.8613 7.90296 56.8612 7.90048L56.861 7.89755L56.8609 7.89296C56.8628 7.43827 56.8641 6.98356 56.8654 6.52883V6.52877V6.52871V6.52864V6.52858C56.8685 5.41993 56.8716 4.31122 56.884 3.20267C56.8916 2.52215 56.9123 1.84178 56.933 1.16145L56.933 1.16047L56.933 1.16026C56.9425 0.849664 56.9519 0.539077 56.9601 0.22849C56.9611 0.192092 56.9609 0.155693 56.9606 0.115703ZM62.5418 15.728L62.5 15.731C62.5214 16.6961 62.4336 17.6552 62.2477 18.599C62.1169 19.263 61.9343 19.9211 61.7181 20.5629C61.4462 21.3707 61.0477 22.1223 60.4681 22.7587C59.8723 23.4132 59.1592 23.8354 58.2365 23.7927C57.8816 23.7762 57.5273 23.7548 57.1727 23.7332C57.0263 23.7242 56.9637 23.6571 56.9604 23.4953C56.9507 23.0172 56.9359 22.5391 56.921 22.061L56.921 22.0599C56.9079 21.6373 56.8948 21.2147 56.8852 20.7921C56.8642 19.8706 56.8491 18.9491 56.8419 18.0275C56.8287 16.2991 56.8166 14.5703 56.8163 12.8419C56.8163 12.2106 56.8243 11.5793 56.8322 10.948C56.8382 10.4724 56.8441 9.99687 56.8467 9.52125C56.8476 9.37749 56.8738 9.30711 57.0287 9.25869C57.5129 9.10681 57.9986 8.97658 58.5099 8.96605C59.4422 8.94711 60.2098 9.30741 60.8368 9.98231C61.3704 10.5565 61.7084 11.2431 61.9608 11.9769C62.1632 12.5649 62.3118 13.1673 62.3776 13.7851C62.4257 14.2357 62.4605 14.6877 62.4954 15.1399L62.4954 15.14L62.4954 15.1401L62.4954 15.1402L62.4954 15.1404L62.4955 15.1406L62.4955 15.1409L62.4955 15.1412L62.4955 15.1415C62.5106 15.337 62.5257 15.5325 62.5418 15.728ZM15.9115 8.83675V8.53569C15.6642 8.53569 15.4354 8.53569 15.2071 8.53659C14.895 8.53659 14.8948 8.53747 14.837 8.83853L14.8344 8.85209C14.6976 9.56338 14.4771 10.244 14.0486 10.8392C13.7406 11.2669 13.3484 11.5805 12.8347 11.7439C12.5399 11.8374 12.2415 11.8482 11.9415 11.8591C11.8877 11.861 11.8339 11.8629 11.78 11.8654C11.5613 11.8753 11.3425 11.8851 11.1238 11.8948L11.1237 11.8948L11.1236 11.8948L11.1236 11.8948L11.1235 11.8948C10.5566 11.92 9.98971 11.9452 9.42294 11.9745C9.2867 11.9818 9.25693 11.9375 9.25873 11.8061C9.2685 11.1448 9.27554 10.4836 9.28258 9.82236C9.28899 9.22109 9.29539 8.61986 9.30384 8.01869C9.31226 7.40274 9.33091 6.7868 9.35076 6.17115C9.36716 5.65971 9.38449 5.14827 9.40181 4.63684L9.40187 4.63527C9.42743 3.88075 9.453 3.12622 9.47558 2.3717C9.47949 2.23967 9.50806 2.19275 9.65122 2.19335C10.9445 2.19906 12.2377 2.19786 13.531 2.19575C14.0594 2.19485 14.577 2.25952 15.0883 2.39636C15.8122 2.59005 16.4486 2.93682 17.005 3.43698C17.7428 4.09984 18.2625 4.9188 18.6691 5.80964C18.855 6.21707 19.0147 6.63647 19.1743 7.05572C19.2279 7.19663 19.2815 7.33752 19.3362 7.47793C19.365 7.55252 19.3843 7.58681 19.4721 7.55854C19.781 7.45899 20.0917 7.36425 20.4035 7.27342C20.4862 7.24936 20.5121 7.20635 20.5082 7.12364C20.4968 6.88875 20.4896 6.65326 20.4844 6.41807L20.4753 6.00151C20.4607 5.33936 20.4461 4.67704 20.4354 4.01473C20.4174 2.89742 20.4008 1.78011 20.3918 0.662801C20.3906 0.519642 20.3464 0.489566 20.2123 0.489566C15.0333 0.491929 9.85433 0.49225 4.67537 0.49257L0.43816 0.492874C0.392388 0.492874 0.34675 0.496992 0.296566 0.50152H0.296565H0.296565C0.271236 0.503805 0.244749 0.506195 0.216502 0.508213C0.216502 0.590345 0.217297 0.671443 0.218085 0.751791V0.751793V0.751794V0.751796V0.751797V0.751798C0.219951 0.942134 0.221775 1.12826 0.212893 1.31394C0.205374 1.46762 0.252593 1.52056 0.408385 1.53229C0.777412 1.56026 1.14704 1.59424 1.51186 1.65349C2.24179 1.77259 2.79879 2.14312 3.14045 2.81591C3.40722 3.34224 3.54587 3.90826 3.60301 4.48481C3.69565 5.42076 3.75429 6.36093 3.79881 7.30079C3.84242 8.21629 3.86557 9.1336 3.87069 10.05C3.87851 11.4127 3.87189 12.7761 3.85354 14.1388C3.83843 15.2714 3.80587 16.4039 3.7733 17.5362L3.76602 17.7897C3.76278 17.9032 3.75977 18.0168 3.75676 18.1305C3.73277 19.0372 3.70878 19.9442 3.56151 20.8435C3.47339 21.3804 3.35279 21.9049 3.09143 22.3852C2.83007 22.8655 2.45322 23.2183 1.90825 23.3503C1.72048 23.3959 1.52984 23.4299 1.33925 23.4638L1.33895 23.4639C1.23934 23.4816 1.13975 23.4994 1.04057 23.5188C0.851379 23.5559 0.66233 23.5943 0.471317 23.6332L0.216803 23.6848C0.216803 23.7507 0.216599 23.8156 0.216397 23.8799C0.21575 24.0856 0.215126 24.2838 0.221314 24.4818C0.222518 24.5146 0.280263 24.557 0.320564 24.5735C0.347732 24.5848 0.380743 24.5824 0.413675 24.58L0.413717 24.58C0.427435 24.579 0.441139 24.578 0.4544 24.578H12.9054C12.9204 24.578 12.9355 24.5777 12.9506 24.5773H12.9506C12.9808 24.5766 13.0109 24.5758 13.0407 24.578C13.1268 24.5843 13.1562 24.5428 13.1553 24.4616C13.1545 24.3835 13.1546 24.3055 13.1548 24.2274V24.2273C13.155 24.0799 13.1553 23.9325 13.149 23.7852C13.1475 23.7446 13.0931 23.6785 13.0543 23.6712C12.9562 23.653 12.8582 23.6337 12.7601 23.6144C12.4459 23.5526 12.1314 23.4908 11.814 23.4628C10.9382 23.3855 10.3063 22.987 9.95167 22.169C9.66325 21.5037 9.54445 20.7975 9.48761 20.0856C9.41031 19.1223 9.36791 18.156 9.33362 17.1902C9.30545 16.3975 9.29124 15.6044 9.27703 14.8114C9.27213 14.5375 9.26722 14.2637 9.26174 13.9899C9.25847 13.8182 9.25936 13.6463 9.26027 13.4712V13.4712V13.4712V13.4712V13.4712V13.4711V13.471V13.4709V13.4708C9.2607 13.3882 9.26114 13.3049 9.26114 13.2206L9.31713 13.2203H9.31722H9.31723H9.31725H9.31725C9.34997 13.2201 9.376 13.2199 9.40189 13.2209C9.62755 13.2292 9.85322 13.237 10.0789 13.2448C10.639 13.264 11.1991 13.2833 11.7589 13.312L11.7602 13.3121L11.7602 13.3121C12.0985 13.3295 12.4442 13.3473 12.7695 13.4314C13.469 13.6122 13.94 14.0898 14.278 14.7117C14.5848 15.2765 14.7547 15.8871 14.8784 16.512C14.9015 16.6299 14.9529 16.6546 15.0588 16.6519C15.228 16.6474 15.3974 16.649 15.5669 16.6507L15.7054 16.6519L15.7081 16.6519C15.9112 16.6531 15.9115 16.6531 15.9115 16.4456V8.83675ZM17.9825 16.0091C17.9846 15.1808 18.0847 14.366 18.2739 13.5651C18.4694 12.7368 18.7626 11.9437 19.1816 11.1961C19.5729 10.498 20.0436 9.86492 20.6144 9.30672C21.2141 8.72024 21.892 8.24384 22.6451 7.8691C23.3074 7.53977 24.0006 7.30308 24.72 7.14969C25.071 7.07471 25.4298 7.03362 25.788 6.9926L25.788 6.9926C25.8579 6.98459 25.9278 6.97659 25.9976 6.96834C26.8897 6.86247 27.779 6.91961 28.6626 7.05556C29.9868 7.25947 31.2154 7.71181 32.2948 8.52204C33.1276 9.14701 33.7968 9.91755 34.3048 10.8285C34.6868 11.5137 34.9659 12.2367 35.1644 12.9958C35.3938 13.8728 35.515 14.7636 35.5159 15.6665C35.5165 16.2852 35.4856 16.9074 35.4134 17.5216C35.3129 18.3781 35.0723 19.2031 34.7268 19.9968C34.3896 20.7718 33.9553 21.4861 33.4109 22.1307C33.0209 22.5923 32.5764 23.0001 32.0903 23.3592C31.5255 23.7764 30.9147 24.1135 30.2605 24.3713C29.6353 24.6176 28.9907 24.7917 28.3273 24.8994C27.6181 25.0146 26.9032 25.0621 26.1871 25.0312C25.3922 24.9966 24.6054 24.8988 23.8325 24.6847C22.8376 24.4092 21.9233 23.9794 21.1106 23.3442C20.4379 22.8182 19.8775 22.1896 19.4231 21.4624C19.0204 20.8182 18.7133 20.1336 18.4887 19.4109C18.3013 18.8082 18.1663 18.1923 18.1019 17.5643C18.0658 17.2096 18.0414 16.8537 18.0171 16.4978L18.0171 16.4977L18.0171 16.4976L18.017 16.4976C18.0059 16.3347 17.9948 16.1718 17.9825 16.0091ZM30.1533 15.2974L30.1532 15.2965C30.1293 14.9455 30.1051 14.5887 30.0873 14.2316C30.0467 13.4096 29.9237 12.5988 29.7327 11.8009C29.5038 10.8448 29.1941 9.91875 28.5838 9.12235C28.1913 8.61016 27.7101 8.23091 27.0665 8.09978C26.2647 7.93647 25.5537 8.13557 24.9654 8.7028C24.5366 9.11634 24.2776 9.64416 24.0764 10.1973C23.8638 10.7813 23.7293 11.3858 23.6307 11.9994C23.4947 12.8463 23.4198 13.6987 23.3973 14.5549C23.3795 15.2253 23.3795 15.8963 23.3829 16.567C23.3877 17.5498 23.4809 18.5258 23.655 19.493C23.7889 20.2362 23.975 20.9649 24.2659 21.666C24.4644 22.1451 24.7026 22.5986 25.034 22.9962C25.7474 23.8516 26.6235 24.1078 27.6674 23.7761C28.3113 23.5716 28.7519 23.1015 29.0795 22.5265C29.5625 21.678 29.7841 20.7445 29.9213 19.7911C30.0085 19.1826 30.065 18.5682 30.1035 17.9544C30.1347 17.4548 30.1492 16.9541 30.164 16.4468L30.164 16.4467L30.164 16.4466L30.164 16.4464L30.164 16.4462L30.164 16.4461L30.164 16.4459C30.1705 16.223 30.1771 15.9988 30.185 15.773C30.175 15.616 30.1642 15.4573 30.1533 15.2974ZM84.7383 21.4134C84.7037 21.3718 84.669 21.3301 84.6342 21.288C84.5484 21.3429 84.4643 21.3969 84.3811 21.4504L84.3795 21.4515L84.3791 21.4517C84.2543 21.532 84.1316 21.6109 84.0084 21.6892C83.3341 22.1147 82.6017 22.3845 81.8092 22.4699C81.2781 22.5271 80.7467 22.549 80.2083 22.5144C79.3821 22.4612 78.5965 22.2747 77.8597 21.9069C76.7358 21.346 75.9448 20.4582 75.4076 19.3324C75.1171 18.724 74.9288 18.0834 74.8046 17.4235C74.6705 16.7126 74.6286 15.9934 74.6455 15.2704C74.6473 15.182 74.6807 15.1589 74.7622 15.1616C74.8618 15.165 74.9615 15.1643 75.0613 15.1636C75.1019 15.1633 75.1426 15.1631 75.1833 15.1631H85.1064C85.303 15.1631 85.303 15.1625 85.3034 14.986L85.3034 14.9682C85.3055 14.2449 85.2306 13.5303 85.0956 12.8199C84.95 12.055 84.7254 11.3167 84.387 10.6156C84.0682 9.95487 83.6619 9.35546 83.1488 8.82493C82.5804 8.23725 81.9193 7.78853 81.1725 7.47454C80.5869 7.22852 79.9704 7.08416 79.337 6.99724C78.4799 6.87964 77.6278 6.90671 76.777 7.0219C76.0837 7.11573 75.4007 7.26551 74.7556 7.54672L74.7218 7.56146C74.3675 7.71596 74.0116 7.87117 73.674 8.0583C72.8229 8.53019 72.0969 9.15516 71.4788 9.90885C71.0337 10.4514 70.6487 11.0352 70.3618 11.6716C70.1287 12.1886 69.9501 12.7324 69.7753 13.2734C69.5323 14.0253 69.4427 14.8085 69.3973 15.5928C69.3413 16.5571 69.4385 17.5129 69.6553 18.4548C69.8526 19.312 70.1642 20.1267 70.6069 20.8867C71.0957 21.7262 71.7074 22.4624 72.4632 23.0814C73.342 23.8014 74.3249 24.3145 75.4088 24.6402C76.1406 24.86 76.8897 24.9785 77.6522 25.0212C78.3902 25.0624 79.1226 25.0164 79.851 24.8934C80.4495 24.7924 81.0315 24.6261 81.5951 24.4071C82.1587 24.1881 82.6986 23.9142 83.2029 23.5776C83.8962 23.1154 84.5221 22.5785 85.0201 21.9045C85.0421 21.8747 85.0586 21.8095 85.0421 21.7881C84.9447 21.6615 84.8423 21.5383 84.7386 21.4137L84.7383 21.4134ZM80.0454 13.7427C80.0429 13.7668 80.0403 13.7925 80.0381 13.8205C79.9753 13.8205 79.9139 13.8202 79.8534 13.8198H79.8533H79.8532C79.7287 13.8192 79.6079 13.8186 79.4871 13.8208C78.0648 13.8473 76.6425 13.8746 75.2202 13.9032C75.0699 13.9062 74.9198 13.9155 74.7697 13.9255C74.681 13.9315 74.6359 13.9023 74.6476 13.8067C74.6675 13.6445 74.6859 13.4821 74.7042 13.3197L74.7043 13.3192V13.3192V13.3191C74.7455 12.9553 74.7867 12.5916 74.8443 12.2304C74.9047 11.8514 74.9947 11.4755 75.0984 11.1059C75.306 10.3663 75.5923 9.65893 76.0548 9.03636C76.4359 8.52357 76.9075 8.13349 77.5658 8.0559C78.1108 7.99184 78.5656 8.18883 78.9265 8.60388C79.2374 8.96147 79.429 9.38343 79.5704 9.82705C79.8408 10.6755 79.971 11.5498 80.008 12.4385C80.0242 12.8289 80.0399 13.219 80.0534 13.6094C80.0548 13.6516 80.0504 13.694 80.0454 13.7427ZM99.0027 9.26937L99.0183 10.0235C99.0305 10.6166 99.0418 11.164 99.0535 11.7112C99.0568 11.8613 99.0613 12.0114 99.0707 12.1611C99.0764 12.2532 99.0541 12.304 98.9516 12.329C98.8533 12.3528 98.7566 12.3836 98.66 12.4144L98.6599 12.4144C98.5709 12.4428 98.4819 12.4712 98.3916 12.4941C98.3567 12.5028 98.2785 12.4598 98.2668 12.4249C98.0111 11.676 97.7056 10.9488 97.2974 10.2697C96.834 9.49855 96.249 8.8417 95.4039 8.48169C95.0869 8.34665 94.7383 8.26124 94.3961 8.21673C94.0535 8.17222 93.6947 8.1662 93.353 8.21492C92.532 8.33192 91.9578 8.81162 91.6225 9.5584C91.3419 10.1834 91.3055 10.8402 91.5211 11.4926C91.6628 11.9211 91.9684 12.2436 92.31 12.5284C92.7112 12.8628 93.1621 13.1215 93.6318 13.3419C94.2413 13.6278 94.8593 13.8962 95.4766 14.1643L95.477 14.1645L95.5338 14.1891C95.7137 14.2673 95.8959 14.3403 96.0781 14.4133C96.3636 14.5276 96.6489 14.6419 96.9248 14.7759C97.7501 15.1768 98.5194 15.6665 99.1035 16.3925C99.615 17.0286 99.8785 17.7669 99.9654 18.5775C100.034 19.2121 100.001 19.8415 99.865 20.4587C99.6674 21.355 99.2704 22.1571 98.6442 22.8416C98.0932 23.444 97.4376 23.8927 96.7028 24.2368C95.9537 24.5875 95.1648 24.7986 94.3491 24.9147C93.5139 25.0335 92.6745 25.0744 91.8324 25.0052C91.7564 24.999 91.6804 24.9929 91.6044 24.9869C91.5612 24.9834 91.518 24.98 91.4748 24.9766L91.4746 24.9766C90.9655 24.9364 90.4561 24.8961 89.9503 24.8296C89.4108 24.7586 88.8721 24.6609 88.3437 24.5324C87.9696 24.4415 87.6016 24.3263 87.2336 24.2111C87.0634 24.1578 86.8932 24.1045 86.7223 24.0536C86.6201 24.0233 86.5957 23.9607 86.5936 23.8548C86.5684 22.5892 86.5381 21.3235 86.5078 20.0581L86.5078 20.057L86.5031 19.859C86.497 19.6043 86.4883 19.3495 86.4772 19.0948C86.4733 19.0064 86.4974 18.9609 86.5939 18.9402C86.7641 18.9038 86.9322 18.8539 87.0974 18.7976C87.2213 18.7555 87.2778 18.7781 87.328 18.9116C87.6396 19.7402 88.0056 20.5435 88.4992 21.2828C88.8592 21.822 89.2841 22.3053 89.8105 22.6867C90.6014 23.2602 91.5013 23.4855 92.467 23.4512C93.2141 23.4248 93.8902 23.1959 94.4349 22.6599C94.8475 22.2539 95.0851 21.761 95.1696 21.1847C95.2261 20.7998 95.2036 20.4244 95.0986 20.0563C94.9308 19.4674 94.5197 19.0665 94.0267 18.7372C93.3197 18.265 92.5344 17.9588 91.7461 17.656C91.5975 17.5989 91.4484 17.5427 91.2993 17.4866C90.7284 17.2715 90.157 17.0562 89.6114 16.7892C88.7485 16.3669 87.9897 15.7916 87.4769 14.9482C87.2492 14.5741 87.0823 14.1741 86.9777 13.7479C86.7987 13.0183 86.778 12.2793 86.901 11.5431C86.9774 11.0856 87.1337 10.6465 87.3449 10.2273C87.695 9.53133 88.1825 8.94937 88.7864 8.46575C89.2556 8.08981 89.7653 7.77341 90.3323 7.56469L90.3911 7.54301C90.7837 7.39814 91.1787 7.25243 91.5837 7.15446C91.9262 7.07153 92.2796 7.03047 92.6319 6.98954L92.6321 6.98951C92.6924 6.98251 92.7527 6.9755 92.8129 6.96829C93.6333 6.86964 94.452 6.9313 95.2715 6.99897C96.1272 7.06934 96.9684 7.21431 97.7943 7.44348C98.1071 7.53033 98.4136 7.6413 98.7195 7.75204L98.7196 7.75207L98.8568 7.80168C98.901 7.81762 98.9504 7.89131 98.9528 7.94063C98.9714 8.32564 98.9841 8.71083 98.9948 9.03214L99.0027 9.26937ZM43.218 10.8364C43.2534 9.54105 43.2889 8.2457 43.3253 6.92598C43.1669 6.95756 43.012 6.9886 42.8595 7.01916C42.5253 7.08611 42.2028 7.15073 41.8805 7.2135C41.5954 7.26869 41.3101 7.32263 41.0248 7.37657C40.6819 7.4414 40.339 7.50623 39.9966 7.57321C39.5869 7.65336 39.1775 7.73502 38.768 7.81669C38.3587 7.89834 37.9493 7.97999 37.5397 8.06013C36.963 8.1728 36.3851 8.28106 35.8075 8.38926L35.7872 8.39307C35.7081 8.40781 35.6608 8.43638 35.6642 8.52781C35.6693 8.67307 35.6699 8.81864 35.6648 8.9636C35.6614 9.05173 35.6957 9.08691 35.7823 9.09774C35.9169 9.11456 36.0511 9.13421 36.1852 9.15386C36.2982 9.17041 36.4112 9.18695 36.5243 9.2018C37.0783 9.27428 37.5273 9.50887 37.7761 10.0334C37.9469 10.394 38.0272 10.7826 38.0564 11.1784C38.063 11.2692 38.0699 11.3601 38.0767 11.451C38.116 11.9742 38.1554 12.498 38.1661 13.022C38.1905 14.2235 38.2062 15.426 38.1953 16.6275C38.185 17.756 38.155 18.8846 38.1251 20.0132C38.1183 20.2666 38.1116 20.52 38.1051 20.7734C38.0889 21.4098 38.0579 22.0465 37.7914 22.6411C37.5481 23.184 37.1201 23.4781 36.5357 23.5578C36.3425 23.584 36.1497 23.6132 35.9556 23.6425C35.8627 23.6565 35.7695 23.6706 35.6759 23.6844V24.5786H35.893C37.5946 24.5786 39.2961 24.5786 40.9976 24.5787C42.6992 24.5788 44.4007 24.5789 46.1022 24.5789C46.1145 24.5789 46.1269 24.5794 46.1394 24.58C46.1728 24.5815 46.2064 24.583 46.2367 24.5738C46.2667 24.5647 46.3094 24.5283 46.31 24.5037C46.3141 24.2868 46.3138 24.0699 46.3135 23.854C46.3134 23.7978 46.3133 23.7417 46.3133 23.6856C46.1865 23.6747 46.062 23.6635 45.939 23.6525C45.6615 23.6276 45.3921 23.6034 45.1223 23.5849C44.7482 23.559 44.3855 23.4985 44.0703 23.2796C43.676 23.0056 43.5052 22.5885 43.4387 22.1442C43.3425 21.5027 43.2679 20.8543 43.239 20.2065C43.1852 19.0056 43.1494 17.8028 43.1467 16.601C43.1439 15.4535 43.1655 14.306 43.1872 13.1586C43.1933 12.8332 43.1994 12.5079 43.205 12.1826C43.2062 12.1125 43.248 12.0286 43.2974 11.976C43.6198 11.6313 44.0417 11.4647 44.4835 11.3432C45.0896 11.1763 45.7073 11.1519 46.3296 11.2235C46.8294 11.2809 47.3128 11.4066 47.7711 11.6142C47.9642 11.7016 48.1529 11.7985 48.3438 11.8965C48.4301 11.9407 48.5167 11.9852 48.6045 12.0292C48.6089 12.023 48.6138 12.0169 48.6187 12.0109C48.6292 11.9979 48.6397 11.985 48.6454 11.9703C48.7736 11.6424 48.9014 11.3143 49.0292 10.9861C49.1223 10.7468 49.2155 10.5075 49.3089 10.2683C49.4769 9.83757 49.6454 9.407 49.8139 8.97637C49.8837 8.79809 49.9534 8.6198 50.0232 8.44149C50.0614 8.34383 50.0998 8.24629 50.1383 8.14876C50.2189 7.94443 50.2995 7.74012 50.3775 7.53471C50.4109 7.44659 50.4346 7.3723 50.3074 7.30493C49.4647 6.85921 48.5675 6.78553 47.6508 6.93711C47.0827 7.03094 46.5491 7.2502 46.0505 7.54915C44.9798 8.19096 44.2102 9.10947 43.6104 10.1853C43.5278 10.3334 43.4507 10.4846 43.3736 10.6358C43.3382 10.7054 43.3027 10.775 43.2667 10.8442L43.218 10.8364Z" />
</symbol>

<symbol id="kommersant" >
<path fill-rule="evenodd" clip-rule="evenodd" d="M127.311 2.18721C127.311 1.59571 126.985 1.08022 126.502 0.811532C126.509 0.851254 126.508 0.89999 126.486 0.964375C126.453 1.06241 126.396 1.15754 126.364 1.20877C126.28 1.3434 126.198 1.46188 126.1 1.58628C126.014 1.69331 125.917 1.78845 125.818 1.88381L125.818 1.88384C125.734 1.96585 125.649 2.04802 125.572 2.13803C125.316 2.43655 125.171 2.89758 125.25 3.28682C125.271 3.38626 125.318 3.51217 125.413 3.56479C125.977 3.87806 126.391 2.53459 126.2 2.13803C126.173 2.0868 126.121 1.99458 126.05 2.00781C125.696 2.07367 125.533 3.22387 125.753 3.30727C125.743 3.4434 125.527 3.5268 125.464 3.27509C125.443 3.18728 125.439 3.09505 125.442 3.00433C125.453 2.6209 125.759 2.04139 126.11 1.86436C126.27 1.78236 126.495 1.78387 126.584 1.96681C126.89 2.59914 126.097 3.75172 125.377 3.71742C125.494 3.74523 125.615 3.75998 125.739 3.76001C126.602 3.76033 127.311 3.05018 127.311 2.18721ZM126.337 0.824654C126.362 0.79974 126.386 0.776302 126.404 0.761573C126.202 0.666883 125.977 0.613976 125.739 0.613976C124.876 0.614083 124.166 1.32435 124.166 2.1871C124.166 2.81246 124.539 3.35745 125.073 3.61016C124.899 3.4737 124.836 3.22851 124.857 2.9926C124.879 2.72636 124.99 2.47314 125.144 2.25651C125.307 2.02666 125.52 1.8826 125.72 1.74759C125.899 1.62647 126.067 1.51265 126.179 1.35071C126.179 1.35071 126.188 1.33758 126.19 1.33027C126.194 1.3195 126.181 1.30681 126.165 1.3195C126.139 1.34297 126.003 1.41324 125.908 1.42486C125.716 1.44681 125.612 1.18488 125.58 1.04003L125.578 1.03228C125.572 1.00421 125.568 0.986351 125.54 1.02389C125.497 1.08072 125.458 1.25959 125.419 1.43776C125.375 1.64043 125.331 1.84221 125.28 1.86242L124.908 2.01029C124.908 2.01029 124.892 2.01782 124.886 1.99565C124.853 1.87017 125.087 1.4986 125.239 1.2584L125.239 1.25832C125.278 1.19593 125.312 1.14241 125.334 1.10438C125.339 1.09699 125.351 1.07476 125.365 1.04741L125.366 1.04696C125.397 0.987994 125.442 0.905598 125.453 0.896577C125.48 0.873224 125.65 0.829317 125.685 0.835128L125.685 0.835559C125.733 1.28636 126.096 1.03023 126.252 0.904325C126.279 0.882848 126.309 0.85281 126.337 0.824654ZM123.9 2.1871C123.9 1.17756 124.729 0.347412 125.739 0.347412C126.753 0.347412 127.577 1.17207 127.578 2.18667C127.578 3.196 126.748 4.02625 125.739 4.02657C124.73 4.0269 123.9 3.19664 123.9 2.1871ZM9.28934 13.7386H14.4068L9.11786 5.53792L13.8221 0.659824H8.8048L5.13678 4.88104V0.659824H0.858887V13.7386H5.13678V9.60008L6.15512 8.54018L9.28934 13.7386ZM19.7134 7.26601C19.9943 7.7463 20.1346 8.28857 20.1346 8.88659C20.1346 9.55284 20.0126 10.1602 19.7684 10.7086C19.5242 11.257 19.1183 11.5297 18.5505 11.5297C17.9614 11.5297 17.5219 11.2478 17.2382 10.6839C16.9511 10.123 16.8077 9.52184 16.8077 8.88659C16.8077 8.29481 16.942 7.75555 17.2106 7.26913C17.4792 6.78572 17.879 6.54402 18.4071 6.54402C18.9992 6.54402 19.4327 6.78572 19.7134 7.26601ZM18.5663 14.0344C20.3583 14.0344 22.0908 13.3327 23.1017 11.8333C23.9119 10.6311 24.0729 8.66049 23.6219 7.26095C23.2089 5.97915 22.2604 4.90084 20.9854 4.37675C19.6219 3.81414 18.0848 3.72891 16.6646 4.12321C15.3753 4.46812 14.2508 5.31699 13.6373 6.4914C12.8398 8.01738 12.9609 10.3494 13.9076 11.7796C14.9397 13.3386 16.7196 14.0344 18.5663 14.0344ZM55.5958 6.63194C55.8993 6.87257 56.1195 7.30432 56.2533 7.9272H52.7307C52.8706 7.29022 53.0729 6.85492 53.3407 6.62129C53.6084 6.38432 53.9714 6.26745 54.4296 6.26745C54.9026 6.26745 55.2894 6.38776 55.5958 6.63194ZM52.7677 9.77431H59.9128C59.9573 9.05372 59.8877 8.37897 59.7045 7.67473C59.3333 6.27477 58.4403 5.16557 57.131 4.51493C55.6555 3.77895 53.5189 3.73633 51.9929 4.36481C50.7381 4.88384 49.7704 5.8626 49.3004 7.12816C48.8473 8.34808 48.8537 9.69048 49.3212 10.9007C49.8302 12.1424 50.7649 13.1046 52.0167 13.625C53.0927 14.0744 54.4369 14.1133 55.5988 13.9705C56.5047 13.867 57.4222 13.5741 58.1694 13.0483C58.91 12.5255 59.4853 11.7299 59.6242 10.8282H55.9648C55.839 11.4637 55.1645 11.6992 54.5796 11.6992C53.7832 11.6992 53.2269 11.237 52.9194 10.5523C52.8183 10.3271 52.7677 10.0687 52.7677 9.77431ZM66.596 14.0294C68.161 14.0294 69.4594 13.1921 70.1624 11.8515C70.8232 10.6012 70.947 8.68288 70.59 7.28334C70.2081 5.77758 69.1354 4.43788 67.5425 4.04045C66.0805 3.6723 64.2685 4.20252 63.5363 5.6619V4.24094H60.161V16.9851H63.973V12.8841C64.7326 13.664 65.472 14.0294 66.596 14.0294ZM66.6536 7.43669C66.924 7.9103 67.0575 8.35002 67.0575 8.75283C67.0575 9.28671 66.9302 9.82543 66.7296 10.3181C66.508 10.8285 66.095 11.0838 65.4815 11.0838C64.8531 11.0838 64.4339 10.8378 64.2185 10.3457C64.0059 9.85373 63.8996 9.32179 63.8996 8.75283C63.8996 8.28846 64.0362 7.83648 64.3096 7.39364C64.5828 6.94779 64.9745 6.72643 65.4815 6.72643C65.9917 6.72643 66.3834 6.96318 66.6536 7.43669ZM74.0174 13.614C75.4921 14.2279 77.5054 14.1482 78.9866 13.6293C80.6493 13.0467 81.6018 11.6531 81.6412 10.0595H77.8718L77.8698 10.0657C77.6221 10.8598 77.4232 11.4977 76.4738 11.4977C75.8024 11.4977 75.1112 10.958 74.9012 10.3214C74.5827 9.35569 74.666 8.05429 75.1695 7.17325C75.5642 6.48279 76.8008 6.14089 77.3471 6.84061C77.54 7.08748 77.672 7.37685 77.7406 7.84498H81.6412C81.4519 6.32309 80.7308 5.29041 79.3534 4.54055C77.908 3.75377 75.6469 3.73117 74.1247 4.35211C72.7946 4.8946 71.8733 5.67772 71.3405 7.0425C71.1106 7.64945 70.9738 8.28868 70.9738 8.93922C70.9738 9.91594 71.2378 10.8754 71.7459 11.7083C72.2657 12.5754 73.0888 13.2276 74.0174 13.614ZM88.5466 9.57146C88.5786 9.68198 88.5945 9.82715 88.5945 10.004C88.5945 10.5912 88.3744 11.0899 87.9405 11.5036C87.4846 11.9607 86.5753 11.9876 86.0331 11.6613C85.5644 11.3543 85.5355 10.5942 86.0714 10.3292C86.4494 10.122 86.899 10.0275 87.3217 9.95026C87.8768 9.84297 88.2851 9.71663 88.5466 9.57146ZM88.9337 13.7386H92.8356V13.4439C92.4532 13.1946 92.2605 12.8116 92.2605 12.2949V7.27354C92.1982 6.53186 92.0643 5.92727 91.8662 5.46195C91.667 4.99414 91.24 4.74329 90.5855 4.43196C89.9297 4.1202 88.946 3.96394 87.6327 3.96394C87.0931 3.96394 86.607 3.98353 86.1682 4.01861C85.7325 4.05337 85.3492 4.10029 85.0268 4.16755C84.359 4.30691 83.8379 4.51719 83.4585 4.78763C83.079 5.05817 82.8015 5.38392 82.6254 5.76327C82.5119 6.00779 82.4804 6.24539 82.4402 6.54932C82.4178 6.71836 82.3927 6.90793 82.3492 7.13063H85.9636C86.0347 6.78723 86.1859 6.55618 86.4201 6.44071C86.6543 6.32524 87.1371 6.26745 87.5255 6.26745C87.8486 6.26745 88.0977 6.32825 88.2725 6.44986C88.4475 6.57135 88.5334 6.72029 88.5334 6.89969C88.5334 6.91459 88.5336 6.92946 88.5338 6.94429C88.5353 7.0594 88.5369 7.17193 88.445 7.27957C88.3412 7.40118 88.1308 7.59402 87.9524 7.6531C87.7051 7.73489 87.1915 7.81088 86.6249 7.8947C86.5272 7.90915 86.428 7.92384 86.3283 7.93882L84.7303 8.17891C84.5476 8.20636 84.3557 8.26159 84.1532 8.31983L84.1462 8.32183C83.9392 8.38134 83.7282 8.45258 83.5147 8.53458C83.0642 8.70773 82.8144 8.87335 82.5593 9.16811C82.1119 9.68488 81.7864 10.2614 81.7864 10.9606C81.7864 11.5137 81.9138 12.0548 82.1688 12.5897C82.4535 13.0761 82.8655 13.4378 83.411 13.6688C83.9565 13.8999 84.5584 14.0153 85.2165 14.0153C85.5811 14.0153 85.931 13.9849 86.2601 13.9271C86.5891 13.8664 86.9107 13.771 87.2235 13.6505C87.8653 13.4033 88.5008 13.1004 88.7855 12.7327L88.9337 13.7386ZM99.6746 13.7386H103.439L103.435 13.5685L103.439 4.24611H99.6326V7.42679H96.8869V4.24611H93.1592L93.1556 4.38902L93.1592 13.7386H96.8869V10.189H99.6746V13.7386ZM110.656 7.04379H113.897V4.24611H103.612V7.04379H106.881V13.7386H110.656V7.04379ZM125.088 12.7898C125.726 12.2673 126.123 11.5348 126.123 10.701C126.123 9.83156 125.685 9.06739 125.026 8.52102C124.149 7.79419 122.923 7.57777 121.817 7.57777H119.829V4.24611H114.02V7.04379H116.197V13.7386H122.023C123.089 13.7386 124.249 13.4841 125.088 12.7898ZM121.469 9.79099C122.039 9.85933 122.371 10.1109 122.371 10.7107C122.371 11.3783 121.986 11.5359 121.407 11.5789C121.243 11.5917 121.031 11.6025 120.773 11.5971L119.829 11.5789V9.74557C119.991 9.74557 120.445 9.75161 120.785 9.76678C121.124 9.78131 121.353 9.79099 121.469 9.79099ZM29.345 13.7385H31.1745L33.1735 7.3973L32.8648 9.88279V13.7385H36.2031V4.19133H31.9218L30.2598 9.46502L28.5978 4.19133H24.3165V13.7385H27.6547V9.88279L27.346 7.3973L29.345 13.7385ZM41.8462 13.7385H43.6757L45.6747 7.3973L45.3659 9.88279V13.7385H48.7041V4.19133H44.4229L42.7609 9.46502L41.0989 4.19133H36.8176V13.7385H40.1559V9.88279L39.8471 7.3973L41.8462 13.7385Z" />
</symbol>

<symbol id="rbk" >
<path fill-rule="evenodd" clip-rule="evenodd" d="M0.324707 0.631104V19.8538L19.541 0.631104H0.324707ZM1.69731 21.2269H20.9135V2.00417L1.69731 21.2269ZM35.1296 7.34295C35.1296 9.38799 33.9418 10.4825 31.7075 10.4825H29.3883V4.17425H31.7075C33.8851 4.17425 35.1296 5.03835 35.1296 7.22741V7.34295ZM31.8206 0.631104H24.8352V21.2268H29.3883V13.7376H31.9619C36.5721 13.7376 39.5415 11.6635 39.5415 7.31382V7.19894C39.5415 2.84896 36.7415 0.631104 31.8206 0.631104ZM48.6058 17.6837C50.7979 17.6837 51.908 16.7044 51.908 14.8318V14.717C51.908 12.8732 50.7979 11.8651 48.4949 11.8651H45.9419V17.6837H48.6058ZM48.7724 21.2268H41.5024V0.631104H54.433V4.26066H45.9699L45.9419 8.58117H48.911C53.4895 8.58117 56.2087 10.6265 56.2087 14.7454V14.861C56.2087 18.8934 53.6837 21.2268 48.7724 21.2268ZM64.2984 0.659867H59.5176V21.2268H64.2984V11.9932L71.5875 21.2268H77.1652L68.4004 10.3825L76.752 0.631104H71.6761L64.2984 9.51958V0.659867Z" />
</symbol>

<symbol id="vedomosti" >
<path fill-rule="evenodd" clip-rule="evenodd" d="M92.7862 7.67929H93.2381L93.033 0.890137H92.6214L91.2649 2.4947C90.2363 1.54838 89.1274 1.3016 88.3867 1.3016C84.6462 1.3016 82.0966 5.58043 82.0966 10.8061C82.0966 15.1673 84.152 20.3504 88.3867 20.3504C91.9227 20.3504 93.0738 16.3198 93.4437 13.2746L93.033 13.151C92.7042 15.5785 91.7989 18.7461 89.4968 18.7461C87.4414 18.7461 87.4006 15.6198 87.4006 14.7971V6.36281C87.4006 5.08737 87.4822 2.41285 89.2915 2.41285C90.9361 2.41285 92.3746 4.7172 92.7862 7.67929ZM44.0292 3.64724C44.0292 2.49519 44.3993 2.00163 45.016 2.00163C45.5917 2.00163 46.0026 2.49543 46.0026 3.64724V18.0485C46.0026 19.1585 45.5917 19.6528 45.016 19.6528C44.3993 19.6528 44.0292 19.1583 44.0292 18.0485V3.64724ZM38.6846 10.8474C38.6846 15.3735 40.8224 20.3509 45.0158 20.3509C49.2087 20.3509 51.3054 15.3735 51.3054 10.8474C51.3054 6.28046 49.2087 1.30209 45.0158 1.30209C40.8224 1.30209 38.6846 6.28046 38.6846 10.8474ZM15.7851 2.37157H14.5109V1.67204H25.8578V8.21392H25.4466C24.9112 2.41262 22.034 2.37133 21.1297 2.37133H20.8008V10.3946H21.0472C22.6917 10.3946 23.3497 8.3378 23.2674 6.48597H23.7196V14.9205H23.2674C23.3497 13.0689 22.6917 11.0529 21.0472 11.0529H20.8008V19.2819C24.254 19.3645 25.4464 16.1546 25.7342 12.9047H26.1862V19.9406H14.5105V19.2819H15.7851V2.37157ZM6.57651 10.0658V2.37159H7.23423L7.28353 2.37141C7.78021 2.36877 8.54993 2.36468 8.54993 4.59334V7.80272C8.54993 10.0676 7.75492 10.0665 7.25968 10.0658L7.23423 10.0658H6.57651ZM1.5193 19.2822H0.286379V19.9409H9.24842C11.4277 19.9409 13.6889 19.1583 13.6889 15.62C13.6889 13.193 12.8254 10.8887 9.45399 10.5593V10.2713C11.0988 10.1484 13.4011 9.36623 13.4011 5.95162C13.4011 2.08376 10.3996 1.67229 9.41346 1.67229H0.286133V2.37183H1.5193V19.2822ZM6.57651 19.2822V10.724H7.23423L7.25969 10.724C7.75516 10.7233 8.54993 10.7222 8.54993 12.9871V17.0181C8.54993 19.2839 7.75445 19.2829 7.25924 19.2822L7.23423 19.2822H6.57651ZM32.2722 19.2822V2.37182H31.4087C31.0388 2.37182 30.5864 2.41311 30.5864 3.85324V9.40751C30.5864 13.9331 30.4218 17.1017 28.9421 19.2822H32.2722ZM28.4486 2.37182V1.67228V1.67204H38.5623V2.37157H37.3292V19.2822H38.8914V22.9435H38.4803C38.398 20.2292 37.4114 19.9411 35.2322 19.9411H30.8745C28.6957 19.9411 27.7086 20.2292 27.6266 22.9435H27.2155V19.2824H27.4623C29.0654 19.2824 30.0932 16.8139 30.0932 9.40775V4.05872C30.0932 2.45441 29.5175 2.37182 29.1064 2.37182H28.4486ZM53.4856 3.77065H53.5267L57.0619 19.9409H57.7606L61.3373 3.85324H61.4194V19.2822H60.1862V19.9409H67.71V19.2822H66.4763V2.37157H67.71V1.67204H61.3786L59.7343 9.11943H59.6518L58.0487 1.67204H51.7176V2.37157H52.9922V17.0181C52.9922 19.0344 52.2517 19.3225 51.7176 19.2822V19.9409H55.0887V19.2822H54.7598C54.1844 19.2822 53.4856 19.0767 53.4856 17.0181V3.77065ZM73.6292 3.64724C73.6292 2.49519 74.0399 2.00163 74.6156 2.00163C75.2325 2.00163 75.6019 2.49543 75.6019 3.64724V18.0485C75.6019 19.1585 75.2325 19.6528 74.6156 19.6528C74.0399 19.6528 73.6292 19.1583 73.6292 18.0485V3.64724ZM68.3254 10.8474C68.3254 15.3735 70.4221 20.3509 74.6156 20.3509C78.808 20.3509 80.9465 15.3735 80.9465 10.8474C80.9465 6.28046 78.808 1.30209 74.6156 1.30209C70.4221 1.30209 68.3254 6.28046 68.3254 10.8474ZM97.9267 2.37159L97.9245 2.37178V2.37159H97.925H97.9267ZM97.9245 2.37178C95.5824 2.57962 94.7606 6.24007 94.5966 8.21418H94.185V1.67229H106.724V8.21418H106.272C106.107 6.23969 105.284 2.57732 102.981 2.37159V19.2822H104.462V19.9409H96.4035V19.2822H97.9245V2.37178ZM113.96 14.4272H113.879V2.37159H114.495V1.67229H107.586V2.37159H108.822V19.2822H107.586V19.9409H114.495V19.2822H113.879V17.2659L115.77 6.48623H115.851V19.2822H115.234V19.9409H122.141V19.2822H120.908V2.37159H122.141V1.67229H115.234V2.37159H115.851V3.60598L113.96 14.4272Z" />
</symbol>

<symbol id="vcru" >
<path d="M37.9371 20.2567C41.3703 20.2567 43.955 18.8375 45.8607 16.3669L43.3137 14.4388C42.6845 15.2615 41.8714 15.9279 40.9384 16.3857C40.0054 16.8434 38.978 17.0799 37.9371 17.0765C34.2111 17.0765 31.5112 14.0647 31.5112 10.3691C31.5112 6.67345 34.1671 3.49203 38.0434 3.49203C39.7664 3.49203 40.9843 3.89565 42.0466 4.54865V7.7982H45.2518V3.06013L44.6377 2.58064C42.8758 1.20522 40.1849 0.475098 37.9358 0.475098C32.4375 0.475098 27.9653 4.91243 27.9653 10.3678C27.9653 15.8181 32.4349 20.2567 37.9358 20.2567H37.9371ZM44.5872 39.7695L44.4732 35.2152V24.1014H37.7882V27.2828H41.097V34.8232C41.097 38.0715 38.5966 40.3711 36.0741 40.3711C33.5517 40.3711 32.2354 38.6358 32.2354 35.3888V24.1001H25.9909V27.2815H28.8592V35.9402C28.8592 40.3467 31.3493 43.3829 35.7904 43.3829C38.3426 43.3829 40.286 41.9779 41.4455 39.8119H41.4973L41.9546 42.8404H47.0915V39.7734H44.5911V39.767L44.5872 39.7695ZM27.2269 0.941719H21.656L16.8107 14.9015H16.7355L11.9161 0.941719H5.97988V4.12443H9.31851L15.0643 20.0356H18.1166V20.0317L24.1085 4.12573H27.2243V0.943013L27.2269 0.941719ZM0.766602 42.8816H4.06766V39.6076H0.767897V42.8816H0.766602ZM13.5148 27.7906H13.4785L13.2712 24.1014H7.37907V27.0013H10.5143V39.7708H7.37907V42.8391H21.941V39.8312H13.8335V32.1251C14.2001 29.3357 16.308 26.9538 19.1841 26.9538H19.2359L19.1776 29.8049H22.3828V24.0487H19.8487C16.9467 24.0409 14.7935 25.5989 13.5135 27.7919L13.5148 27.7906Z" />
</symbol>

<symbol id="republic" >
<path d="M106.259 18.5712C106.259 18.5712 105.856 19.0135 105.318 19.3238C104.331 19.8994 103.3 20.209 102.18 20.3417C101.821 20.3859 101.507 20.3859 101.149 20.3859C96.8901 20.3859 94.6937 17.731 94.6937 14.1017C94.6937 9.0122 98.9522 7.81741 101.731 7.81741C102.538 7.81741 103.344 7.95008 104.151 8.30387C105.362 8.8353 106.124 9.94089 106.124 11.0922C106.124 12.2435 105.451 13.0838 104.151 13.0838C103.389 13.0838 102.852 12.7742 102.583 12.1543C102.448 11.8448 102.448 11.5344 102.404 11.2249C102.359 10.9153 102.359 10.605 102.224 10.2954C102.045 9.764 101.552 9.45443 101.059 9.49866C100.701 9.49866 100.386 9.63133 100.118 9.94089C99.7592 10.3389 99.6249 10.8703 99.6249 11.401C99.5353 13.1272 99.7145 14.8527 100.611 16.402C101.329 17.6853 102.584 18.4378 103.883 18.4378C104.242 18.4378 104.646 18.3936 105.004 18.2609C105.407 18.1282 105.766 17.9513 106.125 17.7295L106.259 18.5705V18.5712ZM29.2493 17.5976C29.2493 17.5976 29.3837 18.3059 29.4285 18.4386C29.3837 18.527 29.1149 18.7481 29.0701 18.7923C27.9943 19.6333 25.7531 20.3409 24.4085 20.3409C20.15 20.3409 17.5952 18.1282 17.5952 14.0567C17.5952 10.0293 20.8675 7.81666 24.0502 7.81666C26.8297 7.81666 29.1605 9.23256 29.1605 12.4631C29.1605 12.7285 29.1605 12.7285 29.1605 12.9054L23.0191 15.3834L23.1983 15.7814C23.5119 16.4897 23.9158 17.1531 24.6325 17.6845C25.7531 18.5255 27.5016 18.5697 28.891 17.8172C28.9806 17.773 29.0701 17.6845 29.2493 17.5961V17.5976ZM22.66 14.1901C23.0632 14.0132 24.1838 13.526 24.2734 13.4818C24.7213 13.2607 24.9012 13.0838 24.946 12.7292C24.9908 12.4197 24.946 11.4902 24.946 11.2691C24.8565 10.1185 24.4533 9.49866 23.915 9.49866C22.436 9.49866 22.1665 11.4902 22.66 14.1893V14.1901ZM90.7495 6.13617C92.2285 6.13617 93.3939 4.98561 93.3939 3.52548C93.3939 2.06536 92.1837 0.914795 90.7495 0.914795C89.2706 0.914795 88.1052 2.06536 88.1052 3.52548C88.1052 4.98561 89.2706 6.13617 90.7495 6.13617ZM18.4015 19.0142V19.8994H11.9018C10.6468 17.731 9.5262 15.6952 8.2712 13.571C8.2264 13.571 8.13681 13.5267 8.09202 13.5267C8.09202 14.8542 8.09202 16.7131 8.09202 17.3772C8.09202 18.572 8.49517 19.0142 9.70537 19.0142C9.75017 19.0142 9.83976 19.0142 9.88455 19.0142V19.8994H0.785246V19.0584C1.09881 19.0142 1.36833 19.0142 1.68189 18.97C2.21942 18.8373 2.57853 18.4386 2.62333 17.8636C2.62333 17.731 2.62333 8.56996 2.62333 7.59704C2.62333 7.3317 2.53374 7.11059 2.35456 6.93294C1.90662 6.49071 1.14436 5.73816 0.741211 5.34015C0.875594 5.29592 1.00998 5.2517 1.14436 5.16325L7.77846 2.46412V4.45568C7.77846 4.45568 8.00243 4.01344 8.45113 3.57046C9.03422 3.03977 9.9749 2.64101 11.1851 2.64101C12.8432 2.64101 14.4574 3.52623 15.3092 4.80946C15.9819 5.82735 16.3402 6.97792 16.3402 8.12848C16.3402 12.0231 12.9336 13.7044 10.0645 13.7044C9.9749 13.7044 9.88531 13.7044 9.79572 13.7044L9.75093 13.8371C10.558 14.1024 11.5442 14.1908 12.3505 14.1908C13.1128 14.1908 13.9191 14.1024 14.4126 14.014L16.7882 18.2182C17.2809 19.1034 18.1776 19.015 18.4015 19.015V19.0142ZM7.95764 8.43729C7.95764 10.5615 7.95764 12.2428 9.34702 12.2428C10.7364 12.2428 10.7364 10.5165 10.7364 8.43654C10.7364 6.31231 10.602 4.63107 9.34702 4.63107C8.09202 4.63107 7.95764 6.31306 7.95764 8.43654V8.43729ZM85.1905 18.97C84.5178 18.9258 84.1595 18.572 84.1595 17.9521C84.1595 17.8194 84.1595 17.6425 84.1595 17.5099V2.10958L77.3014 4.89791C77.3014 4.89791 78.1085 5.73891 78.5564 6.13692C78.6908 6.26959 78.7804 6.44648 78.8252 6.6676C78.8252 10.1193 78.8252 14.1466 78.8252 17.5541C78.8252 17.6868 78.8252 17.8636 78.7804 17.9963C78.6908 18.6162 78.3772 18.8815 77.7493 18.9258C77.5702 18.9258 77.391 18.9258 77.211 18.9258V19.811H85.728V18.9258C85.5489 18.97 85.3697 18.97 85.1897 18.97H85.1905ZM93.9762 18.97C93.3484 18.9258 92.99 18.572 92.9452 17.9521C92.9452 17.8194 92.9452 13.2172 92.9452 13.2172V7.68549L86.1319 10.4738C86.1319 10.4738 86.939 11.3148 87.3869 11.7128C87.5661 11.8897 87.6557 12.1108 87.6557 12.4654C87.6557 12.4654 87.6557 17.6433 87.6557 17.776C87.6557 18.6169 87.2526 19.015 86.5799 19.015C86.4007 19.015 86.2215 19.015 86.0416 19.015V19.9002H94.5586V19.015C94.3346 18.9707 94.1554 18.9707 93.9755 18.9707L93.9762 18.97ZM61.0753 18.97C60.3578 18.9258 59.9994 18.572 59.9546 17.8636C59.9546 17.731 59.9546 7.64127 59.9546 7.64127L53.0966 10.4296C53.0966 10.4296 53.9036 11.2706 54.3516 11.6686C54.4859 11.8013 54.5755 11.9782 54.6203 12.2C54.6203 13.041 54.6203 15.9613 54.6203 16.5812C54.6203 17.2895 54.082 17.776 53.3653 17.776C52.7375 17.776 52.1999 17.2895 52.1999 16.5812C52.1999 16.4043 52.1999 7.59779 52.1999 7.59779L45.3418 10.3861C45.3418 10.3861 46.1489 11.2271 46.5968 11.6251C46.776 11.802 46.8656 12.0231 46.8656 12.2892C46.8656 12.3335 46.8656 16.803 46.8656 16.803C46.8656 18.5293 47.8966 19.8125 49.51 20.122C49.9579 20.2105 50.3618 20.2547 50.765 20.2547C52.244 20.2547 53.499 19.6791 54.5748 18.4843C54.6196 18.3958 54.7092 18.3516 54.754 18.2632C54.7987 18.2632 54.8435 18.3074 54.8435 18.3074V19.8117H61.4776V18.9265C61.3881 18.9707 61.2089 18.9707 61.0745 18.9707L61.0753 18.97ZM43.9517 10.0301C44.6244 11.048 44.9379 12.3312 44.9827 13.7029C44.9827 15.4291 44.4444 17.1988 43.2342 18.4378C42.1584 19.4999 40.5451 20.3851 38.1239 20.3851C37.6312 20.3851 37.1377 20.2967 36.6001 20.164C36.6001 20.164 36.6001 22.3325 36.6001 22.8189C36.6001 23.6599 36.9585 24.0137 37.8103 24.0579C37.9447 24.0579 38.0791 24.0579 38.2135 24.0579V24.9432H29.6965V24.1022C29.9205 24.1022 30.1445 24.0579 30.414 24.0579C30.9523 23.9695 31.3106 23.6599 31.3106 23.1285C31.3106 22.9958 31.3106 15.9148 31.3106 12.4631C31.3106 12.1536 31.221 11.9317 31.0419 11.7106C30.5939 11.3126 29.7869 10.4716 29.7869 10.4716L36.421 7.77244V9.67555L36.5105 9.71977C36.5105 9.71977 36.7793 9.23332 37.0936 8.923C37.9903 8.12623 38.8869 7.90511 39.8732 7.90511C41.4417 7.81666 43.1006 8.70188 43.9525 10.0293L43.9517 10.0301ZM39.3797 14.3228C39.3797 11.8448 39.2453 9.80897 37.9903 9.80897C36.7353 9.80897 36.6009 11.8448 36.6009 14.3228C36.6009 16.8008 36.6009 18.8366 37.9903 18.8366C39.3797 18.8366 39.3797 16.8008 39.3797 14.3228ZM75.4193 9.72052C76.3159 10.8711 76.6743 12.1543 76.6743 13.6594C76.6743 15.6952 76.0912 17.4207 74.4778 18.7931C73.4468 19.6783 71.8783 20.3417 69.637 20.3417C68.5612 20.3417 67.4854 20.1648 66.4544 19.6333C65.9616 19.368 65.5129 19.1019 65.0202 18.7481C64.6618 19.0577 63.7652 19.8545 63.7652 19.8545H63.0029V6.84375C63.0029 6.53418 62.9133 6.31306 62.7342 6.0912C62.2862 5.69318 61.4792 4.85219 61.4792 4.85219L68.3372 2.06386V9.32176L68.4268 9.36599C68.4268 9.36599 69.3235 7.77319 71.6543 7.77319C73.1333 7.81741 74.5234 8.52574 75.4193 9.72052ZM71.116 14.3228C71.116 11.8448 70.9816 9.80897 69.7266 9.80897C68.4716 9.80897 68.3372 11.8448 68.3372 14.3228C68.3372 16.8008 68.3372 18.8366 69.7266 18.8366C71.116 18.7923 71.116 16.8008 71.116 14.3228Z" />
</symbol>
</svg>







